<svg width="1000" height="183" viewBox="0 0 1000 183" fill="none" xmlns="http://www.w3.org/2000/svg">
<rect width="1000" height="183" fill="#D9D9D9"/>
<rect width="49" height="183" fill="#3F3F3F"/>
<rect x="951" width="49" height="183" fill="#3F3F3F"/>
<rect x="49" y="167" width="902" height="16" fill="#3F3F3F"/>
<rect x="329" y="102" width="343" height="65" fill="black"/>
<rect x="329" y="102" width="343" height="32.5" fill="#272727"/>
<circle cx="645.5" cy="153.5" r="9.5" fill="#3F3F3F"/>
<rect x="579" y="149" width="25" height="10" fill="#666666"/>
<rect x="539" y="149" width="25" height="10" fill="#666666"/>
<path d="M591.759 122V113.273H597.639V114.794H593.604V116.873H597.337V118.395H593.604V120.479H597.656V122H591.759Z" fill="white"/>
<path d="M603.841 115.783C603.806 115.439 603.66 115.172 603.402 114.981C603.143 114.791 602.792 114.696 602.349 114.696C602.048 114.696 601.794 114.739 601.586 114.824C601.379 114.906 601.22 115.021 601.109 115.169C601.001 115.317 600.947 115.484 600.947 115.672C600.941 115.828 600.974 115.964 601.045 116.081C601.119 116.197 601.22 116.298 601.348 116.383C601.476 116.466 601.623 116.538 601.791 116.601C601.958 116.66 602.137 116.712 602.328 116.754L603.112 116.942C603.493 117.027 603.842 117.141 604.16 117.283C604.478 117.425 604.754 117.599 604.987 117.807C605.22 118.014 605.4 118.258 605.528 118.54C605.659 118.821 605.726 119.143 605.728 119.507C605.726 120.041 605.589 120.504 605.319 120.896C605.052 121.285 604.666 121.588 604.16 121.804C603.657 122.017 603.051 122.123 602.341 122.123C601.636 122.123 601.022 122.016 600.5 121.8C599.98 121.584 599.574 121.264 599.281 120.841C598.991 120.415 598.839 119.888 598.825 119.26H600.61C600.63 119.552 600.714 119.797 600.862 119.993C601.012 120.186 601.213 120.332 601.463 120.432C601.716 120.528 602.001 120.577 602.319 120.577C602.632 120.577 602.903 120.531 603.133 120.44C603.366 120.349 603.547 120.223 603.674 120.061C603.802 119.899 603.866 119.713 603.866 119.503C603.866 119.307 603.808 119.142 603.691 119.008C603.578 118.875 603.41 118.761 603.189 118.668C602.97 118.574 602.701 118.489 602.383 118.412L601.433 118.173C600.697 117.994 600.116 117.714 599.69 117.334C599.264 116.953 599.052 116.44 599.055 115.795C599.052 115.267 599.193 114.805 599.477 114.41C599.764 114.016 600.157 113.707 600.657 113.486C601.157 113.264 601.726 113.153 602.362 113.153C603.01 113.153 603.575 113.264 604.058 113.486C604.544 113.707 604.922 114.016 605.191 114.41C605.461 114.805 605.601 115.263 605.609 115.783H603.841Z" fill="white"/>
<path d="M606.969 122V113.273H608.815V120.479H612.556V122H606.969Z" fill="white"/>
<path d="M621.29 115.783C621.256 115.439 621.109 115.172 620.851 114.981C620.592 114.791 620.241 114.696 619.798 114.696C619.497 114.696 619.243 114.739 619.036 114.824C618.828 114.906 618.669 115.021 618.558 115.169C618.45 115.317 618.396 115.484 618.396 115.672C618.391 115.828 618.423 115.964 618.494 116.081C618.568 116.197 618.669 116.298 618.797 116.383C618.925 116.466 619.072 116.538 619.24 116.601C619.408 116.66 619.587 116.712 619.777 116.754L620.561 116.942C620.942 117.027 621.291 117.141 621.609 117.283C621.928 117.425 622.203 117.599 622.436 117.807C622.669 118.014 622.849 118.258 622.977 118.54C623.108 118.821 623.175 119.143 623.178 119.507C623.175 120.041 623.038 120.504 622.768 120.896C622.501 121.285 622.115 121.588 621.609 121.804C621.107 122.017 620.5 122.123 619.79 122.123C619.085 122.123 618.472 122.016 617.949 121.8C617.429 121.584 617.023 121.264 616.73 120.841C616.44 120.415 616.288 119.888 616.274 119.26H618.06C618.08 119.552 618.163 119.797 618.311 119.993C618.462 120.186 618.662 120.332 618.912 120.432C619.165 120.528 619.45 120.577 619.768 120.577C620.081 120.577 620.352 120.531 620.582 120.44C620.815 120.349 620.996 120.223 621.124 120.061C621.251 119.899 621.315 119.713 621.315 119.503C621.315 119.307 621.257 119.142 621.141 119.008C621.027 118.875 620.859 118.761 620.638 118.668C620.419 118.574 620.151 118.489 619.832 118.412L618.882 118.173C618.146 117.994 617.565 117.714 617.139 117.334C616.713 116.953 616.501 116.44 616.504 115.795C616.501 115.267 616.642 114.805 616.926 114.41C617.213 114.016 617.607 113.707 618.107 113.486C618.607 113.264 619.175 113.153 619.811 113.153C620.459 113.153 621.024 113.264 621.507 113.486C621.993 113.707 622.371 114.016 622.641 114.41C622.911 114.805 623.05 115.263 623.058 115.783H621.29Z" fill="white"/>
<path d="M624.419 122V113.273H630.299V114.794H626.264V116.873H629.997V118.395H626.264V120.479H630.316V122H624.419Z" fill="white"/>
<path d="M631.766 122V113.273H635.21C635.869 113.273 636.431 113.391 636.897 113.626C637.366 113.859 637.722 114.19 637.967 114.619C638.214 115.045 638.337 115.547 638.337 116.123C638.337 116.703 638.212 117.202 637.962 117.619C637.712 118.034 637.35 118.352 636.876 118.574C636.404 118.795 635.833 118.906 635.163 118.906H632.857V117.423H634.864C635.217 117.423 635.509 117.375 635.742 117.278C635.975 117.182 636.148 117.037 636.262 116.844C636.379 116.65 636.437 116.41 636.437 116.123C636.437 115.834 636.379 115.589 636.262 115.391C636.148 115.192 635.974 115.041 635.738 114.939C635.505 114.834 635.211 114.781 634.856 114.781H633.612V122H631.766ZM636.479 118.028L638.648 122H636.612L634.489 118.028H636.479Z" fill="white"/>
<path d="M640.984 113.273L643.093 119.903H643.174L645.288 113.273H647.333L644.325 122H641.947L638.934 113.273H640.984Z" fill="white"/>
<path d="M648.384 122V113.273H654.264V114.794H650.229V116.873H653.962V118.395H650.229V120.479H654.281V122H648.384Z" fill="white"/>
<path d="M655.731 122V113.273H659.174C659.833 113.273 660.396 113.391 660.862 113.626C661.331 113.859 661.687 114.19 661.931 114.619C662.179 115.045 662.302 115.547 662.302 116.123C662.302 116.703 662.177 117.202 661.927 117.619C661.677 118.034 661.315 118.352 660.841 118.574C660.369 118.795 659.798 118.906 659.128 118.906H656.822V117.423H658.829C659.181 117.423 659.474 117.375 659.707 117.278C659.94 117.182 660.113 117.037 660.227 116.844C660.343 116.65 660.402 116.41 660.402 116.123C660.402 115.834 660.343 115.589 660.227 115.391C660.113 115.192 659.939 115.041 659.703 114.939C659.47 114.834 659.176 114.781 658.821 114.781H657.576V122H655.731ZM660.444 118.028L662.613 122H660.576L658.454 118.028H660.444Z" fill="white"/>
</svg>
