<svg width="1000" height="92" viewBox="0 0 1000 92" fill="none" xmlns="http://www.w3.org/2000/svg">
<rect width="1000" height="92" fill="#3A3737"/>
<rect x="646" y="17" width="29" height="29" fill="#515151"/>
<rect x="679" y="17" width="29" height="29" fill="#515151"/>
<rect x="712" y="17" width="29" height="29" fill="#515151"/>
<rect x="745" y="17" width="29" height="29" fill="#515151"/>
<rect x="778" y="17" width="29" height="29" fill="#515151"/>
<rect x="811" y="17" width="29" height="29" fill="#515151"/>
<rect x="844" y="17" width="29" height="29" fill="#515151"/>
<rect x="877" y="17" width="29" height="29" fill="#515151"/>
<rect x="646" y="57" width="260" height="17" fill="white"/>
<rect x="93" y="17" width="29" height="29" fill="#515151"/>
<rect x="126" y="17" width="29" height="29" fill="#515151"/>
<rect x="159" y="17" width="29" height="29" fill="#515151"/>
<rect x="192" y="17" width="29" height="29" fill="#515151"/>
<rect x="225" y="17" width="29" height="29" fill="#515151"/>
<rect x="258" y="17" width="29" height="29" fill="#515151"/>
<rect x="291" y="17" width="29" height="29" fill="#515151"/>
<rect x="324" y="17" width="29" height="29" fill="#515151"/>
<rect x="93" y="57" width="260" height="17" fill="white"/>
<rect x="368" y="17" width="29" height="29" fill="#515151"/>
<rect x="401" y="17" width="29" height="29" fill="#515151"/>
<rect x="434" y="17" width="29" height="29" fill="#515151"/>
<rect x="467" y="17" width="29" height="29" fill="#515151"/>
<rect x="500" y="17" width="29" height="29" fill="#515151"/>
<rect x="533" y="17" width="29" height="29" fill="#515151"/>
<rect x="566" y="17" width="29" height="29" fill="#515151"/>
<rect x="599" y="17" width="29" height="29" fill="#515151"/>
<rect x="368" y="57" width="260" height="17" fill="white"/>
</svg>
