<svg width="1000" height="92" viewBox="0 0 1000 92" fill="none" xmlns="http://www.w3.org/2000/svg">
<rect width="1000" height="92" fill="#333739"/>
<path d="M103.5 22H72V81H103.5L115.5 73.5V28L103.5 22Z" fill="#282828" stroke="#3C3C3C"/>
<rect x="85" y="35" width="4" height="8" fill="#D9D9D9"/>
<rect x="85" y="60" width="4" height="8" fill="#D9D9D9"/>
<rect x="99" y="47" width="4" height="9" fill="#D9D9D9"/>
<path d="M188 26H138.376H131V52.8966L146.424 65H173.918L188 52.8966V26Z" stroke="#282828" stroke-width="5"/>
<path d="M148.5 35H144V46H148.5V35Z" fill="#282828"/>
<path d="M175 46V35H170V46H175Z" fill="#282828"/>
<path d="M161.5 47.5H157V55.5H161.5V47.5Z" fill="#282828"/>
<path d="M260 26H210.376H203V52.8966L218.424 65H245.918L260 52.8966V26Z" stroke="#282828" stroke-width="5"/>
<path d="M220.5 35H216V46H220.5V35Z" fill="#282828"/>
<path d="M247 46V35H242V46H247Z" fill="#282828"/>
<path d="M233.5 47.5H229V55.5H233.5V47.5Z" fill="#282828"/>
<path d="M332 26H282.376H275V52.8966L290.424 65H317.918L332 52.8966V26Z" stroke="#282828" stroke-width="5"/>
<path d="M292.5 35H288V46H292.5V35Z" fill="#282828"/>
<path d="M319 46V35H314V46H319Z" fill="#282828"/>
<path d="M305.5 47.5H301V55.5H305.5V47.5Z" fill="#282828"/>
<path d="M404 26H354.376H347V52.8966L362.424 65H389.918L404 52.8966V26Z" stroke="#282828" stroke-width="5"/>
<path d="M364.5 35H360V46H364.5V35Z" fill="#282828"/>
<path d="M391 46V35H386V46H391Z" fill="#282828"/>
<path d="M377.5 47.5H373V55.5H377.5V47.5Z" fill="#282828"/>
<path d="M476 26H426.376H419V52.8966L434.424 65H461.918L476 52.8966V26Z" stroke="#282828" stroke-width="5"/>
<path d="M436.5 35H432V46H436.5V35Z" fill="#282828"/>
<path d="M463 46V35H458V46H463Z" fill="#282828"/>
<path d="M449.5 47.5H445V55.5H449.5V47.5Z" fill="#282828"/>
<path d="M548 26H498.376H491V52.8966L506.424 65H533.918L548 52.8966V26Z" stroke="#282828" stroke-width="5"/>
<path d="M508.5 35H504V46H508.5V35Z" fill="#282828"/>
<path d="M535 46V35H530V46H535Z" fill="#282828"/>
<path d="M521.5 47.5H517V55.5H521.5V47.5Z" fill="#282828"/>
<path d="M620 26H570.376H563V52.8966L578.424 65H605.918L620 52.8966V26Z" stroke="#282828" stroke-width="5"/>
<path d="M580.5 35H576V46H580.5V35Z" fill="#282828"/>
<path d="M607 46V35H602V46H607Z" fill="#282828"/>
<path d="M593.5 47.5H589V55.5H593.5V47.5Z" fill="#282828"/>
<path d="M692 26H642.376H635V52.8966L650.424 65H677.918L692 52.8966V26Z" stroke="#282828" stroke-width="5"/>
<path d="M652.5 35H648V46H652.5V35Z" fill="#282828"/>
<path d="M679 46V35H674V46H679Z" fill="#282828"/>
<path d="M665.5 47.5H661V55.5H665.5V47.5Z" fill="#282828"/>
<path d="M855.729 18.1454L853.537 15.7636L853.537 11L836 11L836 15.7636L836 41.9633L839.288 41.9633L853.537 41.9633L853.537 37.1997L855.729 34.8179L857.921 34.8179L857.921 26.4817L857.921 18.1454L855.729 18.1454Z" fill="black" stroke="black"/>
<path d="M855.729 57.1454L853.537 54.7636L853.537 50L836 50L836 54.7636L836 80.9633L839.288 80.9633L853.537 80.9633L853.537 76.1997L855.729 73.8179L857.921 73.8179L857.921 65.4817L857.921 57.1454L855.729 57.1454Z" fill="black" stroke="black"/>
<path d="M887.759 52.9999V44.2726H891.202C891.864 44.2726 892.428 44.3991 892.893 44.6519C893.359 44.9019 893.715 45.2499 893.959 45.6959C894.206 46.1391 894.33 46.6505 894.33 47.23C894.33 47.8096 894.205 48.3209 893.955 48.7641C893.705 49.2073 893.342 49.5525 892.868 49.7996C892.396 50.0468 891.825 50.1704 891.155 50.1704H888.96V48.6917H890.857C891.212 48.6917 891.504 48.6306 891.734 48.5084C891.967 48.3834 892.141 48.2116 892.254 47.9928C892.371 47.7712 892.429 47.517 892.429 47.23C892.429 46.9403 892.371 46.6874 892.254 46.4715C892.141 46.2528 891.967 46.0837 891.734 45.9644C891.501 45.8422 891.206 45.7812 890.848 45.7812H889.604V52.9999H887.759Z" fill="white"/>
<path d="M903.548 48.6363C903.548 49.588 903.368 50.3976 903.007 51.0653C902.649 51.7329 902.16 52.2428 901.541 52.5951C900.924 52.9445 900.231 53.1192 899.461 53.1192C898.686 53.1192 897.99 52.9431 897.373 52.5908C896.757 52.2385 896.27 51.7286 895.912 51.061C895.554 50.3934 895.375 49.5851 895.375 48.6363C895.375 47.6846 895.554 46.8749 895.912 46.2073C896.27 45.5397 896.757 45.0312 897.373 44.6817C897.99 44.3295 898.686 44.1533 899.461 44.1533C900.231 44.1533 900.924 44.3295 901.541 44.6817C902.16 45.0312 902.649 45.5397 903.007 46.2073C903.368 46.8749 903.548 47.6846 903.548 48.6363ZM901.677 48.6363C901.677 48.0198 901.585 47.4999 901.4 47.0766C901.218 46.6533 900.961 46.3323 900.629 46.1135C900.297 45.8948 899.907 45.7854 899.461 45.7854C899.015 45.7854 898.626 45.8948 898.294 46.1135C897.961 46.3323 897.703 46.6533 897.518 47.0766C897.336 47.4999 897.245 48.0198 897.245 48.6363C897.245 49.2528 897.336 49.7726 897.518 50.1959C897.703 50.6192 897.961 50.9403 898.294 51.159C898.626 51.3778 899.015 51.4871 899.461 51.4871C899.907 51.4871 900.297 51.3778 900.629 51.159C900.961 50.9403 901.218 50.6192 901.4 50.1959C901.585 49.7726 901.677 49.2528 901.677 48.6363Z" fill="white"/>
<path d="M906.551 52.9999L904.054 44.2726H906.07L907.514 50.3366H907.587L909.18 44.2726H910.906L912.496 50.3493H912.572L914.017 44.2726H916.033L913.536 52.9999H911.737L910.075 47.2939H910.007L908.349 52.9999H906.551Z" fill="white"/>
<path d="M917.02 52.9999V44.2726H922.901V45.7939H918.865V47.8735H922.598V49.3948H918.865V51.4786H922.918V52.9999H917.02Z" fill="white"/>
<path d="M924.368 52.9999V44.2726H927.811C928.47 44.2726 929.033 44.3905 929.499 44.6263C929.967 44.8593 930.324 45.1903 930.568 45.6192C930.815 46.0454 930.939 46.5468 930.939 47.1235C930.939 47.703 930.814 48.2016 930.564 48.6192C930.314 49.034 929.952 49.3522 929.477 49.5738C929.006 49.7954 928.435 49.9062 927.764 49.9062H925.459V48.4232H927.466C927.818 48.4232 928.111 48.3749 928.344 48.2783C928.577 48.1817 928.75 48.0368 928.864 47.8437C928.98 47.6505 929.038 47.4104 929.038 47.1235C929.038 46.8337 928.98 46.5894 928.864 46.3905C928.75 46.1917 928.575 46.0411 928.34 45.9388C928.107 45.8337 927.813 45.7812 927.457 45.7812H926.213V52.9999H924.368ZM929.081 49.0283L931.25 52.9999H929.213L927.091 49.0283H929.081Z" fill="white"/>
<rect x="742" y="29" width="43" height="36" fill="#D9D9D9"/>
<mask id="path-26-inside-1_347_188" fill="white">
<path d="M947 0H1000V92H947V0Z"/>
</mask>
<path d="M947 0H1000V92H947V0Z" fill="#302F2F"/>
<path d="M947 92H948V0H947H946V92H947Z" fill="#505050" mask="url(#path-26-inside-1_347_188)"/>
<mask id="path-28-inside-2_347_188" fill="white">
<path d="M53 92L0 92L8.0429e-06 -4.63341e-06L53 0L53 92Z"/>
</mask>
<path d="M53 92L0 92L8.0429e-06 -4.63341e-06L53 0L53 92Z" fill="#302F2F"/>
<path d="M53 0L52 -8.74228e-08L52 92L53 92L54 92L54 8.74228e-08L53 0Z" fill="#505050" mask="url(#path-28-inside-2_347_188)"/>
</svg>
