<svg width="1000" height="92" viewBox="0 0 1000 92" fill="none" xmlns="http://www.w3.org/2000/svg">
<rect width="1000" height="92" fill="white"/>
<rect width="1000" height="92" stroke="black"/>
<mask id="path-2-inside-1_347_289" fill="white">
<path d="M0 0H45V92H0V0Z"/>
</mask>
<path d="M0 0H45V92H0V0Z" fill="white"/>
<path d="M45 0H43V92H45H47V0H45Z" fill="black" mask="url(#path-2-inside-1_347_289)"/>
<mask id="path-4-inside-2_347_289" fill="white">
<path d="M955 0H1000V92H955V0Z"/>
</mask>
<path d="M955 0H1000V92H955V0Z" fill="white"/>
<path d="M955 92H957V0H955H953V92H955Z" fill="black" mask="url(#path-4-inside-2_347_289)"/>
<rect x="692" y="44" width="37" height="29" fill="black"/>
<rect x="696" y="48" width="29" height="21" fill="#D9D9D9"/>
<path d="M136.445 26.1921L134.297 28.3843H130V45.9213H134.297H157.929V42.6331V28.3843H153.632L151.484 26.1921V24H143.964H136.445V26.1921Z" fill="black" stroke="black"/>
<path d="M167.477 26.1921L165.328 28.3843H161.032V45.9213H165.328H188.961V42.6331V28.3843H184.664L182.516 26.1921V24H174.996H167.477V26.1921Z" fill="black" stroke="black"/>
<path d="M198.509 26.1921L196.361 28.3843H192.064V45.9213H196.361H219.993V42.6331V28.3843H215.696L213.548 26.1921V24H206.029H198.509V26.1921Z" fill="black" stroke="black"/>
<path d="M229.541 26.1921L227.393 28.3843H223.096V45.9213H227.393H251.025V42.6331V28.3843H246.728L244.58 26.1921V24H237.061H229.541V26.1921Z" fill="black" stroke="black"/>
<path d="M260.445 26.1921L258.297 28.3843H254V45.9213H258.297H281.929V42.6331V28.3843H277.632L275.484 26.1921V24H267.964H260.445V26.1921Z" fill="black" stroke="black"/>
<path d="M291.445 26.1921L289.297 28.3843H285V45.9213H289.297H312.929V42.6331V28.3843H308.632L306.484 26.1921V24H298.964H291.445V26.1921Z" fill="black" stroke="black"/>
<path d="M322.445 26.1921L320.297 28.3843H316V45.9213H320.297H343.929V42.6331V28.3843H339.632L337.484 26.1921V24H329.964H322.445V26.1921Z" fill="black" stroke="black"/>
<path d="M353.445 26.1921L351.297 28.3843H347V45.9213H351.297H374.929V42.6331V28.3843H370.632L368.484 26.1921V24H360.964H353.445V26.1921Z" fill="black" stroke="black"/>
<path d="M368.484 68.7293L370.632 66.5371L374.929 66.5371L374.929 49.0001L370.632 49.0001L347 49.0001L347 52.2883L347 66.5371L351.297 66.5371L353.445 68.7293L353.445 70.9214L360.965 70.9214L368.484 70.9214L368.484 68.7293Z" fill="black" stroke="black"/>
<path d="M337.452 68.7293L339.6 66.5371L343.897 66.5371L343.897 49.0001L339.6 49.0001L315.968 49.0001L315.968 52.2883L315.968 66.5371L320.265 66.5371L322.413 68.7293L322.413 70.9214L329.933 70.9214L337.452 70.9214L337.452 68.7293Z" fill="black" stroke="black"/>
<path d="M306.42 68.7293L308.568 66.5371L312.865 66.5371L312.865 49.0001L308.568 49.0001L284.936 49.0001L284.936 52.2883L284.936 66.5371L289.233 66.5371L291.381 68.7293L291.381 70.9214L298.9 70.9214L306.42 70.9214L306.42 68.7293Z" fill="black" stroke="black"/>
<path d="M275.388 68.7293L277.536 66.5371L281.833 66.5371L281.833 49.0001L277.536 49.0001L253.904 49.0001L253.904 52.2883L253.904 66.5371L258.201 66.5371L260.349 68.7293L260.349 70.9214L267.868 70.9214L275.388 70.9214L275.388 68.7293Z" fill="black" stroke="black"/>
<path d="M244.484 68.7293L246.632 66.5371L250.929 66.5371L250.929 49.0001L246.632 49.0001L223 49.0001L223 52.2883L223 66.5371L227.297 66.5371L229.445 68.7293L229.445 70.9214L236.965 70.9214L244.484 70.9214L244.484 68.7293Z" fill="black" stroke="black"/>
<path d="M213.484 68.7293L215.632 66.5371L219.929 66.5371L219.929 49.0001L215.632 49.0001L192 49.0001L192 52.2883L192 66.5371L196.297 66.5371L198.445 68.7293L198.445 70.9214L205.965 70.9214L213.484 70.9214L213.484 68.7293Z" fill="black" stroke="black"/>
<path d="M182.484 68.7293L184.632 66.5371L188.929 66.5371L188.929 49.0001L184.632 49.0001L161 49.0001L161 52.2883L161 66.5371L165.297 66.5371L167.445 68.7293L167.445 70.9214L174.965 70.9214L182.484 70.9214L182.484 68.7293Z" fill="black" stroke="black"/>
<path d="M151.484 68.7293L153.632 66.5371L157.929 66.5371L157.929 49.0001L153.632 49.0001L130 49.0001L130 52.2883L130 66.5371L134.297 66.5371L136.445 68.7293L136.445 70.9214L143.965 70.9214L151.484 70.9214L151.484 68.7293Z" fill="black" stroke="black"/>
<path d="M368.484 68.7293L370.632 66.5371L374.929 66.5371L374.929 49.0001L370.632 49.0001L347 49.0001L347 52.2883L347 66.5371L351.297 66.5371L353.445 68.7293L353.445 70.9214L360.965 70.9214L368.484 70.9214L368.484 68.7293Z" fill="black" stroke="black"/>
<path d="M337.452 68.7293L339.6 66.5371L343.897 66.5371L343.897 49.0001L339.6 49.0001L315.968 49.0001L315.968 52.2883L315.968 66.5371L320.265 66.5371L322.413 68.7293L322.413 70.9214L329.933 70.9214L337.452 70.9214L337.452 68.7293Z" fill="black" stroke="black"/>
<path d="M306.42 68.7293L308.568 66.5371L312.865 66.5371L312.865 49.0001L308.568 49.0001L284.936 49.0001L284.936 52.2883L284.936 66.5371L289.233 66.5371L291.381 68.7293L291.381 70.9214L298.9 70.9214L306.42 70.9214L306.42 68.7293Z" fill="black" stroke="black"/>
<path d="M275.388 68.7293L277.536 66.5371L281.833 66.5371L281.833 49.0001L277.536 49.0001L253.904 49.0001L253.904 52.2883L253.904 66.5371L258.201 66.5371L260.349 68.7293L260.349 70.9214L267.868 70.9214L275.388 70.9214L275.388 68.7293Z" fill="black" stroke="black"/>
<path d="M244.484 68.7293L246.632 66.5371L250.929 66.5371L250.929 49.0001L246.632 49.0001L223 49.0001L223 52.2883L223 66.5371L227.297 66.5371L229.445 68.7293L229.445 70.9214L236.965 70.9214L244.484 70.9214L244.484 68.7293Z" fill="black" stroke="black"/>
<path d="M213.484 68.7293L215.632 66.5371L219.929 66.5371L219.929 49.0001L215.632 49.0001L192 49.0001L192 52.2883L192 66.5371L196.297 66.5371L198.445 68.7293L198.445 70.9214L205.965 70.9214L213.484 70.9214L213.484 68.7293Z" fill="black" stroke="black"/>
<path d="M182.484 68.7293L184.632 66.5371L188.929 66.5371L188.929 49.0001L184.632 49.0001L161 49.0001L161 52.2883L161 66.5371L165.297 66.5371L167.445 68.7293L167.445 70.9214L174.965 70.9214L182.484 70.9214L182.484 68.7293Z" fill="black" stroke="black"/>
<path d="M151.484 68.7293L153.632 66.5371L157.929 66.5371L157.929 49.0001L153.632 49.0001L130 49.0001L130 52.2883L130 66.5371L134.297 66.5371L136.445 68.7293L136.445 70.9214L143.965 70.9214L151.484 70.9214L151.484 68.7293Z" fill="black" stroke="black"/>
<path d="M392.445 26.1921L390.297 28.3843H386V45.9213H390.297H413.929V42.6331V28.3843H409.632L407.484 26.1921V24H399.964H392.445V26.1921Z" fill="black" stroke="black"/>
<path d="M423.477 26.1921L421.328 28.3843H417.032V45.9213H421.328H444.961V42.6331V28.3843H440.664L438.516 26.1921V24H430.996H423.477V26.1921Z" fill="black" stroke="black"/>
<path d="M454.509 26.1921L452.361 28.3843H448.064V45.9213H452.361H475.993V42.6331V28.3843H471.696L469.548 26.1921V24H462.029H454.509V26.1921Z" fill="black" stroke="black"/>
<path d="M485.541 26.1921L483.393 28.3843H479.096V45.9213H483.393H507.025V42.6331V28.3843H502.728L500.58 26.1921V24H493.061H485.541V26.1921Z" fill="black" stroke="black"/>
<path d="M516.445 26.1921L514.297 28.3843H510V45.9213H514.297H537.929V42.6331V28.3843H533.632L531.484 26.1921V24H523.964H516.445V26.1921Z" fill="black" stroke="black"/>
<path d="M547.445 26.1921L545.297 28.3843H541V45.9213H545.297H568.929V42.6331V28.3843H564.632L562.484 26.1921V24H554.964H547.445V26.1921Z" fill="black" stroke="black"/>
<path d="M578.445 26.1921L576.297 28.3843H572V45.9213H576.297H599.929V42.6331V28.3843H595.632L593.484 26.1921V24H585.964H578.445V26.1921Z" fill="black" stroke="black"/>
<path d="M609.445 26.1921L607.297 28.3843H603V45.9213H607.297H630.929V42.6331V28.3843H626.632L624.484 26.1921V24H616.964H609.445V26.1921Z" fill="black" stroke="black"/>
<path d="M624.484 68.7293L626.632 66.5371L630.929 66.5371L630.929 49.0001L626.632 49.0001L603 49.0001L603 52.2883L603 66.5371L607.297 66.5371L609.445 68.7293L609.445 70.9214L616.965 70.9214L624.484 70.9214L624.484 68.7293Z" fill="black" stroke="black"/>
<path d="M593.452 68.7293L595.6 66.5371L599.897 66.5371L599.897 49.0001L595.6 49.0001L571.968 49.0001L571.968 52.2883L571.968 66.5371L576.265 66.5371L578.413 68.7293L578.413 70.9214L585.933 70.9214L593.452 70.9214L593.452 68.7293Z" fill="black" stroke="black"/>
<path d="M562.42 68.7293L564.568 66.5371L568.865 66.5371L568.865 49.0001L564.568 49.0001L540.936 49.0001L540.936 52.2883L540.936 66.5371L545.233 66.5371L547.381 68.7293L547.381 70.9214L554.9 70.9214L562.42 70.9214L562.42 68.7293Z" fill="black" stroke="black"/>
<path d="M531.388 68.7293L533.536 66.5371L537.833 66.5371L537.833 49.0001L533.536 49.0001L509.904 49.0001L509.904 52.2883L509.904 66.5371L514.201 66.5371L516.349 68.7293L516.349 70.9214L523.868 70.9214L531.388 70.9214L531.388 68.7293Z" fill="black" stroke="black"/>
<path d="M500.484 68.7293L502.632 66.5371L506.929 66.5371L506.929 49.0001L502.632 49.0001L479 49.0001L479 52.2883L479 66.5371L483.297 66.5371L485.445 68.7293L485.445 70.9214L492.965 70.9214L500.484 70.9214L500.484 68.7293Z" fill="black" stroke="black"/>
<path d="M469.484 68.7293L471.632 66.5371L475.929 66.5371L475.929 49.0001L471.632 49.0001L448 49.0001L448 52.2883L448 66.5371L452.297 66.5371L454.445 68.7293L454.445 70.9214L461.965 70.9214L469.484 70.9214L469.484 68.7293Z" fill="black" stroke="black"/>
<path d="M438.484 68.7293L440.632 66.5371L444.929 66.5371L444.929 49.0001L440.632 49.0001L417 49.0001L417 52.2883L417 66.5371L421.297 66.5371L423.445 68.7293L423.445 70.9214L430.965 70.9214L438.484 70.9214L438.484 68.7293Z" fill="black" stroke="black"/>
<path d="M407.484 68.7293L409.632 66.5371L413.929 66.5371L413.929 49.0001L409.632 49.0001L386 49.0001L386 52.2883L386 66.5371L390.297 66.5371L392.445 68.7293L392.445 70.9214L399.965 70.9214L407.484 70.9214L407.484 68.7293Z" fill="black" stroke="black"/>
<path d="M624.484 68.7293L626.632 66.5371L630.929 66.5371L630.929 49.0001L626.632 49.0001L603 49.0001L603 52.2883L603 66.5371L607.297 66.5371L609.445 68.7293L609.445 70.9214L616.965 70.9214L624.484 70.9214L624.484 68.7293Z" fill="black" stroke="black"/>
<path d="M662.445 51.1921L660.297 53.3843L656 53.3843L656 70.9213L660.297 70.9213L683.929 70.9213L683.929 67.6331L683.929 53.3843L679.632 53.3843L677.484 51.1921L677.484 49L669.964 49L662.445 49L662.445 51.1921Z" fill="black" stroke="black"/>
<path d="M698 67.5V53L701.5 49.5H719.5L723 53V67.5H698Z" fill="black" stroke="black"/>
<path d="M593.452 68.7293L595.6 66.5371L599.897 66.5371L599.897 49.0001L595.6 49.0001L571.968 49.0001L571.968 52.2883L571.968 66.5371L576.265 66.5371L578.413 68.7293L578.413 70.9214L585.933 70.9214L593.452 70.9214L593.452 68.7293Z" fill="black" stroke="black"/>
<path d="M562.42 68.7293L564.568 66.5371L568.865 66.5371L568.865 49.0001L564.568 49.0001L540.936 49.0001L540.936 52.2883L540.936 66.5371L545.233 66.5371L547.381 68.7293L547.381 70.9214L554.9 70.9214L562.42 70.9214L562.42 68.7293Z" fill="black" stroke="black"/>
<path d="M531.388 68.7293L533.536 66.5371L537.833 66.5371L537.833 49.0001L533.536 49.0001L509.904 49.0001L509.904 52.2883L509.904 66.5371L514.201 66.5371L516.349 68.7293L516.349 70.9214L523.868 70.9214L531.388 70.9214L531.388 68.7293Z" fill="black" stroke="black"/>
<path d="M500.484 68.7293L502.632 66.5371L506.929 66.5371L506.929 49.0001L502.632 49.0001L479 49.0001L479 52.2883L479 66.5371L483.297 66.5371L485.445 68.7293L485.445 70.9214L492.965 70.9214L500.484 70.9214L500.484 68.7293Z" fill="black" stroke="black"/>
<path d="M469.484 68.7293L471.632 66.5371L475.929 66.5371L475.929 49.0001L471.632 49.0001L448 49.0001L448 52.2883L448 66.5371L452.297 66.5371L454.445 68.7293L454.445 70.9214L461.965 70.9214L469.484 70.9214L469.484 68.7293Z" fill="black" stroke="black"/>
<path d="M438.484 68.7293L440.632 66.5371L444.929 66.5371L444.929 49.0001L440.632 49.0001L417 49.0001L417 52.2883L417 66.5371L421.297 66.5371L423.445 68.7293L423.445 70.9214L430.965 70.9214L438.484 70.9214L438.484 68.7293Z" fill="black" stroke="black"/>
<path d="M407.484 68.7293L409.632 66.5371L413.929 66.5371L413.929 49.0001L409.632 49.0001L386 49.0001L386 52.2883L386 66.5371L390.297 66.5371L392.445 68.7293L392.445 70.9214L399.965 70.9214L407.484 70.9214L407.484 68.7293Z" fill="black" stroke="black"/>
<rect x="705" y="54" width="11" height="10" fill="#D9D9D9"/>
<rect x="65.5" y="11.5" width="50" height="70" fill="#D9D9D9" stroke="black" stroke-width="7"/>
<circle cx="758" cy="52" r="7" fill="#0BFF40"/>
<circle cx="785" cy="52" r="7" fill="#0BFF40"/>
<circle cx="812" cy="52" r="7" fill="#0BFF40"/>
<circle cx="839" cy="52" r="7" fill="#0BFF40"/>
<circle cx="866" cy="52" r="7" fill="#0095FF"/>
<circle cx="922" cy="67" r="7" fill="black"/>
<path d="M866 31.7443V17.1989H871.739C872.842 17.1989 873.782 17.4096 874.558 17.831C875.335 18.2476 875.927 18.8277 876.334 19.571C876.746 20.3097 876.952 21.1619 876.952 22.1278C876.952 23.0938 876.743 23.946 876.327 24.6847C875.91 25.4233 875.306 25.9986 874.516 26.4105C873.73 26.8224 872.778 27.0284 871.661 27.0284H868.003V24.5639H871.163C871.755 24.5639 872.243 24.4621 872.626 24.2585C873.015 24.0502 873.304 23.7637 873.493 23.3991C873.687 23.0298 873.784 22.6061 873.784 22.1278C873.784 21.6449 873.687 21.2235 873.493 20.8636C873.304 20.4991 873.015 20.2173 872.626 20.0185C872.238 19.8149 871.746 19.7131 871.149 19.7131H869.075V31.7443H866Z" fill="black"/>
<path d="M878.949 31.7443V17.1989H884.688C885.786 17.1989 886.724 17.3954 887.5 17.7884C888.282 18.1766 888.876 18.7282 889.283 19.4432C889.695 20.1534 889.901 20.9891 889.901 21.9503C889.901 22.9162 889.693 23.7472 889.276 24.4432C888.859 25.1345 888.256 25.6648 887.465 26.0341C886.679 26.4034 885.727 26.5881 884.61 26.5881H880.767V24.1165H884.113C884.7 24.1165 885.187 24.036 885.576 23.875C885.964 23.714 886.253 23.4725 886.442 23.1506C886.636 22.8286 886.733 22.4285 886.733 21.9503C886.733 21.4673 886.636 21.0601 886.442 20.7287C886.253 20.3973 885.962 20.1463 885.569 19.9759C885.18 19.8007 884.69 19.7131 884.098 19.7131H882.025V31.7443H878.949ZM886.804 25.125L890.419 31.7443H887.025L883.488 25.125H886.804Z" fill="black"/>
<path d="M895.15 17.1989V31.7443H892.074V17.1989H895.15Z" fill="black"/>
<path d="M910.513 22.2912H907.403C907.346 21.8887 907.23 21.5312 907.055 21.2188C906.879 20.9015 906.655 20.6316 906.38 20.4091C906.105 20.1866 905.788 20.0161 905.428 19.8977C905.073 19.7794 904.687 19.7202 904.271 19.7202C903.518 19.7202 902.862 19.9072 902.303 20.2812C901.745 20.6506 901.311 21.1903 901.004 21.9006C900.696 22.6061 900.542 23.4631 900.542 24.4716C900.542 25.5085 900.696 26.3797 901.004 27.0852C901.316 27.7907 901.752 28.3234 902.31 28.6832C902.869 29.0431 903.515 29.223 904.249 29.223C904.661 29.223 905.042 29.1686 905.393 29.0597C905.748 28.9508 906.063 28.7921 906.337 28.5838C906.612 28.3707 906.839 28.1127 907.019 27.8097C907.204 27.5066 907.332 27.161 907.403 26.7727L910.513 26.7869C910.433 27.4545 910.232 28.0985 909.91 28.7188C909.593 29.3343 909.164 29.8859 908.624 30.3736C908.089 30.8565 907.45 31.2401 906.707 31.5241C905.968 31.8035 905.132 31.9432 904.2 31.9432C902.902 31.9432 901.742 31.6496 900.719 31.0625C899.701 30.4754 898.897 29.6255 898.305 28.5128C897.718 27.4001 897.424 26.053 897.424 24.4716C897.424 22.8854 897.722 21.536 898.319 20.4233C898.915 19.3106 899.725 18.4631 900.748 17.8807C901.771 17.2936 902.921 17 904.2 17C905.042 17 905.824 17.1184 906.543 17.3551C907.268 17.5919 907.909 17.9375 908.468 18.392C909.027 18.8419 909.481 19.3935 909.832 20.0469C910.187 20.7003 910.414 21.4484 910.513 22.2912Z" fill="black"/>
<path d="M912.719 31.7443V17.1989H922.52V19.7344H915.794V23.2003H922.016V25.7358H915.794V29.2088H922.548V31.7443H912.719Z" fill="black"/>
<path d="M924.965 31.7443V17.1989H930.703C931.802 17.1989 932.739 17.3954 933.516 17.7884C934.297 18.1766 934.891 18.7282 935.299 19.4432C935.711 20.1534 935.917 20.9891 935.917 21.9503C935.917 22.9162 935.708 23.7472 935.292 24.4432C934.875 25.1345 934.271 25.6648 933.48 26.0341C932.694 26.4034 931.743 26.5881 930.625 26.5881H926.783V24.1165H930.128C930.715 24.1165 931.203 24.036 931.591 23.875C931.98 23.714 932.268 23.4725 932.458 23.1506C932.652 22.8286 932.749 22.4285 932.749 21.9503C932.749 21.4673 932.652 21.0601 932.458 20.7287C932.268 20.3973 931.977 20.1463 931.584 19.9759C931.196 19.8007 930.706 19.7131 930.114 19.7131H928.04V31.7443H924.965ZM932.82 25.125L936.435 31.7443H933.04L929.503 25.125H932.82Z" fill="black"/>
</svg>
