<svg width="1000" height="183" viewBox="0 0 1000 183" fill="none" xmlns="http://www.w3.org/2000/svg">
<rect width="1000" height="183" fill="#D9D9D9"/>
<rect width="49" height="183" fill="#3F3F3F"/>
<rect x="951" width="49" height="183" fill="#3F3F3F"/>
<rect x="49" y="167" width="902" height="16" fill="#3F3F3F"/>
<rect x="329" y="102" width="343" height="65" fill="black"/>
<rect x="329" y="102" width="343" height="32.5" fill="#272727"/>
<path d="M637.016 116.629C636.982 116.286 636.835 116.018 636.577 115.828C636.318 115.638 635.967 115.543 635.524 115.543C635.223 115.543 634.969 115.585 634.761 115.67C634.554 115.753 634.395 115.868 634.284 116.016C634.176 116.163 634.122 116.331 634.122 116.518C634.116 116.675 634.149 116.811 634.22 116.928C634.294 117.044 634.395 117.145 634.523 117.23C634.651 117.313 634.798 117.385 634.966 117.447C635.134 117.507 635.313 117.558 635.503 117.601L636.287 117.788C636.668 117.874 637.017 117.987 637.335 118.129C637.653 118.271 637.929 118.446 638.162 118.653C638.395 118.861 638.575 119.105 638.703 119.386C638.834 119.668 638.901 119.99 638.903 120.354C638.901 120.888 638.764 121.351 638.494 121.743C638.227 122.132 637.841 122.435 637.335 122.651C636.832 122.864 636.226 122.97 635.516 122.97C634.811 122.97 634.197 122.862 633.675 122.646C633.155 122.43 632.749 122.111 632.456 121.688C632.166 121.261 632.014 120.734 632 120.107H633.786C633.805 120.399 633.889 120.643 634.037 120.839C634.188 121.033 634.388 121.179 634.638 121.278C634.891 121.375 635.176 121.423 635.494 121.423C635.807 121.423 636.078 121.378 636.308 121.287C636.541 121.196 636.722 121.07 636.849 120.908C636.977 120.746 637.041 120.56 637.041 120.349C637.041 120.153 636.983 119.989 636.866 119.855C636.753 119.722 636.585 119.608 636.364 119.514C636.145 119.42 635.876 119.335 635.558 119.259L634.608 119.02C633.872 118.841 633.291 118.561 632.865 118.18C632.439 117.8 632.227 117.287 632.23 116.642C632.227 116.114 632.368 115.652 632.652 115.257C632.939 114.862 633.332 114.554 633.832 114.332C634.332 114.111 634.901 114 635.537 114C636.185 114 636.75 114.111 637.233 114.332C637.719 114.554 638.097 114.862 638.366 115.257C638.636 115.652 638.776 116.109 638.784 116.629H637.016Z" fill="white"/>
<path d="M640.145 122.847V114.119H646.025V115.641H641.99V117.72H645.723V119.241H641.99V121.325H646.042V122.847H640.145Z" fill="white"/>
<path d="M655.192 117.175H653.326C653.292 116.933 653.222 116.719 653.117 116.531C653.012 116.341 652.877 116.179 652.712 116.045C652.548 115.912 652.357 115.81 652.141 115.739C651.928 115.668 651.697 115.632 651.447 115.632C650.995 115.632 650.602 115.744 650.266 115.969C649.931 116.19 649.671 116.514 649.487 116.94C649.302 117.364 649.21 117.878 649.21 118.483C649.21 119.105 649.302 119.628 649.487 120.051C649.674 120.474 649.935 120.794 650.271 121.01C650.606 121.226 650.994 121.334 651.434 121.334C651.681 121.334 651.91 121.301 652.12 121.236C652.333 121.17 652.522 121.075 652.687 120.95C652.852 120.822 652.988 120.668 653.096 120.486C653.207 120.304 653.283 120.097 653.326 119.864L655.192 119.872C655.144 120.273 655.023 120.659 654.83 121.031C654.64 121.401 654.383 121.732 654.059 122.024C653.738 122.314 653.354 122.544 652.908 122.714C652.465 122.882 651.964 122.966 651.404 122.966C650.626 122.966 649.93 122.79 649.316 122.438C648.705 122.085 648.222 121.575 647.867 120.908C647.515 120.24 647.339 119.432 647.339 118.483C647.339 117.531 647.518 116.722 647.876 116.054C648.234 115.386 648.719 114.878 649.333 114.528C649.947 114.176 650.637 114 651.404 114C651.91 114 652.379 114.071 652.81 114.213C653.245 114.355 653.63 114.562 653.965 114.835C654.3 115.105 654.573 115.436 654.783 115.828C654.996 116.22 655.133 116.669 655.192 117.175Z" fill="white"/>
<circle cx="645.5" cy="153.5" r="9.5" fill="#3F3F3F"/>
<rect x="579" y="149" width="25" height="10" fill="#666666"/>
<rect x="539" y="149" width="25" height="10" fill="#666666"/>
</svg>
