<svg width="1000" height="92" viewBox="0 0 1000 92" fill="none" xmlns="http://www.w3.org/2000/svg">
<rect width="1000" height="92" fill="#3A3737"/>
<rect x="45" y="28" width="29" height="5" fill="#59FF38"/>
<rect x="45" y="39" width="29" height="5" fill="#59FF38" fill-opacity="0.3"/>
<rect x="45" y="39" width="29" height="5" fill="#59FF38" fill-opacity="0.3"/>
<rect x="56" y="49" width="7" height="5" fill="#619FE1"/>
<rect x="902" y="41" width="29" height="9" fill="#59FF38"/>
<rect x="935" y="41" width="29" height="9" fill="#59FF38"/>
<path d="M486.146 68.9568L488.295 66.7647L492.591 66.7647L492.591 49.2276L488.295 49.2276L464.663 49.2276L464.663 52.5158L464.663 66.7647L468.959 66.7647L471.108 68.9568L471.108 71.1489L478.627 71.1489L486.146 71.1489L486.146 68.9568Z" fill="black" stroke="black"/>
<path d="M455.114 68.9568L457.263 66.7647L461.56 66.7647L461.56 49.2276L457.263 49.2276L433.631 49.2276L433.631 52.5158L433.631 66.7647L437.927 66.7647L440.076 68.9568L440.076 71.1489L447.595 71.1489L455.114 71.1489L455.114 68.9568Z" fill="black" stroke="black"/>
<path d="M424.082 68.9568L426.23 66.7647L430.527 66.7647L430.527 49.2276L426.23 49.2276L402.598 49.2276L402.598 52.5158L402.598 66.7647L406.895 66.7647L409.043 68.9568L409.043 71.1489L416.563 71.1489L424.082 71.1489L424.082 68.9568Z" fill="black" stroke="black"/>
<path d="M393.05 68.9568L395.199 66.7647L399.496 66.7647L399.496 49.2276L395.199 49.2276L371.567 49.2276L371.567 52.5158L371.567 66.7647L375.863 66.7647L378.012 68.9568L378.012 71.1489L385.531 71.1489L393.05 71.1489L393.05 68.9568Z" fill="black" stroke="black"/>
<path d="M362.018 68.9568L364.166 66.7647L368.463 66.7647L368.463 49.2276L364.166 49.2276L340.534 49.2276L340.534 52.5158L340.534 66.7647L344.831 66.7647L346.979 68.9568L346.979 71.1489L354.498 71.1489L362.018 71.1489L362.018 68.9568Z" fill="black" stroke="black"/>
<path d="M330.986 68.9568L333.134 66.7647L337.431 66.7647L337.431 49.2276L333.134 49.2276L309.502 49.2276L309.502 52.5158L309.502 66.7647L313.799 66.7647L315.947 68.9568L315.947 71.1489L323.467 71.1489L330.986 71.1489L330.986 68.9568Z" fill="black" stroke="black"/>
<path d="M290.645 68.9568L292.793 66.7647L297.09 66.7647L297.09 49.2276L292.793 49.2276L269.161 49.2276L269.161 52.5158L269.161 66.7647L273.458 66.7647L275.606 68.9568L275.606 71.1489L283.125 71.1489L290.645 71.1489L290.645 68.9568Z" fill="black" stroke="black"/>
<path d="M259.612 68.9568L261.761 66.7647L266.057 66.7647L266.057 49.2276L261.761 49.2276L238.128 49.2276L238.128 52.5158L238.128 66.7647L242.425 66.7647L244.574 68.9568L244.574 71.1489L252.093 71.1489L259.612 71.1489L259.612 68.9568Z" fill="black" stroke="black"/>
<path d="M228.58 68.9568L230.729 66.7647L235.026 66.7647L235.026 49.2276L230.729 49.2276L207.097 49.2276L207.097 52.5158L207.097 66.7647L211.393 66.7647L213.542 68.9568L213.542 71.1489L221.061 71.1489L228.58 71.1489L228.58 68.9568Z" fill="black" stroke="black"/>
<path d="M197.548 68.9568L199.696 66.7647L203.993 66.7647L203.993 49.2276L199.696 49.2276L176.064 49.2276L176.064 52.5158L176.064 66.7647L180.361 66.7647L182.509 68.9568L182.509 71.1489L190.029 71.1489L197.548 71.1489L197.548 68.9568Z" fill="black" stroke="black"/>
<path d="M166.516 68.9568L168.664 66.7647L172.961 66.7647L172.961 49.2276L168.664 49.2276L145.032 49.2276L145.032 52.5158L145.032 66.7647L149.329 66.7647L151.477 68.9568L151.477 71.1489L158.997 71.1489L166.516 71.1489L166.516 68.9568Z" fill="black" stroke="black"/>
<path d="M135.484 68.9568L137.632 66.7647L141.929 66.7647L141.929 49.2276L137.632 49.2276L114 49.2276L114 52.5158L114 66.7647L118.297 66.7647L120.445 68.9568L120.445 71.1489L127.964 71.1489L135.484 71.1489L135.484 68.9568Z" fill="black" stroke="black"/>
<path d="M315.948 22.1921L313.799 24.3843H309.503V41.9213H313.799H337.431V38.6331V24.3843H333.135L330.986 22.1921V20H323.467H315.948V22.1921Z" fill="black" stroke="black"/>
<path d="M346.98 22.1921L344.831 24.3843H340.534V41.9213H344.831H368.463V38.6331V24.3843H364.167L362.018 22.1921V20H354.499H346.98V22.1921Z" fill="black" stroke="black"/>
<path d="M378.012 22.1921L375.864 24.3843H371.567V41.9213H375.864H399.496V38.6331V24.3843H395.199L393.051 22.1921V20H385.531H378.012V22.1921Z" fill="black" stroke="black"/>
<path d="M409.044 22.1921L406.895 24.3843H402.599V41.9213H406.895H430.528V38.6331V24.3843H426.231L424.082 22.1921V20H416.563H409.044V22.1921Z" fill="black" stroke="black"/>
<path d="M440.076 22.1921L437.928 24.3843H433.631V41.9213H437.928H461.56V38.6331V24.3843H457.263L455.115 22.1921V20H447.596H440.076V22.1921Z" fill="black" stroke="black"/>
<path d="M471.108 22.1921L468.96 24.3843H464.663V41.9213H468.96H492.592V38.6331V24.3843H488.295L486.147 22.1921V20H478.627H471.108V22.1921Z" fill="black" stroke="black"/>
<path d="M120.445 22.1921L118.297 24.3843H114V41.9213H118.297H141.929V38.6331V24.3843H137.632L135.484 22.1921V20H127.965H120.445V22.1921Z" fill="black" stroke="black"/>
<path d="M151.478 22.1921L149.33 24.3843H145.033V41.9213H149.33H172.962V38.6331V24.3843H168.665L166.517 22.1921V20H158.997H151.478V22.1921Z" fill="black" stroke="black"/>
<path d="M182.51 22.1921L180.361 24.3843H176.065V41.9213H180.361H203.993V38.6331V24.3843H199.697L197.548 22.1921V20H190.029H182.51V22.1921Z" fill="black" stroke="black"/>
<path d="M213.541 22.1921L211.393 24.3843H207.096V41.9213H211.393H235.025V38.6331V24.3843H230.728L228.58 22.1921V20H221.061H213.541V22.1921Z" fill="black" stroke="black"/>
<path d="M244.574 22.1921L242.426 24.3843H238.129V41.9213H242.426H266.058V38.6331V24.3843H261.761L259.613 22.1921V20H252.093H244.574V22.1921Z" fill="black" stroke="black"/>
<path d="M275.606 22.1921L273.457 24.3843H269.16V41.9213H273.457H297.089V38.6331V24.3843H292.793L290.644 22.1921V20H283.125H275.606V22.1921Z" fill="black" stroke="black"/>
<path d="M880.146 68.9568L882.295 66.7647L886.591 66.7647L886.591 49.2276L882.295 49.2276L858.663 49.2276L858.663 52.5158L858.663 66.7647L862.959 66.7647L865.108 68.9568L865.108 71.1489L872.627 71.1489L880.146 71.1489L880.146 68.9568Z" fill="black" stroke="black"/>
<path d="M849.114 68.9568L851.263 66.7647L855.56 66.7647L855.56 49.2276L851.263 49.2276L827.631 49.2276L827.631 52.5158L827.631 66.7647L831.927 66.7647L834.076 68.9568L834.076 71.1489L841.595 71.1489L849.114 71.1489L849.114 68.9568Z" fill="black" stroke="black"/>
<path d="M818.082 68.9568L820.23 66.7647L824.527 66.7647L824.527 49.2276L820.23 49.2276L796.598 49.2276L796.598 52.5158L796.598 66.7647L800.895 66.7647L803.043 68.9568L803.043 71.1489L810.563 71.1489L818.082 71.1489L818.082 68.9568Z" fill="black" stroke="black"/>
<path d="M787.05 68.9568L789.199 66.7647L793.496 66.7647L793.496 49.2276L789.199 49.2276L765.567 49.2276L765.567 52.5158L765.567 66.7647L769.863 66.7647L772.012 68.9568L772.012 71.1489L779.531 71.1489L787.05 71.1489L787.05 68.9568Z" fill="black" stroke="black"/>
<path d="M756.018 68.9568L758.166 66.7647L762.463 66.7647L762.463 49.2276L758.166 49.2276L734.534 49.2276L734.534 52.5158L734.534 66.7647L738.831 66.7647L740.979 68.9568L740.979 71.1489L748.498 71.1489L756.018 71.1489L756.018 68.9568Z" fill="black" stroke="black"/>
<path d="M724.986 68.9568L727.134 66.7647L731.431 66.7647L731.431 49.2276L727.134 49.2276L703.502 49.2276L703.502 52.5158L703.502 66.7647L707.799 66.7647L709.947 68.9568L709.947 71.1489L717.467 71.1489L724.986 71.1489L724.986 68.9568Z" fill="black" stroke="black"/>
<path d="M684.645 68.9568L686.793 66.7647L691.09 66.7647L691.09 49.2276L686.793 49.2276L663.161 49.2276L663.161 52.5158L663.161 66.7647L667.458 66.7647L669.606 68.9568L669.606 71.1489L677.125 71.1489L684.645 71.1489L684.645 68.9568Z" fill="black" stroke="black"/>
<path d="M653.612 68.9568L655.761 66.7647L660.057 66.7647L660.057 49.2276L655.761 49.2276L632.128 49.2276L632.128 52.5158L632.128 66.7647L636.425 66.7647L638.574 68.9568L638.574 71.1489L646.093 71.1489L653.612 71.1489L653.612 68.9568Z" fill="black" stroke="black"/>
<path d="M622.58 68.9568L624.729 66.7647L629.026 66.7647L629.026 49.2276L624.729 49.2276L601.097 49.2276L601.097 52.5158L601.097 66.7647L605.393 66.7647L607.542 68.9568L607.542 71.1489L615.061 71.1489L622.58 71.1489L622.58 68.9568Z" fill="black" stroke="black"/>
<path d="M591.548 68.9568L593.696 66.7647L597.993 66.7647L597.993 49.2276L593.696 49.2276L570.064 49.2276L570.064 52.5158L570.064 66.7647L574.361 66.7647L576.509 68.9568L576.509 71.1489L584.029 71.1489L591.548 71.1489L591.548 68.9568Z" fill="black" stroke="black"/>
<path d="M560.516 68.9568L562.664 66.7647L566.961 66.7647L566.961 49.2276L562.664 49.2276L539.032 49.2276L539.032 52.5158L539.032 66.7647L543.329 66.7647L545.477 68.9568L545.477 71.1489L552.997 71.1489L560.516 71.1489L560.516 68.9568Z" fill="black" stroke="black"/>
<path d="M529.484 68.9568L531.632 66.7647L535.929 66.7647L535.929 49.2276L531.632 49.2276L508 49.2276L508 52.5158L508 66.7647L512.297 66.7647L514.445 68.9568L514.445 71.1489L521.964 71.1489L529.484 71.1489L529.484 68.9568Z" fill="black" stroke="black"/>
<path d="M709.948 22.1921L707.799 24.3843H703.503V41.9213H707.799H731.431V38.6331V24.3843H727.135L724.986 22.1921V20H717.467H709.948V22.1921Z" fill="black" stroke="black"/>
<path d="M740.98 22.1921L738.831 24.3843H734.534V41.9213H738.831H762.463V38.6331V24.3843H758.167L756.018 22.1921V20H748.499H740.98V22.1921Z" fill="black" stroke="black"/>
<path d="M772.012 22.1921L769.864 24.3843H765.567V41.9213H769.864H793.496V38.6331V24.3843H789.199L787.051 22.1921V20H779.531H772.012V22.1921Z" fill="black" stroke="black"/>
<path d="M803.044 22.1921L800.895 24.3843H796.599V41.9213H800.895H824.528V38.6331V24.3843H820.231L818.082 22.1921V20H810.563H803.044V22.1921Z" fill="black" stroke="black"/>
<path d="M834.076 22.1921L831.928 24.3843H827.631V41.9213H831.928H855.56V38.6331V24.3843H851.263L849.115 22.1921V20H841.596H834.076V22.1921Z" fill="black" stroke="black"/>
<path d="M865.108 22.1921L862.96 24.3843H858.663V41.9213H862.96H886.592V38.6331V24.3843H882.295L880.147 22.1921V20H872.627H865.108V22.1921Z" fill="black" stroke="black"/>
<path d="M514.445 22.1921L512.297 24.3843H508V41.9213H512.297H535.929V38.6331V24.3843H531.632L529.484 22.1921V20H521.965H514.445V22.1921Z" fill="black" stroke="black"/>
<path d="M545.478 22.1921L543.33 24.3843H539.033V41.9213H543.33H566.962V38.6331V24.3843H562.665L560.517 22.1921V20H552.997H545.478V22.1921Z" fill="black" stroke="black"/>
<path d="M576.51 22.1921L574.361 24.3843H570.065V41.9213H574.361H597.993V38.6331V24.3843H593.697L591.548 22.1921V20H584.029H576.51V22.1921Z" fill="black" stroke="black"/>
<path d="M607.541 22.1921L605.393 24.3843H601.096V41.9213H605.393H629.025V38.6331V24.3843H624.728L622.58 22.1921V20H615.061H607.541V22.1921Z" fill="black" stroke="black"/>
<path d="M638.574 22.1921L636.426 24.3843H632.129V41.9213H636.426H660.058V38.6331V24.3843H655.761L653.613 22.1921V20H646.093H638.574V22.1921Z" fill="black" stroke="black"/>
<path d="M669.606 22.1921L667.457 24.3843H663.16V41.9213H667.457H691.089V38.6331V24.3843H686.793L684.644 22.1921V20H677.125H669.606V22.1921Z" fill="black" stroke="black"/>
<path d="M944.493 13.7827C944.459 13.439 944.313 13.1719 944.054 12.9816C943.795 12.7912 943.445 12.6961 943.001 12.6961C942.7 12.6961 942.446 12.7387 942.239 12.8239C942.031 12.9063 941.872 13.0213 941.761 13.1691C941.653 13.3168 941.599 13.4844 941.599 13.6719C941.594 13.8282 941.626 13.9645 941.697 14.081C941.771 14.1975 941.872 14.2983 942 14.3836C942.128 14.4659 942.276 14.5384 942.443 14.6009C942.611 14.6605 942.79 14.7117 942.98 14.7543L943.764 14.9418C944.145 15.027 944.494 15.1407 944.813 15.2827C945.131 15.4247 945.406 15.5995 945.639 15.8069C945.872 16.0142 946.053 16.2586 946.18 16.5398C946.311 16.8211 946.378 17.1435 946.381 17.5071C946.378 18.0412 946.241 18.5043 945.972 18.8963C945.705 19.2855 945.318 19.5881 944.813 19.804C944.31 20.0171 943.703 20.1236 942.993 20.1236C942.288 20.1236 941.675 20.0157 941.152 19.7997C940.632 19.5838 940.226 19.2642 939.933 18.8409C939.643 18.4148 939.491 17.8878 939.477 17.26H941.263C941.283 17.5526 941.366 17.7969 941.514 17.9929C941.665 18.1861 941.865 18.3324 942.115 18.4319C942.368 18.5284 942.653 18.5767 942.972 18.5767C943.284 18.5767 943.555 18.5313 943.786 18.4404C944.018 18.3495 944.199 18.223 944.327 18.0611C944.455 17.8992 944.518 17.7131 944.518 17.5029C944.518 17.3069 944.46 17.1421 944.344 17.0086C944.23 16.875 944.063 16.7614 943.841 16.6676C943.622 16.5739 943.354 16.4887 943.036 16.412L942.085 16.1733C941.349 15.9944 940.768 15.7145 940.342 15.3338C939.916 14.9532 939.705 14.4404 939.707 13.7955C939.705 13.2671 939.845 12.8054 940.129 12.4105C940.416 12.0157 940.81 11.7074 941.31 11.4858C941.81 11.2642 942.378 11.1534 943.014 11.1534C943.662 11.1534 944.227 11.2642 944.71 11.4858C945.196 11.7074 945.574 12.0157 945.844 12.4105C946.114 12.8054 946.253 13.2628 946.261 13.7827H944.493Z" fill="white"/>
<path d="M949.586 20L947.089 11.2728H949.105L950.549 17.3367H950.622L952.216 11.2728H953.941L955.531 17.3495H955.608L957.052 11.2728H959.068L956.571 20H954.772L953.11 14.2941H953.042L951.385 20H949.586Z" fill="white"/>
<path d="M961.901 11.2728V20H960.055V11.2728H961.901Z" fill="white"/>
<path d="M963.086 12.7941V11.2728H970.254V12.7941H967.582V20H965.758V12.7941H963.086Z" fill="white"/>
<path d="M978.736 14.3282H976.87C976.836 14.0867 976.766 13.8722 976.661 13.6847C976.556 13.4944 976.421 13.3324 976.256 13.1989C976.091 13.0654 975.901 12.9631 975.685 12.8921C975.472 12.8211 975.24 12.7855 974.99 12.7855C974.539 12.7855 974.145 12.8978 973.81 13.1222C973.475 13.3438 973.215 13.6676 973.03 14.0938C972.846 14.5171 972.753 15.0313 972.753 15.6364C972.753 16.2586 972.846 16.7813 973.03 17.2046C973.218 17.6279 973.479 17.9475 973.814 18.1634C974.15 18.3793 974.537 18.4872 974.978 18.4872C975.225 18.4872 975.454 18.4546 975.664 18.3892C975.877 18.3239 976.066 18.2287 976.23 18.1037C976.395 17.9759 976.532 17.8211 976.64 17.6392C976.75 17.4574 976.827 17.25 976.87 17.0171L978.736 17.0256C978.688 17.4262 978.567 17.8125 978.374 18.1847C978.184 18.554 977.927 18.885 977.603 19.1776C977.282 19.4674 976.898 19.6975 976.452 19.8679C976.009 20.0355 975.507 20.1194 974.948 20.1194C974.169 20.1194 973.473 19.9432 972.86 19.5909C972.249 19.2387 971.766 18.7287 971.411 18.0611C971.059 17.3935 970.882 16.5853 970.882 15.6364C970.882 14.6847 971.061 13.875 971.419 13.2074C971.777 12.5398 972.263 12.0313 972.877 11.6819C973.49 11.3296 974.181 11.1534 974.948 11.1534C975.454 11.1534 975.922 11.2245 976.354 11.3665C976.789 11.5086 977.174 11.7159 977.509 11.9887C977.844 12.2586 978.117 12.5895 978.327 12.9816C978.54 13.3736 978.677 13.8225 978.736 14.3282Z" fill="white"/>
<path d="M980.059 20V11.2728H981.904V14.8736H985.65V11.2728H987.491V20H985.65V16.3949H981.904V20H980.059Z" fill="white"/>
</svg>
