<svg width="1000" height="644" viewBox="0 0 1000 644" fill="none" xmlns="http://www.w3.org/2000/svg">
<path d="M49.2712 0H950.729V4.19493H49.2712V0Z" fill="#BFBFBF"/>
<rect width="49" height="644" fill="#BFBFBF"/>
<rect x="951" width="49" height="644" fill="#BFBFBF"/>
<rect x="49" y="4.1073" width="902" height="74.1148" fill="#BFBFBF"/>
<path d="M330.207 32.3959L328.054 34.588H323.747V52.125H328.054H351.74V48.8368V34.588H347.434L345.28 32.3959V30.2037H337.744H330.207V32.3959Z" fill="black" stroke="black"/>
<rect x="85.2874" y="43.7743" width="12.4414" height="12.5264" fill="#D9D9D9"/>
<rect x="99.8018" y="43.7743" width="12.4414" height="12.5264" fill="#D9D9D9"/>
<rect x="114.317" y="43.7743" width="12.4414" height="12.5264" fill="#D9D9D9"/>
<rect x="131.942" y="34.3795" width="10.3678" height="10.4387" fill="#D9D9D9"/>
<rect x="131.942" y="45.8622" width="10.3678" height="10.4387" fill="#D9D9D9"/>
<rect x="145.421" y="45.8622" width="10.3678" height="10.4387" fill="#D9D9D9"/>
<rect x="145.421" y="34.3795" width="10.3678" height="10.4387" fill="#D9D9D9"/>
<rect x="145.421" y="22.8969" width="10.3678" height="10.4387" fill="#D9D9D9"/>
<rect x="162.009" y="45.8622" width="10.3678" height="10.4387" fill="#D9D9D9"/>
<rect x="162.009" y="34.3795" width="10.3678" height="10.4387" fill="#D9D9D9"/>
<rect x="162.009" y="22.8969" width="10.3678" height="10.4387" fill="#D9D9D9"/>
<rect x="178.597" y="45.8622" width="10.3678" height="10.4387" fill="#D9D9D9"/>
<rect x="178.597" y="34.3795" width="10.3678" height="10.4387" fill="#D9D9D9"/>
<rect x="190.002" y="34.3794" width="10.3678" height="10.4387" fill="#D9D9D9"/>
<rect x="190.002" y="45.8622" width="10.3678" height="10.4387" fill="#D9D9D9"/>
<rect x="205.554" y="45.8622" width="10.3678" height="10.4387" fill="#D9D9D9"/>
<rect x="205.554" y="34.3795" width="10.3678" height="10.4387" fill="#D9D9D9"/>
<rect x="216.958" y="34.3795" width="10.3678" height="10.4387" fill="#D9D9D9"/>
<rect x="205.554" y="22.8969" width="10.3678" height="10.4387" fill="#D9D9D9"/>
<rect x="216.958" y="22.897" width="10.3678" height="10.4387" fill="#D9D9D9"/>
<rect x="233.547" y="22.897" width="10.3678" height="10.4387" fill="#D9D9D9"/>
<rect x="244.952" y="22.897" width="10.3678" height="10.4387" fill="#D9D9D9"/>
<rect x="216.958" y="45.8622" width="10.3678" height="10.4387" fill="#D9D9D9"/>
<rect x="233.547" y="45.8622" width="10.3678" height="10.4387" fill="#D9D9D9"/>
<rect x="233.547" y="34.3795" width="10.3678" height="10.4387" fill="#D9D9D9"/>
<rect x="244.952" y="34.3794" width="10.3678" height="10.4387" fill="#D9D9D9"/>
<rect x="244.952" y="45.8622" width="10.3678" height="10.4387" fill="#D9D9D9"/>
<rect x="285.386" y="22.8969" width="10.3678" height="10.4387" fill="#D9D9D9"/>
<rect x="285.386" y="45.8622" width="10.3678" height="10.4387" fill="#D9D9D9"/>
<rect x="285.386" y="34.3795" width="10.3678" height="10.4387" fill="#D9D9D9"/>
<rect x="296.791" y="34.3794" width="10.3678" height="10.4387" fill="#D9D9D9"/>
<rect x="296.791" y="45.8622" width="10.3678" height="10.4387" fill="#D9D9D9"/>
<rect x="579.832" y="45.8622" width="10.3678" height="10.4387" fill="#D9D9D9"/>
<rect x="579.832" y="34.3795" width="10.3678" height="10.4387" fill="#D9D9D9"/>
<rect x="457.492" y="46.9059" width="10.3678" height="10.4387" fill="#D9D9D9"/>
<rect x="457.492" y="35.424" width="10.3678" height="10.4387" fill="#D9D9D9"/>
<rect x="457.492" y="23.9412" width="10.3678" height="10.4387" fill="#D9D9D9"/>
<rect x="591.237" y="34.3795" width="10.3678" height="10.4387" fill="#D9D9D9"/>
<rect x="591.237" y="45.8622" width="10.3678" height="10.4387" fill="#D9D9D9"/>
<rect x="623.377" y="45.8622" width="10.3678" height="10.4387" fill="#D9D9D9"/>
<rect x="623.377" y="34.3795" width="10.3678" height="10.4387" fill="#D9D9D9"/>
<rect x="634.781" y="34.3795" width="10.3678" height="10.4387" fill="#D9D9D9"/>
<rect x="634.781" y="45.8622" width="10.3678" height="10.4387" fill="#D9D9D9"/>
<rect x="651.37" y="45.8622" width="10.3678" height="10.4387" fill="#D9D9D9"/>
<rect x="651.37" y="34.3795" width="10.3678" height="10.4387" fill="#D9D9D9"/>
<rect x="662.774" y="34.3795" width="10.3678" height="10.4387" fill="#D9D9D9"/>
<rect x="651.37" y="22.897" width="10.3678" height="10.4387" fill="#D9D9D9"/>
<rect x="662.774" y="22.897" width="10.3678" height="10.4387" fill="#D9D9D9"/>
<rect x="662.774" y="45.8622" width="10.3678" height="10.4387" fill="#D9D9D9"/>
<rect x="558.06" y="45.8622" width="10.4387" height="12.4414" transform="rotate(90 558.06 45.8622)" fill="#D9D9D9"/>
<rect x="570.501" y="45.8622" width="10.4387" height="11.4046" transform="rotate(90 570.501 45.8622)" fill="#D9D9D9"/>
<rect x="544.581" y="45.8622" width="10.4387" height="11.4046" transform="rotate(90 544.581 45.8622)" fill="#D9D9D9"/>
<rect x="680.4" y="45.8622" width="10.3678" height="10.4387" fill="#D9D9D9"/>
<rect x="680.4" y="34.3795" width="10.3678" height="10.4387" fill="#D9D9D9"/>
<rect x="691.804" y="34.3795" width="10.3678" height="10.4387" fill="#D9D9D9"/>
<rect x="680.4" y="22.897" width="10.3678" height="10.4387" fill="#D9D9D9"/>
<rect x="691.804" y="22.897" width="10.3678" height="10.4387" fill="#D9D9D9"/>
<rect x="691.804" y="45.8622" width="10.3678" height="10.4387" fill="#D9D9D9"/>
<rect x="731.202" y="45.8622" width="10.3678" height="10.4387" fill="#D9D9D9"/>
<rect x="731.202" y="34.3795" width="10.3678" height="10.4387" fill="#D9D9D9"/>
<rect x="742.607" y="34.3795" width="10.3678" height="10.4387" fill="#D9D9D9"/>
<rect x="731.202" y="22.897" width="10.3678" height="10.4387" fill="#D9D9D9"/>
<rect x="742.607" y="45.8622" width="10.3678" height="10.4387" fill="#D9D9D9"/>
<rect x="591.237" y="22.897" width="10.3678" height="10.4387" fill="#D9D9D9"/>
<rect x="608.862" y="34.3795" width="10.3678" height="10.4387" fill="#D9D9D9"/>
<rect x="608.862" y="45.8622" width="10.3678" height="10.4387" fill="#D9D9D9"/>
<rect x="608.862" y="22.897" width="10.3678" height="10.4387" fill="#D9D9D9"/>
<rect x="441.94" y="46.9059" width="11.4046" height="9.39483" fill="#8CFF00"/>
<path d="M405.413 54.1093L407.566 51.9171L411.873 51.9171L411.873 34.3801L407.566 34.3801L383.88 34.3801L383.88 37.6683L383.88 51.9171L388.187 51.9171L390.34 54.1093L390.34 56.3014L397.876 56.3014L405.413 56.3014L405.413 54.1093Z" fill="black" stroke="black"/>
<path d="M780.17 32.3959L778.017 34.588H773.71V52.125H778.017H801.703V48.8368V34.588H797.396L795.243 32.3959V30.2037H787.707H780.17V32.3959Z" fill="black" stroke="black"/>
<path d="M855.377 54.1093L857.53 51.9171L861.837 51.9171L861.837 34.3801L857.53 34.3801L833.844 34.3801L833.844 37.6683L833.844 51.9171L838.15 51.9171L840.304 54.1093L840.304 56.3014L847.84 56.3014L855.377 56.3014L855.377 54.1093Z" fill="black" stroke="black"/>
<rect x="888.793" y="46.9059" width="11.4046" height="9.39483" fill="#8CFF00"/>
<rect x="501.535" y="550.552" width="448.966" height="92.9484" fill="#D9D9D9" stroke="black"/>
<path d="M917.66 616.754L919.808 614.562L924.105 614.562L924.105 597.025L919.808 597.025L896.176 597.025L896.176 600.313L896.176 614.562L900.473 614.562L902.621 616.754L902.621 618.946L910.141 618.946L917.66 618.946L917.66 616.754Z" fill="black" stroke="black"/>
<path d="M886.628 616.754L888.776 614.562L893.073 614.562L893.073 597.025L888.776 597.025L865.144 597.025L865.144 600.313L865.144 614.562L869.441 614.562L871.589 616.754L871.589 618.946L879.109 618.946L886.628 618.946L886.628 616.754Z" fill="black" stroke="black"/>
<path d="M855.596 616.754L857.744 614.562L862.041 614.562L862.041 597.025L857.744 597.025L834.112 597.025L834.112 600.313L834.112 614.562L838.409 614.562L840.557 616.754L840.557 618.946L848.076 618.946L855.596 618.946L855.596 616.754Z" fill="black" stroke="black"/>
<path d="M824.564 616.754L826.712 614.562L831.009 614.562L831.009 597.025L826.712 597.025L803.08 597.025L803.08 600.313L803.08 614.562L807.377 614.562L809.525 616.754L809.525 618.946L817.045 618.946L824.564 618.946L824.564 616.754Z" fill="black" stroke="black"/>
<path d="M793.531 616.754L795.68 614.562L799.977 614.562L799.977 597.025L795.68 597.025L772.048 597.025L772.048 600.313L772.048 614.562L776.344 614.562L778.493 616.754L778.493 618.946L786.012 618.946L793.531 618.946L793.531 616.754Z" fill="black" stroke="black"/>
<path d="M762.499 616.754L764.648 614.562L768.945 614.562L768.945 597.025L764.648 597.025L741.016 597.025L741.016 600.313L741.016 614.562L745.312 614.562L747.461 616.754L747.461 618.946L754.98 618.946L762.499 618.946L762.499 616.754Z" fill="black" stroke="black"/>
<path d="M722.158 616.754L724.307 614.562L728.604 614.562L728.604 597.025L724.307 597.025L700.675 597.025L700.675 600.313L700.675 614.562L704.971 614.562L707.12 616.754L707.12 618.946L714.639 618.946L722.158 618.946L722.158 616.754Z" fill="black" stroke="black"/>
<path d="M691.126 616.754L693.274 614.562L697.571 614.562L697.571 597.025L693.274 597.025L669.642 597.025L669.642 600.313L669.642 614.562L673.939 614.562L676.087 616.754L676.087 618.946L683.607 618.946L691.126 618.946L691.126 616.754Z" fill="black" stroke="black"/>
<path d="M660.094 616.754L662.243 614.562L666.539 614.562L666.539 597.025L662.243 597.025L638.61 597.025L638.61 600.313L638.61 614.562L642.907 614.562L645.056 616.754L645.056 618.946L652.575 618.946L660.094 618.946L660.094 616.754Z" fill="black" stroke="black"/>
<path d="M629.062 616.754L631.21 614.562L635.507 614.562L635.507 597.025L631.21 597.025L607.578 597.025L607.578 600.313L607.578 614.562L611.875 614.562L614.023 616.754L614.023 618.946L621.542 618.946L629.062 618.946L629.062 616.754Z" fill="black" stroke="black"/>
<path d="M598.03 616.754L600.178 614.562L604.475 614.562L604.475 597.025L600.178 597.025L576.546 597.025L576.546 600.313L576.546 614.562L580.843 614.562L582.991 616.754L582.991 618.946L590.51 618.946L598.03 618.946L598.03 616.754Z" fill="black" stroke="black"/>
<path d="M566.997 616.754L569.146 614.562L573.443 614.562L573.443 597.025L569.146 597.025L545.514 597.025L545.514 600.313L545.514 614.562L549.81 614.562L551.959 616.754L551.959 618.946L559.478 618.946L566.997 618.946L566.997 616.754Z" fill="black" stroke="black"/>
<path d="M747.461 569.989L745.313 572.182H741.016V589.719H745.313H768.945V586.43V572.182H764.648L762.5 569.989V567.797H754.981H747.461V569.989Z" fill="black" stroke="black"/>
<path d="M778.493 569.989L776.345 572.182H772.048V589.719H776.345H799.977V586.43V572.182H795.68L793.532 569.989V567.797H786.012H778.493V569.989Z" fill="black" stroke="black"/>
<path d="M809.525 569.989L807.377 572.182H803.08V589.719H807.377H831.009V586.43V572.182H826.712L824.564 569.989V567.797H817.045H809.525V569.989Z" fill="black" stroke="black"/>
<path d="M840.557 569.989L838.409 572.182H834.112V589.719H838.409H862.041V586.43V572.182H857.744L855.596 569.989V567.797H848.077H840.557V569.989Z" fill="black" stroke="black"/>
<path d="M871.59 569.989L869.441 572.182H865.145V589.719H869.441H893.073V586.43V572.182H888.777L886.628 569.989V567.797H879.109H871.59V569.989Z" fill="black" stroke="black"/>
<path d="M902.622 569.989L900.473 572.182H896.177V589.719H900.473H924.105V586.43V572.182H919.809L917.66 569.989V567.797H910.141H902.622V569.989Z" fill="black" stroke="black"/>
<path d="M551.959 569.989L549.81 572.182H545.514V589.719H549.81H573.443V586.43V572.182H569.146L566.997 569.989V567.797H559.478H551.959V569.989Z" fill="black" stroke="black"/>
<path d="M582.991 569.989L580.843 572.182H576.546V589.719H580.843H604.475V586.43V572.182H600.178L598.03 569.989V567.797H590.511H582.991V569.989Z" fill="black" stroke="black"/>
<path d="M614.023 569.989L611.875 572.182H607.578V589.719H611.875H635.507V586.43V572.182H631.21L629.062 569.989V567.797H621.543H614.023V569.989Z" fill="black" stroke="black"/>
<path d="M645.055 569.989L642.906 572.182H638.61V589.719H642.906H666.539V586.43V572.182H662.242L660.093 569.989V567.797H652.574H645.055V569.989Z" fill="black" stroke="black"/>
<path d="M676.087 569.989L673.939 572.182H669.642V589.719H673.939H697.571V586.43V572.182H693.274L691.126 569.989V567.797H683.607H676.087V569.989Z" fill="black" stroke="black"/>
<path d="M707.119 569.989L704.971 572.182H700.674V589.719H704.971H728.603V586.43V572.182H724.306L722.158 569.989V567.797H714.638H707.119V569.989Z" fill="black" stroke="black"/>
<ellipse cx="518.62" cy="626.254" rx="13.4472" ry="13.5703" fill="#FA9696"/>
<path d="M515.516 632.423V621.035H517.902V630.438H522.74V632.423H515.516Z" fill="black"/>
<rect x="49.5" y="550.552" width="451.034" height="92.9484" fill="#D9D9D9" stroke="black"/>
<path d="M465.625 616.754L467.774 614.562L472.071 614.562L472.071 597.025L467.774 597.025L444.142 597.025L444.142 600.313L444.142 614.562L448.438 614.562L450.587 616.754L450.587 618.946L458.106 618.946L465.625 618.946L465.625 616.754Z" fill="black" stroke="black"/>
<path d="M434.594 616.754L436.742 614.562L441.039 614.562L441.039 597.025L436.742 597.025L413.11 597.025L413.11 600.313L413.11 614.562L417.407 614.562L419.555 616.754L419.555 618.946L427.075 618.946L434.594 618.946L434.594 616.754Z" fill="black" stroke="black"/>
<path d="M403.561 616.754L405.71 614.562L410.006 614.562L410.006 597.025L405.71 597.025L382.077 597.025L382.077 600.313L382.077 614.562L386.374 614.562L388.523 616.754L388.523 618.946L396.042 618.946L403.561 618.946L403.561 616.754Z" fill="black" stroke="black"/>
<path d="M372.529 616.754L374.677 614.562L378.974 614.562L378.974 597.025L374.677 597.025L351.045 597.025L351.045 600.313L351.045 614.562L355.342 614.562L357.49 616.754L357.49 618.946L365.009 618.946L372.529 618.946L372.529 616.754Z" fill="black" stroke="black"/>
<path d="M341.497 616.754L343.646 614.562L347.942 614.562L347.942 597.025L343.646 597.025L320.013 597.025L320.013 600.313L320.013 614.562L324.31 614.562L326.459 616.754L326.459 618.946L333.978 618.946L341.497 618.946L341.497 616.754Z" fill="black" stroke="black"/>
<path d="M310.465 616.754L312.614 614.562L316.91 614.562L316.91 597.025L312.614 597.025L288.982 597.025L288.982 600.313L288.982 614.562L293.278 614.562L295.427 616.754L295.427 618.946L302.946 618.946L310.465 618.946L310.465 616.754Z" fill="black" stroke="black"/>
<path d="M270.123 616.754L272.272 614.562L276.568 614.562L276.568 597.025L272.272 597.025L248.639 597.025L248.639 600.313L248.639 614.562L252.936 614.562L255.085 616.754L255.085 618.946L262.604 618.946L270.123 618.946L270.123 616.754Z" fill="black" stroke="black"/>
<path d="M239.092 616.754L241.24 614.562L245.537 614.562L245.537 597.025L241.24 597.025L217.608 597.025L217.608 600.313L217.608 614.562L221.905 614.562L224.053 616.754L224.053 618.946L231.573 618.946L239.092 618.946L239.092 616.754Z" fill="black" stroke="black"/>
<path d="M208.059 616.754L210.207 614.562L214.504 614.562L214.504 597.025L210.207 597.025L186.575 597.025L186.575 600.313L186.575 614.562L190.872 614.562L193.02 616.754L193.02 618.946L200.54 618.946L208.059 618.946L208.059 616.754Z" fill="black" stroke="black"/>
<path d="M177.028 616.754L179.176 614.562L183.473 614.562L183.473 597.025L179.176 597.025L155.544 597.025L155.544 600.313L155.544 614.562L159.841 614.562L161.989 616.754L161.989 618.946L169.508 618.946L177.028 618.946L177.028 616.754Z" fill="black" stroke="black"/>
<path d="M145.995 616.754L148.143 614.562L152.44 614.562L152.44 597.025L148.143 597.025L124.511 597.025L124.511 600.313L124.511 614.562L128.808 614.562L130.956 616.754L130.956 618.946L138.475 618.946L145.995 618.946L145.995 616.754Z" fill="black" stroke="black"/>
<path d="M114.963 616.754L117.111 614.562L121.408 614.562L121.408 597.025L117.111 597.025L93.4793 597.025L93.4793 600.313L93.4793 614.562L97.7761 614.562L99.9244 616.754L99.9244 618.946L107.444 618.946L114.963 618.946L114.963 616.754Z" fill="black" stroke="black"/>
<path d="M295.427 569.989L293.278 572.182H288.981V589.719H293.278H316.91V586.43V572.182H312.614L310.465 569.989V567.797H302.946H295.427V569.989Z" fill="black" stroke="black"/>
<path d="M326.459 569.989L324.31 572.182H320.014V589.719H324.31H347.943V586.43V572.182H343.646L341.497 569.989V567.797H333.978H326.459V569.989Z" fill="black" stroke="black"/>
<path d="M357.491 569.989L355.342 572.182H351.046V589.719H355.342H378.975V586.43V572.182H374.678L372.529 569.989V567.797H365.01H357.491V569.989Z" fill="black" stroke="black"/>
<path d="M388.523 569.989L386.375 572.182H382.078V589.719H386.375H410.007V586.43V572.182H405.71L403.562 569.989V567.797H396.043H388.523V569.989Z" fill="black" stroke="black"/>
<path d="M419.555 569.989L417.407 572.182H413.11V589.719H417.407H441.039V586.43V572.182H436.742L434.594 569.989V567.797H427.074H419.555V569.989Z" fill="black" stroke="black"/>
<path d="M450.588 569.989L448.439 572.182H444.143V589.719H448.439H472.071V586.43V572.182H467.775L465.626 569.989V567.797H458.107H450.588V569.989Z" fill="black" stroke="black"/>
<path d="M99.9249 569.989L97.7765 572.182H93.4797V589.719H97.7765H121.409V586.43V572.182H117.112L114.964 569.989V567.797H107.444H99.9249V569.989Z" fill="black" stroke="black"/>
<path d="M130.957 569.989L128.808 572.182H124.511V589.719H128.808H152.44V586.43V572.182H148.144L145.995 569.989V567.797H138.476H130.957V569.989Z" fill="black" stroke="black"/>
<path d="M161.988 569.989L159.84 572.182H155.543V589.719H159.84H183.472V586.43V572.182H179.175L177.027 569.989V567.797H169.507H161.988V569.989Z" fill="black" stroke="black"/>
<path d="M193.021 569.989L190.872 572.182H186.576V589.719H190.872H214.505V586.43V572.182H210.208L208.059 569.989V567.797H200.54H193.021V569.989Z" fill="black" stroke="black"/>
<path d="M224.053 569.989L221.905 572.182H217.608V589.719H221.905H245.537V586.43V572.182H241.24L239.092 569.989V567.797H231.572H224.053V569.989Z" fill="black" stroke="black"/>
<path d="M255.085 569.989L252.937 572.182H248.64V589.719H252.937H276.569V586.43V572.182H272.272L270.124 569.989V567.797H262.604H255.085V569.989Z" fill="black" stroke="black"/>
<ellipse cx="66.5845" cy="626.254" rx="13.4472" ry="13.5703" fill="#FA9696"/>
<path d="M61.4126 632.423V621.035H63.7984V626.056H63.9472L68.008 621.035H70.8677L66.6801 626.134L70.9173 632.423H68.0631L64.972 627.741L63.7984 629.186V632.423H61.4126Z" fill="black"/>
<rect x="501.535" y="455.559" width="448.966" height="93.9922" fill="#D9D9D9" stroke="black"/>
<path d="M917.66 521.763L919.808 519.571L924.105 519.571L924.105 502.034L919.808 502.034L896.176 502.034L896.176 505.322L896.176 519.571L900.473 519.571L902.621 521.763L902.621 523.956L910.141 523.956L917.66 523.956L917.66 521.763Z" fill="black" stroke="black"/>
<path d="M886.628 521.763L888.777 519.571L893.073 519.571L893.073 502.034L888.777 502.034L865.145 502.034L865.145 505.322L865.145 519.571L869.441 519.571L871.59 521.763L871.59 523.956L879.109 523.956L886.628 523.956L886.628 521.763Z" fill="black" stroke="black"/>
<path d="M855.596 521.763L857.744 519.571L862.041 519.571L862.041 502.034L857.744 502.034L834.112 502.034L834.112 505.322L834.112 519.571L838.409 519.571L840.557 521.763L840.557 523.956L848.077 523.956L855.596 523.956L855.596 521.763Z" fill="black" stroke="black"/>
<path d="M824.564 521.763L826.713 519.571L831.009 519.571L831.009 502.034L826.713 502.034L803.08 502.034L803.08 505.322L803.08 519.571L807.377 519.571L809.526 521.763L809.526 523.956L817.045 523.956L824.564 523.956L824.564 521.763Z" fill="black" stroke="black"/>
<path d="M793.532 521.763L795.68 519.571L799.977 519.571L799.977 502.034L795.68 502.034L772.048 502.034L772.048 505.322L772.048 519.571L776.345 519.571L778.493 521.763L778.493 523.956L786.012 523.956L793.532 523.956L793.532 521.763Z" fill="black" stroke="black"/>
<path d="M762.5 521.763L764.648 519.571L768.945 519.571L768.945 502.034L764.648 502.034L741.016 502.034L741.016 505.322L741.016 519.571L745.313 519.571L747.461 521.763L747.461 523.956L754.981 523.956L762.5 523.956L762.5 521.763Z" fill="black" stroke="black"/>
<path d="M722.158 521.763L724.307 519.571L728.603 519.571L728.603 502.034L724.307 502.034L700.674 502.034L700.674 505.322L700.674 519.571L704.971 519.571L707.12 521.763L707.12 523.956L714.639 523.956L722.158 523.956L722.158 521.763Z" fill="black" stroke="black"/>
<path d="M691.126 521.763L693.274 519.571L697.571 519.571L697.571 502.034L693.274 502.034L669.642 502.034L669.642 505.322L669.642 519.571L673.939 519.571L676.087 521.763L676.087 523.956L683.607 523.956L691.126 523.956L691.126 521.763Z" fill="black" stroke="black"/>
<path d="M660.094 521.763L662.242 519.571L666.539 519.571L666.539 502.034L662.242 502.034L638.61 502.034L638.61 505.322L638.61 519.571L642.907 519.571L645.055 521.763L645.055 523.956L652.575 523.956L660.094 523.956L660.094 521.763Z" fill="black" stroke="black"/>
<path d="M629.061 521.763L631.21 519.571L635.507 519.571L635.507 502.034L631.21 502.034L607.578 502.034L607.578 505.322L607.578 519.571L611.874 519.571L614.023 521.763L614.023 523.956L621.542 523.956L629.061 523.956L629.061 521.763Z" fill="black" stroke="black"/>
<path d="M598.03 521.763L600.178 519.571L604.475 519.571L604.475 502.034L600.178 502.034L576.546 502.034L576.546 505.322L576.546 519.571L580.843 519.571L582.991 521.763L582.991 523.956L590.511 523.956L598.03 523.956L598.03 521.763Z" fill="black" stroke="black"/>
<path d="M566.997 521.763L569.146 519.571L573.442 519.571L573.442 502.034L569.146 502.034L545.513 502.034L545.513 505.322L545.513 519.571L549.81 519.571L551.959 521.763L551.959 523.956L559.478 523.956L566.997 523.956L566.997 521.763Z" fill="black" stroke="black"/>
<path d="M747.461 474.997L745.313 477.189H741.016V494.726H745.313H768.945V491.438V477.189H764.648L762.5 474.997V472.805H754.981H747.461V474.997Z" fill="black" stroke="black"/>
<path d="M778.493 474.997L776.345 477.189H772.048V494.726H776.345H799.977V491.438V477.189H795.68L793.532 474.997V472.805H786.012H778.493V474.997Z" fill="black" stroke="black"/>
<path d="M809.525 474.997L807.377 477.189H803.08V494.726H807.377H831.009V491.438V477.189H826.712L824.564 474.997V472.805H817.045H809.525V474.997Z" fill="black" stroke="black"/>
<path d="M840.557 474.997L838.409 477.189H834.112V494.726H838.409H862.041V491.438V477.189H857.744L855.596 474.997V472.805H848.077H840.557V474.997Z" fill="black" stroke="black"/>
<path d="M871.59 474.997L869.441 477.189H865.145V494.726H869.441H893.073V491.438V477.189H888.777L886.628 474.997V472.805H879.109H871.59V474.997Z" fill="black" stroke="black"/>
<path d="M902.622 474.997L900.473 477.189H896.177V494.726H900.473H924.105V491.438V477.189H919.809L917.66 474.997V472.805H910.141H902.622V474.997Z" fill="black" stroke="black"/>
<path d="M551.959 474.997L549.81 477.189H545.514V494.726H549.81H573.443V491.438V477.189H569.146L566.997 474.997V472.805H559.478H551.959V474.997Z" fill="black" stroke="black"/>
<path d="M582.991 474.997L580.843 477.189H576.546V494.726H580.843H604.475V491.438V477.189H600.178L598.03 474.997V472.805H590.511H582.991V474.997Z" fill="black" stroke="black"/>
<path d="M614.023 474.997L611.875 477.189H607.578V494.726H611.875H635.507V491.438V477.189H631.21L629.062 474.997V472.805H621.543H614.023V474.997Z" fill="black" stroke="black"/>
<path d="M645.055 474.997L642.906 477.189H638.61V494.726H642.906H666.539V491.438V477.189H662.242L660.093 474.997V472.805H652.574H645.055V474.997Z" fill="black" stroke="black"/>
<path d="M676.087 474.997L673.939 477.189H669.642V494.726H673.939H697.571V491.438V477.189H693.274L691.126 474.997V472.805H683.607H676.087V474.997Z" fill="black" stroke="black"/>
<path d="M707.119 474.997L704.971 477.189H700.674V494.726H704.971H728.603V491.438V477.189H724.306L722.158 474.997V472.805H714.638H707.119V474.997Z" fill="black" stroke="black"/>
<ellipse cx="518.62" cy="531.261" rx="13.4472" ry="13.5703" fill="#FA9696"/>
<path d="M519.616 524.999H521.975V532.94C521.975 533.673 521.811 534.311 521.484 534.852C521.161 535.393 520.711 535.811 520.134 536.103C519.558 536.396 518.887 536.543 518.123 536.543C517.444 536.543 516.826 536.422 516.272 536.181C515.721 535.937 515.284 535.566 514.96 535.069C514.637 534.569 514.477 533.94 514.481 533.184H516.856C516.863 533.484 516.924 533.742 517.038 533.957C517.155 534.168 517.315 534.331 517.517 534.446C517.723 534.558 517.965 534.613 518.244 534.613C518.538 534.613 518.786 534.55 518.988 534.424C519.194 534.294 519.35 534.105 519.457 533.857C519.563 533.609 519.616 533.303 519.616 532.94V524.999Z" fill="black"/>
<rect x="49.5" y="455.559" width="451.034" height="93.9922" fill="#D9D9D9" stroke="black"/>
<path d="M465.625 521.763L467.774 519.571L472.071 519.571L472.071 502.034L467.774 502.034L444.142 502.034L444.142 505.322L444.142 519.571L448.438 519.571L450.587 521.763L450.587 523.956L458.106 523.956L465.625 523.956L465.625 521.763Z" fill="black" stroke="black"/>
<path d="M434.594 521.763L436.742 519.571L441.039 519.571L441.039 502.034L436.742 502.034L413.11 502.034L413.11 505.322L413.11 519.571L417.407 519.571L419.555 521.763L419.555 523.956L427.075 523.956L434.594 523.956L434.594 521.763Z" fill="black" stroke="black"/>
<path d="M403.561 521.763L405.71 519.571L410.006 519.571L410.006 502.034L405.71 502.034L382.077 502.034L382.077 505.322L382.077 519.571L386.374 519.571L388.523 521.763L388.523 523.956L396.042 523.956L403.561 523.956L403.561 521.763Z" fill="black" stroke="black"/>
<path d="M372.529 521.763L374.677 519.571L378.974 519.571L378.974 502.034L374.677 502.034L351.045 502.034L351.045 505.322L351.045 519.571L355.342 519.571L357.49 521.763L357.49 523.956L365.009 523.956L372.529 523.956L372.529 521.763Z" fill="black" stroke="black"/>
<path d="M341.497 521.763L343.646 519.571L347.942 519.571L347.942 502.034L343.646 502.034L320.013 502.034L320.013 505.322L320.013 519.571L324.31 519.571L326.459 521.763L326.459 523.956L333.978 523.956L341.497 523.956L341.497 521.763Z" fill="black" stroke="black"/>
<path d="M310.465 521.763L312.614 519.571L316.91 519.571L316.91 502.034L312.614 502.034L288.982 502.034L288.982 505.322L288.982 519.571L293.278 519.571L295.427 521.763L295.427 523.956L302.946 523.956L310.465 523.956L310.465 521.763Z" fill="black" stroke="black"/>
<path d="M270.124 521.763L272.272 519.571L276.569 519.571L276.569 502.034L272.272 502.034L248.64 502.034L248.64 505.322L248.64 519.571L252.937 519.571L255.085 521.763L255.085 523.956L262.604 523.956L270.124 523.956L270.124 521.763Z" fill="black" stroke="black"/>
<path d="M239.092 521.763L241.24 519.571L245.537 519.571L245.537 502.034L241.24 502.034L217.608 502.034L217.608 505.322L217.608 519.571L221.905 519.571L224.053 521.763L224.053 523.956L231.573 523.956L239.092 523.956L239.092 521.763Z" fill="black" stroke="black"/>
<path d="M208.06 521.763L210.208 519.571L214.505 519.571L214.505 502.034L210.208 502.034L186.576 502.034L186.576 505.322L186.576 519.571L190.872 519.571L193.021 521.763L193.021 523.956L200.54 523.956L208.06 523.956L208.06 521.763Z" fill="black" stroke="black"/>
<path d="M177.028 521.763L179.176 519.571L183.473 519.571L183.473 502.034L179.176 502.034L155.544 502.034L155.544 505.322L155.544 519.571L159.841 519.571L161.989 521.763L161.989 523.956L169.508 523.956L177.028 523.956L177.028 521.763Z" fill="black" stroke="black"/>
<path d="M145.995 521.763L148.143 519.571L152.44 519.571L152.44 502.034L148.143 502.034L124.511 502.034L124.511 505.322L124.511 519.571L128.808 519.571L130.956 521.763L130.956 523.956L138.476 523.956L145.995 523.956L145.995 521.763Z" fill="black" stroke="black"/>
<path d="M114.964 521.763L117.112 519.571L121.409 519.571L121.409 502.034L117.112 502.034L93.4798 502.034L93.4798 505.322L93.4798 519.571L97.7765 519.571L99.9249 521.763L99.9249 523.956L107.444 523.956L114.964 523.956L114.964 521.763Z" fill="black" stroke="black"/>
<path d="M295.427 474.997L293.278 477.189H288.981V494.726H293.278H316.91V491.438V477.189H312.614L310.465 474.997V472.805H302.946H295.427V474.997Z" fill="black" stroke="black"/>
<path d="M326.459 474.997L324.31 477.189H320.014V494.726H324.31H347.943V491.438V477.189H343.646L341.497 474.997V472.805H333.978H326.459V474.997Z" fill="black" stroke="black"/>
<path d="M357.491 474.997L355.342 477.189H351.046V494.726H355.342H378.975V491.438V477.189H374.678L372.529 474.997V472.805H365.01H357.491V474.997Z" fill="black" stroke="black"/>
<path d="M388.523 474.997L386.375 477.189H382.078V494.726H386.375H410.007V491.438V477.189H405.71L403.562 474.997V472.805H396.043H388.523V474.997Z" fill="black" stroke="black"/>
<path d="M419.555 474.997L417.407 477.189H413.11V494.726H417.407H441.039V491.438V477.189H436.742L434.594 474.997V472.805H427.074H419.555V474.997Z" fill="black" stroke="black"/>
<path d="M450.588 474.997L448.439 477.189H444.143V494.726H448.439H472.071V491.438V477.189H467.775L465.626 474.997V472.805H458.107H450.588V474.997Z" fill="black" stroke="black"/>
<path d="M99.9249 474.997L97.7765 477.189H93.4797V494.726H97.7765H121.409V491.438V477.189H117.112L114.964 474.997V472.805H107.444H99.9249V474.997Z" fill="black" stroke="black"/>
<path d="M130.957 474.997L128.808 477.189H124.511V494.726H128.808H152.44V491.438V477.189H148.144L145.995 474.997V472.805H138.476H130.957V474.997Z" fill="black" stroke="black"/>
<path d="M161.988 474.997L159.84 477.189H155.543V494.726H159.84H183.472V491.438V477.189H179.175L177.027 474.997V472.805H169.507H161.988V474.997Z" fill="black" stroke="black"/>
<path d="M193.021 474.997L190.872 477.189H186.576V494.726H190.872H214.505V491.438V477.189H210.208L208.059 474.997V472.805H200.54H193.021V474.997Z" fill="black" stroke="black"/>
<path d="M224.053 474.997L221.905 477.189H217.608V494.726H221.905H245.537V491.438V477.189H241.24L239.092 474.997V472.805H231.572H224.053V474.997Z" fill="black" stroke="black"/>
<path d="M255.085 474.997L252.937 477.189H248.64V494.726H252.937H276.569V491.438V477.189H272.272L270.124 474.997V472.805H262.604H255.085V474.997Z" fill="black" stroke="black"/>
<ellipse cx="66.5845" cy="531.261" rx="13.4472" ry="13.5703" fill="#FA9696"/>
<path d="M67.9368 526.042V537.43H65.551V526.042H67.9368Z" fill="black"/>
<rect x="501.535" y="361.611" width="448.966" height="92.9484" fill="#D9D9D9" stroke="black"/>
<path d="M917.66 427.814L919.808 425.622L924.105 425.622L924.105 408.085L919.808 408.085L896.176 408.085L896.176 411.373L896.176 425.622L900.473 425.622L902.621 427.814L902.621 430.006L910.141 430.006L917.66 430.006L917.66 427.814Z" fill="black" stroke="black"/>
<path d="M886.628 427.814L888.776 425.622L893.073 425.622L893.073 408.085L888.776 408.085L865.144 408.085L865.144 411.373L865.144 425.622L869.441 425.622L871.589 427.814L871.589 430.006L879.109 430.006L886.628 430.006L886.628 427.814Z" fill="black" stroke="black"/>
<path d="M855.596 427.814L857.744 425.622L862.041 425.622L862.041 408.085L857.744 408.085L834.112 408.085L834.112 411.373L834.112 425.622L838.409 425.622L840.557 427.814L840.557 430.006L848.076 430.006L855.596 430.006L855.596 427.814Z" fill="black" stroke="black"/>
<path d="M824.564 427.814L826.712 425.622L831.009 425.622L831.009 408.085L826.712 408.085L803.08 408.085L803.08 411.373L803.08 425.622L807.377 425.622L809.525 427.814L809.525 430.006L817.045 430.006L824.564 430.006L824.564 427.814Z" fill="black" stroke="black"/>
<path d="M793.531 427.814L795.68 425.622L799.977 425.622L799.977 408.085L795.68 408.085L772.048 408.085L772.048 411.373L772.048 425.622L776.344 425.622L778.493 427.814L778.493 430.006L786.012 430.006L793.531 430.006L793.531 427.814Z" fill="black" stroke="black"/>
<path d="M762.499 427.814L764.648 425.622L768.945 425.622L768.945 408.085L764.648 408.085L741.016 408.085L741.016 411.373L741.016 425.622L745.312 425.622L747.461 427.814L747.461 430.006L754.98 430.006L762.499 430.006L762.499 427.814Z" fill="black" stroke="black"/>
<path d="M722.159 427.814L724.307 425.622L728.604 425.622L728.604 408.085L724.307 408.085L700.675 408.085L700.675 411.373L700.675 425.622L704.972 425.622L707.12 427.814L707.12 430.006L714.639 430.006L722.159 430.006L722.159 427.814Z" fill="black" stroke="black"/>
<path d="M691.126 427.814L693.274 425.622L697.571 425.622L697.571 408.085L693.274 408.085L669.642 408.085L669.642 411.373L669.642 425.622L673.939 425.622L676.087 427.814L676.087 430.006L683.607 430.006L691.126 430.006L691.126 427.814Z" fill="black" stroke="black"/>
<path d="M660.094 427.814L662.243 425.622L666.54 425.622L666.54 408.085L662.243 408.085L638.611 408.085L638.611 411.373L638.611 425.622L642.907 425.622L645.056 427.814L645.056 430.006L652.575 430.006L660.094 430.006L660.094 427.814Z" fill="black" stroke="black"/>
<path d="M629.062 427.814L631.21 425.622L635.507 425.622L635.507 408.085L631.21 408.085L607.578 408.085L607.578 411.373L607.578 425.622L611.875 425.622L614.023 427.814L614.023 430.006L621.542 430.006L629.062 430.006L629.062 427.814Z" fill="black" stroke="black"/>
<path d="M598.03 427.814L600.178 425.622L604.475 425.622L604.475 408.085L600.178 408.085L576.546 408.085L576.546 411.373L576.546 425.622L580.843 425.622L582.991 427.814L582.991 430.006L590.51 430.006L598.03 430.006L598.03 427.814Z" fill="black" stroke="black"/>
<path d="M566.997 427.814L569.146 425.622L573.443 425.622L573.443 408.085L569.146 408.085L545.514 408.085L545.514 411.373L545.514 425.622L549.81 425.622L551.959 427.814L551.959 430.006L559.478 430.006L566.997 430.006L566.997 427.814Z" fill="black" stroke="black"/>
<path d="M747.461 381.048L745.313 383.24H741.016V400.777H745.313H768.945V397.489V383.24H764.648L762.5 381.048V378.856H754.981H747.461V381.048Z" fill="black" stroke="black"/>
<path d="M778.493 381.049L776.345 383.241H772.048V400.778H776.345H799.977V397.49V383.241H795.68L793.532 381.049V378.856H786.012H778.493V381.049Z" fill="black" stroke="black"/>
<path d="M809.525 381.049L807.377 383.241H803.08V400.778H807.377H831.009V397.49V383.241H826.712L824.564 381.049V378.856H817.045H809.525V381.049Z" fill="black" stroke="black"/>
<path d="M840.557 381.049L838.409 383.241H834.112V400.778H838.409H862.041V397.49V383.241H857.744L855.596 381.049V378.856H848.077H840.557V381.049Z" fill="black" stroke="black"/>
<path d="M871.59 381.049L869.441 383.241H865.145V400.778H869.441H893.073V397.49V383.241H888.777L886.628 381.049V378.856H879.109H871.59V381.049Z" fill="black" stroke="black"/>
<path d="M902.622 381.049L900.473 383.241H896.177V400.778H900.473H924.105V397.49V383.241H919.809L917.66 381.049V378.856H910.141H902.622V381.049Z" fill="black" stroke="black"/>
<path d="M551.959 381.048L549.81 383.24H545.514V400.777H549.81H573.443V397.489V383.24H569.146L566.997 381.048V378.856H559.478H551.959V381.048Z" fill="black" stroke="black"/>
<path d="M582.991 381.049L580.843 383.241H576.546V400.778H580.843H604.475V397.49V383.241H600.178L598.03 381.049V378.856H590.511H582.991V381.049Z" fill="black" stroke="black"/>
<path d="M614.023 381.049L611.875 383.241H607.578V400.778H611.875H635.507V397.49V383.241H631.21L629.062 381.049V378.856H621.543H614.023V381.049Z" fill="black" stroke="black"/>
<path d="M645.055 381.049L642.906 383.241H638.61V400.778H642.906H666.539V397.49V383.241H662.242L660.093 381.049V378.856H652.574H645.055V381.049Z" fill="black" stroke="black"/>
<path d="M676.087 381.049L673.939 383.241H669.642V400.778H673.939H697.571V397.49V383.241H693.274L691.126 381.049V378.856H683.607H676.087V381.049Z" fill="black" stroke="black"/>
<path d="M707.119 381.049L704.971 383.241H700.674V400.778H704.971H728.603V397.49V383.241H724.306L722.158 381.049V378.856H714.638H707.119V381.049Z" fill="black" stroke="black"/>
<ellipse cx="518.62" cy="437.313" rx="13.4472" ry="13.5703" fill="#FA9696"/>
<path d="M513.448 443.482V432.094H515.833V436.793H520.677V432.094H523.057V443.482H520.677V438.778H515.833V443.482H513.448Z" fill="black"/>
<rect x="49.5" y="361.611" width="451.034" height="92.9484" fill="#D9D9D9" stroke="black"/>
<path d="M465.625 427.815L467.774 425.623L472.071 425.623L472.071 408.086L467.774 408.086L444.142 408.086L444.142 411.374L444.142 425.623L448.438 425.623L450.587 427.815L450.587 430.007L458.106 430.007L465.625 430.007L465.625 427.815Z" fill="black" stroke="black"/>
<path d="M434.594 427.815L436.742 425.623L441.039 425.623L441.039 408.086L436.742 408.086L413.11 408.086L413.11 411.374L413.11 425.623L417.407 425.623L419.555 427.815L419.555 430.007L427.075 430.007L434.594 430.007L434.594 427.815Z" fill="black" stroke="black"/>
<path d="M403.561 427.815L405.71 425.623L410.006 425.623L410.006 408.086L405.71 408.086L382.077 408.086L382.077 411.374L382.077 425.623L386.374 425.623L388.523 427.815L388.523 430.007L396.042 430.007L403.561 430.007L403.561 427.815Z" fill="black" stroke="black"/>
<path d="M372.529 427.815L374.677 425.623L378.974 425.623L378.974 408.086L374.677 408.086L351.045 408.086L351.045 411.374L351.045 425.623L355.342 425.623L357.49 427.815L357.49 430.007L365.009 430.007L372.529 430.007L372.529 427.815Z" fill="black" stroke="black"/>
<path d="M341.497 427.815L343.646 425.623L347.942 425.623L347.942 408.086L343.646 408.086L320.013 408.086L320.013 411.374L320.013 425.623L324.31 425.623L326.459 427.815L326.459 430.007L333.978 430.007L341.497 430.007L341.497 427.815Z" fill="black" stroke="black"/>
<path d="M310.465 427.815L312.614 425.623L316.91 425.623L316.91 408.086L312.614 408.086L288.982 408.086L288.982 411.374L288.982 425.623L293.278 425.623L295.427 427.815L295.427 430.007L302.946 430.007L310.465 430.007L310.465 427.815Z" fill="black" stroke="black"/>
<path d="M270.123 427.814L272.272 425.622L276.569 425.622L276.569 408.085L272.272 408.085L248.64 408.085L248.64 411.373L248.64 425.622L252.936 425.622L255.085 427.814L255.085 430.006L262.604 430.006L270.123 430.006L270.123 427.814Z" fill="black" stroke="black"/>
<path d="M239.092 427.814L241.24 425.622L245.537 425.622L245.537 408.085L241.24 408.085L217.608 408.085L217.608 411.373L217.608 425.622L221.905 425.622L224.053 427.814L224.053 430.006L231.573 430.006L239.092 430.006L239.092 427.814Z" fill="black" stroke="black"/>
<path d="M208.059 427.814L210.208 425.622L214.504 425.622L214.504 408.085L210.208 408.085L186.575 408.085L186.575 411.373L186.575 425.622L190.872 425.622L193.021 427.814L193.021 430.006L200.54 430.006L208.059 430.006L208.059 427.814Z" fill="black" stroke="black"/>
<path d="M177.028 427.814L179.176 425.622L183.473 425.622L183.473 408.085L179.176 408.085L155.544 408.085L155.544 411.373L155.544 425.622L159.841 425.622L161.989 427.814L161.989 430.006L169.508 430.006L177.028 430.006L177.028 427.814Z" fill="black" stroke="black"/>
<path d="M145.995 427.814L148.143 425.622L152.44 425.622L152.44 408.085L148.143 408.085L124.511 408.085L124.511 411.373L124.511 425.622L128.808 425.622L130.956 427.814L130.956 430.006L138.476 430.006L145.995 430.006L145.995 427.814Z" fill="black" stroke="black"/>
<path d="M114.963 427.814L117.112 425.622L121.408 425.622L121.408 408.085L117.112 408.085L93.4795 408.085L93.4795 411.373L93.4795 425.622L97.7763 425.622L99.9247 427.814L99.9247 430.006L107.444 430.006L114.963 430.006L114.963 427.814Z" fill="black" stroke="black"/>
<path d="M295.427 381.048L293.278 383.24H288.981V400.777H293.278H316.91V397.489V383.24H312.614L310.465 381.048V378.856H302.946H295.427V381.048Z" fill="black" stroke="black"/>
<path d="M326.459 381.049L324.31 383.241H320.014V400.778H324.31H347.943V397.49V383.241H343.646L341.497 381.049V378.856H333.978H326.459V381.049Z" fill="black" stroke="black"/>
<path d="M357.491 381.049L355.342 383.241H351.046V400.778H355.342H378.975V397.49V383.241H374.678L372.529 381.049V378.856H365.01H357.491V381.049Z" fill="black" stroke="black"/>
<path d="M388.523 381.049L386.375 383.241H382.078V400.778H386.375H410.007V397.49V383.241H405.71L403.562 381.049V378.856H396.043H388.523V381.049Z" fill="black" stroke="black"/>
<path d="M419.555 381.049L417.407 383.241H413.11V400.778H417.407H441.039V397.49V383.241H436.742L434.594 381.049V378.856H427.074H419.555V381.049Z" fill="black" stroke="black"/>
<path d="M450.588 381.049L448.439 383.241H444.143V400.778H448.439H472.071V397.49V383.241H467.775L465.626 381.049V378.856H458.107H450.588V381.049Z" fill="black" stroke="black"/>
<path d="M99.9249 381.048L97.7765 383.24H93.4797V400.777H97.7765H121.409V397.489V383.24H117.112L114.964 381.048V378.856H107.444H99.9249V381.048Z" fill="black" stroke="black"/>
<path d="M130.957 381.049L128.808 383.241H124.511V400.778H128.808H152.44V397.49V383.241H148.144L145.995 381.049V378.856H138.476H130.957V381.049Z" fill="black" stroke="black"/>
<path d="M161.988 381.049L159.84 383.241H155.543V400.778H159.84H183.472V397.49V383.241H179.175L177.027 381.049V378.856H169.507H161.988V381.049Z" fill="black" stroke="black"/>
<path d="M193.021 381.049L190.872 383.241H186.576V400.778H190.872H214.505V397.49V383.241H210.208L208.059 381.049V378.856H200.54H193.021V381.049Z" fill="black" stroke="black"/>
<path d="M224.053 381.049L221.905 383.241H217.608V400.778H221.905H245.537V397.49V383.241H241.24L239.092 381.049V378.856H231.572H224.053V381.049Z" fill="black" stroke="black"/>
<path d="M255.085 381.049L252.937 383.241H248.64V400.778H252.937H276.569V397.49V383.241H272.272L270.124 381.049V378.856H262.604H255.085V381.049Z" fill="black" stroke="black"/>
<ellipse cx="66.5845" cy="437.313" rx="13.4472" ry="13.5703" fill="#FA9696"/>
<path d="M69.0935 434.826C69.0163 434.555 68.908 434.316 68.7684 434.108C68.6288 433.897 68.458 433.719 68.256 433.575C68.0576 433.426 67.8299 433.313 67.5727 433.235C67.3193 433.158 67.0383 433.119 66.7297 433.119C66.153 433.119 65.6461 433.263 65.209 433.552C64.7755 433.841 64.4376 434.262 64.1951 434.815C63.9527 435.363 63.8315 436.034 63.8315 436.827C63.8315 437.621 63.9509 438.295 64.1896 438.851C64.4284 439.407 64.7663 439.832 65.2035 440.125C65.6406 440.414 66.1567 440.558 66.7518 440.558C67.2917 440.558 67.7527 440.462 68.1348 440.269C68.5204 440.073 68.8143 439.797 69.0163 439.441C69.2221 439.085 69.3249 438.664 69.3249 438.179L69.8098 438.251H66.9005V436.438H71.6226V437.873C71.6226 438.874 71.4132 439.734 70.9944 440.453C70.5757 441.168 69.999 441.721 69.2643 442.11C68.5296 442.495 67.6884 442.688 66.7407 442.688C65.6828 442.688 64.7535 442.453 63.9527 441.982C63.1519 441.507 62.5274 440.835 62.0793 439.963C61.6348 439.089 61.4126 438.051 61.4126 436.85C61.4126 435.927 61.5448 435.104 61.8093 434.381C62.0775 433.654 62.4521 433.039 62.9333 432.535C63.4146 432.031 63.9747 431.647 64.6139 431.384C65.253 431.121 65.9455 430.989 66.6911 430.989C67.3303 430.989 67.9254 431.084 68.4764 431.273C69.0274 431.458 69.5159 431.721 69.942 432.062C70.3718 432.403 70.7226 432.809 70.9944 433.28C71.2662 433.747 71.4407 434.262 71.5179 434.826H69.0935Z" fill="black"/>
<rect x="501.535" y="267.662" width="448.966" height="92.9484" fill="#D9D9D9" stroke="black"/>
<path d="M917.66 333.866L919.808 331.674L924.105 331.674L924.105 314.137L919.808 314.137L896.176 314.137L896.176 317.425L896.176 331.674L900.473 331.674L902.621 333.866L902.621 336.058L910.141 336.058L917.66 336.058L917.66 333.866Z" fill="black" stroke="black"/>
<path d="M886.628 333.866L888.776 331.674L893.073 331.674L893.073 314.137L888.776 314.137L865.144 314.137L865.144 317.425L865.144 331.674L869.441 331.674L871.589 333.866L871.589 336.058L879.109 336.058L886.628 336.058L886.628 333.866Z" fill="black" stroke="black"/>
<path d="M855.596 333.866L857.744 331.674L862.041 331.674L862.041 314.137L857.744 314.137L834.112 314.137L834.112 317.425L834.112 331.674L838.409 331.674L840.557 333.866L840.557 336.058L848.076 336.058L855.596 336.058L855.596 333.866Z" fill="black" stroke="black"/>
<path d="M824.564 333.866L826.712 331.674L831.009 331.674L831.009 314.137L826.712 314.137L803.08 314.137L803.08 317.425L803.08 331.674L807.377 331.674L809.525 333.866L809.525 336.058L817.045 336.058L824.564 336.058L824.564 333.866Z" fill="black" stroke="black"/>
<path d="M793.531 333.866L795.68 331.674L799.977 331.674L799.977 314.137L795.68 314.137L772.048 314.137L772.048 317.425L772.048 331.674L776.344 331.674L778.493 333.866L778.493 336.058L786.012 336.058L793.531 336.058L793.531 333.866Z" fill="black" stroke="black"/>
<path d="M762.499 333.866L764.648 331.674L768.945 331.674L768.945 314.137L764.648 314.137L741.016 314.137L741.016 317.425L741.016 331.674L745.312 331.674L747.461 333.866L747.461 336.058L754.98 336.058L762.499 336.058L762.499 333.866Z" fill="black" stroke="black"/>
<path d="M722.159 333.866L724.307 331.674L728.604 331.674L728.604 314.137L724.307 314.137L700.675 314.137L700.675 317.425L700.675 331.674L704.972 331.674L707.12 333.866L707.12 336.058L714.639 336.058L722.159 336.058L722.159 333.866Z" fill="black" stroke="black"/>
<path d="M691.126 333.866L693.274 331.674L697.571 331.674L697.571 314.137L693.274 314.137L669.642 314.137L669.642 317.425L669.642 331.674L673.939 331.674L676.087 333.866L676.087 336.058L683.607 336.058L691.126 336.058L691.126 333.866Z" fill="black" stroke="black"/>
<path d="M660.094 333.866L662.243 331.674L666.54 331.674L666.54 314.137L662.243 314.137L638.611 314.137L638.611 317.425L638.611 331.674L642.907 331.674L645.056 333.866L645.056 336.058L652.575 336.058L660.094 336.058L660.094 333.866Z" fill="black" stroke="black"/>
<path d="M629.062 333.866L631.21 331.674L635.507 331.674L635.507 314.137L631.21 314.137L607.578 314.137L607.578 317.425L607.578 331.674L611.875 331.674L614.023 333.866L614.023 336.058L621.542 336.058L629.062 336.058L629.062 333.866Z" fill="black" stroke="black"/>
<path d="M598.03 333.866L600.178 331.674L604.475 331.674L604.475 314.137L600.178 314.137L576.546 314.137L576.546 317.425L576.546 331.674L580.843 331.674L582.991 333.866L582.991 336.058L590.51 336.058L598.03 336.058L598.03 333.866Z" fill="black" stroke="black"/>
<path d="M566.997 333.866L569.146 331.674L573.443 331.674L573.443 314.137L569.146 314.137L545.514 314.137L545.514 317.425L545.514 331.674L549.81 331.674L551.959 333.866L551.959 336.058L559.478 336.058L566.997 336.058L566.997 333.866Z" fill="black" stroke="black"/>
<path d="M747.461 287.1L745.313 289.292H741.016V306.829H745.313H768.945V303.541V289.292H764.648L762.5 287.1V284.908H754.981H747.461V287.1Z" fill="black" stroke="black"/>
<path d="M778.493 287.1L776.345 289.292H772.048V306.829H776.345H799.977V303.541V289.292H795.68L793.532 287.1V284.908H786.012H778.493V287.1Z" fill="black" stroke="black"/>
<path d="M809.525 287.1L807.377 289.292H803.08V306.829H807.377H831.009V303.541V289.292H826.712L824.564 287.1V284.908H817.045H809.525V287.1Z" fill="black" stroke="black"/>
<path d="M840.557 287.1L838.409 289.292H834.112V306.829H838.409H862.041V303.541V289.292H857.744L855.596 287.1V284.908H848.077H840.557V287.1Z" fill="black" stroke="black"/>
<path d="M871.59 287.1L869.441 289.292H865.145V306.829H869.441H893.073V303.541V289.292H888.777L886.628 287.1V284.908H879.109H871.59V287.1Z" fill="black" stroke="black"/>
<path d="M902.622 287.1L900.473 289.292H896.177V306.829H900.473H924.105V303.541V289.292H919.809L917.66 287.1V284.908H910.141H902.622V287.1Z" fill="black" stroke="black"/>
<path d="M551.959 287.1L549.81 289.292H545.514V306.829H549.81H573.443V303.541V289.292H569.146L566.997 287.1V284.908H559.478H551.959V287.1Z" fill="black" stroke="black"/>
<path d="M582.991 287.1L580.843 289.292H576.546V306.829H580.843H604.475V303.541V289.292H600.178L598.03 287.1V284.908H590.511H582.991V287.1Z" fill="black" stroke="black"/>
<path d="M614.023 287.1L611.875 289.292H607.578V306.829H611.875H635.507V303.541V289.292H631.21L629.062 287.1V284.908H621.543H614.023V287.1Z" fill="black" stroke="black"/>
<path d="M645.055 287.1L642.906 289.292H638.61V306.829H642.906H666.539V303.541V289.292H662.242L660.093 287.1V284.908H652.574H645.055V287.1Z" fill="black" stroke="black"/>
<path d="M676.087 287.1L673.939 289.292H669.642V306.829H673.939H697.571V303.541V289.292H693.274L691.126 287.1V284.908H683.607H676.087V287.1Z" fill="black" stroke="black"/>
<path d="M707.119 287.1L704.971 289.292H700.674V306.829H704.971H728.603V303.541V289.292H724.306L722.158 287.1V284.908H714.638H707.119V287.1Z" fill="black" stroke="black"/>
<ellipse cx="518.62" cy="343.366" rx="13.4472" ry="13.5703" fill="#FA9696"/>
<path d="M514.481 349.534V338.146H521.952V340.131H516.867V342.845H521.457V344.83H516.867V349.534H514.481Z" fill="black"/>
<rect x="49.5" y="267.662" width="451.034" height="92.9484" fill="#D9D9D9" stroke="black"/>
<path d="M465.625 333.866L467.774 331.674L472.071 331.674L472.071 314.137L467.774 314.137L444.142 314.137L444.142 317.425L444.142 331.674L448.438 331.674L450.587 333.866L450.587 336.058L458.106 336.058L465.625 336.058L465.625 333.866Z" fill="black" stroke="black"/>
<path d="M434.594 333.866L436.742 331.674L441.039 331.674L441.039 314.137L436.742 314.137L413.11 314.137L413.11 317.425L413.11 331.674L417.407 331.674L419.555 333.866L419.555 336.058L427.075 336.058L434.594 336.058L434.594 333.866Z" fill="black" stroke="black"/>
<path d="M403.561 333.866L405.71 331.674L410.006 331.674L410.006 314.137L405.71 314.137L382.077 314.137L382.077 317.425L382.077 331.674L386.374 331.674L388.523 333.866L388.523 336.058L396.042 336.058L403.561 336.058L403.561 333.866Z" fill="black" stroke="black"/>
<path d="M372.529 333.866L374.677 331.674L378.974 331.674L378.974 314.137L374.677 314.137L351.045 314.137L351.045 317.425L351.045 331.674L355.342 331.674L357.49 333.866L357.49 336.058L365.009 336.058L372.529 336.058L372.529 333.866Z" fill="black" stroke="black"/>
<path d="M341.497 333.866L343.646 331.674L347.942 331.674L347.942 314.137L343.646 314.137L320.013 314.137L320.013 317.425L320.013 331.674L324.31 331.674L326.459 333.866L326.459 336.058L333.978 336.058L341.497 336.058L341.497 333.866Z" fill="black" stroke="black"/>
<path d="M310.465 333.866L312.614 331.674L316.91 331.674L316.91 314.137L312.614 314.137L288.982 314.137L288.982 317.425L288.982 331.674L293.278 331.674L295.427 333.866L295.427 336.058L302.946 336.058L310.465 336.058L310.465 333.866Z" fill="black" stroke="black"/>
<path d="M270.123 333.866L272.272 331.674L276.569 331.674L276.569 314.137L272.272 314.137L248.64 314.137L248.64 317.425L248.64 331.674L252.936 331.674L255.085 333.866L255.085 336.058L262.604 336.058L270.123 336.058L270.123 333.866Z" fill="black" stroke="black"/>
<path d="M239.092 333.866L241.24 331.674L245.537 331.674L245.537 314.137L241.24 314.137L217.608 314.137L217.608 317.425L217.608 331.674L221.905 331.674L224.053 333.866L224.053 336.058L231.573 336.058L239.092 336.058L239.092 333.866Z" fill="black" stroke="black"/>
<path d="M208.059 333.866L210.208 331.674L214.504 331.674L214.504 314.137L210.208 314.137L186.575 314.137L186.575 317.425L186.575 331.674L190.872 331.674L193.021 333.866L193.021 336.058L200.54 336.058L208.059 336.058L208.059 333.866Z" fill="black" stroke="black"/>
<path d="M177.028 333.866L179.176 331.674L183.473 331.674L183.473 314.137L179.176 314.137L155.544 314.137L155.544 317.425L155.544 331.674L159.841 331.674L161.989 333.866L161.989 336.058L169.508 336.058L177.028 336.058L177.028 333.866Z" fill="black" stroke="black"/>
<path d="M145.995 333.866L148.143 331.674L152.44 331.674L152.44 314.137L148.143 314.137L124.511 314.137L124.511 317.425L124.511 331.674L128.808 331.674L130.956 333.866L130.956 336.058L138.476 336.058L145.995 336.058L145.995 333.866Z" fill="black" stroke="black"/>
<path d="M114.963 333.866L117.112 331.674L121.408 331.674L121.408 314.137L117.112 314.137L93.4795 314.137L93.4795 317.425L93.4795 331.674L97.7763 331.674L99.9247 333.866L99.9247 336.058L107.444 336.058L114.963 336.058L114.963 333.866Z" fill="black" stroke="black"/>
<path d="M295.427 287.1L293.278 289.292H288.981V306.829H293.278H316.91V303.541V289.292H312.614L310.465 287.1V284.908H302.946H295.427V287.1Z" fill="black" stroke="black"/>
<path d="M326.459 287.1L324.31 289.292H320.014V306.829H324.31H347.943V303.541V289.292H343.646L341.497 287.1V284.908H333.978H326.459V287.1Z" fill="black" stroke="black"/>
<path d="M357.491 287.1L355.342 289.292H351.046V306.829H355.342H378.975V303.541V289.292H374.678L372.529 287.1V284.908H365.01H357.491V287.1Z" fill="black" stroke="black"/>
<path d="M388.523 287.1L386.375 289.292H382.078V306.829H386.375H410.007V303.541V289.292H405.71L403.562 287.1V284.908H396.043H388.523V287.1Z" fill="black" stroke="black"/>
<path d="M419.555 287.1L417.407 289.292H413.11V306.829H417.407H441.039V303.541V289.292H436.742L434.594 287.1V284.908H427.074H419.555V287.1Z" fill="black" stroke="black"/>
<path d="M450.588 287.1L448.439 289.292H444.143V306.829H448.439H472.071V303.541V289.292H467.775L465.626 287.1V284.908H458.107H450.588V287.1Z" fill="black" stroke="black"/>
<path d="M99.9249 287.1L97.7765 289.292H93.4797V306.829H97.7765H121.409V303.541V289.292H117.112L114.964 287.1V284.908H107.444H99.9249V287.1Z" fill="black" stroke="black"/>
<path d="M130.957 287.1L128.808 289.292H124.511V306.829H128.808H152.44V303.541V289.292H148.144L145.995 287.1V284.908H138.476H130.957V287.1Z" fill="black" stroke="black"/>
<path d="M161.988 287.1L159.84 289.292H155.543V306.829H159.84H183.472V303.541V289.292H179.175L177.027 287.1V284.908H169.507H161.988V287.1Z" fill="black" stroke="black"/>
<path d="M193.021 287.1L190.872 289.292H186.576V306.829H190.872H214.505V303.541V289.292H210.208L208.059 287.1V284.908H200.54H193.021V287.1Z" fill="black" stroke="black"/>
<path d="M224.053 287.1L221.905 289.292H217.608V306.829H221.905H245.537V303.541V289.292H241.24L239.092 287.1V284.908H231.572H224.053V287.1Z" fill="black" stroke="black"/>
<path d="M255.085 287.1L252.937 289.292H248.64V306.829H252.937H276.569V303.541V289.292H272.272L270.124 287.1V284.908H262.604H255.085V287.1Z" fill="black" stroke="black"/>
<ellipse cx="66.5845" cy="343.366" rx="13.4472" ry="13.5703" fill="#FA9696"/>
<path d="M62.4468 348.584V337.197H70.0505V339.182H64.8326V341.895H69.6593V343.88H64.8326V346.599H70.0726V348.584H62.4468Z" fill="black"/>
<rect x="501.535" y="172.671" width="448.966" height="93.9922" fill="#D9D9D9" stroke="black"/>
<path d="M917.66 238.874L919.808 236.681L924.105 236.681L924.105 219.144L919.808 219.144L896.176 219.144L896.176 222.433L896.176 236.681L900.473 236.681L902.621 238.874L902.621 241.066L910.141 241.066L917.66 241.066L917.66 238.874Z" fill="black" stroke="black"/>
<path d="M886.628 238.874L888.777 236.681L893.073 236.681L893.073 219.144L888.777 219.144L865.145 219.144L865.145 222.433L865.145 236.681L869.441 236.681L871.59 238.874L871.59 241.066L879.109 241.066L886.628 241.066L886.628 238.874Z" fill="black" stroke="black"/>
<path d="M855.596 238.874L857.744 236.681L862.041 236.681L862.041 219.144L857.744 219.144L834.112 219.144L834.112 222.433L834.112 236.681L838.409 236.681L840.557 238.874L840.557 241.066L848.077 241.066L855.596 241.066L855.596 238.874Z" fill="black" stroke="black"/>
<path d="M824.564 238.874L826.713 236.681L831.009 236.681L831.009 219.144L826.713 219.144L803.08 219.144L803.08 222.433L803.08 236.681L807.377 236.681L809.526 238.874L809.526 241.066L817.045 241.066L824.564 241.066L824.564 238.874Z" fill="black" stroke="black"/>
<path d="M793.532 238.874L795.68 236.681L799.977 236.681L799.977 219.144L795.68 219.144L772.048 219.144L772.048 222.433L772.048 236.681L776.345 236.681L778.493 238.874L778.493 241.066L786.012 241.066L793.532 241.066L793.532 238.874Z" fill="black" stroke="black"/>
<path d="M762.5 238.874L764.648 236.681L768.945 236.681L768.945 219.144L764.648 219.144L741.016 219.144L741.016 222.433L741.016 236.681L745.313 236.681L747.461 238.874L747.461 241.066L754.981 241.066L762.5 241.066L762.5 238.874Z" fill="black" stroke="black"/>
<path d="M722.158 238.874L724.307 236.681L728.603 236.681L728.603 219.144L724.307 219.144L700.674 219.144L700.674 222.433L700.674 236.681L704.971 236.681L707.12 238.874L707.12 241.066L714.639 241.066L722.158 241.066L722.158 238.874Z" fill="black" stroke="black"/>
<path d="M691.126 238.874L693.274 236.681L697.571 236.681L697.571 219.144L693.274 219.144L669.642 219.144L669.642 222.433L669.642 236.681L673.939 236.681L676.087 238.874L676.087 241.066L683.607 241.066L691.126 241.066L691.126 238.874Z" fill="black" stroke="black"/>
<path d="M660.094 238.874L662.243 236.681L666.539 236.681L666.539 219.144L662.243 219.144L638.61 219.144L638.61 222.433L638.61 236.681L642.907 236.681L645.056 238.874L645.056 241.066L652.575 241.066L660.094 241.066L660.094 238.874Z" fill="black" stroke="black"/>
<path d="M629.061 238.874L631.21 236.681L635.507 236.681L635.507 219.144L631.21 219.144L607.578 219.144L607.578 222.433L607.578 236.681L611.874 236.681L614.023 238.874L614.023 241.066L621.542 241.066L629.061 241.066L629.061 238.874Z" fill="black" stroke="black"/>
<path d="M598.03 238.874L600.178 236.681L604.475 236.681L604.475 219.144L600.178 219.144L576.546 219.144L576.546 222.433L576.546 236.681L580.843 236.681L582.991 238.874L582.991 241.066L590.511 241.066L598.03 241.066L598.03 238.874Z" fill="black" stroke="black"/>
<path d="M566.997 238.874L569.146 236.681L573.442 236.681L573.442 219.144L569.146 219.144L545.513 219.144L545.513 222.433L545.513 236.681L549.81 236.681L551.959 238.874L551.959 241.066L559.478 241.066L566.997 241.066L566.997 238.874Z" fill="black" stroke="black"/>
<path d="M747.461 192.108L745.313 194.3H741.016V211.837H745.313H768.945V208.549V194.3H764.648L762.5 192.108V189.916H754.981H747.461V192.108Z" fill="black" stroke="black"/>
<path d="M778.493 192.108L776.345 194.3H772.048V211.837H776.345H799.977V208.549V194.3H795.68L793.532 192.108V189.916H786.012H778.493V192.108Z" fill="black" stroke="black"/>
<path d="M809.525 192.108L807.377 194.3H803.08V211.837H807.377H831.009V208.549V194.3H826.712L824.564 192.108V189.916H817.045H809.525V192.108Z" fill="black" stroke="black"/>
<path d="M840.557 192.108L838.409 194.3H834.112V211.837H838.409H862.041V208.549V194.3H857.744L855.596 192.108V189.916H848.077H840.557V192.108Z" fill="black" stroke="black"/>
<path d="M871.59 192.108L869.441 194.3H865.145V211.837H869.441H893.073V208.549V194.3H888.777L886.628 192.108V189.916H879.109H871.59V192.108Z" fill="black" stroke="black"/>
<path d="M902.622 192.108L900.473 194.3H896.177V211.837H900.473H924.105V208.549V194.3H919.809L917.66 192.108V189.916H910.141H902.622V192.108Z" fill="black" stroke="black"/>
<path d="M551.959 192.108L549.81 194.3H545.514V211.837H549.81H573.443V208.549V194.3H569.146L566.997 192.108V189.916H559.478H551.959V192.108Z" fill="black" stroke="black"/>
<path d="M582.991 192.108L580.843 194.3H576.546V211.837H580.843H604.475V208.549V194.3H600.178L598.03 192.108V189.916H590.511H582.991V192.108Z" fill="black" stroke="black"/>
<path d="M614.023 192.108L611.875 194.3H607.578V211.837H611.875H635.507V208.549V194.3H631.21L629.062 192.108V189.916H621.543H614.023V192.108Z" fill="black" stroke="black"/>
<path d="M645.055 192.108L642.906 194.3H638.61V211.837H642.906H666.539V208.549V194.3H662.242L660.093 192.108V189.916H652.574H645.055V192.108Z" fill="black" stroke="black"/>
<path d="M676.087 192.108L673.939 194.3H669.642V211.837H673.939H697.571V208.549V194.3H693.274L691.126 192.108V189.916H683.607H676.087V192.108Z" fill="black" stroke="black"/>
<path d="M707.119 192.108L704.971 194.3H700.674V211.837H704.971H728.603V208.549V194.3H724.306L722.158 192.108V189.916H714.638H707.119V192.108Z" fill="black" stroke="black"/>
<ellipse cx="518.62" cy="248.373" rx="13.4472" ry="13.5703" fill="#FA9696"/>
<path d="M517.448 253.593H513.448V242.205H517.481C518.616 242.205 519.593 242.433 520.412 242.889C521.231 243.341 521.861 243.992 522.302 244.84C522.746 245.689 522.969 246.705 522.969 247.888C522.969 249.074 522.746 250.093 522.302 250.946C521.861 251.798 521.228 252.453 520.401 252.909C519.578 253.365 518.594 253.593 517.448 253.593ZM515.833 251.53H517.349C518.054 251.53 518.647 251.404 519.128 251.152C519.613 250.896 519.977 250.501 520.219 249.967C520.465 249.43 520.588 248.736 520.588 247.888C520.588 247.046 520.465 246.358 520.219 245.825C519.977 245.291 519.615 244.898 519.134 244.646C518.653 244.394 518.059 244.268 517.354 244.268H515.833V251.53Z" fill="black"/>
<rect x="49.5" y="172.671" width="451.034" height="93.9922" fill="#D9D9D9" stroke="black"/>
<path d="M465.625 238.874L467.774 236.681L472.071 236.681L472.071 219.144L467.774 219.144L444.142 219.144L444.142 222.433L444.142 236.681L448.438 236.681L450.587 238.874L450.587 241.066L458.106 241.066L465.625 241.066L465.625 238.874Z" fill="black" stroke="black"/>
<path d="M434.594 238.874L436.742 236.681L441.039 236.681L441.039 219.144L436.742 219.144L413.11 219.144L413.11 222.433L413.11 236.681L417.407 236.681L419.555 238.874L419.555 241.066L427.075 241.066L434.594 241.066L434.594 238.874Z" fill="black" stroke="black"/>
<path d="M403.561 238.874L405.71 236.681L410.006 236.681L410.006 219.144L405.71 219.144L382.077 219.144L382.077 222.433L382.077 236.681L386.374 236.681L388.523 238.874L388.523 241.066L396.042 241.066L403.561 241.066L403.561 238.874Z" fill="black" stroke="black"/>
<path d="M372.529 238.874L374.677 236.681L378.974 236.681L378.974 219.144L374.677 219.144L351.045 219.144L351.045 222.433L351.045 236.681L355.342 236.681L357.49 238.874L357.49 241.066L365.009 241.066L372.529 241.066L372.529 238.874Z" fill="black" stroke="black"/>
<path d="M341.497 238.874L343.646 236.681L347.942 236.681L347.942 219.144L343.646 219.144L320.013 219.144L320.013 222.433L320.013 236.681L324.31 236.681L326.459 238.874L326.459 241.066L333.978 241.066L341.497 241.066L341.497 238.874Z" fill="black" stroke="black"/>
<path d="M310.465 238.874L312.614 236.681L316.91 236.681L316.91 219.144L312.614 219.144L288.982 219.144L288.982 222.433L288.982 236.681L293.278 236.681L295.427 238.874L295.427 241.066L302.946 241.066L310.465 241.066L310.465 238.874Z" fill="black" stroke="black"/>
<path d="M270.124 238.874L272.272 236.681L276.569 236.681L276.569 219.144L272.272 219.144L248.64 219.144L248.64 222.433L248.64 236.681L252.937 236.681L255.085 238.874L255.085 241.066L262.604 241.066L270.124 241.066L270.124 238.874Z" fill="black" stroke="black"/>
<path d="M239.092 238.874L241.24 236.681L245.537 236.681L245.537 219.144L241.24 219.144L217.608 219.144L217.608 222.433L217.608 236.681L221.905 236.681L224.053 238.874L224.053 241.066L231.573 241.066L239.092 241.066L239.092 238.874Z" fill="black" stroke="black"/>
<path d="M208.06 238.874L210.208 236.681L214.505 236.681L214.505 219.144L210.208 219.144L186.576 219.144L186.576 222.433L186.576 236.681L190.872 236.681L193.021 238.874L193.021 241.066L200.54 241.066L208.06 241.066L208.06 238.874Z" fill="black" stroke="black"/>
<path d="M177.028 238.874L179.176 236.681L183.473 236.681L183.473 219.144L179.176 219.144L155.544 219.144L155.544 222.433L155.544 236.681L159.841 236.681L161.989 238.874L161.989 241.066L169.508 241.066L177.028 241.066L177.028 238.874Z" fill="black" stroke="black"/>
<path d="M145.995 238.874L148.143 236.681L152.44 236.681L152.44 219.144L148.143 219.144L124.511 219.144L124.511 222.433L124.511 236.681L128.808 236.681L130.956 238.874L130.956 241.066L138.476 241.066L145.995 241.066L145.995 238.874Z" fill="black" stroke="black"/>
<path d="M114.964 238.874L117.112 236.681L121.409 236.681L121.409 219.144L117.112 219.144L93.4798 219.144L93.4798 222.433L93.4798 236.681L97.7765 236.681L99.9249 238.874L99.9249 241.066L107.444 241.066L114.964 241.066L114.964 238.874Z" fill="black" stroke="black"/>
<path d="M295.427 192.108L293.278 194.3H288.981V211.837H293.278H316.91V208.549V194.3H312.614L310.465 192.108V189.916H302.946H295.427V192.108Z" fill="black" stroke="black"/>
<path d="M326.459 192.108L324.31 194.3H320.014V211.837H324.31H347.943V208.549V194.3H343.646L341.497 192.108V189.916H333.978H326.459V192.108Z" fill="black" stroke="black"/>
<path d="M357.491 192.108L355.342 194.3H351.046V211.837H355.342H378.975V208.549V194.3H374.678L372.529 192.108V189.916H365.01H357.491V192.108Z" fill="black" stroke="black"/>
<path d="M388.523 192.108L386.375 194.3H382.078V211.837H386.375H410.007V208.549V194.3H405.71L403.562 192.108V189.916H396.043H388.523V192.108Z" fill="black" stroke="black"/>
<path d="M419.555 192.108L417.407 194.3H413.11V211.837H417.407H441.039V208.549V194.3H436.742L434.594 192.108V189.916H427.074H419.555V192.108Z" fill="black" stroke="black"/>
<path d="M450.588 192.108L448.439 194.3H444.143V211.837H448.439H472.071V208.549V194.3H467.775L465.626 192.108V189.916H458.107H450.588V192.108Z" fill="black" stroke="black"/>
<path d="M99.9249 192.108L97.7765 194.3H93.4797V211.837H97.7765H121.409V208.549V194.3H117.112L114.964 192.108V189.916H107.444H99.9249V192.108Z" fill="black" stroke="black"/>
<path d="M130.957 192.108L128.808 194.3H124.511V211.837H128.808H152.44V208.549V194.3H148.144L145.995 192.108V189.916H138.476H130.957V192.108Z" fill="black" stroke="black"/>
<path d="M161.988 192.108L159.84 194.3H155.543V211.837H159.84H183.472V208.549V194.3H179.175L177.027 192.108V189.916H169.507H161.988V192.108Z" fill="black" stroke="black"/>
<path d="M193.021 192.108L190.872 194.3H186.576V211.837H190.872H214.505V208.549V194.3H210.208L208.059 192.108V189.916H200.54H193.021V192.108Z" fill="black" stroke="black"/>
<path d="M224.053 192.108L221.905 194.3H217.608V211.837H221.905H245.537V208.549V194.3H241.24L239.092 192.108V189.916H231.572H224.053V192.108Z" fill="black" stroke="black"/>
<path d="M255.085 192.108L252.937 194.3H248.64V211.837H252.937H276.569V208.549V194.3H272.272L270.124 192.108V189.916H262.604H255.085V192.108Z" fill="black" stroke="black"/>
<ellipse cx="66.5845" cy="248.373" rx="13.4472" ry="13.5703" fill="#FA9696"/>
<path d="M71.5675 246.191H69.1541C69.11 245.876 69.02 245.596 68.8841 245.352C68.7482 245.103 68.5737 244.892 68.3607 244.718C68.1476 244.544 67.9015 244.41 67.6223 244.317C67.3468 244.225 67.0475 244.178 66.7242 244.178C66.1401 244.178 65.6314 244.325 65.1979 244.618C64.7645 244.907 64.4284 245.329 64.1896 245.885C63.9509 246.438 63.8315 247.109 63.8315 247.898C63.8315 248.71 63.9509 249.392 64.1896 249.945C64.4321 250.497 64.77 250.914 65.2035 251.196C65.6369 251.477 66.1383 251.618 66.7077 251.618C67.0272 251.618 67.323 251.576 67.5948 251.49C67.8703 251.405 68.1145 251.281 68.3276 251.118C68.5407 250.951 68.717 250.749 68.8566 250.512C68.9998 250.274 69.099 250.004 69.1541 249.7L71.5675 249.711C71.505 250.234 71.3489 250.738 71.0991 251.223C70.853 251.705 70.5206 252.137 70.1018 252.519C69.6867 252.897 69.1908 253.197 68.6141 253.42C68.0411 253.639 67.3927 253.748 66.6691 253.748C65.6626 253.748 64.7627 253.518 63.9692 253.058C63.1795 252.599 62.555 251.933 62.0958 251.062C61.6403 250.191 61.4126 249.136 61.4126 247.898C61.4126 246.657 61.644 245.6 62.1069 244.729C62.5697 243.858 63.1978 243.194 63.9913 242.738C64.7847 242.279 65.6773 242.049 66.6691 242.049C67.323 242.049 67.929 242.142 68.4874 242.327C69.0494 242.512 69.5471 242.783 69.9806 243.139C70.414 243.491 70.7667 243.923 71.0385 244.434C71.314 244.946 71.4903 245.531 71.5675 246.191Z" fill="black"/>
<rect x="501.535" y="78.7228" width="448.966" height="92.9484" fill="#D9D9D9" stroke="black"/>
<path d="M917.66 144.925L919.808 142.733L924.105 142.733L924.105 125.196L919.808 125.196L896.176 125.196L896.176 128.484L896.176 142.733L900.473 142.733L902.621 144.925L902.621 147.117L910.141 147.117L917.66 147.117L917.66 144.925Z" fill="black" stroke="black"/>
<path d="M886.628 144.925L888.777 142.733L893.073 142.733L893.073 125.196L888.777 125.196L865.145 125.196L865.145 128.484L865.145 142.733L869.441 142.733L871.59 144.925L871.59 147.117L879.109 147.117L886.628 147.117L886.628 144.925Z" fill="black" stroke="black"/>
<path d="M855.596 144.925L857.744 142.733L862.041 142.733L862.041 125.196L857.744 125.196L834.112 125.196L834.112 128.484L834.112 142.733L838.409 142.733L840.557 144.925L840.557 147.117L848.077 147.117L855.596 147.117L855.596 144.925Z" fill="black" stroke="black"/>
<path d="M824.564 144.925L826.713 142.733L831.009 142.733L831.009 125.196L826.713 125.196L803.08 125.196L803.08 128.484L803.08 142.733L807.377 142.733L809.526 144.925L809.526 147.117L817.045 147.117L824.564 147.117L824.564 144.925Z" fill="black" stroke="black"/>
<path d="M793.532 144.925L795.68 142.733L799.977 142.733L799.977 125.196L795.68 125.196L772.048 125.196L772.048 128.484L772.048 142.733L776.345 142.733L778.493 144.925L778.493 147.117L786.012 147.117L793.532 147.117L793.532 144.925Z" fill="black" stroke="black"/>
<path d="M762.5 144.925L764.648 142.733L768.945 142.733L768.945 125.196L764.648 125.196L741.016 125.196L741.016 128.484L741.016 142.733L745.313 142.733L747.461 144.925L747.461 147.117L754.981 147.117L762.5 147.117L762.5 144.925Z" fill="black" stroke="black"/>
<path d="M722.158 144.925L724.307 142.733L728.603 142.733L728.603 125.196L724.307 125.196L700.674 125.196L700.674 128.484L700.674 142.733L704.971 142.733L707.12 144.925L707.12 147.117L714.639 147.117L722.158 147.117L722.158 144.925Z" fill="black" stroke="black"/>
<path d="M691.126 144.925L693.274 142.733L697.571 142.733L697.571 125.196L693.274 125.196L669.642 125.196L669.642 128.484L669.642 142.733L673.939 142.733L676.087 144.925L676.087 147.117L683.607 147.117L691.126 147.117L691.126 144.925Z" fill="black" stroke="black"/>
<path d="M660.094 144.925L662.243 142.733L666.539 142.733L666.539 125.196L662.243 125.196L638.61 125.196L638.61 128.484L638.61 142.733L642.907 142.733L645.056 144.925L645.056 147.117L652.575 147.117L660.094 147.117L660.094 144.925Z" fill="black" stroke="black"/>
<path d="M629.061 144.925L631.21 142.733L635.507 142.733L635.507 125.196L631.21 125.196L607.578 125.196L607.578 128.484L607.578 142.733L611.874 142.733L614.023 144.925L614.023 147.117L621.542 147.117L629.061 147.117L629.061 144.925Z" fill="black" stroke="black"/>
<path d="M598.03 144.925L600.178 142.733L604.475 142.733L604.475 125.196L600.178 125.196L576.546 125.196L576.546 128.484L576.546 142.733L580.843 142.733L582.991 144.925L582.991 147.117L590.511 147.117L598.03 147.117L598.03 144.925Z" fill="black" stroke="black"/>
<path d="M566.997 144.925L569.146 142.733L573.442 142.733L573.442 125.196L569.146 125.196L545.513 125.196L545.513 128.484L545.513 142.733L549.81 142.733L551.959 144.925L551.959 147.117L559.478 147.117L566.997 147.117L566.997 144.925Z" fill="black" stroke="black"/>
<path d="M747.461 98.16L745.313 100.352H741.016V117.889H745.313H768.945V114.601V100.352H764.648L762.5 98.16V95.9679H754.981H747.461V98.16Z" fill="black" stroke="black"/>
<path d="M778.493 98.16L776.345 100.352H772.048V117.889H776.345H799.977V114.601V100.352H795.68L793.532 98.16V95.9679H786.012H778.493V98.16Z" fill="black" stroke="black"/>
<path d="M809.525 98.16L807.377 100.352H803.08V117.889H807.377H831.009V114.601V100.352H826.712L824.564 98.16V95.9679H817.045H809.525V98.16Z" fill="black" stroke="black"/>
<path d="M840.557 98.16L838.409 100.352H834.112V117.889H838.409H862.041V114.601V100.352H857.744L855.596 98.16V95.9679H848.077H840.557V98.16Z" fill="black" stroke="black"/>
<path d="M871.59 98.16L869.441 100.352H865.145V117.889H869.441H893.073V114.601V100.352H888.777L886.628 98.16V95.9679H879.109H871.59V98.16Z" fill="black" stroke="black"/>
<path d="M902.622 98.16L900.473 100.352H896.177V117.889H900.473H924.105V114.601V100.352H919.809L917.66 98.16V95.9679H910.141H902.622V98.16Z" fill="black" stroke="black"/>
<path d="M551.959 98.16L549.81 100.352H545.514V117.889H549.81H573.443V114.601V100.352H569.146L566.997 98.16V95.9679H559.478H551.959V98.16Z" fill="black" stroke="black"/>
<path d="M582.991 98.16L580.843 100.352H576.546V117.889H580.843H604.475V114.601V100.352H600.178L598.03 98.16V95.9679H590.511H582.991V98.16Z" fill="black" stroke="black"/>
<path d="M614.023 98.16L611.875 100.352H607.578V117.889H611.875H635.507V114.601V100.352H631.21L629.062 98.16V95.9679H621.543H614.023V98.16Z" fill="black" stroke="black"/>
<path d="M645.055 98.16L642.906 100.352H638.61V117.889H642.906H666.539V114.601V100.352H662.242L660.093 98.16V95.9679H652.574H645.055V98.16Z" fill="black" stroke="black"/>
<path d="M676.087 98.16L673.939 100.352H669.642V117.889H673.939H697.571V114.601V100.352H693.274L691.126 98.16V95.9679H683.607H676.087V98.16Z" fill="black" stroke="black"/>
<path d="M707.119 98.16L704.971 100.352H700.674V117.889H704.971H728.603V114.601V100.352H724.306L722.158 98.16V95.9679H714.638H707.119V98.16Z" fill="black" stroke="black"/>
<ellipse cx="518.62" cy="154.424" rx="13.4472" ry="13.5703" fill="#FA9696"/>
<path d="M514.481 159.644V148.256H518.999C519.829 148.256 520.522 148.381 521.076 148.629C521.631 148.877 522.048 149.222 522.327 149.663C522.606 150.101 522.746 150.605 522.746 151.176C522.746 151.62 522.658 152.011 522.481 152.349C522.305 152.682 522.063 152.957 521.754 153.172C521.449 153.383 521.1 153.533 520.707 153.622V153.733C521.137 153.752 521.539 153.874 521.914 154.1C522.292 154.326 522.599 154.643 522.834 155.051C523.069 155.455 523.187 155.937 523.187 156.497C523.187 157.101 523.038 157.64 522.74 158.115C522.447 158.586 522.011 158.958 521.435 159.233C520.858 159.507 520.147 159.644 519.302 159.644H514.481ZM516.867 157.676H518.812C519.477 157.676 519.962 157.548 520.266 157.292C520.571 157.032 520.724 156.688 520.724 156.258C520.724 155.943 520.648 155.665 520.498 155.424C520.347 155.183 520.132 154.994 519.853 154.857C519.578 154.719 519.249 154.651 518.867 154.651H516.867V157.676ZM516.867 153.022H518.635C518.962 153.022 519.253 152.964 519.506 152.849C519.763 152.731 519.965 152.564 520.112 152.349C520.263 152.134 520.338 151.876 520.338 151.576C520.338 151.164 520.193 150.833 519.903 150.581C519.616 150.329 519.209 150.202 518.68 150.202H516.867V153.022Z" fill="black"/>
<rect x="49.5" y="78.7228" width="451.034" height="92.9484" fill="#D9D9D9" stroke="black"/>
<path d="M465.625 144.925L467.774 142.733L472.071 142.733L472.071 125.196L467.774 125.196L444.142 125.196L444.142 128.484L444.142 142.733L448.438 142.733L450.587 144.925L450.587 147.117L458.106 147.117L465.625 147.117L465.625 144.925Z" fill="black" stroke="black"/>
<path d="M434.594 144.925L436.742 142.733L441.039 142.733L441.039 125.196L436.742 125.196L413.11 125.196L413.11 128.484L413.11 142.733L417.407 142.733L419.555 144.925L419.555 147.117L427.075 147.117L434.594 147.117L434.594 144.925Z" fill="black" stroke="black"/>
<path d="M403.561 144.925L405.71 142.733L410.006 142.733L410.006 125.196L405.71 125.196L382.077 125.196L382.077 128.484L382.077 142.733L386.374 142.733L388.523 144.925L388.523 147.117L396.042 147.117L403.561 147.117L403.561 144.925Z" fill="black" stroke="black"/>
<path d="M372.529 144.925L374.677 142.733L378.974 142.733L378.974 125.196L374.677 125.196L351.045 125.196L351.045 128.484L351.045 142.733L355.342 142.733L357.49 144.925L357.49 147.117L365.009 147.117L372.529 147.117L372.529 144.925Z" fill="black" stroke="black"/>
<path d="M341.497 144.925L343.646 142.733L347.942 142.733L347.942 125.196L343.646 125.196L320.013 125.196L320.013 128.484L320.013 142.733L324.31 142.733L326.459 144.925L326.459 147.117L333.978 147.117L341.497 147.117L341.497 144.925Z" fill="black" stroke="black"/>
<path d="M310.465 144.925L312.614 142.733L316.91 142.733L316.91 125.196L312.614 125.196L288.982 125.196L288.982 128.484L288.982 142.733L293.278 142.733L295.427 144.925L295.427 147.117L302.946 147.117L310.465 147.117L310.465 144.925Z" fill="black" stroke="black"/>
<path d="M270.124 144.925L272.272 142.733L276.569 142.733L276.569 125.196L272.272 125.196L248.64 125.196L248.64 128.484L248.64 142.733L252.937 142.733L255.085 144.925L255.085 147.117L262.604 147.117L270.124 147.117L270.124 144.925Z" fill="black" stroke="black"/>
<path d="M239.092 144.925L241.24 142.733L245.537 142.733L245.537 125.196L241.24 125.196L217.608 125.196L217.608 128.484L217.608 142.733L221.905 142.733L224.053 144.925L224.053 147.117L231.573 147.117L239.092 147.117L239.092 144.925Z" fill="black" stroke="black"/>
<path d="M208.06 144.925L210.208 142.733L214.505 142.733L214.505 125.196L210.208 125.196L186.576 125.196L186.576 128.484L186.576 142.733L190.872 142.733L193.021 144.925L193.021 147.117L200.54 147.117L208.06 147.117L208.06 144.925Z" fill="black" stroke="black"/>
<path d="M177.028 144.925L179.176 142.733L183.473 142.733L183.473 125.196L179.176 125.196L155.544 125.196L155.544 128.484L155.544 142.733L159.841 142.733L161.989 144.925L161.989 147.117L169.508 147.117L177.028 147.117L177.028 144.925Z" fill="black" stroke="black"/>
<path d="M145.995 144.925L148.143 142.733L152.44 142.733L152.44 125.196L148.143 125.196L124.511 125.196L124.511 128.484L124.511 142.733L128.808 142.733L130.956 144.925L130.956 147.117L138.476 147.117L145.995 147.117L145.995 144.925Z" fill="black" stroke="black"/>
<path d="M114.964 144.925L117.112 142.733L121.409 142.733L121.409 125.196L117.112 125.196L93.4798 125.196L93.4798 128.484L93.4798 142.733L97.7765 142.733L99.9249 144.925L99.9249 147.117L107.444 147.117L114.964 147.117L114.964 144.925Z" fill="black" stroke="black"/>
<path d="M295.427 98.1601L293.278 100.352H288.981V117.889H293.278H316.91V114.601V100.352H312.614L310.465 98.1601V95.968H302.946H295.427V98.1601Z" fill="black" stroke="black"/>
<path d="M326.459 98.1601L324.31 100.352H320.014V117.889H324.31H347.943V114.601V100.352H343.646L341.497 98.1601V95.968H333.978H326.459V98.1601Z" fill="black" stroke="black"/>
<path d="M357.491 98.1601L355.342 100.352H351.046V117.889H355.342H378.975V114.601V100.352H374.678L372.529 98.1601V95.968H365.01H357.491V98.1601Z" fill="black" stroke="black"/>
<path d="M388.523 98.1601L386.375 100.352H382.078V117.889H386.375H410.007V114.601V100.352H405.71L403.562 98.1601V95.968H396.043H388.523V98.1601Z" fill="black" stroke="black"/>
<path d="M419.555 98.1601L417.407 100.352H413.11V117.889H417.407H441.039V114.601V100.352H436.742L434.594 98.1601V95.968H427.074H419.555V98.1601Z" fill="black" stroke="black"/>
<path d="M450.588 98.1601L448.439 100.352H444.143V117.889H448.439H472.071V114.601V100.352H467.775L465.626 98.1601V95.968H458.107H450.588V98.1601Z" fill="black" stroke="black"/>
<path d="M99.9249 98.1601L97.7765 100.352H93.4797V117.889H97.7765H121.409V114.601V100.352H117.112L114.964 98.1601V95.968H107.444H99.9249V98.1601Z" fill="black" stroke="black"/>
<path d="M130.957 98.1601L128.808 100.352H124.511V117.889H128.808H152.44V114.601V100.352H148.144L145.995 98.1601V95.968H138.476H130.957V98.1601Z" fill="black" stroke="black"/>
<path d="M161.988 98.1601L159.84 100.352H155.543V117.889H159.84H183.472V114.601V100.352H179.175L177.027 98.1601V95.968H169.507H161.988V98.1601Z" fill="black" stroke="black"/>
<path d="M193.021 98.1601L190.872 100.352H186.576V117.889H190.872H214.505V114.601V100.352H210.208L208.059 98.1601V95.968H200.54H193.021V98.1601Z" fill="black" stroke="black"/>
<path d="M224.053 98.1601L221.905 100.352H217.608V117.889H221.905H245.537V114.601V100.352H241.24L239.092 98.1601V95.968H231.572H224.053V98.1601Z" fill="black" stroke="black"/>
<path d="M255.085 98.1601L252.937 100.352H248.64V117.889H252.937H276.569V114.601V100.352H272.272L270.124 98.1601V95.968H262.604H255.085V98.1601Z" fill="black" stroke="black"/>
<ellipse cx="66.5845" cy="154.424" rx="13.4472" ry="13.5703" fill="#FA9696"/>
<path d="M63.9692 159.644H61.4126L65.3081 148.256H68.3827L72.2727 159.644H69.7161L66.8895 150.859H66.8013L63.9692 159.644ZM63.8094 155.168H69.8483V157.047H63.8094V155.168Z" fill="black"/>
</svg>
