<svg width="1000" height="276" viewBox="0 0 1000 276" fill="none" xmlns="http://www.w3.org/2000/svg">
<mask id="path-1-inside-1_364_99" fill="white">
<path d="M69 0H746V276H69V0Z"/>
</mask>
<path d="M69 0H746V276H69V0Z" fill="black"/>
<path d="M746 0H730V276H746H762V0H746Z" fill="#4A4A4A" mask="url(#path-1-inside-1_364_99)"/>
<rect width="1000" height="276" fill="#262626"/>
<mask id="path-4-inside-2_364_99" fill="white">
<path d="M746 0H932V276H746V0Z"/>
</mask>
<path d="M746 0H932V276H746V0Z" fill="#4D4D4D"/>
<path d="M746 276H749V0H746H743V276H746Z" fill="black" mask="url(#path-4-inside-2_364_99)"/>
<rect x="787" y="177.005" width="44.2417" height="12.0653" fill="#313131"/>
<rect x="801.077" y="181.027" width="16.0879" height="4.02177" fill="#D9D9D9"/>
<rect x="847.33" y="177.005" width="44.2417" height="12.0653" fill="#313131"/>
<rect x="861.407" y="181.027" width="16.0879" height="4.02177" fill="#D9D9D9"/>
<rect x="847.33" y="195.103" width="44.2417" height="12.0653" fill="#313131"/>
<rect x="861.407" y="199.125" width="16.0879" height="4.02177" fill="#D9D9D9"/>
<rect x="787" y="195.103" width="44.2417" height="12.0653" fill="#313131"/>
<rect x="801.077" y="199.125" width="16.0879" height="4.02177" fill="#D9D9D9"/>
<rect x="779" y="76.0105" width="120" height="89.1382" fill="#272727"/>
<path d="M866.684 148.474H869.847V158.189C869.847 159.28 869.587 160.235 869.066 161.053C868.55 161.871 867.826 162.509 866.896 162.967C865.966 163.42 864.882 163.646 863.645 163.646C862.403 163.646 861.317 163.42 860.387 162.967C859.457 162.509 858.734 161.871 858.218 161.053C857.701 160.235 857.443 159.28 857.443 158.189V148.474H860.606V157.919C860.606 158.489 860.731 158.995 860.979 159.439C861.232 159.882 861.588 160.23 862.046 160.483C862.503 160.736 863.037 160.863 863.645 160.863C864.259 160.863 864.792 160.736 865.245 160.483C865.703 160.23 866.056 159.882 866.304 159.439C866.558 158.995 866.684 158.489 866.684 157.919V148.474Z" fill="white"/>
<path d="M872.45 163.434V148.474H878.353C879.487 148.474 880.454 148.691 881.253 149.124C882.051 149.553 882.66 150.149 883.079 150.914C883.503 151.674 883.715 152.55 883.715 153.544C883.715 154.537 883.5 155.414 883.072 156.173C882.643 156.933 882.022 157.525 881.209 157.948C880.4 158.372 879.422 158.584 878.272 158.584H874.51V156.049H877.761C878.37 156.049 878.871 155.944 879.266 155.735C879.665 155.521 879.962 155.226 880.157 154.851C880.357 154.471 880.456 154.035 880.456 153.544C880.456 153.047 880.357 152.613 880.157 152.243C879.962 151.868 879.665 151.579 879.266 151.374C878.866 151.165 878.36 151.06 877.746 151.06H875.613V163.434H872.45Z" fill="white"/>
<path d="M893.885 152.777C893.827 152.187 893.576 151.73 893.133 151.403C892.69 151.077 892.088 150.914 891.328 150.914C890.812 150.914 890.376 150.987 890.021 151.133C889.665 151.274 889.393 151.471 889.203 151.725C889.018 151.978 888.925 152.265 888.925 152.587C888.915 152.855 888.971 153.088 889.093 153.288C889.22 153.488 889.393 153.66 889.612 153.807C889.831 153.948 890.084 154.072 890.371 154.179C890.659 154.281 890.966 154.369 891.292 154.442L892.636 154.764C893.289 154.91 893.888 155.104 894.433 155.348C894.979 155.591 895.451 155.891 895.85 156.246C896.25 156.602 896.559 157.021 896.778 157.503C897.002 157.985 897.117 158.538 897.121 159.161C897.117 160.077 896.883 160.87 896.42 161.542C895.962 162.21 895.3 162.728 894.433 163.098C893.571 163.464 892.531 163.646 891.314 163.646C890.106 163.646 889.054 163.461 888.158 163.091C887.267 162.721 886.57 162.173 886.069 161.447C885.572 160.717 885.311 159.814 885.287 158.737H888.348C888.382 159.239 888.526 159.658 888.779 159.994C889.037 160.325 889.38 160.576 889.809 160.746C890.242 160.912 890.732 160.995 891.277 160.995C891.813 160.995 892.278 160.917 892.673 160.761C893.072 160.605 893.381 160.388 893.6 160.111C893.819 159.833 893.929 159.514 893.929 159.154C893.929 158.818 893.829 158.535 893.63 158.306C893.435 158.077 893.147 157.883 892.768 157.722C892.393 157.561 891.932 157.415 891.387 157.284L889.758 156.875C888.496 156.568 887.5 156.088 886.77 155.436C886.039 154.783 885.677 153.904 885.681 152.799C885.677 151.893 885.918 151.101 886.405 150.424C886.897 149.748 887.571 149.219 888.428 148.839C889.285 148.459 890.259 148.27 891.35 148.27C892.461 148.27 893.43 148.459 894.258 148.839C895.091 149.219 895.738 149.748 896.201 150.424C896.664 151.101 896.902 151.885 896.917 152.777H893.885Z" fill="white"/>
<rect x="783.114" y="79.4388" width="30.8571" height="8.57098" fill="#15FF00"/>
<path d="M785.759 79.4387H814.069C816.734 79.4387 817.4 80.5815 817.4 81.1529V86.2955C816.068 87.6669 814.625 88.0097 814.069 88.0097H785.759C783.095 88.0097 782.429 86.8669 782.429 86.2955V81.1529C783.095 79.7816 784.927 79.4387 785.759 79.4387Z" stroke="white"/>
<path d="M76 19.96V136.96V256.56L89.5 268H725L738.5 252.92V19.96L725 8H401H89.5L76 19.96Z" stroke="#4A4A4A" stroke-width="15"/>
<path d="M85 17.36L94 23.08M94 23.08L103.5 17.36L115 23.08M94 23.08V29.32M115 23.08L124.5 17.36L135.5 23.08M115 23.08V29.32M135.5 23.08L146 17.36L156 23.08M135.5 23.08V29.32M156 23.08L166 17.36L176.5 23.08M156 23.08V29.32M176.5 23.08L186.5 17.36L196 23.08M176.5 23.08V29.32M196 23.08L206.5 17.36L218 23.08M196 23.08V29.32M218 23.08L227 17.36L238.5 23.08M218 23.08V29.32M238.5 23.08L247.5 17.36L258.5 23.08M238.5 23.08V29.32M258.5 23.08L268 17.36L278 23.08M258.5 23.08V29.32M278 23.08L289 17.36L299.5 23.08M278 23.08V29.32M299.5 23.08L308.5 17.36L319.5 23.08M299.5 23.08V29.32M319.5 23.08L330 17.36L340 23.08M319.5 23.08V29.32M340 23.08L350 17.36L361 23.08M340 23.08V29.32M361 23.08L371 17.36L381 23.08M361 23.08V29.32M381 23.08L391 17.36L401.5 23.08M381 23.08V29.32M401.5 23.08L411.5 17.36L422.5 23.08M401.5 23.08V29.32M422.5 23.08L431.5 17.36L443 23.08M422.5 23.08V29.32M443 23.08L452 17.36L463.5 23.08M443 23.08V29.32M463.5 23.08L473 17.36L484 23.08M463.5 23.08V29.32M484 23.08L493 17.36L504 23.08M484 23.08V29.32M504 23.08L513.5 17.36L524 23.08M504 23.08V29.32M524 23.08L535 17.36L544.5 23.08M524 23.08V29.32M544.5 23.08L555.5 17.36L565 23.08M544.5 23.08V29.32M565 23.08L575.5 17.36L585.5 23.08M565 23.08V29.32M585.5 23.08L595.5 17.36L606.5 23.08M585.5 23.08V29.32M606.5 23.08L616.5 17.36L627 23.08M606.5 23.08V29.32M627 23.08L637 17.36L647.5 23.08M627 23.08V29.32M647.5 23.08L657.5 17.36L667.5 23.08M647.5 23.08V29.32M667.5 23.08L678.5 17.36L687.5 23.08M667.5 23.08V29.32M687.5 23.08L698.5 17.36L709.5 23.08M687.5 23.08V29.32M709.5 23.08L719 17.36L729.5 23.08V29.32L719 34.52M709.5 23.08V29.32M719 34.52L709.5 29.32M719 34.52V41.8M709.5 29.32L698.5 34.52M698.5 34.52L687.5 29.32M698.5 34.52V41.8M687.5 29.32L678.5 34.52M678.5 34.52L667.5 29.32M678.5 34.52V41.8M667.5 29.32L657.5 34.52M657.5 34.52L647.5 29.32M657.5 34.52V41.8M647.5 29.32L637 34.52M637 34.52L627 29.32M637 34.52V41.8M627 29.32L616.5 34.52M616.5 34.52L606.5 29.32M616.5 34.52V41.8M606.5 29.32L595.5 34.52M595.5 34.52L585.5 29.32M595.5 34.52V41.8M585.5 29.32L575.5 34.52M575.5 34.52L565 29.32M575.5 34.52V41.8M565 29.32L555.5 34.52M555.5 34.52L544.5 29.32M555.5 34.52V41.8M544.5 29.32L535 34.52M535 34.52L524 29.32M535 34.52V41.8M524 29.32L513.5 34.52M513.5 34.52L504 29.32M513.5 34.52V41.8M504 29.32L493 34.52M493 34.52L484 29.32M493 34.52V41.8M484 29.32L473 34.52M473 34.52L463.5 29.32M473 34.52V41.8M463.5 29.32L452 34.52M452 34.52L443 29.32M452 34.52V41.8M443 29.32L433 34.52M433 34.52L422.5 29.32M433 34.52V41.8M422.5 29.32L411.5 34.52M411.5 34.52L401.5 29.32M411.5 34.52V41.8M401.5 29.32L391 34.52M391 34.52L381 29.32M391 34.52V41.8M381 29.32L371 34.52M371 34.52L361 29.32M371 34.52V41.8M361 29.32L350 34.52M350 34.52L340 29.32M350 34.52V41.8M340 29.32L330 34.52M330 34.52L319.5 29.32M330 34.52V41.8M319.5 29.32L308.5 34.52M308.5 34.52L299.5 29.32M308.5 34.52V41.8M299.5 29.32L289 34.52M289 34.52L278 29.32M289 34.52V41.8M278 29.32L268 34.52M268 34.52L258.5 29.32M268 34.52V41.8M258.5 29.32L247.5 34.52M247.5 34.52L238.5 29.32M247.5 34.52V41.8M238.5 29.32L227 34.52M227 34.52L218 29.32M227 34.52V41.8M218 29.32L206.5 34.52M206.5 34.52L196 29.32M206.5 34.52V41.8M196 29.32L186.5 34.52M186.5 34.52L176.5 29.32M186.5 34.52V41.8M176.5 29.32L166 34.52M166 34.52L156 29.32M166 34.52V41.8M156 29.32L146 34.52M146 34.52L135.5 29.32M146 34.52V41.8M135.5 29.32L124.5 34.52M124.5 34.52L115 29.32M124.5 34.52V41.8M115 29.32L103.5 34.52M103.5 34.52L94 29.32M103.5 34.52V41.8M94 29.32L85 34.52V41.8" stroke="#4A4A4A" stroke-width="2"/>
<path d="M85 41.8L94 47.52M94 47.52L103.5 41.8L115 47.52M94 47.52V53.76M115 47.52L124.5 41.8L135.5 47.52M115 47.52V53.76M135.5 47.52L146 41.8L156 47.52M135.5 47.52V53.76M156 47.52L166 41.8L176.5 47.52M156 47.52V53.76M176.5 47.52L186.5 41.8L196 47.52M176.5 47.52V53.76M196 47.52L206.5 41.8L218 47.52M196 47.52V53.76M218 47.52L227 41.8L238.5 47.52M218 47.52V53.76M238.5 47.52L247.5 41.8L258.5 47.52M238.5 47.52V53.76M258.5 47.52L268 41.8L278 47.52M258.5 47.52V53.76M278 47.52L289 41.8L299.5 47.52M278 47.52V53.76M299.5 47.52L308.5 41.8L319.5 47.52M299.5 47.52V53.76M319.5 47.52L330 41.8L340 47.52M319.5 47.52V53.76M340 47.52L350 41.8L361 47.52M340 47.52V53.76M361 47.52L371 41.8L381 47.52M361 47.52V53.76M381 47.52L391 41.8L401.5 47.52M381 47.52V53.76M401.5 47.52L411.5 41.8L422.5 47.52M401.5 47.52V53.76M422.5 47.52L431.5 41.8L443 47.52M422.5 47.52V53.76M443 47.52L452 41.8L463.5 47.52M443 47.52V53.76M463.5 47.52L473 41.8L484 47.52M463.5 47.52V53.76M484 47.52L493 41.8L504 47.52M484 47.52V53.76M504 47.52L513.5 41.8L524 47.52M504 47.52V53.76M524 47.52L535 41.8L544.5 47.52M524 47.52V53.76M544.5 47.52L555.5 41.8L565 47.52M544.5 47.52V53.76M565 47.52L575.5 41.8L585.5 47.52M565 47.52V53.76M585.5 47.52L595.5 41.8L606.5 47.52M585.5 47.52V53.76M606.5 47.52L616.5 41.8L627 47.52M606.5 47.52V53.76M627 47.52L637 41.8L647.5 47.52M627 47.52V53.76M647.5 47.52L657.5 41.8L667.5 47.52M647.5 47.52V53.76M667.5 47.52L678.5 41.8L687.5 47.52M667.5 47.52V53.76M687.5 47.52L698.5 41.8L709.5 47.52M687.5 47.52V53.76M709.5 47.52L719 41.8L729.5 47.52V53.76L719 58.9601M709.5 47.52V53.76M719 58.9601L709.5 53.76M719 58.9601V66.2401M709.5 53.76L698.5 58.9601M698.5 58.9601L687.5 53.76M698.5 58.9601V66.2401M687.5 53.76L678.5 58.9601M678.5 58.9601L667.5 53.76M678.5 58.9601V66.2401M667.5 53.76L657.5 58.9601M657.5 58.9601L647.5 53.76M657.5 58.9601V66.2401M647.5 53.76L637 58.9601M637 58.9601L627 53.76M637 58.9601V66.2401M627 53.76L616.5 58.9601M616.5 58.9601L606.5 53.76M616.5 58.9601V66.2401M606.5 53.76L595.5 58.9601M595.5 58.9601L585.5 53.76M595.5 58.9601V66.2401M585.5 53.76L575.5 58.9601M575.5 58.9601L565 53.76M575.5 58.9601V66.2401M565 53.76L555.5 58.9601M555.5 58.9601L544.5 53.76M555.5 58.9601V66.2401M544.5 53.76L535 58.9601M535 58.9601L524 53.76M535 58.9601V66.2401M524 53.76L513.5 58.9601M513.5 58.9601L504 53.76M513.5 58.9601V66.2401M504 53.76L493 58.9601M493 58.9601L484 53.76M493 58.9601V66.2401M484 53.76L473 58.9601M473 58.9601L463.5 53.76M473 58.9601V66.2401M463.5 53.76L452 58.9601M452 58.9601L443 53.76M452 58.9601V66.2401M443 53.76L433 58.9601M433 58.9601L422.5 53.76M433 58.9601V66.2401M422.5 53.76L411.5 58.9601M411.5 58.9601L401.5 53.76M411.5 58.9601V66.2401M401.5 53.76L391 58.9601M391 58.9601L381 53.76M391 58.9601V66.2401M381 53.76L371 58.9601M371 58.9601L361 53.76M371 58.9601V66.2401M361 53.76L350 58.9601M350 58.9601L340 53.76M350 58.9601V66.2401M340 53.76L330 58.9601M330 58.9601L319.5 53.76M330 58.9601V66.2401M319.5 53.76L308.5 58.9601M308.5 58.9601L299.5 53.76M308.5 58.9601V66.2401M299.5 53.76L289 58.9601M289 58.9601L278 53.76M289 58.9601V66.2401M278 53.76L268 58.9601M268 58.9601L258.5 53.76M268 58.9601V66.2401M258.5 53.76L247.5 58.9601M247.5 58.9601L238.5 53.76M247.5 58.9601V66.2401M238.5 53.76L227 58.9601M227 58.9601L218 53.76M227 58.9601V66.2401M218 53.76L206.5 58.9601M206.5 58.9601L196 53.76M206.5 58.9601V66.2401M196 53.76L186.5 58.9601M186.5 58.9601L176.5 53.76M186.5 58.9601V66.2401M176.5 53.76L166 58.9601M166 58.9601L156 53.76M166 58.9601V66.2401M156 53.76L146 58.9601M146 58.9601L135.5 53.76M146 58.9601V66.2401M135.5 53.76L124.5 58.9601M124.5 58.9601L115 53.76M124.5 58.9601V66.2401M115 53.76L103.5 58.9601M103.5 58.9601L94 53.76M103.5 58.9601V66.2401M94 53.76L85 58.9601V66.2401" stroke="#4A4A4A" stroke-width="2"/>
<path d="M85 66.76L94 72.48M94 72.48L103.5 66.76L115 72.48M94 72.48V78.72M115 72.48L124.5 66.76L135.5 72.48M115 72.48V78.72M135.5 72.48L146 66.76L156 72.48M135.5 72.48V78.72M156 72.48L166 66.76L176.5 72.48M156 72.48V78.72M176.5 72.48L186.5 66.76L196 72.48M176.5 72.48V78.72M196 72.48L206.5 66.76L218 72.48M196 72.48V78.72M218 72.48L227 66.76L238.5 72.48M218 72.48V78.72M238.5 72.48L247.5 66.76L258.5 72.48M238.5 72.48V78.72M258.5 72.48L268 66.76L278 72.48M258.5 72.48V78.72M278 72.48L289 66.76L299.5 72.48M278 72.48V78.72M299.5 72.48L308.5 66.76L319.5 72.48M299.5 72.48V78.72M319.5 72.48L330 66.76L340 72.48M319.5 72.48V78.72M340 72.48L350 66.76L361 72.48M340 72.48V78.72M361 72.48L371 66.76L381 72.48M361 72.48V78.72M381 72.48L391 66.76L401.5 72.48M381 72.48V78.72M401.5 72.48L411.5 66.76L422.5 72.48M401.5 72.48V78.72M422.5 72.48L431.5 66.76L443 72.48M422.5 72.48V78.72M443 72.48L452 66.76L463.5 72.48M443 72.48V78.72M463.5 72.48L473 66.76L484 72.48M463.5 72.48V78.72M484 72.48L493 66.76L504 72.48M484 72.48V78.72M504 72.48L513.5 66.76L524 72.48M504 72.48V78.72M524 72.48L535 66.76L544.5 72.48M524 72.48V78.72M544.5 72.48L555.5 66.76L565 72.48M544.5 72.48V78.72M565 72.48L575.5 66.76L585.5 72.48M565 72.48V78.72M585.5 72.48L595.5 66.76L606.5 72.48M585.5 72.48V78.72M606.5 72.48L616.5 66.76L627 72.48M606.5 72.48V78.72M627 72.48L637 66.76L647.5 72.48M627 72.48V78.72M647.5 72.48L657.5 66.76L667.5 72.48M647.5 72.48V78.72M667.5 72.48L678.5 66.76L687.5 72.48M667.5 72.48V78.72M687.5 72.48L698.5 66.76L709.5 72.48M687.5 72.48V78.72M709.5 72.48L719 66.76L729.5 72.48V78.72L719 83.92M709.5 72.48V78.72M719 83.92L709.5 78.72M719 83.92V91.2M709.5 78.72L698.5 83.92M698.5 83.92L687.5 78.72M698.5 83.92V91.2M687.5 78.72L678.5 83.92M678.5 83.92L667.5 78.72M678.5 83.92V91.2M667.5 78.72L657.5 83.92M657.5 83.92L647.5 78.72M657.5 83.92V91.2M647.5 78.72L637 83.92M637 83.92L627 78.72M637 83.92V91.2M627 78.72L616.5 83.92M616.5 83.92L606.5 78.72M616.5 83.92V91.2M606.5 78.72L595.5 83.92M595.5 83.92L585.5 78.72M595.5 83.92V91.2M585.5 78.72L575.5 83.92M575.5 83.92L565 78.72M575.5 83.92V91.2M565 78.72L555.5 83.92M555.5 83.92L544.5 78.72M555.5 83.92V91.2M544.5 78.72L535 83.92M535 83.92L524 78.72M535 83.92V91.2M524 78.72L513.5 83.92M513.5 83.92L504 78.72M513.5 83.92V91.2M504 78.72L493 83.92M493 83.92L484 78.72M493 83.92V91.2M484 78.72L473 83.92M473 83.92L463.5 78.72M473 83.92V91.2M463.5 78.72L452 83.92M452 83.92L443 78.72M452 83.92V91.2M443 78.72L433 83.92M433 83.92L422.5 78.72M433 83.92V91.2M422.5 78.72L411.5 83.92M411.5 83.92L401.5 78.72M411.5 83.92V91.2M401.5 78.72L391 83.92M391 83.92L381 78.72M391 83.92V91.2M381 78.72L371 83.92M371 83.92L361 78.72M371 83.92V91.2M361 78.72L350 83.92M350 83.92L340 78.72M350 83.92V91.2M340 78.72L330 83.92M330 83.92L319.5 78.72M330 83.92V91.2M319.5 78.72L308.5 83.92M308.5 83.92L299.5 78.72M308.5 83.92V91.2M299.5 78.72L289 83.92M289 83.92L278 78.72M289 83.92V91.2M278 78.72L268 83.92M268 83.92L258.5 78.72M268 83.92V91.2M258.5 78.72L247.5 83.92M247.5 83.92L238.5 78.72M247.5 83.92V91.2M238.5 78.72L227 83.92M227 83.92L218 78.72M227 83.92V91.2M218 78.72L206.5 83.92M206.5 83.92L196 78.72M206.5 83.92V91.2M196 78.72L186.5 83.92M186.5 83.92L176.5 78.72M186.5 83.92V91.2M176.5 78.72L166 83.92M166 83.92L156 78.72M166 83.92V91.2M156 78.72L146 83.92M146 83.92L135.5 78.72M146 83.92V91.2M135.5 78.72L124.5 83.92M124.5 83.92L115 78.72M124.5 83.92V91.2M115 78.72L103.5 83.92M103.5 83.92L94 78.72M103.5 83.92V91.2M94 78.72L85 83.92V91.2" stroke="#4A4A4A" stroke-width="2"/>
<path d="M85 91.2001L94 96.9201M94 96.9201L103.5 91.2001L115 96.9201M94 96.9201V103.16M115 96.9201L124.5 91.2001L135.5 96.9201M115 96.9201V103.16M135.5 96.9201L146 91.2001L156 96.9201M135.5 96.9201V103.16M156 96.9201L166 91.2001L176.5 96.9201M156 96.9201V103.16M176.5 96.9201L186.5 91.2001L196 96.9201M176.5 96.9201V103.16M196 96.9201L206.5 91.2001L218 96.9201M196 96.9201V103.16M218 96.9201L227 91.2001L238.5 96.9201M218 96.9201V103.16M238.5 96.9201L247.5 91.2001L258.5 96.9201M238.5 96.9201V103.16M258.5 96.9201L268 91.2001L278 96.9201M258.5 96.9201V103.16M278 96.9201L289 91.2001L299.5 96.9201M278 96.9201V103.16M299.5 96.9201L308.5 91.2001L319.5 96.9201M299.5 96.9201V103.16M319.5 96.9201L330 91.2001L340 96.9201M319.5 96.9201V103.16M340 96.9201L350 91.2001L361 96.9201M340 96.9201V103.16M361 96.9201L371 91.2001L381 96.9201M361 96.9201V103.16M381 96.9201L391 91.2001L401.5 96.9201M381 96.9201V103.16M401.5 96.9201L411.5 91.2001L422.5 96.9201M401.5 96.9201V103.16M422.5 96.9201L431.5 91.2001L443 96.9201M422.5 96.9201V103.16M443 96.9201L452 91.2001L463.5 96.9201M443 96.9201V103.16M463.5 96.9201L473 91.2001L484 96.9201M463.5 96.9201V103.16M484 96.9201L493 91.2001L504 96.9201M484 96.9201V103.16M504 96.9201L513.5 91.2001L524 96.9201M504 96.9201V103.16M524 96.9201L535 91.2001L544.5 96.9201M524 96.9201V103.16M544.5 96.9201L555.5 91.2001L565 96.9201M544.5 96.9201V103.16M565 96.9201L575.5 91.2001L585.5 96.9201M565 96.9201V103.16M585.5 96.9201L595.5 91.2001L606.5 96.9201M585.5 96.9201V103.16M606.5 96.9201L616.5 91.2001L627 96.9201M606.5 96.9201V103.16M627 96.9201L637 91.2001L647.5 96.9201M627 96.9201V103.16M647.5 96.9201L657.5 91.2001L667.5 96.9201M647.5 96.9201V103.16M667.5 96.9201L678.5 91.2001L687.5 96.9201M667.5 96.9201V103.16M687.5 96.9201L698.5 91.2001L709.5 96.9201M687.5 96.9201V103.16M709.5 96.9201L719 91.2001L729.5 96.9201V103.16L719 108.36M709.5 96.9201V103.16M719 108.36L709.5 103.16M719 108.36V115.64M709.5 103.16L698.5 108.36M698.5 108.36L687.5 103.16M698.5 108.36V115.64M687.5 103.16L678.5 108.36M678.5 108.36L667.5 103.16M678.5 108.36V115.64M667.5 103.16L657.5 108.36M657.5 108.36L647.5 103.16M657.5 108.36V115.64M647.5 103.16L637 108.36M637 108.36L627 103.16M637 108.36V115.64M627 103.16L616.5 108.36M616.5 108.36L606.5 103.16M616.5 108.36V115.64M606.5 103.16L595.5 108.36M595.5 108.36L585.5 103.16M595.5 108.36V115.64M585.5 103.16L575.5 108.36M575.5 108.36L565 103.16M575.5 108.36V115.64M565 103.16L555.5 108.36M555.5 108.36L544.5 103.16M555.5 108.36V115.64M544.5 103.16L535 108.36M535 108.36L524 103.16M535 108.36V115.64M524 103.16L513.5 108.36M513.5 108.36L504 103.16M513.5 108.36V115.64M504 103.16L493 108.36M493 108.36L484 103.16M493 108.36V115.64M484 103.16L473 108.36M473 108.36L463.5 103.16M473 108.36V115.64M463.5 103.16L452 108.36M452 108.36L443 103.16M452 108.36V115.64M443 103.16L433 108.36M433 108.36L422.5 103.16M433 108.36V115.64M422.5 103.16L411.5 108.36M411.5 108.36L401.5 103.16M411.5 108.36V115.64M401.5 103.16L391 108.36M391 108.36L381 103.16M391 108.36V115.64M381 103.16L371 108.36M371 108.36L361 103.16M371 108.36V115.64M361 103.16L350 108.36M350 108.36L340 103.16M350 108.36V115.64M340 103.16L330 108.36M330 108.36L319.5 103.16M330 108.36V115.64M319.5 103.16L308.5 108.36M308.5 108.36L299.5 103.16M308.5 108.36V115.64M299.5 103.16L289 108.36M289 108.36L278 103.16M289 108.36V115.64M278 103.16L268 108.36M268 108.36L258.5 103.16M268 108.36V115.64M258.5 103.16L247.5 108.36M247.5 108.36L238.5 103.16M247.5 108.36V115.64M238.5 103.16L227 108.36M227 108.36L218 103.16M227 108.36V115.64M218 103.16L206.5 108.36M206.5 108.36L196 103.16M206.5 108.36V115.64M196 103.16L186.5 108.36M186.5 108.36L176.5 103.16M186.5 108.36V115.64M176.5 103.16L166 108.36M166 108.36L156 103.16M166 108.36V115.64M156 103.16L146 108.36M146 108.36L135.5 103.16M146 108.36V115.64M135.5 103.16L124.5 108.36M124.5 108.36L115 103.16M124.5 108.36V115.64M115 103.16L103.5 108.36M103.5 108.36L94 103.16M103.5 108.36V115.64M94 103.16L85 108.36V115.64" stroke="#4A4A4A" stroke-width="2"/>
<path d="M85 115.64L94 121.36M94 121.36L103.5 115.64L115 121.36M94 121.36V127.6M115 121.36L124.5 115.64L135.5 121.36M115 121.36V127.6M135.5 121.36L146 115.64L156 121.36M135.5 121.36V127.6M156 121.36L166 115.64L176.5 121.36M156 121.36V127.6M176.5 121.36L186.5 115.64L196 121.36M176.5 121.36V127.6M196 121.36L206.5 115.64L218 121.36M196 121.36V127.6M218 121.36L227 115.64L238.5 121.36M218 121.36V127.6M238.5 121.36L247.5 115.64L258.5 121.36M238.5 121.36V127.6M258.5 121.36L268 115.64L278 121.36M258.5 121.36V127.6M278 121.36L289 115.64L299.5 121.36M278 121.36V127.6M299.5 121.36L308.5 115.64L319.5 121.36M299.5 121.36V127.6M319.5 121.36L330 115.64L340 121.36M319.5 121.36V127.6M340 121.36L350 115.64L361 121.36M340 121.36V127.6M361 121.36L371 115.64L381 121.36M361 121.36V127.6M381 121.36L391 115.64L401.5 121.36M381 121.36V127.6M401.5 121.36L411.5 115.64L422.5 121.36M401.5 121.36V127.6M422.5 121.36L431.5 115.64L443 121.36M422.5 121.36V127.6M443 121.36L452 115.64L463.5 121.36M443 121.36V127.6M463.5 121.36L473 115.64L484 121.36M463.5 121.36V127.6M484 121.36L493 115.64L504 121.36M484 121.36V127.6M504 121.36L513.5 115.64L524 121.36M504 121.36V127.6M524 121.36L535 115.64L544.5 121.36M524 121.36V127.6M544.5 121.36L555.5 115.64L565 121.36M544.5 121.36V127.6M565 121.36L575.5 115.64L585.5 121.36M565 121.36V127.6M585.5 121.36L595.5 115.64L606.5 121.36M585.5 121.36V127.6M606.5 121.36L616.5 115.64L627 121.36M606.5 121.36V127.6M627 121.36L637 115.64L647.5 121.36M627 121.36V127.6M647.5 121.36L657.5 115.64L667.5 121.36M647.5 121.36V127.6M667.5 121.36L678.5 115.64L687.5 121.36M667.5 121.36V127.6M687.5 121.36L698.5 115.64L709.5 121.36M687.5 121.36V127.6M709.5 121.36L719 115.64L729.5 121.36V127.6L719 132.8M709.5 121.36V127.6M719 132.8L709.5 127.6M719 132.8V140.08M709.5 127.6L698.5 132.8M698.5 132.8L687.5 127.6M698.5 132.8V140.08M687.5 127.6L678.5 132.8M678.5 132.8L667.5 127.6M678.5 132.8V140.08M667.5 127.6L657.5 132.8M657.5 132.8L647.5 127.6M657.5 132.8V140.08M647.5 127.6L637 132.8M637 132.8L627 127.6M637 132.8V140.08M627 127.6L616.5 132.8M616.5 132.8L606.5 127.6M616.5 132.8V140.08M606.5 127.6L595.5 132.8M595.5 132.8L585.5 127.6M595.5 132.8V140.08M585.5 127.6L575.5 132.8M575.5 132.8L565 127.6M575.5 132.8V140.08M565 127.6L555.5 132.8M555.5 132.8L544.5 127.6M555.5 132.8V140.08M544.5 127.6L535 132.8M535 132.8L524 127.6M535 132.8V140.08M524 127.6L513.5 132.8M513.5 132.8L504 127.6M513.5 132.8V140.08M504 127.6L493 132.8M493 132.8L484 127.6M493 132.8V140.08M484 127.6L473 132.8M473 132.8L463.5 127.6M473 132.8V140.08M463.5 127.6L452 132.8M452 132.8L443 127.6M452 132.8V140.08M443 127.6L433 132.8M433 132.8L422.5 127.6M433 132.8V140.08M422.5 127.6L411.5 132.8M411.5 132.8L401.5 127.6M411.5 132.8V140.08M401.5 127.6L391 132.8M391 132.8L381 127.6M391 132.8V140.08M381 127.6L371 132.8M371 132.8L361 127.6M371 132.8V140.08M361 127.6L350 132.8M350 132.8L340 127.6M350 132.8V140.08M340 127.6L330 132.8M330 132.8L319.5 127.6M330 132.8V140.08M319.5 127.6L308.5 132.8M308.5 132.8L299.5 127.6M308.5 132.8V140.08M299.5 127.6L289 132.8M289 132.8L278 127.6M289 132.8V140.08M278 127.6L268 132.8M268 132.8L258.5 127.6M268 132.8V140.08M258.5 127.6L247.5 132.8M247.5 132.8L238.5 127.6M247.5 132.8V140.08M238.5 127.6L227 132.8M227 132.8L218 127.6M227 132.8V140.08M218 127.6L206.5 132.8M206.5 132.8L196 127.6M206.5 132.8V140.08M196 127.6L186.5 132.8M186.5 132.8L176.5 127.6M186.5 132.8V140.08M176.5 127.6L166 132.8M166 132.8L156 127.6M166 132.8V140.08M156 127.6L146 132.8M146 132.8L135.5 127.6M146 132.8V140.08M135.5 127.6L124.5 132.8M124.5 132.8L115 127.6M124.5 132.8V140.08M115 127.6L103.5 132.8M103.5 132.8L94 127.6M103.5 132.8V140.08M94 127.6L85 132.8V140.08" stroke="#4A4A4A" stroke-width="2"/>
<path d="M85 140.08L94 145.8M94 145.8L103.5 140.08L115 145.8M94 145.8V152.04M115 145.8L124.5 140.08L135.5 145.8M115 145.8V152.04M135.5 145.8L146 140.08L156 145.8M135.5 145.8V152.04M156 145.8L166 140.08L176.5 145.8M156 145.8V152.04M176.5 145.8L186.5 140.08L196 145.8M176.5 145.8V152.04M196 145.8L206.5 140.08L218 145.8M196 145.8V152.04M218 145.8L227 140.08L238.5 145.8M218 145.8V152.04M238.5 145.8L247.5 140.08L258.5 145.8M238.5 145.8V152.04M258.5 145.8L268 140.08L278 145.8M258.5 145.8V152.04M278 145.8L289 140.08L299.5 145.8M278 145.8V152.04M299.5 145.8L308.5 140.08L319.5 145.8M299.5 145.8V152.04M319.5 145.8L330 140.08L340 145.8M319.5 145.8V152.04M340 145.8L350 140.08L361 145.8M340 145.8V152.04M361 145.8L371 140.08L381 145.8M361 145.8V152.04M381 145.8L391 140.08L401.5 145.8M381 145.8V152.04M401.5 145.8L411.5 140.08L422.5 145.8M401.5 145.8V152.04M422.5 145.8L431.5 140.08L443 145.8M422.5 145.8V152.04M443 145.8L452 140.08L463.5 145.8M443 145.8V152.04M463.5 145.8L473 140.08L484 145.8M463.5 145.8V152.04M484 145.8L493 140.08L504 145.8M484 145.8V152.04M504 145.8L513.5 140.08L524 145.8M504 145.8V152.04M524 145.8L535 140.08L544.5 145.8M524 145.8V152.04M544.5 145.8L555.5 140.08L565 145.8M544.5 145.8V152.04M565 145.8L575.5 140.08L585.5 145.8M565 145.8V152.04M585.5 145.8L595.5 140.08L606.5 145.8M585.5 145.8V152.04M606.5 145.8L616.5 140.08L627 145.8M606.5 145.8V152.04M627 145.8L637 140.08L647.5 145.8M627 145.8V152.04M647.5 145.8L657.5 140.08L667.5 145.8M647.5 145.8V152.04M667.5 145.8L678.5 140.08L687.5 145.8M667.5 145.8V152.04M687.5 145.8L698.5 140.08L709.5 145.8M687.5 145.8V152.04M709.5 145.8L719 140.08L729.5 145.8V152.04L719 157.24M709.5 145.8V152.04M719 157.24L709.5 152.04M719 157.24V164.52M709.5 152.04L698.5 157.24M698.5 157.24L687.5 152.04M698.5 157.24V164.52M687.5 152.04L678.5 157.24M678.5 157.24L667.5 152.04M678.5 157.24V164.52M667.5 152.04L657.5 157.24M657.5 157.24L647.5 152.04M657.5 157.24V164.52M647.5 152.04L637 157.24M637 157.24L627 152.04M637 157.24V164.52M627 152.04L616.5 157.24M616.5 157.24L606.5 152.04M616.5 157.24V164.52M606.5 152.04L595.5 157.24M595.5 157.24L585.5 152.04M595.5 157.24V164.52M585.5 152.04L575.5 157.24M575.5 157.24L565 152.04M575.5 157.24V164.52M565 152.04L555.5 157.24M555.5 157.24L544.5 152.04M555.5 157.24V164.52M544.5 152.04L535 157.24M535 157.24L524 152.04M535 157.24V164.52M524 152.04L513.5 157.24M513.5 157.24L504 152.04M513.5 157.24V164.52M504 152.04L493 157.24M493 157.24L484 152.04M493 157.24V164.52M484 152.04L473 157.24M473 157.24L463.5 152.04M473 157.24V164.52M463.5 152.04L452 157.24M452 157.24L443 152.04M452 157.24V164.52M443 152.04L433 157.24M433 157.24L422.5 152.04M433 157.24V164.52M422.5 152.04L411.5 157.24M411.5 157.24L401.5 152.04M411.5 157.24V164.52M401.5 152.04L391 157.24M391 157.24L381 152.04M391 157.24V164.52M381 152.04L371 157.24M371 157.24L361 152.04M371 157.24V164.52M361 152.04L350 157.24M350 157.24L340 152.04M350 157.24V164.52M340 152.04L330 157.24M330 157.24L319.5 152.04M330 157.24V164.52M319.5 152.04L308.5 157.24M308.5 157.24L299.5 152.04M308.5 157.24V164.52M299.5 152.04L289 157.24M289 157.24L278 152.04M289 157.24V164.52M278 152.04L268 157.24M268 157.24L258.5 152.04M268 157.24V164.52M258.5 152.04L247.5 157.24M247.5 157.24L238.5 152.04M247.5 157.24V164.52M238.5 152.04L227 157.24M227 157.24L218 152.04M227 157.24V164.52M218 152.04L206.5 157.24M206.5 157.24L196 152.04M206.5 157.24V164.52M196 152.04L186.5 157.24M186.5 157.24L176.5 152.04M186.5 157.24V164.52M176.5 152.04L166 157.24M166 157.24L156 152.04M166 157.24V164.52M156 152.04L146 157.24M146 157.24L135.5 152.04M146 157.24V164.52M135.5 152.04L124.5 157.24M124.5 157.24L115 152.04M124.5 157.24V164.52M115 152.04L103.5 157.24M103.5 157.24L94 152.04M103.5 157.24V164.52M94 152.04L85 157.24V164.52" stroke="#4A4A4A" stroke-width="2"/>
<path d="M85 164.52L94 170.24M94 170.24L103.5 164.52L115 170.24M94 170.24V176.48M115 170.24L124.5 164.52L135.5 170.24M115 170.24V176.48M135.5 170.24L146 164.52L156 170.24M135.5 170.24V176.48M156 170.24L166 164.52L176.5 170.24M156 170.24V176.48M176.5 170.24L186.5 164.52L196 170.24M176.5 170.24V176.48M196 170.24L206.5 164.52L218 170.24M196 170.24V176.48M218 170.24L227 164.52L238.5 170.24M218 170.24V176.48M238.5 170.24L247.5 164.52L258.5 170.24M238.5 170.24V176.48M258.5 170.24L268 164.52L278 170.24M258.5 170.24V176.48M278 170.24L289 164.52L299.5 170.24M278 170.24V176.48M299.5 170.24L308.5 164.52L319.5 170.24M299.5 170.24V176.48M319.5 170.24L330 164.52L340 170.24M319.5 170.24V176.48M340 170.24L350 164.52L361 170.24M340 170.24V176.48M361 170.24L371 164.52L381 170.24M361 170.24V176.48M381 170.24L391 164.52L401.5 170.24M381 170.24V176.48M401.5 170.24L411.5 164.52L422.5 170.24M401.5 170.24V176.48M422.5 170.24L431.5 164.52L443 170.24M422.5 170.24V176.48M443 170.24L452 164.52L463.5 170.24M443 170.24V176.48M463.5 170.24L473 164.52L484 170.24M463.5 170.24V176.48M484 170.24L493 164.52L504 170.24M484 170.24V176.48M504 170.24L513.5 164.52L524 170.24M504 170.24V176.48M524 170.24L535 164.52L544.5 170.24M524 170.24V176.48M544.5 170.24L555.5 164.52L565 170.24M544.5 170.24V176.48M565 170.24L575.5 164.52L585.5 170.24M565 170.24V176.48M585.5 170.24L595.5 164.52L606.5 170.24M585.5 170.24V176.48M606.5 170.24L616.5 164.52L627 170.24M606.5 170.24V176.48M627 170.24L637 164.52L647.5 170.24M627 170.24V176.48M647.5 170.24L657.5 164.52L667.5 170.24M647.5 170.24V176.48M667.5 170.24L678.5 164.52L687.5 170.24M667.5 170.24V176.48M687.5 170.24L698.5 164.52L709.5 170.24M687.5 170.24V176.48M709.5 170.24L719 164.52L729.5 170.24V176.48L719 181.68M709.5 170.24V176.48M719 181.68L709.5 176.48M719 181.68V188.96M709.5 176.48L698.5 181.68M698.5 181.68L687.5 176.48M698.5 181.68V188.96M687.5 176.48L678.5 181.68M678.5 181.68L667.5 176.48M678.5 181.68V188.96M667.5 176.48L657.5 181.68M657.5 181.68L647.5 176.48M657.5 181.68V188.96M647.5 176.48L637 181.68M637 181.68L627 176.48M637 181.68V188.96M627 176.48L616.5 181.68M616.5 181.68L606.5 176.48M616.5 181.68V188.96M606.5 176.48L595.5 181.68M595.5 181.68L585.5 176.48M595.5 181.68V188.96M585.5 176.48L575.5 181.68M575.5 181.68L565 176.48M575.5 181.68V188.96M565 176.48L555.5 181.68M555.5 181.68L544.5 176.48M555.5 181.68V188.96M544.5 176.48L535 181.68M535 181.68L524 176.48M535 181.68V188.96M524 176.48L513.5 181.68M513.5 181.68L504 176.48M513.5 181.68V188.96M504 176.48L493 181.68M493 181.68L484 176.48M493 181.68V188.96M484 176.48L473 181.68M473 181.68L463.5 176.48M473 181.68V188.96M463.5 176.48L452 181.68M452 181.68L443 176.48M452 181.68V188.96M443 176.48L433 181.68M433 181.68L422.5 176.48M433 181.68V188.96M422.5 176.48L411.5 181.68M411.5 181.68L401.5 176.48M411.5 181.68V188.96M401.5 176.48L391 181.68M391 181.68L381 176.48M391 181.68V188.96M381 176.48L371 181.68M371 181.68L361 176.48M371 181.68V188.96M361 176.48L350 181.68M350 181.68L340 176.48M350 181.68V188.96M340 176.48L330 181.68M330 181.68L319.5 176.48M330 181.68V188.96M319.5 176.48L308.5 181.68M308.5 181.68L299.5 176.48M308.5 181.68V188.96M299.5 176.48L289 181.68M289 181.68L278 176.48M289 181.68V188.96M278 176.48L268 181.68M268 181.68L258.5 176.48M268 181.68V188.96M258.5 176.48L247.5 181.68M247.5 181.68L238.5 176.48M247.5 181.68V188.96M238.5 176.48L227 181.68M227 181.68L218 176.48M227 181.68V188.96M218 176.48L206.5 181.68M206.5 181.68L196 176.48M206.5 181.68V188.96M196 176.48L186.5 181.68M186.5 181.68L176.5 176.48M186.5 181.68V188.96M176.5 176.48L166 181.68M166 181.68L156 176.48M166 181.68V188.96M156 176.48L146 181.68M146 181.68L135.5 176.48M146 181.68V188.96M135.5 176.48L124.5 181.68M124.5 181.68L115 176.48M124.5 181.68V188.96M115 176.48L103.5 181.68M103.5 181.68L94 176.48M103.5 181.68V188.96M94 176.48L85 181.68V188.96" stroke="#4A4A4A" stroke-width="2"/>
<path d="M85 188.96L94 194.68M94 194.68L103.5 188.96L115 194.68M94 194.68V200.92M115 194.68L124.5 188.96L135.5 194.68M115 194.68V200.92M135.5 194.68L146 188.96L156 194.68M135.5 194.68V200.92M156 194.68L166 188.96L176.5 194.68M156 194.68V200.92M176.5 194.68L186.5 188.96L196 194.68M176.5 194.68V200.92M196 194.68L206.5 188.96L218 194.68M196 194.68V200.92M218 194.68L227 188.96L238.5 194.68M218 194.68V200.92M238.5 194.68L247.5 188.96L258.5 194.68M238.5 194.68V200.92M258.5 194.68L268 188.96L278 194.68M258.5 194.68V200.92M278 194.68L289 188.96L299.5 194.68M278 194.68V200.92M299.5 194.68L308.5 188.96L319.5 194.68M299.5 194.68V200.92M319.5 194.68L330 188.96L340 194.68M319.5 194.68V200.92M340 194.68L350 188.96L361 194.68M340 194.68V200.92M361 194.68L371 188.96L381 194.68M361 194.68V200.92M381 194.68L391 188.96L401.5 194.68M381 194.68V200.92M401.5 194.68L411.5 188.96L422.5 194.68M401.5 194.68V200.92M422.5 194.68L431.5 188.96L443 194.68M422.5 194.68V200.92M443 194.68L452 188.96L463.5 194.68M443 194.68V200.92M463.5 194.68L473 188.96L484 194.68M463.5 194.68V200.92M484 194.68L493 188.96L504 194.68M484 194.68V200.92M504 194.68L513.5 188.96L524 194.68M504 194.68V200.92M524 194.68L535 188.96L544.5 194.68M524 194.68V200.92M544.5 194.68L555.5 188.96L565 194.68M544.5 194.68V200.92M565 194.68L575.5 188.96L585.5 194.68M565 194.68V200.92M585.5 194.68L595.5 188.96L606.5 194.68M585.5 194.68V200.92M606.5 194.68L616.5 188.96L627 194.68M606.5 194.68V200.92M627 194.68L637 188.96L647.5 194.68M627 194.68V200.92M647.5 194.68L657.5 188.96L667.5 194.68M647.5 194.68V200.92M667.5 194.68L678.5 188.96L687.5 194.68M667.5 194.68V200.92M687.5 194.68L698.5 188.96L709.5 194.68M687.5 194.68V200.92M709.5 194.68L719 188.96L729.5 194.68V200.92L719 206.12M709.5 194.68V200.92M719 206.12L709.5 200.92M719 206.12V213.4M709.5 200.92L698.5 206.12M698.5 206.12L687.5 200.92M698.5 206.12V213.4M687.5 200.92L678.5 206.12M678.5 206.12L667.5 200.92M678.5 206.12V213.4M667.5 200.92L657.5 206.12M657.5 206.12L647.5 200.92M657.5 206.12V213.4M647.5 200.92L637 206.12M637 206.12L627 200.92M637 206.12V213.4M627 200.92L616.5 206.12M616.5 206.12L606.5 200.92M616.5 206.12V213.4M606.5 200.92L595.5 206.12M595.5 206.12L585.5 200.92M595.5 206.12V213.4M585.5 200.92L575.5 206.12M575.5 206.12L565 200.92M575.5 206.12V213.4M565 200.92L555.5 206.12M555.5 206.12L544.5 200.92M555.5 206.12V213.4M544.5 200.92L535 206.12M535 206.12L524 200.92M535 206.12V213.4M524 200.92L513.5 206.12M513.5 206.12L504 200.92M513.5 206.12V213.4M504 200.92L493 206.12M493 206.12L484 200.92M493 206.12V213.4M484 200.92L473 206.12M473 206.12L463.5 200.92M473 206.12V213.4M463.5 200.92L452 206.12M452 206.12L443 200.92M452 206.12V213.4M443 200.92L433 206.12M433 206.12L422.5 200.92M433 206.12V213.4M422.5 200.92L411.5 206.12M411.5 206.12L401.5 200.92M411.5 206.12V213.4M401.5 200.92L391 206.12M391 206.12L381 200.92M391 206.12V213.4M381 200.92L371 206.12M371 206.12L361 200.92M371 206.12V213.4M361 200.92L350 206.12M350 206.12L340 200.92M350 206.12V213.4M340 200.92L330 206.12M330 206.12L319.5 200.92M330 206.12V213.4M319.5 200.92L308.5 206.12M308.5 206.12L299.5 200.92M308.5 206.12V213.4M299.5 200.92L289 206.12M289 206.12L278 200.92M289 206.12V213.4M278 200.92L268 206.12M268 206.12L258.5 200.92M268 206.12V213.4M258.5 200.92L247.5 206.12M247.5 206.12L238.5 200.92M247.5 206.12V213.4M238.5 200.92L227 206.12M227 206.12L218 200.92M227 206.12V213.4M218 200.92L206.5 206.12M206.5 206.12L196 200.92M206.5 206.12V213.4M196 200.92L186.5 206.12M186.5 206.12L176.5 200.92M186.5 206.12V213.4M176.5 200.92L166 206.12M166 206.12L156 200.92M166 206.12V213.4M156 200.92L146 206.12M146 206.12L135.5 200.92M146 206.12V213.4M135.5 200.92L124.5 206.12M124.5 206.12L115 200.92M124.5 206.12V213.4M115 200.92L103.5 206.12M103.5 206.12L94 200.92M103.5 206.12V213.4M94 200.92L85 206.12V213.4" stroke="#4A4A4A" stroke-width="2"/>
<path d="M85 213.4L94 219.12M94 219.12L103.5 213.4L115 219.12M94 219.12V225.36M115 219.12L124.5 213.4L135.5 219.12M115 219.12V225.36M135.5 219.12L146 213.4L156 219.12M135.5 219.12V225.36M156 219.12L166 213.4L176.5 219.12M156 219.12V225.36M176.5 219.12L186.5 213.4L196 219.12M176.5 219.12V225.36M196 219.12L206.5 213.4L218 219.12M196 219.12V225.36M218 219.12L227 213.4L238.5 219.12M218 219.12V225.36M238.5 219.12L247.5 213.4L258.5 219.12M238.5 219.12V225.36M258.5 219.12L268 213.4L278 219.12M258.5 219.12V225.36M278 219.12L289 213.4L299.5 219.12M278 219.12V225.36M299.5 219.12L308.5 213.4L319.5 219.12M299.5 219.12V225.36M319.5 219.12L330 213.4L340 219.12M319.5 219.12V225.36M340 219.12L350 213.4L361 219.12M340 219.12V225.36M361 219.12L371 213.4L381 219.12M361 219.12V225.36M381 219.12L391 213.4L401.5 219.12M381 219.12V225.36M401.5 219.12L411.5 213.4L422.5 219.12M401.5 219.12V225.36M422.5 219.12L431.5 213.4L443 219.12M422.5 219.12V225.36M443 219.12L452 213.4L463.5 219.12M443 219.12V225.36M463.5 219.12L473 213.4L484 219.12M463.5 219.12V225.36M484 219.12L493 213.4L504 219.12M484 219.12V225.36M504 219.12L513.5 213.4L524 219.12M504 219.12V225.36M524 219.12L535 213.4L544.5 219.12M524 219.12V225.36M544.5 219.12L555.5 213.4L565 219.12M544.5 219.12V225.36M565 219.12L575.5 213.4L585.5 219.12M565 219.12V225.36M585.5 219.12L595.5 213.4L606.5 219.12M585.5 219.12V225.36M606.5 219.12L616.5 213.4L627 219.12M606.5 219.12V225.36M627 219.12L637 213.4L647.5 219.12M627 219.12V225.36M647.5 219.12L657.5 213.4L667.5 219.12M647.5 219.12V225.36M667.5 219.12L678.5 213.4L687.5 219.12M667.5 219.12V225.36M687.5 219.12L698.5 213.4L709.5 219.12M687.5 219.12V225.36M709.5 219.12L719 213.4L729.5 219.12V225.36L719 230.56M709.5 219.12V225.36M719 230.56L709.5 225.36M719 230.56V237.84M709.5 225.36L698.5 230.56M698.5 230.56L687.5 225.36M698.5 230.56V237.84M687.5 225.36L678.5 230.56M678.5 230.56L667.5 225.36M678.5 230.56V237.84M667.5 225.36L657.5 230.56M657.5 230.56L647.5 225.36M657.5 230.56V237.84M647.5 225.36L637 230.56M637 230.56L627 225.36M637 230.56V237.84M627 225.36L616.5 230.56M616.5 230.56L606.5 225.36M616.5 230.56V237.84M606.5 225.36L595.5 230.56M595.5 230.56L585.5 225.36M595.5 230.56V237.84M585.5 225.36L575.5 230.56M575.5 230.56L565 225.36M575.5 230.56V237.84M565 225.36L555.5 230.56M555.5 230.56L544.5 225.36M555.5 230.56V237.84M544.5 225.36L535 230.56M535 230.56L524 225.36M535 230.56V237.84M524 225.36L513.5 230.56M513.5 230.56L504 225.36M513.5 230.56V237.84M504 225.36L493 230.56M493 230.56L484 225.36M493 230.56V237.84M484 225.36L473 230.56M473 230.56L463.5 225.36M473 230.56V237.84M463.5 225.36L452 230.56M452 230.56L443 225.36M452 230.56V237.84M443 225.36L433 230.56M433 230.56L422.5 225.36M433 230.56V237.84M422.5 225.36L411.5 230.56M411.5 230.56L401.5 225.36M411.5 230.56V237.84M401.5 225.36L391 230.56M391 230.56L381 225.36M391 230.56V237.84M381 225.36L371 230.56M371 230.56L361 225.36M371 230.56V237.84M361 225.36L350 230.56M350 230.56L340 225.36M350 230.56V237.84M340 225.36L330 230.56M330 230.56L319.5 225.36M330 230.56V237.84M319.5 225.36L308.5 230.56M308.5 230.56L299.5 225.36M308.5 230.56V237.84M299.5 225.36L289 230.56M289 230.56L278 225.36M289 230.56V237.84M278 225.36L268 230.56M268 230.56L258.5 225.36M268 230.56V237.84M258.5 225.36L247.5 230.56M247.5 230.56L238.5 225.36M247.5 230.56V237.84M238.5 225.36L227 230.56M227 230.56L218 225.36M227 230.56V237.84M218 225.36L206.5 230.56M206.5 230.56L196 225.36M206.5 230.56V237.84M196 225.36L186.5 230.56M186.5 230.56L176.5 225.36M186.5 230.56V237.84M176.5 225.36L166 230.56M166 230.56L156 225.36M166 230.56V237.84M156 225.36L146 230.56M146 230.56L135.5 225.36M146 230.56V237.84M135.5 225.36L124.5 230.56M124.5 230.56L115 225.36M124.5 230.56V237.84M115 225.36L103.5 230.56M103.5 230.56L94 225.36M103.5 230.56V237.84M94 225.36L85 230.56V237.84" stroke="#4A4A4A" stroke-width="2"/>
<path d="M85 237.84L94 243.56M94 243.56L103.5 237.84L115 243.56M94 243.56V249.8M115 243.56L124.5 237.84L135.5 243.56M115 243.56V249.8M135.5 243.56L146 237.84L156 243.56M135.5 243.56V249.8M156 243.56L166 237.84L176.5 243.56M156 243.56V249.8M176.5 243.56L186.5 237.84L196 243.56M176.5 243.56V249.8M196 243.56L206.5 237.84L218 243.56M196 243.56V249.8M218 243.56L227 237.84L238.5 243.56M218 243.56V249.8M238.5 243.56L247.5 237.84L258.5 243.56M238.5 243.56V249.8M258.5 243.56L268 237.84L278 243.56M258.5 243.56V249.8M278 243.56L289 237.84L299.5 243.56M278 243.56V249.8M299.5 243.56L308.5 237.84L319.5 243.56M299.5 243.56V249.8M319.5 243.56L330 237.84L340 243.56M319.5 243.56V249.8M340 243.56L350 237.84L361 243.56M340 243.56V249.8M361 243.56L371 237.84L381 243.56M361 243.56V249.8M381 243.56L391 237.84L401.5 243.56M381 243.56V249.8M401.5 243.56L411.5 237.84L422.5 243.56M401.5 243.56V249.8M422.5 243.56L431.5 237.84L443 243.56M422.5 243.56V249.8M443 243.56L452 237.84L463.5 243.56M443 243.56V249.8M463.5 243.56L473 237.84L484 243.56M463.5 243.56V249.8M484 243.56L493 237.84L504 243.56M484 243.56V249.8M504 243.56L513.5 237.84L524 243.56M504 243.56V249.8M524 243.56L535 237.84L544.5 243.56M524 243.56V249.8M544.5 243.56L555.5 237.84L565 243.56M544.5 243.56V249.8M565 243.56L575.5 237.84L585.5 243.56M565 243.56V249.8M585.5 243.56L595.5 237.84L606.5 243.56M585.5 243.56V249.8M606.5 243.56L616.5 237.84L627 243.56M606.5 243.56V249.8M627 243.56L637 237.84L647.5 243.56M627 243.56V249.8M647.5 243.56L657.5 237.84L667.5 243.56M647.5 243.56V249.8M667.5 243.56L678.5 237.84L687.5 243.56M667.5 243.56V249.8M687.5 243.56L698.5 237.84L709.5 243.56M687.5 243.56V249.8M709.5 243.56L719 237.84L729.5 243.56V249.8L719 255M709.5 243.56V249.8M719 255L709.5 249.8M719 255V262.28M709.5 249.8L698.5 255M698.5 255L687.5 249.8M698.5 255V262.28M687.5 249.8L678.5 255M678.5 255L667.5 249.8M678.5 255V262.28M667.5 249.8L657.5 255M657.5 255L647.5 249.8M657.5 255V262.28M647.5 249.8L637 255M637 255L627 249.8M637 255V262.28M627 249.8L616.5 255M616.5 255L606.5 249.8M616.5 255V262.28M606.5 249.8L595.5 255M595.5 255L585.5 249.8M595.5 255V262.28M585.5 249.8L575.5 255M575.5 255L565 249.8M575.5 255V262.28M565 249.8L555.5 255M555.5 255L544.5 249.8M555.5 255V262.28M544.5 249.8L535 255M535 255L524 249.8M535 255V262.28M524 249.8L513.5 255M513.5 255L504 249.8M513.5 255V262.28M504 249.8L493 255M493 255L484 249.8M493 255V262.28M484 249.8L473 255M473 255L463.5 249.8M473 255V262.28M463.5 249.8L452 255M452 255L443 249.8M452 255V262.28M443 249.8L433 255M433 255L422.5 249.8M433 255V262.28M422.5 249.8L411.5 255M411.5 255L401.5 249.8M411.5 255V262.28M401.5 249.8L391 255M391 255L381 249.8M391 255V262.28M381 249.8L371 255M371 255L361 249.8M371 255V262.28M361 249.8L350 255M350 255L340 249.8M350 255V262.28M340 249.8L330 255M330 255L319.5 249.8M330 255V262.28M319.5 249.8L308.5 255M308.5 255L299.5 249.8M308.5 255V262.28M299.5 249.8L289 255M289 255L278 249.8M289 255V262.28M278 249.8L268 255M268 255L258.5 249.8M268 255V262.28M258.5 249.8L247.5 255M247.5 255L238.5 249.8M247.5 255V262.28M238.5 249.8L227 255M227 255L218 249.8M227 255V262.28M218 249.8L206.5 255M206.5 255L196 249.8M206.5 255V262.28M196 249.8L186.5 255M186.5 255L176.5 249.8M186.5 255V262.28M176.5 249.8L166 255M166 255L156 249.8M166 255V262.28M156 249.8L146 255M146 255L135.5 249.8M146 255V262.28M135.5 249.8L124.5 255M124.5 255L115 249.8M124.5 255V262.28M115 249.8L103.5 255M103.5 255L94 249.8M103.5 255V262.28M94 249.8L85 255V262.28" stroke="#4A4A4A" stroke-width="2"/>
<path d="M137.034 147H131.761L139.795 123.727H146.136L154.159 147H148.886L143.057 129.046H142.875L137.034 147ZM136.705 137.852H149.159V141.693H136.705V137.852Z" fill="white"/>
<path d="M156.96 147V123.727H166.142C167.907 123.727 169.411 124.064 170.653 124.739C171.896 125.405 172.843 126.333 173.494 127.523C174.153 128.705 174.483 130.068 174.483 131.614C174.483 133.159 174.15 134.523 173.483 135.705C172.816 136.886 171.85 137.807 170.585 138.466C169.328 139.125 167.805 139.455 166.017 139.455H160.165V135.511H165.222C166.169 135.511 166.949 135.349 167.562 135.023C168.184 134.689 168.646 134.231 168.949 133.648C169.259 133.057 169.415 132.379 169.415 131.614C169.415 130.841 169.259 130.167 168.949 129.591C168.646 129.008 168.184 128.557 167.562 128.239C166.941 127.913 166.153 127.75 165.199 127.75H161.881V147H156.96Z" fill="white"/>
<path d="M198.213 131.875H193.236C193.145 131.231 192.959 130.659 192.679 130.159C192.399 129.652 192.039 129.22 191.599 128.864C191.16 128.508 190.652 128.235 190.077 128.046C189.509 127.856 188.891 127.761 188.224 127.761C187.02 127.761 185.971 128.061 185.077 128.659C184.183 129.25 183.49 130.114 182.997 131.25C182.505 132.379 182.259 133.75 182.259 135.364C182.259 137.023 182.505 138.417 182.997 139.546C183.497 140.674 184.194 141.527 185.088 142.102C185.982 142.678 187.016 142.966 188.19 142.966C188.849 142.966 189.459 142.879 190.02 142.705C190.588 142.53 191.092 142.277 191.531 141.943C191.971 141.602 192.334 141.189 192.622 140.705C192.918 140.22 193.122 139.667 193.236 139.046L198.213 139.068C198.084 140.136 197.762 141.167 197.247 142.159C196.74 143.144 196.054 144.027 195.19 144.807C194.334 145.58 193.312 146.193 192.122 146.648C190.94 147.095 189.603 147.318 188.111 147.318C186.035 147.318 184.179 146.849 182.543 145.909C180.914 144.97 179.626 143.61 178.679 141.83C177.74 140.049 177.27 137.894 177.27 135.364C177.27 132.826 177.747 130.667 178.702 128.886C179.656 127.106 180.952 125.75 182.588 124.818C184.224 123.879 186.065 123.409 188.111 123.409C189.459 123.409 190.709 123.599 191.861 123.977C193.02 124.356 194.046 124.909 194.94 125.636C195.834 126.356 196.562 127.239 197.122 128.284C197.69 129.33 198.054 130.527 198.213 131.875Z" fill="white"/>
</svg>
