<svg width="17" height="50" viewBox="0 0 17 50" fill="none" xmlns="http://www.w3.org/2000/svg">
<path d="M4.5 1.5H1.5V10.5L1 11M4.5 1.5L5 0.5H11L11.5 1.5M4.5 1.5V7.5H6V11M11.5 1.5H15V10.5L15.5 11M11.5 1.5V7.5H10V11M15.5 11L16 11.5V19.5M15.5 11H12.5M1 11L0.5 11.5V19.5M1 11H4M4 11V12C4 13 5.5 15.5 8 15.5C10.5 15.5 12.5 13 12.5 12V11M4 11H6M12.5 11H10M16 19.5V22.5L15.6818 23.5M16 19.5H11M15.6818 23.5H11M13.6136 30L14.7273 26.5L15.6818 23.5M14.7273 26.5H11M13.6136 30L12.5 33.5H10M13.6136 30H11M2.88636 30L4 33.5H6.5M2.88636 30H5.5M2.88636 30L1.77273 26.5M1.77273 26.5L1.69318 26.25L0.818182 23.5M1.77273 26.5H5.5M0.818182 23.5L0.5 22.5V19.5M0.818182 23.5H5.5M0.5 19.5H5.5M6.5 33.5V49.5M6.5 33.5H10M10 33.5V49.5M6 11H10" stroke="black"/>
</svg>
