<svg width="1000" height="644" viewBox="0 0 1000 644" fill="none" xmlns="http://www.w3.org/2000/svg">
<path d="M0.300781 0H999.699V4.19493H0.300781V0Z" fill="#1E1E1E"/>
<rect y="4.10742" width="1000" height="74.1148" fill="#BFBFBF"/>
<path d="M311.759 32.396L309.372 34.5881H304.598V52.1251H309.372H335.632V48.8369V34.5881H330.858L328.47 32.396V30.2039H320.115H311.759V32.396Z" fill="black" stroke="black"/>
<rect x="40.23" y="43.7744" width="13.7931" height="12.5264" fill="#D9D9D9"/>
<rect x="56.3213" y="43.7744" width="13.7931" height="12.5264" fill="#D9D9D9"/>
<rect x="72.4136" y="43.7744" width="13.7931" height="12.5264" fill="#D9D9D9"/>
<rect x="91.9539" y="34.3796" width="11.4943" height="10.4387" fill="#D9D9D9"/>
<rect x="91.9539" y="45.8623" width="11.4943" height="10.4387" fill="#D9D9D9"/>
<rect x="106.897" y="45.8623" width="11.4943" height="10.4387" fill="#D9D9D9"/>
<rect x="106.897" y="34.3796" width="11.4943" height="10.4387" fill="#D9D9D9"/>
<rect x="106.897" y="22.897" width="11.4943" height="10.4387" fill="#D9D9D9"/>
<rect x="125.287" y="45.8623" width="11.4943" height="10.4387" fill="#D9D9D9"/>
<rect x="125.287" y="34.3796" width="11.4943" height="10.4387" fill="#D9D9D9"/>
<rect x="125.287" y="22.897" width="11.4943" height="10.4387" fill="#D9D9D9"/>
<rect x="143.677" y="45.8623" width="11.4943" height="10.4387" fill="#D9D9D9"/>
<rect x="143.678" y="34.3796" width="11.4943" height="10.4387" fill="#D9D9D9"/>
<rect x="156.322" y="34.3796" width="11.4943" height="10.4387" fill="#D9D9D9"/>
<rect x="156.322" y="45.8623" width="11.4943" height="10.4387" fill="#D9D9D9"/>
<rect x="173.563" y="45.8623" width="11.4943" height="10.4387" fill="#D9D9D9"/>
<rect x="173.563" y="34.3796" width="11.4943" height="10.4387" fill="#D9D9D9"/>
<rect x="186.207" y="34.3796" width="11.4943" height="10.4387" fill="#D9D9D9"/>
<rect x="173.563" y="22.897" width="11.4943" height="10.4387" fill="#D9D9D9"/>
<rect x="186.207" y="22.897" width="11.4943" height="10.4387" fill="#D9D9D9"/>
<rect x="204.597" y="22.897" width="11.4943" height="10.4387" fill="#D9D9D9"/>
<rect x="217.241" y="22.897" width="11.4943" height="10.4387" fill="#D9D9D9"/>
<rect x="186.207" y="45.8623" width="11.4943" height="10.4387" fill="#D9D9D9"/>
<rect x="204.597" y="45.8623" width="11.4943" height="10.4387" fill="#D9D9D9"/>
<rect x="204.597" y="34.3796" width="11.4943" height="10.4387" fill="#D9D9D9"/>
<rect x="217.241" y="34.3796" width="11.4943" height="10.4387" fill="#D9D9D9"/>
<rect x="217.241" y="45.8623" width="11.4943" height="10.4387" fill="#D9D9D9"/>
<rect x="262.069" y="22.897" width="11.4943" height="10.4387" fill="#D9D9D9"/>
<rect x="262.069" y="45.8623" width="11.4943" height="10.4387" fill="#D9D9D9"/>
<rect x="262.069" y="34.3796" width="11.4943" height="10.4387" fill="#D9D9D9"/>
<rect x="274.713" y="34.3796" width="11.4943" height="10.4387" fill="#D9D9D9"/>
<rect x="274.713" y="45.8623" width="11.4943" height="10.4387" fill="#D9D9D9"/>
<rect x="588.505" y="45.8623" width="11.4943" height="10.4387" fill="#D9D9D9"/>
<rect x="588.505" y="34.3796" width="11.4943" height="10.4387" fill="#D9D9D9"/>
<rect x="452.874" y="46.906" width="11.4943" height="10.4387" fill="#D9D9D9"/>
<rect x="452.874" y="35.4241" width="11.4943" height="10.4387" fill="#D9D9D9"/>
<rect x="452.874" y="23.9414" width="11.4943" height="10.4387" fill="#D9D9D9"/>
<rect x="601.15" y="34.3796" width="11.4943" height="10.4387" fill="#D9D9D9"/>
<rect x="601.15" y="45.8623" width="11.4943" height="10.4387" fill="#D9D9D9"/>
<rect x="636.781" y="45.8623" width="11.4943" height="10.4387" fill="#D9D9D9"/>
<rect x="636.781" y="34.3796" width="11.4943" height="10.4387" fill="#D9D9D9"/>
<rect x="649.425" y="34.3796" width="11.4943" height="10.4387" fill="#D9D9D9"/>
<rect x="649.425" y="45.8623" width="11.4943" height="10.4387" fill="#D9D9D9"/>
<rect x="667.816" y="45.8623" width="11.4943" height="10.4387" fill="#D9D9D9"/>
<rect x="667.816" y="34.3796" width="11.4943" height="10.4387" fill="#D9D9D9"/>
<rect x="680.459" y="34.3796" width="11.4943" height="10.4387" fill="#D9D9D9"/>
<rect x="667.816" y="22.897" width="11.4943" height="10.4387" fill="#D9D9D9"/>
<rect x="680.459" y="22.897" width="11.4943" height="10.4387" fill="#D9D9D9"/>
<rect x="680.459" y="45.8623" width="11.4943" height="10.4387" fill="#D9D9D9"/>
<rect x="564.368" y="45.8623" width="10.4387" height="13.7931" transform="rotate(90 564.368 45.8623)" fill="#D9D9D9"/>
<rect x="578.161" y="45.8623" width="10.4387" height="12.6437" transform="rotate(90 578.161 45.8623)" fill="#D9D9D9"/>
<rect x="549.425" y="45.8623" width="10.4387" height="12.6437" transform="rotate(90 549.425 45.8623)" fill="#D9D9D9"/>
<rect x="700" y="45.8623" width="11.4943" height="10.4387" fill="#D9D9D9"/>
<rect x="700" y="34.3796" width="11.4943" height="10.4387" fill="#D9D9D9"/>
<rect x="712.644" y="34.3796" width="11.4943" height="10.4387" fill="#D9D9D9"/>
<rect x="700" y="22.897" width="11.4943" height="10.4387" fill="#D9D9D9"/>
<rect x="712.644" y="22.897" width="11.4943" height="10.4387" fill="#D9D9D9"/>
<rect x="712.644" y="45.8623" width="11.4943" height="10.4387" fill="#D9D9D9"/>
<rect x="756.322" y="45.8623" width="11.4943" height="10.4387" fill="#D9D9D9"/>
<rect x="756.322" y="34.3796" width="11.4943" height="10.4387" fill="#D9D9D9"/>
<rect x="768.966" y="34.3796" width="11.4943" height="10.4387" fill="#D9D9D9"/>
<rect x="756.322" y="22.897" width="11.4943" height="10.4387" fill="#D9D9D9"/>
<rect x="768.966" y="45.8623" width="11.4943" height="10.4387" fill="#D9D9D9"/>
<rect x="601.15" y="22.897" width="11.4943" height="10.4387" fill="#D9D9D9"/>
<rect x="620.69" y="34.3796" width="11.4943" height="10.4387" fill="#D9D9D9"/>
<rect x="620.69" y="45.8623" width="11.4943" height="10.4387" fill="#D9D9D9"/>
<rect x="620.69" y="22.897" width="11.4943" height="10.4387" fill="#D9D9D9"/>
<rect x="435.632" y="46.906" width="12.6437" height="9.39483" fill="#8CFF00"/>
<path d="M395.137 54.1094L397.524 51.9173L402.298 51.9173L402.298 34.3802L397.524 34.3802L371.264 34.3802L371.264 37.6684L371.264 51.9173L376.038 51.9173L378.426 54.1094L378.426 56.3015L386.781 56.3015L395.137 56.3015L395.137 54.1094Z" fill="black" stroke="black"/>
<path d="M810.61 32.396L808.223 34.5881H803.448V52.1251H808.223H834.482V48.8369V34.5881H829.708L827.321 32.396V30.2039H818.965H810.61V32.396Z" fill="black" stroke="black"/>
<path d="M893.988 54.1094L896.375 51.9173L901.15 51.9173L901.15 34.3802L896.375 34.3802L870.115 34.3802L870.115 37.6684L870.115 51.9173L874.89 51.9173L877.277 54.1094L877.277 56.3015L885.632 56.3015L893.988 56.3015L893.988 54.1094Z" fill="black" stroke="black"/>
<rect x="931.034" y="46.906" width="12.6437" height="9.39483" fill="#8CFF00"/>
<rect x="501.647" y="550.552" width="497.853" height="92.9484" fill="#D9D9D9" stroke="black"/>
<path d="M963.038 616.754L965.419 614.562L970.183 614.562L970.183 597.025L965.419 597.025L939.22 597.025L939.22 600.313L939.22 614.562L943.983 614.562L946.365 616.754L946.365 618.947L954.701 618.947L963.038 618.947L963.038 616.754Z" fill="black" stroke="black"/>
<path d="M928.634 616.754L931.016 614.562L935.78 614.562L935.78 597.025L931.016 597.025L904.816 597.025L904.816 600.313L904.816 614.562L909.58 614.562L911.962 616.754L911.962 618.947L920.298 618.947L928.634 618.947L928.634 616.754Z" fill="black" stroke="black"/>
<path d="M894.23 616.754L896.612 614.562L901.376 614.562L901.376 597.025L896.612 597.025L870.412 597.025L870.412 600.313L870.412 614.562L875.176 614.562L877.558 616.754L877.558 618.947L885.894 618.947L894.23 618.947L894.23 616.754Z" fill="black" stroke="black"/>
<path d="M859.827 616.754L862.209 614.562L866.972 614.562L866.972 597.025L862.209 597.025L836.009 597.025L836.009 600.313L836.009 614.562L840.773 614.562L843.154 616.754L843.154 618.947L851.491 618.947L859.827 618.947L859.827 616.754Z" fill="black" stroke="black"/>
<path d="M825.423 616.754L827.805 614.562L832.568 614.562L832.568 597.025L827.805 597.025L801.605 597.025L801.605 600.313L801.605 614.562L806.369 614.562L808.75 616.754L808.75 618.947L817.087 618.947L825.423 618.947L825.423 616.754Z" fill="black" stroke="black"/>
<path d="M791.02 616.754L793.401 614.562L798.165 614.562L798.165 597.025L793.401 597.025L767.202 597.025L767.202 600.313L767.202 614.562L771.965 614.562L774.347 616.754L774.347 618.947L782.683 618.947L791.02 618.947L791.02 616.754Z" fill="black" stroke="black"/>
<path d="M746.295 616.754L748.677 614.562L753.441 614.562L753.441 597.025L748.677 597.025L722.477 597.025L722.477 600.313L722.477 614.562L727.241 614.562L729.623 616.754L729.623 618.947L737.959 618.947L746.295 618.947L746.295 616.754Z" fill="black" stroke="black"/>
<path d="M711.891 616.754L714.273 614.562L719.036 614.562L719.037 597.025L714.273 597.025L688.073 597.025L688.073 600.313L688.073 614.562L692.837 614.562L695.219 616.754L695.219 618.947L703.555 618.947L711.891 618.947L711.891 616.754Z" fill="black" stroke="black"/>
<path d="M677.488 616.754L679.87 614.562L684.633 614.562L684.633 597.025L679.87 597.025L653.67 597.025L653.67 600.313L653.67 614.562L658.434 614.562L660.815 616.754L660.815 618.947L669.152 618.947L677.488 618.947L677.488 616.754Z" fill="black" stroke="black"/>
<path d="M643.084 616.754L645.466 614.562L650.229 614.562L650.229 597.025L645.466 597.025L619.266 597.025L619.266 600.313L619.266 614.562L624.03 614.562L626.411 616.754L626.411 618.947L634.748 618.947L643.084 618.947L643.084 616.754Z" fill="black" stroke="black"/>
<path d="M608.68 616.754L611.062 614.562L615.826 614.562L615.826 597.025L611.062 597.025L584.862 597.025L584.862 600.313L584.862 614.562L589.626 614.562L592.008 616.754L592.008 618.947L600.344 618.947L608.68 618.947L608.68 616.754Z" fill="black" stroke="black"/>
<path d="M574.276 616.754L576.658 614.562L581.422 614.562L581.422 597.025L576.658 597.025L550.459 597.025L550.459 600.313L550.459 614.562L555.222 614.562L557.604 616.754L557.604 618.947L565.94 618.947L574.276 618.947L574.276 616.754Z" fill="black" stroke="black"/>
<path d="M774.347 569.99L771.965 572.182H767.202V589.719H771.965H798.165V586.431V572.182H793.402L791.02 569.99V567.798H782.684H774.347V569.99Z" fill="black" stroke="black"/>
<path d="M808.751 569.99L806.369 572.182H801.605V589.719H806.369H832.569V586.431V572.182H827.805L825.423 569.99V567.798H817.087H808.751V569.99Z" fill="black" stroke="black"/>
<path d="M843.155 569.99L840.773 572.182H836.009V589.719H840.773H866.973V586.431V572.182H862.209L859.827 569.99V567.798H851.491H843.155V569.99Z" fill="black" stroke="black"/>
<path d="M877.558 569.99L875.176 572.182H870.413V589.719H875.176H901.376V586.431V572.182H896.612L894.231 569.99V567.798H885.894H877.558V569.99Z" fill="black" stroke="black"/>
<path d="M911.962 569.99L909.58 572.182H904.817V589.719H909.58H935.78V586.431V572.182H931.016L928.635 569.99V567.798H920.298H911.962V569.99Z" fill="black" stroke="black"/>
<path d="M946.365 569.99L943.984 572.182H939.22V589.719H943.984H970.183V586.431V572.182H965.42L963.038 569.99V567.798H954.702H946.365V569.99Z" fill="black" stroke="black"/>
<path d="M557.604 569.99L555.222 572.182H550.459V589.719H555.222H581.422V586.431V572.182H576.658L574.277 569.99V567.798H565.94H557.604V569.99Z" fill="black" stroke="black"/>
<path d="M592.008 569.99L589.626 572.182H584.863V589.719H589.626H615.826V586.431V572.182H611.063L608.681 569.99V567.798H600.344H592.008V569.99Z" fill="black" stroke="black"/>
<path d="M626.411 569.99L624.03 572.182H619.266V589.719H624.03H650.229V586.431V572.182H645.466L643.084 569.99V567.798H634.748H626.411V569.99Z" fill="black" stroke="black"/>
<path d="M660.815 569.99L658.433 572.182H653.669V589.719H658.433H684.632V586.431V572.182H679.869L677.487 569.99V567.798H669.151H660.815V569.99Z" fill="black" stroke="black"/>
<path d="M695.219 569.99L692.837 572.182H688.073V589.719H692.837H719.037V586.431V572.182H714.273L711.891 569.99V567.798H703.555H695.219V569.99Z" fill="black" stroke="black"/>
<path d="M729.622 569.99L727.24 572.182H722.476V589.719H727.24H753.44V586.431V572.182H748.676L746.294 569.99V567.798H737.958H729.622V569.99Z" fill="black" stroke="black"/>
<ellipse cx="520.643" cy="626.254" rx="14.9083" ry="13.5703" fill="#FA9696"/>
<path d="M517.202 632.423V621.035H519.847V630.438H525.211V632.423H517.202Z" fill="black"/>
<rect x="0.5" y="550.552" width="500.147" height="92.9484" fill="#D9D9D9" stroke="black"/>
<path d="M461.891 616.754L464.273 614.562L469.036 614.562L469.036 597.025L464.273 597.025L438.073 597.025L438.073 600.313L438.073 614.562L442.836 614.562L445.218 616.754L445.218 618.946L453.554 618.946L461.891 618.946L461.891 616.754Z" fill="black" stroke="black"/>
<path d="M427.488 616.754L429.869 614.562L434.633 614.562L434.633 597.025L429.869 597.025L403.67 597.025L403.67 600.313L403.67 614.562L408.433 614.562L410.815 616.754L410.815 618.946L419.151 618.946L427.488 618.946L427.488 616.754Z" fill="black" stroke="black"/>
<path d="M393.083 616.754L395.465 614.562L400.229 614.562L400.229 597.025L395.465 597.025L369.265 597.025L369.265 600.313L369.265 614.562L374.029 614.562L376.411 616.754L376.411 618.946L384.747 618.946L393.083 618.946L393.083 616.754Z" fill="black" stroke="black"/>
<path d="M358.679 616.754L361.061 614.562L365.825 614.562L365.825 597.025L361.061 597.025L334.861 597.025L334.861 600.313L334.861 614.562L339.625 614.562L342.007 616.754L342.007 618.946L350.343 618.946L358.679 618.946L358.679 616.754Z" fill="black" stroke="black"/>
<path d="M324.276 616.754L326.658 614.562L331.422 614.562L331.422 597.025L326.658 597.025L300.458 597.025L300.458 600.313L300.458 614.562L305.222 614.562L307.604 616.754L307.604 618.946L315.94 618.946L324.276 618.946L324.276 616.754Z" fill="black" stroke="black"/>
<path d="M289.873 616.754L292.254 614.562L297.018 614.562L297.018 597.025L292.254 597.025L266.055 597.025L266.055 600.313L266.055 614.562L270.818 614.562L273.2 616.754L273.2 618.946L281.536 618.946L289.873 618.946L289.873 616.754Z" fill="black" stroke="black"/>
<path d="M245.148 616.754L247.53 614.562L252.293 614.562L252.293 597.025L247.53 597.025L221.33 597.025L221.33 600.313L221.33 614.562L226.093 614.562L228.475 616.754L228.475 618.947L236.812 618.947L245.148 618.947L245.148 616.754Z" fill="black" stroke="black"/>
<path d="M210.745 616.754L213.127 614.562L217.89 614.562L217.89 597.025L213.127 597.025L186.927 597.025L186.927 600.313L186.927 614.562L191.691 614.562L194.072 616.754L194.072 618.947L202.409 618.947L210.745 618.947L210.745 616.754Z" fill="black" stroke="black"/>
<path d="M176.34 616.754L178.722 614.562L183.486 614.562L183.486 597.025L178.722 597.025L152.523 597.025L152.523 600.313L152.523 614.562L157.286 614.562L159.668 616.754L159.668 618.947L168.004 618.947L176.34 618.947L176.34 616.754Z" fill="black" stroke="black"/>
<path d="M141.938 616.754L144.319 614.562L149.083 614.562L149.083 597.025L144.319 597.025L118.12 597.025L118.12 600.313L118.12 614.562L122.883 614.562L125.265 616.754L125.265 618.947L133.601 618.947L141.938 618.947L141.938 616.754Z" fill="black" stroke="black"/>
<path d="M107.533 616.754L109.915 614.562L114.678 614.562L114.678 597.025L109.915 597.025L83.7152 597.025L83.7152 600.313L83.7152 614.562L88.4787 614.562L90.8605 616.754L90.8605 618.947L99.1968 618.947L107.533 618.947L107.533 616.754Z" fill="black" stroke="black"/>
<path d="M73.1298 616.754L75.5116 614.562L80.2751 614.562L80.2751 597.025L75.5116 597.025L49.3118 597.025L49.3118 600.313L49.3118 614.562L54.0754 614.562L56.4572 616.754L56.4572 618.947L64.7935 618.947L73.1298 618.947L73.1298 616.754Z" fill="black" stroke="black"/>
<path d="M273.2 569.99L270.818 572.182H266.055V589.719H270.818H297.018V586.431V572.182H292.254L289.873 569.99V567.798H281.536H273.2V569.99Z" fill="black" stroke="black"/>
<path d="M307.604 569.99L305.222 572.182H300.459V589.719H305.222H331.422V586.431V572.182H326.658L324.277 569.99V567.798H315.94H307.604V569.99Z" fill="black" stroke="black"/>
<path d="M342.007 569.99L339.626 572.182H334.862V589.719H339.626H365.825V586.431V572.182H361.062L358.68 569.99V567.798H350.344H342.007V569.99Z" fill="black" stroke="black"/>
<path d="M376.411 569.99L374.03 572.182H369.266V589.719H374.03H400.229V586.431V572.182H395.466L393.084 569.99V567.798H384.748H376.411V569.99Z" fill="black" stroke="black"/>
<path d="M410.815 569.99L408.433 572.182H403.669V589.719H408.433H434.633V586.431V572.182H429.869L427.487 569.99V567.798H419.151H410.815V569.99Z" fill="black" stroke="black"/>
<path d="M445.219 569.99L442.837 572.182H438.074V589.719H442.837H469.037V586.431V572.182H464.273L461.892 569.99V567.798H453.555H445.219V569.99Z" fill="black" stroke="black"/>
<path d="M56.4576 569.99L54.0758 572.182H49.3123V589.719H54.0758H80.2756V586.431V572.182H75.512L73.1302 569.99V567.798H64.7939H56.4576V569.99Z" fill="black" stroke="black"/>
<path d="M90.861 569.99L88.4792 572.182H83.7156V589.719H88.4792H114.679V586.431V572.182H109.915L107.534 569.99V567.798H99.1972H90.861V569.99Z" fill="black" stroke="black"/>
<path d="M125.264 569.99L122.882 572.182H118.119V589.719H122.882H149.082V586.431V572.182H144.318L141.937 569.99V567.798H133.6H125.264V569.99Z" fill="black" stroke="black"/>
<path d="M159.668 569.99L157.287 572.182H152.523V589.719H157.287H183.486V586.431V572.182H178.723L176.341 569.99V567.798H168.005H159.668V569.99Z" fill="black" stroke="black"/>
<path d="M194.072 569.99L191.691 572.182H186.927V589.719H191.691H217.89V586.431V572.182H213.127L210.745 569.99V567.798H202.409H194.072V569.99Z" fill="black" stroke="black"/>
<path d="M228.476 569.99L226.094 572.182H221.33V589.719H226.094H252.294V586.431V572.182H247.53L245.148 569.99V567.798H236.812H228.476V569.99Z" fill="black" stroke="black"/>
<ellipse cx="19.4949" cy="626.254" rx="14.9083" ry="13.5703" fill="#FA9696"/>
<path d="M13.7612 632.423V621.035H16.4063V626.056H16.5712L21.0732 621.035H24.2436L19.6011 626.134L24.2986 632.423H21.1343L17.7074 627.741L16.4063 629.187V632.423H13.7612Z" fill="black"/>
<rect x="501.647" y="455.559" width="497.853" height="93.9922" fill="#D9D9D9" stroke="black"/>
<path d="M963.038 521.764L965.42 519.572L970.183 519.572L970.183 502.035L965.42 502.035L939.22 502.035L939.22 505.323L939.22 519.572L943.983 519.572L946.365 521.764L946.365 523.956L954.701 523.956L963.038 523.956L963.038 521.764Z" fill="black" stroke="black"/>
<path d="M928.635 521.764L931.016 519.572L935.78 519.572L935.78 502.035L931.016 502.035L904.817 502.035L904.817 505.323L904.817 519.572L909.58 519.572L911.962 521.764L911.962 523.956L920.298 523.956L928.635 523.956L928.635 521.764Z" fill="black" stroke="black"/>
<path d="M894.23 521.764L896.612 519.572L901.376 519.572L901.376 502.035L896.612 502.035L870.412 502.035L870.412 505.323L870.412 519.572L875.176 519.572L877.558 521.764L877.558 523.956L885.894 523.956L894.23 523.956L894.23 521.764Z" fill="black" stroke="black"/>
<path d="M859.827 521.764L862.209 519.572L866.973 519.572L866.973 502.035L862.209 502.035L836.009 502.035L836.009 505.323L836.009 519.572L840.773 519.572L843.155 521.764L843.155 523.956L851.491 523.956L859.827 523.956L859.827 521.764Z" fill="black" stroke="black"/>
<path d="M825.423 521.764L827.805 519.572L832.568 519.572L832.568 502.035L827.805 502.035L801.605 502.035L801.605 505.323L801.605 519.572L806.369 519.572L808.751 521.764L808.751 523.956L817.087 523.956L825.423 523.956L825.423 521.764Z" fill="black" stroke="black"/>
<path d="M791.02 521.764L793.402 519.572L798.165 519.572L798.165 502.035L793.402 502.035L767.202 502.035L767.202 505.323L767.202 519.572L771.965 519.572L774.347 521.764L774.347 523.956L782.684 523.956L791.02 523.956L791.02 521.764Z" fill="black" stroke="black"/>
<path d="M746.295 521.764L748.677 519.572L753.44 519.572L753.44 502.035L748.677 502.035L722.477 502.035L722.477 505.323L722.477 519.572L727.241 519.572L729.623 521.764L729.623 523.956L737.959 523.956L746.295 523.956L746.295 521.764Z" fill="black" stroke="black"/>
<path d="M711.891 521.764L714.273 519.572L719.037 519.572L719.037 502.035L714.273 502.035L688.073 502.035L688.073 505.323L688.073 519.572L692.837 519.572L695.219 521.764L695.219 523.956L703.555 523.956L711.891 523.956L711.891 521.764Z" fill="black" stroke="black"/>
<path d="M677.488 521.764L679.869 519.572L684.633 519.572L684.633 502.035L679.869 502.035L653.67 502.035L653.67 505.323L653.67 519.572L658.433 519.572L660.815 521.764L660.815 523.956L669.151 523.956L677.488 523.956L677.488 521.764Z" fill="black" stroke="black"/>
<path d="M643.084 521.764L645.465 519.572L650.229 519.572L650.229 502.035L645.465 502.035L619.266 502.035L619.266 505.323L619.266 519.572L624.029 519.572L626.411 521.764L626.411 523.956L634.747 523.956L643.084 523.956L643.084 521.764Z" fill="black" stroke="black"/>
<path d="M608.68 521.764L611.062 519.572L615.826 519.572L615.826 502.035L611.062 502.035L584.863 502.035L584.863 505.323L584.863 519.572L589.626 519.572L592.008 521.764L592.008 523.956L600.344 523.956L608.68 523.956L608.68 521.764Z" fill="black" stroke="black"/>
<path d="M574.276 521.764L576.658 519.572L581.422 519.572L581.422 502.035L576.658 502.035L550.458 502.035L550.458 505.323L550.458 519.572L555.222 519.572L557.604 521.764L557.604 523.956L565.94 523.956L574.276 523.956L574.276 521.764Z" fill="black" stroke="black"/>
<path d="M774.347 474.997L771.965 477.189H767.202V494.726H771.965H798.165V491.438V477.189H793.402L791.02 474.997V472.805H782.684H774.347V474.997Z" fill="black" stroke="black"/>
<path d="M808.751 474.997L806.369 477.189H801.605V494.726H806.369H832.569V491.438V477.189H827.805L825.423 474.997V472.805H817.087H808.751V474.997Z" fill="black" stroke="black"/>
<path d="M843.155 474.997L840.773 477.189H836.009V494.726H840.773H866.973V491.438V477.189H862.209L859.827 474.997V472.805H851.491H843.155V474.997Z" fill="black" stroke="black"/>
<path d="M877.558 474.997L875.176 477.189H870.413V494.726H875.176H901.376V491.438V477.189H896.612L894.231 474.997V472.805H885.894H877.558V474.997Z" fill="black" stroke="black"/>
<path d="M911.962 474.997L909.58 477.189H904.817V494.726H909.58H935.78V491.438V477.189H931.016L928.635 474.997V472.805H920.298H911.962V474.997Z" fill="black" stroke="black"/>
<path d="M946.365 474.997L943.984 477.189H939.22V494.726H943.984H970.183V491.438V477.189H965.42L963.038 474.997V472.805H954.702H946.365V474.997Z" fill="black" stroke="black"/>
<path d="M557.604 474.997L555.222 477.189H550.459V494.726H555.222H581.422V491.438V477.189H576.658L574.277 474.997V472.805H565.94H557.604V474.997Z" fill="black" stroke="black"/>
<path d="M592.008 474.997L589.626 477.189H584.863V494.726H589.626H615.826V491.438V477.189H611.063L608.681 474.997V472.805H600.344H592.008V474.997Z" fill="black" stroke="black"/>
<path d="M626.411 474.997L624.03 477.189H619.266V494.726H624.03H650.229V491.438V477.189H645.466L643.084 474.997V472.805H634.748H626.411V474.997Z" fill="black" stroke="black"/>
<path d="M660.815 474.997L658.433 477.189H653.669V494.726H658.433H684.632V491.438V477.189H679.869L677.487 474.997V472.805H669.151H660.815V474.997Z" fill="black" stroke="black"/>
<path d="M695.219 474.997L692.837 477.189H688.073V494.726H692.837H719.037V491.438V477.189H714.273L711.891 474.997V472.805H703.555H695.219V474.997Z" fill="black" stroke="black"/>
<path d="M729.622 474.997L727.24 477.189H722.476V494.726H727.24H753.44V491.438V477.189H748.676L746.294 474.997V472.805H737.958H729.622V474.997Z" fill="black" stroke="black"/>
<ellipse cx="520.643" cy="531.261" rx="14.9083" ry="13.5703" fill="#FA9696"/>
<path d="M521.747 525H524.362V532.94C524.362 533.674 524.181 534.311 523.818 534.853C523.46 535.394 522.961 535.811 522.322 536.104C521.682 536.396 520.939 536.543 520.092 536.543C519.339 536.543 518.654 536.422 518.04 536.181C517.429 535.937 516.944 535.566 516.586 535.069C516.227 534.569 516.05 533.941 516.054 533.184H518.687C518.695 533.485 518.762 533.742 518.889 533.957C519.019 534.169 519.196 534.332 519.42 534.447C519.648 534.558 519.917 534.613 520.226 534.613C520.552 534.613 520.827 534.55 521.051 534.424C521.279 534.295 521.452 534.106 521.57 533.857C521.688 533.609 521.747 533.303 521.747 532.94V525Z" fill="black"/>
<rect x="0.5" y="455.559" width="500.147" height="93.9922" fill="#D9D9D9" stroke="black"/>
<path d="M461.891 521.764L464.273 519.572L469.036 519.572L469.036 502.035L464.273 502.035L438.073 502.035L438.073 505.323L438.073 519.572L442.836 519.572L445.218 521.764L445.218 523.956L453.554 523.956L461.891 523.956L461.891 521.764Z" fill="black" stroke="black"/>
<path d="M427.488 521.764L429.869 519.572L434.633 519.572L434.633 502.035L429.869 502.035L403.67 502.035L403.67 505.323L403.67 519.572L408.433 519.572L410.815 521.764L410.815 523.956L419.151 523.956L427.488 523.956L427.488 521.764Z" fill="black" stroke="black"/>
<path d="M393.083 521.764L395.465 519.572L400.229 519.572L400.229 502.035L395.465 502.035L369.265 502.035L369.265 505.323L369.265 519.572L374.029 519.572L376.411 521.764L376.411 523.956L384.747 523.956L393.083 523.956L393.083 521.764Z" fill="black" stroke="black"/>
<path d="M358.679 521.764L361.061 519.572L365.825 519.572L365.825 502.035L361.061 502.035L334.861 502.035L334.861 505.323L334.861 519.572L339.625 519.572L342.007 521.764L342.007 523.956L350.343 523.956L358.679 523.956L358.679 521.764Z" fill="black" stroke="black"/>
<path d="M324.276 521.764L326.658 519.572L331.422 519.572L331.422 502.035L326.658 502.035L300.458 502.035L300.458 505.323L300.458 519.572L305.222 519.572L307.604 521.764L307.604 523.956L315.94 523.956L324.276 523.956L324.276 521.764Z" fill="black" stroke="black"/>
<path d="M289.873 521.764L292.254 519.572L297.018 519.572L297.018 502.035L292.254 502.035L266.055 502.035L266.055 505.323L266.055 519.572L270.818 519.572L273.2 521.764L273.2 523.956L281.536 523.956L289.873 523.956L289.873 521.764Z" fill="black" stroke="black"/>
<path d="M245.148 521.764L247.53 519.572L252.294 519.572L252.294 502.035L247.53 502.035L221.33 502.035L221.33 505.323L221.33 519.572L226.094 519.572L228.476 521.764L228.476 523.956L236.812 523.956L245.148 523.956L245.148 521.764Z" fill="black" stroke="black"/>
<path d="M210.745 521.764L213.127 519.572L217.89 519.572L217.89 502.035L213.127 502.035L186.927 502.035L186.927 505.323L186.927 519.572L191.691 519.572L194.072 521.764L194.072 523.956L202.409 523.956L210.745 523.956L210.745 521.764Z" fill="black" stroke="black"/>
<path d="M176.341 521.764L178.723 519.572L183.486 519.572L183.486 502.035L178.723 502.035L152.523 502.035L152.523 505.323L152.523 519.572L157.287 519.572L159.668 521.764L159.668 523.956L168.005 523.956L176.341 523.956L176.341 521.764Z" fill="black" stroke="black"/>
<path d="M141.938 521.764L144.319 519.572L149.083 519.572L149.083 502.035L144.319 502.035L118.12 502.035L118.12 505.323L118.12 519.572L122.883 519.572L125.265 521.764L125.265 523.956L133.601 523.956L141.938 523.956L141.938 521.764Z" fill="black" stroke="black"/>
<path d="M107.533 521.764L109.915 519.572L114.679 519.572L114.679 502.035L109.915 502.035L83.7154 502.035L83.7154 505.323L83.7154 519.572L88.479 519.572L90.8608 521.764L90.8608 523.956L99.1971 523.956L107.533 523.956L107.533 521.764Z" fill="black" stroke="black"/>
<path d="M73.1303 521.764L75.5121 519.572L80.2756 519.572L80.2756 502.035L75.5121 502.035L49.3123 502.035L49.3123 505.323L49.3123 519.572L54.0759 519.572L56.4577 521.764L56.4577 523.956L64.794 523.956L73.1303 523.956L73.1303 521.764Z" fill="black" stroke="black"/>
<path d="M273.2 474.997L270.818 477.189H266.055V494.726H270.818H297.018V491.438V477.189H292.254L289.873 474.997V472.805H281.536H273.2V474.997Z" fill="black" stroke="black"/>
<path d="M307.604 474.997L305.222 477.189H300.459V494.726H305.222H331.422V491.438V477.189H326.658L324.277 474.997V472.805H315.94H307.604V474.997Z" fill="black" stroke="black"/>
<path d="M342.007 474.997L339.626 477.189H334.862V494.726H339.626H365.825V491.438V477.189H361.062L358.68 474.997V472.805H350.344H342.007V474.997Z" fill="black" stroke="black"/>
<path d="M376.411 474.997L374.03 477.189H369.266V494.726H374.03H400.229V491.438V477.189H395.466L393.084 474.997V472.805H384.748H376.411V474.997Z" fill="black" stroke="black"/>
<path d="M410.815 474.997L408.433 477.189H403.669V494.726H408.433H434.633V491.438V477.189H429.869L427.487 474.997V472.805H419.151H410.815V474.997Z" fill="black" stroke="black"/>
<path d="M445.219 474.997L442.837 477.189H438.074V494.726H442.837H469.037V491.438V477.189H464.273L461.892 474.997V472.805H453.555H445.219V474.997Z" fill="black" stroke="black"/>
<path d="M56.4576 474.997L54.0758 477.189H49.3123V494.726H54.0758H80.2756V491.438V477.189H75.512L73.1302 474.997V472.805H64.7939H56.4576V474.997Z" fill="black" stroke="black"/>
<path d="M90.861 474.997L88.4792 477.189H83.7156V494.726H88.4792H114.679V491.438V477.189H109.915L107.534 474.997V472.805H99.1972H90.861V474.997Z" fill="black" stroke="black"/>
<path d="M125.264 474.997L122.882 477.189H118.119V494.726H122.882H149.082V491.438V477.189H144.318L141.937 474.997V472.805H133.6H125.264V474.997Z" fill="black" stroke="black"/>
<path d="M159.668 474.997L157.287 477.189H152.523V494.726H157.287H183.486V491.438V477.189H178.723L176.341 474.997V472.805H168.005H159.668V474.997Z" fill="black" stroke="black"/>
<path d="M194.072 474.997L191.691 477.189H186.927V494.726H191.691H217.89V491.438V477.189H213.127L210.745 474.997V472.805H202.409H194.072V474.997Z" fill="black" stroke="black"/>
<path d="M228.476 474.997L226.094 477.189H221.33V494.726H226.094H252.294V491.438V477.189H247.53L245.148 474.997V472.805H236.812H228.476V474.997Z" fill="black" stroke="black"/>
<ellipse cx="19.4949" cy="531.261" rx="14.9083" ry="13.5703" fill="#FA9696"/>
<path d="M20.9941 526.042V537.43H18.3491V526.042H20.9941Z" fill="black"/>
<rect x="501.647" y="361.611" width="497.853" height="92.9484" fill="#D9D9D9" stroke="black"/>
<path d="M963.038 427.814L965.419 425.622L970.183 425.622L970.183 408.085L965.419 408.085L939.22 408.085L939.22 411.374L939.22 425.622L943.983 425.622L946.365 427.814L946.365 430.007L954.701 430.007L963.038 430.007L963.038 427.814Z" fill="black" stroke="black"/>
<path d="M928.634 427.814L931.016 425.622L935.78 425.622L935.78 408.085L931.016 408.085L904.816 408.085L904.816 411.374L904.816 425.622L909.58 425.622L911.962 427.814L911.962 430.007L920.298 430.007L928.634 430.007L928.634 427.814Z" fill="black" stroke="black"/>
<path d="M894.23 427.814L896.612 425.622L901.376 425.622L901.376 408.085L896.612 408.085L870.412 408.085L870.412 411.374L870.412 425.622L875.176 425.622L877.558 427.814L877.558 430.007L885.894 430.007L894.23 430.007L894.23 427.814Z" fill="black" stroke="black"/>
<path d="M859.827 427.814L862.209 425.622L866.972 425.622L866.972 408.085L862.209 408.085L836.009 408.085L836.009 411.374L836.009 425.622L840.773 425.622L843.154 427.814L843.154 430.007L851.491 430.007L859.827 430.007L859.827 427.814Z" fill="black" stroke="black"/>
<path d="M825.423 427.814L827.805 425.622L832.568 425.622L832.568 408.085L827.805 408.085L801.605 408.085L801.605 411.374L801.605 425.622L806.369 425.622L808.75 427.814L808.75 430.007L817.087 430.007L825.423 430.007L825.423 427.814Z" fill="black" stroke="black"/>
<path d="M791.02 427.814L793.401 425.622L798.165 425.622L798.165 408.085L793.401 408.085L767.202 408.085L767.202 411.374L767.202 425.622L771.965 425.622L774.347 427.814L774.347 430.007L782.683 430.007L791.02 430.007L791.02 427.814Z" fill="black" stroke="black"/>
<path d="M746.295 427.814L748.677 425.622L753.441 425.622L753.441 408.085L748.677 408.085L722.477 408.085L722.477 411.374L722.477 425.622L727.241 425.622L729.623 427.814L729.623 430.007L737.959 430.007L746.295 430.007L746.295 427.814Z" fill="black" stroke="black"/>
<path d="M711.891 427.814L714.273 425.622L719.037 425.622L719.037 408.085L714.273 408.085L688.073 408.085L688.073 411.374L688.073 425.622L692.837 425.622L695.219 427.814L695.219 430.007L703.555 430.007L711.891 430.007L711.891 427.814Z" fill="black" stroke="black"/>
<path d="M677.488 427.814L679.87 425.622L684.634 425.622L684.634 408.085L679.87 408.085L653.67 408.085L653.67 411.374L653.67 425.622L658.434 425.622L660.816 427.814L660.816 430.007L669.152 430.007L677.488 430.007L677.488 427.814Z" fill="black" stroke="black"/>
<path d="M643.084 427.814L645.466 425.622L650.229 425.622L650.229 408.085L645.466 408.085L619.266 408.085L619.266 411.374L619.266 425.622L624.03 425.622L626.411 427.814L626.411 430.007L634.748 430.007L643.084 430.007L643.084 427.814Z" fill="black" stroke="black"/>
<path d="M608.68 427.814L611.062 425.622L615.826 425.622L615.826 408.085L611.062 408.085L584.862 408.085L584.862 411.374L584.862 425.622L589.626 425.622L592.008 427.814L592.008 430.007L600.344 430.007L608.68 430.007L608.68 427.814Z" fill="black" stroke="black"/>
<path d="M574.276 427.814L576.658 425.622L581.422 425.622L581.422 408.085L576.658 408.085L550.459 408.085L550.459 411.374L550.459 425.622L555.222 425.622L557.604 427.814L557.604 430.007L565.94 430.007L574.276 430.007L574.276 427.814Z" fill="black" stroke="black"/>
<path d="M774.347 381.049L771.965 383.241H767.202V400.778H771.965H798.165V397.49V383.241H793.402L791.02 381.049V378.856H782.684H774.347V381.049Z" fill="black" stroke="black"/>
<path d="M808.751 381.049L806.369 383.241H801.605V400.778H806.369H832.569V397.49V383.241H827.805L825.423 381.049V378.857H817.087H808.751V381.049Z" fill="black" stroke="black"/>
<path d="M843.155 381.049L840.773 383.241H836.009V400.778H840.773H866.973V397.49V383.241H862.209L859.827 381.049V378.857H851.491H843.155V381.049Z" fill="black" stroke="black"/>
<path d="M877.558 381.049L875.176 383.241H870.413V400.778H875.176H901.376V397.49V383.241H896.612L894.231 381.049V378.857H885.894H877.558V381.049Z" fill="black" stroke="black"/>
<path d="M911.962 381.049L909.58 383.241H904.817V400.778H909.58H935.78V397.49V383.241H931.016L928.635 381.049V378.857H920.298H911.962V381.049Z" fill="black" stroke="black"/>
<path d="M946.365 381.049L943.984 383.241H939.22V400.778H943.984H970.183V397.49V383.241H965.42L963.038 381.049V378.857H954.702H946.365V381.049Z" fill="black" stroke="black"/>
<path d="M557.604 381.049L555.222 383.241H550.459V400.778H555.222H581.422V397.49V383.241H576.658L574.277 381.049V378.856H565.94H557.604V381.049Z" fill="black" stroke="black"/>
<path d="M592.008 381.049L589.626 383.241H584.863V400.778H589.626H615.826V397.49V383.241H611.063L608.681 381.049V378.857H600.344H592.008V381.049Z" fill="black" stroke="black"/>
<path d="M626.411 381.049L624.03 383.241H619.266V400.778H624.03H650.229V397.49V383.241H645.466L643.084 381.049V378.857H634.748H626.411V381.049Z" fill="black" stroke="black"/>
<path d="M660.815 381.049L658.433 383.241H653.669V400.778H658.433H684.632V397.49V383.241H679.869L677.487 381.049V378.857H669.151H660.815V381.049Z" fill="black" stroke="black"/>
<path d="M695.219 381.049L692.837 383.241H688.073V400.778H692.837H719.037V397.49V383.241H714.273L711.891 381.049V378.857H703.555H695.219V381.049Z" fill="black" stroke="black"/>
<path d="M729.622 381.049L727.24 383.241H722.476V400.778H727.24H753.44V397.49V383.241H748.676L746.294 381.049V378.857H737.958H729.622V381.049Z" fill="black" stroke="black"/>
<ellipse cx="520.643" cy="437.313" rx="14.9083" ry="13.5703" fill="#FA9696"/>
<path d="M514.908 443.482V432.095H517.553V436.793H522.923V432.095H525.562V443.482H522.923V438.778H517.553V443.482H514.908Z" fill="black"/>
<rect x="0.5" y="361.611" width="500.147" height="92.9484" fill="#D9D9D9" stroke="black"/>
<path d="M461.891 427.815L464.273 425.623L469.036 425.623L469.036 408.086L464.273 408.086L438.073 408.086L438.073 411.374L438.073 425.623L442.836 425.623L445.218 427.815L445.218 430.007L453.554 430.007L461.891 430.007L461.891 427.815Z" fill="black" stroke="black"/>
<path d="M427.488 427.815L429.869 425.623L434.633 425.623L434.633 408.086L429.869 408.086L403.67 408.086L403.67 411.374L403.67 425.623L408.433 425.623L410.815 427.815L410.815 430.007L419.151 430.007L427.488 430.007L427.488 427.815Z" fill="black" stroke="black"/>
<path d="M393.083 427.815L395.465 425.623L400.229 425.623L400.229 408.086L395.465 408.086L369.265 408.086L369.265 411.374L369.265 425.623L374.029 425.623L376.411 427.815L376.411 430.007L384.747 430.007L393.083 430.007L393.083 427.815Z" fill="black" stroke="black"/>
<path d="M358.679 427.815L361.061 425.623L365.825 425.623L365.825 408.086L361.061 408.086L334.861 408.086L334.861 411.374L334.861 425.623L339.625 425.623L342.007 427.815L342.007 430.007L350.343 430.007L358.679 430.007L358.679 427.815Z" fill="black" stroke="black"/>
<path d="M324.276 427.815L326.658 425.623L331.422 425.623L331.422 408.086L326.658 408.086L300.458 408.086L300.458 411.374L300.458 425.623L305.222 425.623L307.604 427.815L307.604 430.007L315.94 430.007L324.276 430.007L324.276 427.815Z" fill="black" stroke="black"/>
<path d="M289.873 427.815L292.254 425.623L297.018 425.623L297.018 408.086L292.254 408.086L266.055 408.086L266.055 411.374L266.055 425.623L270.818 425.623L273.2 427.815L273.2 430.007L281.536 430.007L289.873 430.007L289.873 427.815Z" fill="black" stroke="black"/>
<path d="M245.148 427.814L247.53 425.622L252.293 425.622L252.293 408.085L247.53 408.085L221.33 408.085L221.33 411.374L221.33 425.622L226.094 425.622L228.476 427.814L228.476 430.007L236.812 430.007L245.148 430.007L245.148 427.814Z" fill="black" stroke="black"/>
<path d="M210.745 427.814L213.127 425.622L217.89 425.622L217.89 408.085L213.127 408.085L186.927 408.085L186.927 411.374L186.927 425.622L191.691 425.622L194.072 427.814L194.072 430.007L202.409 430.007L210.745 430.007L210.745 427.814Z" fill="black" stroke="black"/>
<path d="M176.341 427.814L178.722 425.622L183.486 425.622L183.486 408.085L178.723 408.085L152.523 408.085L152.523 411.374L152.523 425.622L157.286 425.622L159.668 427.814L159.668 430.007L168.004 430.007L176.341 430.007L176.341 427.814Z" fill="black" stroke="black"/>
<path d="M141.938 427.814L144.319 425.622L149.083 425.622L149.083 408.085L144.319 408.085L118.12 408.085L118.12 411.374L118.12 425.622L122.883 425.622L125.265 427.814L125.265 430.007L133.601 430.007L141.938 430.007L141.938 427.814Z" fill="black" stroke="black"/>
<path d="M107.533 427.814L109.915 425.622L114.679 425.622L114.679 408.085L109.915 408.085L83.7154 408.085L83.7154 411.374L83.7154 425.622L88.479 425.622L90.8608 427.814L90.8608 430.007L99.1971 430.007L107.533 430.007L107.533 427.814Z" fill="black" stroke="black"/>
<path d="M73.13 427.814L75.5118 425.622L80.2754 425.622L80.2754 408.085L75.5118 408.085L49.3121 408.085L49.3121 411.374L49.3121 425.622L54.0757 425.622L56.4575 427.814L56.4575 430.007L64.7937 430.007L73.13 430.007L73.13 427.814Z" fill="black" stroke="black"/>
<path d="M273.2 381.049L270.818 383.241H266.055V400.778H270.818H297.018V397.49V383.241H292.254L289.873 381.049V378.856H281.536H273.2V381.049Z" fill="black" stroke="black"/>
<path d="M307.604 381.049L305.222 383.241H300.459V400.778H305.222H331.422V397.49V383.241H326.658L324.277 381.049V378.857H315.94H307.604V381.049Z" fill="black" stroke="black"/>
<path d="M342.007 381.049L339.626 383.241H334.862V400.778H339.626H365.825V397.49V383.241H361.062L358.68 381.049V378.857H350.344H342.007V381.049Z" fill="black" stroke="black"/>
<path d="M376.411 381.049L374.03 383.241H369.266V400.778H374.03H400.229V397.49V383.241H395.466L393.084 381.049V378.857H384.748H376.411V381.049Z" fill="black" stroke="black"/>
<path d="M410.815 381.049L408.433 383.241H403.669V400.778H408.433H434.633V397.49V383.241H429.869L427.487 381.049V378.857H419.151H410.815V381.049Z" fill="black" stroke="black"/>
<path d="M445.219 381.049L442.837 383.241H438.074V400.778H442.837H469.037V397.49V383.241H464.273L461.892 381.049V378.857H453.555H445.219V381.049Z" fill="black" stroke="black"/>
<path d="M56.4576 381.049L54.0758 383.241H49.3123V400.778H54.0758H80.2756V397.49V383.241H75.512L73.1302 381.049V378.856H64.7939H56.4576V381.049Z" fill="black" stroke="black"/>
<path d="M90.861 381.049L88.4792 383.241H83.7156V400.778H88.4792H114.679V397.49V383.241H109.915L107.534 381.049V378.857H99.1972H90.861V381.049Z" fill="black" stroke="black"/>
<path d="M125.264 381.049L122.882 383.241H118.119V400.778H122.882H149.082V397.49V383.241H144.318L141.937 381.049V378.857H133.6H125.264V381.049Z" fill="black" stroke="black"/>
<path d="M159.668 381.049L157.287 383.241H152.523V400.778H157.287H183.486V397.49V383.241H178.723L176.341 381.049V378.857H168.005H159.668V381.049Z" fill="black" stroke="black"/>
<path d="M194.072 381.049L191.691 383.241H186.927V400.778H191.691H217.89V397.49V383.241H213.127L210.745 381.049V378.857H202.409H194.072V381.049Z" fill="black" stroke="black"/>
<path d="M228.476 381.049L226.094 383.241H221.33V400.778H226.094H252.294V397.49V383.241H247.53L245.148 381.049V378.857H236.812H228.476V381.049Z" fill="black" stroke="black"/>
<ellipse cx="19.4949" cy="437.313" rx="14.9083" ry="13.5703" fill="#FA9696"/>
<path d="M22.2766 434.826C22.1911 434.555 22.071 434.316 21.9162 434.109C21.7615 433.897 21.5721 433.719 21.3481 433.575C21.1282 433.427 20.8757 433.314 20.5907 433.236C20.3097 433.158 19.9981 433.119 19.656 433.119C19.0167 433.119 18.4547 433.263 17.9701 433.553C17.4895 433.842 17.1149 434.262 16.8461 434.815C16.5773 435.363 16.4429 436.034 16.4429 436.828C16.4429 437.621 16.5753 438.296 16.84 438.852C17.1047 439.408 17.4793 439.832 17.964 440.125C18.4486 440.414 19.0207 440.559 19.6805 440.559C20.2791 440.559 20.7902 440.462 21.2137 440.27C21.6413 440.073 21.9671 439.797 22.1911 439.441C22.4192 439.085 22.5332 438.664 22.5332 438.179L23.0707 438.251H19.8454V436.438H25.0805V437.873C25.0805 438.874 24.8484 439.734 24.3841 440.453C23.9198 441.168 23.2805 441.721 22.466 442.11C21.6515 442.496 20.7189 442.688 19.6683 442.688C18.4954 442.688 17.4651 442.453 16.5773 441.982C15.6895 441.508 14.9972 440.835 14.5004 439.964C14.0076 439.089 13.7612 438.051 13.7612 436.85C13.7612 435.927 13.9078 435.104 14.2011 434.381C14.4983 433.655 14.9137 433.039 15.4472 432.535C15.9807 432.031 16.6017 431.647 17.3103 431.384C18.0189 431.121 18.7866 430.989 19.6133 430.989C20.3219 430.989 20.9816 431.084 21.5925 431.273C22.2033 431.458 22.745 431.721 23.2174 432.062C23.6938 432.403 24.0827 432.809 24.3841 433.28C24.6855 433.747 24.8789 434.262 24.9644 434.826H22.2766Z" fill="black"/>
<rect x="501.647" y="267.662" width="497.853" height="92.9484" fill="#D9D9D9" stroke="black"/>
<path d="M963.038 333.866L965.419 331.674L970.183 331.674L970.183 314.137L965.419 314.137L939.22 314.137L939.22 317.425L939.22 331.674L943.983 331.674L946.365 333.866L946.365 336.058L954.701 336.058L963.038 336.058L963.038 333.866Z" fill="black" stroke="black"/>
<path d="M928.634 333.866L931.016 331.674L935.78 331.674L935.78 314.137L931.016 314.137L904.816 314.137L904.816 317.425L904.816 331.674L909.58 331.674L911.962 333.866L911.962 336.058L920.298 336.058L928.634 336.058L928.634 333.866Z" fill="black" stroke="black"/>
<path d="M894.23 333.866L896.612 331.674L901.376 331.674L901.376 314.137L896.612 314.137L870.412 314.137L870.412 317.425L870.412 331.674L875.176 331.674L877.558 333.866L877.558 336.058L885.894 336.058L894.23 336.058L894.23 333.866Z" fill="black" stroke="black"/>
<path d="M859.827 333.866L862.209 331.674L866.972 331.674L866.972 314.137L862.209 314.137L836.009 314.137L836.009 317.425L836.009 331.674L840.773 331.674L843.154 333.866L843.154 336.058L851.491 336.058L859.827 336.058L859.827 333.866Z" fill="black" stroke="black"/>
<path d="M825.423 333.866L827.805 331.674L832.568 331.674L832.568 314.137L827.805 314.137L801.605 314.137L801.605 317.425L801.605 331.674L806.369 331.674L808.75 333.866L808.75 336.058L817.087 336.058L825.423 336.058L825.423 333.866Z" fill="black" stroke="black"/>
<path d="M791.02 333.866L793.401 331.674L798.165 331.674L798.165 314.137L793.401 314.137L767.202 314.137L767.202 317.425L767.202 331.674L771.965 331.674L774.347 333.866L774.347 336.058L782.683 336.058L791.02 336.058L791.02 333.866Z" fill="black" stroke="black"/>
<path d="M746.295 333.866L748.677 331.674L753.441 331.674L753.441 314.137L748.677 314.137L722.477 314.137L722.477 317.425L722.477 331.674L727.241 331.674L729.623 333.866L729.623 336.058L737.959 336.058L746.295 336.058L746.295 333.866Z" fill="black" stroke="black"/>
<path d="M711.891 333.866L714.273 331.674L719.037 331.674L719.037 314.137L714.273 314.137L688.073 314.137L688.073 317.425L688.073 331.674L692.837 331.674L695.219 333.866L695.219 336.058L703.555 336.058L711.891 336.058L711.891 333.866Z" fill="black" stroke="black"/>
<path d="M677.488 333.866L679.87 331.674L684.634 331.674L684.634 314.137L679.87 314.137L653.67 314.137L653.67 317.425L653.67 331.674L658.434 331.674L660.816 333.866L660.816 336.058L669.152 336.058L677.488 336.058L677.488 333.866Z" fill="black" stroke="black"/>
<path d="M643.084 333.866L645.466 331.674L650.229 331.674L650.229 314.137L645.466 314.137L619.266 314.137L619.266 317.425L619.266 331.674L624.03 331.674L626.411 333.866L626.411 336.058L634.748 336.058L643.084 336.058L643.084 333.866Z" fill="black" stroke="black"/>
<path d="M608.68 333.866L611.062 331.674L615.826 331.674L615.826 314.137L611.062 314.137L584.862 314.137L584.862 317.425L584.862 331.674L589.626 331.674L592.008 333.866L592.008 336.058L600.344 336.058L608.68 336.058L608.68 333.866Z" fill="black" stroke="black"/>
<path d="M574.276 333.866L576.658 331.674L581.422 331.674L581.422 314.137L576.658 314.137L550.459 314.137L550.459 317.425L550.459 331.674L555.222 331.674L557.604 333.866L557.604 336.058L565.94 336.058L574.276 336.058L574.276 333.866Z" fill="black" stroke="black"/>
<path d="M774.347 287.1L771.965 289.292H767.202V306.829H771.965H798.165V303.541V289.292H793.402L791.02 287.1V284.908H782.684H774.347V287.1Z" fill="black" stroke="black"/>
<path d="M808.751 287.1L806.369 289.292H801.605V306.829H806.369H832.569V303.541V289.292H827.805L825.423 287.1V284.908H817.087H808.751V287.1Z" fill="black" stroke="black"/>
<path d="M843.155 287.1L840.773 289.292H836.009V306.829H840.773H866.973V303.541V289.292H862.209L859.827 287.1V284.908H851.491H843.155V287.1Z" fill="black" stroke="black"/>
<path d="M877.558 287.1L875.176 289.292H870.413V306.829H875.176H901.376V303.541V289.292H896.612L894.231 287.1V284.908H885.894H877.558V287.1Z" fill="black" stroke="black"/>
<path d="M911.962 287.1L909.58 289.292H904.817V306.829H909.58H935.78V303.541V289.292H931.016L928.635 287.1V284.908H920.298H911.962V287.1Z" fill="black" stroke="black"/>
<path d="M946.365 287.1L943.984 289.292H939.22V306.829H943.984H970.183V303.541V289.292H965.42L963.038 287.1V284.908H954.702H946.365V287.1Z" fill="black" stroke="black"/>
<path d="M557.604 287.1L555.222 289.292H550.459V306.829H555.222H581.422V303.541V289.292H576.658L574.277 287.1V284.908H565.94H557.604V287.1Z" fill="black" stroke="black"/>
<path d="M592.008 287.1L589.626 289.292H584.863V306.829H589.626H615.826V303.541V289.292H611.063L608.681 287.1V284.908H600.344H592.008V287.1Z" fill="black" stroke="black"/>
<path d="M626.411 287.1L624.03 289.292H619.266V306.829H624.03H650.229V303.541V289.292H645.466L643.084 287.1V284.908H634.748H626.411V287.1Z" fill="black" stroke="black"/>
<path d="M660.815 287.1L658.433 289.292H653.669V306.829H658.433H684.632V303.541V289.292H679.869L677.487 287.1V284.908H669.151H660.815V287.1Z" fill="black" stroke="black"/>
<path d="M695.219 287.1L692.837 289.292H688.073V306.829H692.837H719.037V303.541V289.292H714.273L711.891 287.1V284.908H703.555H695.219V287.1Z" fill="black" stroke="black"/>
<path d="M729.622 287.1L727.24 289.292H722.476V306.829H727.24H753.44V303.541V289.292H748.676L746.294 287.1V284.908H737.958H729.622V287.1Z" fill="black" stroke="black"/>
<ellipse cx="520.643" cy="343.366" rx="14.9083" ry="13.5703" fill="#FA9696"/>
<path d="M516.054 349.534V338.146H524.337V340.131H518.699V342.845H523.788V344.83H518.699V349.534H516.054Z" fill="black"/>
<rect x="0.5" y="267.662" width="500.147" height="92.9484" fill="#D9D9D9" stroke="black"/>
<path d="M461.891 333.866L464.273 331.674L469.036 331.674L469.036 314.137L464.273 314.137L438.073 314.137L438.073 317.425L438.073 331.674L442.836 331.674L445.218 333.866L445.218 336.058L453.554 336.058L461.891 336.058L461.891 333.866Z" fill="black" stroke="black"/>
<path d="M427.488 333.866L429.869 331.674L434.633 331.674L434.633 314.137L429.869 314.137L403.67 314.137L403.67 317.425L403.67 331.674L408.433 331.674L410.815 333.866L410.815 336.058L419.151 336.058L427.488 336.058L427.488 333.866Z" fill="black" stroke="black"/>
<path d="M393.083 333.866L395.465 331.674L400.229 331.674L400.229 314.137L395.465 314.137L369.265 314.137L369.265 317.425L369.265 331.674L374.029 331.674L376.411 333.866L376.411 336.058L384.747 336.058L393.083 336.058L393.083 333.866Z" fill="black" stroke="black"/>
<path d="M358.679 333.866L361.061 331.674L365.825 331.674L365.825 314.137L361.061 314.137L334.861 314.137L334.861 317.425L334.861 331.674L339.625 331.674L342.007 333.866L342.007 336.058L350.343 336.058L358.679 336.058L358.679 333.866Z" fill="black" stroke="black"/>
<path d="M324.276 333.866L326.658 331.674L331.422 331.674L331.422 314.137L326.658 314.137L300.458 314.137L300.458 317.425L300.458 331.674L305.222 331.674L307.604 333.866L307.604 336.058L315.94 336.058L324.276 336.058L324.276 333.866Z" fill="black" stroke="black"/>
<path d="M289.873 333.866L292.254 331.674L297.018 331.674L297.018 314.137L292.254 314.137L266.055 314.137L266.055 317.425L266.055 331.674L270.818 331.674L273.2 333.866L273.2 336.058L281.536 336.058L289.873 336.058L289.873 333.866Z" fill="black" stroke="black"/>
<path d="M245.148 333.866L247.53 331.674L252.293 331.674L252.293 314.137L247.53 314.137L221.33 314.137L221.33 317.425L221.33 331.674L226.094 331.674L228.476 333.866L228.476 336.058L236.812 336.058L245.148 336.058L245.148 333.866Z" fill="black" stroke="black"/>
<path d="M210.745 333.866L213.127 331.674L217.89 331.674L217.89 314.137L213.127 314.137L186.927 314.137L186.927 317.425L186.927 331.674L191.691 331.674L194.072 333.866L194.072 336.058L202.409 336.058L210.745 336.058L210.745 333.866Z" fill="black" stroke="black"/>
<path d="M176.341 333.866L178.722 331.674L183.486 331.674L183.486 314.137L178.723 314.137L152.523 314.137L152.523 317.425L152.523 331.674L157.286 331.674L159.668 333.866L159.668 336.058L168.004 336.058L176.341 336.058L176.341 333.866Z" fill="black" stroke="black"/>
<path d="M141.938 333.866L144.319 331.674L149.083 331.674L149.083 314.137L144.319 314.137L118.12 314.137L118.12 317.425L118.12 331.674L122.883 331.674L125.265 333.866L125.265 336.058L133.601 336.058L141.938 336.058L141.938 333.866Z" fill="black" stroke="black"/>
<path d="M107.533 333.866L109.915 331.674L114.679 331.674L114.679 314.137L109.915 314.137L83.7154 314.137L83.7154 317.425L83.7154 331.674L88.479 331.674L90.8608 333.866L90.8608 336.058L99.1971 336.058L107.533 336.058L107.533 333.866Z" fill="black" stroke="black"/>
<path d="M73.13 333.866L75.5118 331.674L80.2754 331.674L80.2754 314.137L75.5118 314.137L49.3121 314.137L49.3121 317.425L49.3121 331.674L54.0757 331.674L56.4575 333.866L56.4575 336.058L64.7937 336.058L73.13 336.058L73.13 333.866Z" fill="black" stroke="black"/>
<path d="M273.2 287.1L270.818 289.292H266.055V306.829H270.818H297.018V303.541V289.292H292.254L289.873 287.1V284.908H281.536H273.2V287.1Z" fill="black" stroke="black"/>
<path d="M307.604 287.1L305.222 289.292H300.459V306.829H305.222H331.422V303.541V289.292H326.658L324.277 287.1V284.908H315.94H307.604V287.1Z" fill="black" stroke="black"/>
<path d="M342.007 287.1L339.626 289.292H334.862V306.829H339.626H365.825V303.541V289.292H361.062L358.68 287.1V284.908H350.344H342.007V287.1Z" fill="black" stroke="black"/>
<path d="M376.411 287.1L374.03 289.292H369.266V306.829H374.03H400.229V303.541V289.292H395.466L393.084 287.1V284.908H384.748H376.411V287.1Z" fill="black" stroke="black"/>
<path d="M410.815 287.1L408.433 289.292H403.669V306.829H408.433H434.633V303.541V289.292H429.869L427.487 287.1V284.908H419.151H410.815V287.1Z" fill="black" stroke="black"/>
<path d="M445.219 287.1L442.837 289.292H438.074V306.829H442.837H469.037V303.541V289.292H464.273L461.892 287.1V284.908H453.555H445.219V287.1Z" fill="black" stroke="black"/>
<path d="M56.4576 287.1L54.0758 289.292H49.3123V306.829H54.0758H80.2756V303.541V289.292H75.512L73.1302 287.1V284.908H64.7939H56.4576V287.1Z" fill="black" stroke="black"/>
<path d="M90.861 287.1L88.4792 289.292H83.7156V306.829H88.4792H114.679V303.541V289.292H109.915L107.534 287.1V284.908H99.1972H90.861V287.1Z" fill="black" stroke="black"/>
<path d="M125.264 287.1L122.882 289.292H118.119V306.829H122.882H149.082V303.541V289.292H144.318L141.937 287.1V284.908H133.6H125.264V287.1Z" fill="black" stroke="black"/>
<path d="M159.668 287.1L157.287 289.292H152.523V306.829H157.287H183.486V303.541V289.292H178.723L176.341 287.1V284.908H168.005H159.668V287.1Z" fill="black" stroke="black"/>
<path d="M194.072 287.1L191.691 289.292H186.927V306.829H191.691H217.89V303.541V289.292H213.127L210.745 287.1V284.908H202.409H194.072V287.1Z" fill="black" stroke="black"/>
<path d="M228.476 287.1L226.094 289.292H221.33V306.829H226.094H252.294V303.541V289.292H247.53L245.148 287.1V284.908H236.812H228.476V287.1Z" fill="black" stroke="black"/>
<ellipse cx="19.4949" cy="343.366" rx="14.9083" ry="13.5703" fill="#FA9696"/>
<path d="M14.9077 348.584V337.197H23.3376V339.182H17.5527V341.895H22.9039V343.88H17.5527V346.599H23.362V348.584H14.9077Z" fill="black"/>
<rect x="501.647" y="172.671" width="497.853" height="93.9922" fill="#D9D9D9" stroke="black"/>
<path d="M963.038 238.874L965.42 236.681L970.183 236.681L970.183 219.144L965.42 219.144L939.22 219.144L939.22 222.433L939.22 236.681L943.984 236.681L946.365 238.874L946.365 241.066L954.702 241.066L963.038 241.066L963.038 238.874Z" fill="black" stroke="black"/>
<path d="M928.635 238.874L931.016 236.681L935.78 236.681L935.78 219.144L931.016 219.144L904.817 219.144L904.817 222.433L904.817 236.681L909.58 236.681L911.962 238.874L911.962 241.066L920.298 241.066L928.635 241.066L928.635 238.874Z" fill="black" stroke="black"/>
<path d="M894.23 238.874L896.612 236.681L901.376 236.681L901.376 219.144L896.612 219.144L870.413 219.144L870.413 222.433L870.413 236.681L875.176 236.681L877.558 238.874L877.558 241.066L885.894 241.066L894.23 241.066L894.23 238.874Z" fill="black" stroke="black"/>
<path d="M859.827 238.874L862.209 236.681L866.973 236.681L866.973 219.144L862.209 219.144L836.009 219.144L836.009 222.433L836.009 236.681L840.773 236.681L843.155 238.874L843.155 241.066L851.491 241.066L859.827 241.066L859.827 238.874Z" fill="black" stroke="black"/>
<path d="M825.423 238.874L827.805 236.681L832.569 236.681L832.569 219.144L827.805 219.144L801.605 219.144L801.605 222.433L801.605 236.681L806.369 236.681L808.751 238.874L808.751 241.066L817.087 241.066L825.423 241.066L825.423 238.874Z" fill="black" stroke="black"/>
<path d="M791.02 238.874L793.402 236.681L798.165 236.681L798.165 219.144L793.402 219.144L767.202 219.144L767.202 222.433L767.202 236.681L771.966 236.681L774.347 238.874L774.347 241.066L782.684 241.066L791.02 241.066L791.02 238.874Z" fill="black" stroke="black"/>
<path d="M746.295 238.874L748.677 236.681L753.441 236.681L753.441 219.144L748.677 219.144L722.477 219.144L722.477 222.433L722.477 236.681L727.241 236.681L729.623 238.874L729.623 241.066L737.959 241.066L746.295 241.066L746.295 238.874Z" fill="black" stroke="black"/>
<path d="M711.891 238.874L714.273 236.681L719.037 236.681L719.037 219.144L714.273 219.144L688.073 219.144L688.073 222.433L688.073 236.681L692.837 236.681L695.219 238.874L695.219 241.066L703.555 241.066L711.891 241.066L711.891 238.874Z" fill="black" stroke="black"/>
<path d="M677.488 238.874L679.87 236.681L684.633 236.681L684.633 219.144L679.87 219.144L653.67 219.144L653.67 222.433L653.67 236.681L658.433 236.681L660.815 238.874L660.815 241.066L669.152 241.066L677.488 241.066L677.488 238.874Z" fill="black" stroke="black"/>
<path d="M643.084 238.874L645.465 236.681L650.229 236.681L650.229 219.144L645.465 219.144L619.266 219.144L619.266 222.433L619.266 236.681L624.029 236.681L626.411 238.874L626.411 241.066L634.747 241.066L643.084 241.066L643.084 238.874Z" fill="black" stroke="black"/>
<path d="M608.681 238.874L611.062 236.681L615.826 236.681L615.826 219.144L611.062 219.144L584.863 219.144L584.863 222.433L584.863 236.681L589.626 236.681L592.008 238.874L592.008 241.066L600.344 241.066L608.681 241.066L608.681 238.874Z" fill="black" stroke="black"/>
<path d="M574.276 238.874L576.658 236.681L581.422 236.681L581.422 219.144L576.658 219.144L550.458 219.144L550.458 222.433L550.458 236.681L555.222 236.681L557.604 238.874L557.604 241.066L565.94 241.066L574.276 241.066L574.276 238.874Z" fill="black" stroke="black"/>
<path d="M774.347 192.108L771.965 194.3H767.202V211.837H771.965H798.165V208.549V194.3H793.402L791.02 192.108V189.916H782.684H774.347V192.108Z" fill="black" stroke="black"/>
<path d="M808.751 192.108L806.369 194.3H801.605V211.837H806.369H832.569V208.549V194.3H827.805L825.423 192.108V189.916H817.087H808.751V192.108Z" fill="black" stroke="black"/>
<path d="M843.155 192.108L840.773 194.3H836.009V211.837H840.773H866.973V208.549V194.3H862.209L859.827 192.108V189.916H851.491H843.155V192.108Z" fill="black" stroke="black"/>
<path d="M877.558 192.108L875.176 194.3H870.413V211.837H875.176H901.376V208.549V194.3H896.612L894.231 192.108V189.916H885.894H877.558V192.108Z" fill="black" stroke="black"/>
<path d="M911.962 192.108L909.58 194.3H904.817V211.837H909.58H935.78V208.549V194.3H931.016L928.635 192.108V189.916H920.298H911.962V192.108Z" fill="black" stroke="black"/>
<path d="M946.365 192.108L943.984 194.3H939.22V211.837H943.984H970.183V208.549V194.3H965.42L963.038 192.108V189.916H954.702H946.365V192.108Z" fill="black" stroke="black"/>
<path d="M557.604 192.108L555.222 194.3H550.459V211.837H555.222H581.422V208.549V194.3H576.658L574.277 192.108V189.916H565.94H557.604V192.108Z" fill="black" stroke="black"/>
<path d="M592.008 192.108L589.626 194.3H584.863V211.837H589.626H615.826V208.549V194.3H611.063L608.681 192.108V189.916H600.344H592.008V192.108Z" fill="black" stroke="black"/>
<path d="M626.411 192.108L624.03 194.3H619.266V211.837H624.03H650.229V208.549V194.3H645.466L643.084 192.108V189.916H634.748H626.411V192.108Z" fill="black" stroke="black"/>
<path d="M660.815 192.108L658.433 194.3H653.669V211.837H658.433H684.632V208.549V194.3H679.869L677.487 192.108V189.916H669.151H660.815V192.108Z" fill="black" stroke="black"/>
<path d="M695.219 192.108L692.837 194.3H688.073V211.837H692.837H719.037V208.549V194.3H714.273L711.891 192.108V189.916H703.555H695.219V192.108Z" fill="black" stroke="black"/>
<path d="M729.622 192.108L727.24 194.3H722.476V211.837H727.24H753.44V208.549V194.3H748.676L746.294 192.108V189.916H737.958H729.622V192.108Z" fill="black" stroke="black"/>
<ellipse cx="520.643" cy="248.373" rx="14.9083" ry="13.5703" fill="#FA9696"/>
<path d="M519.343 253.593H514.908V242.205H519.38C520.638 242.205 521.722 242.433 522.63 242.889C523.538 243.341 524.236 243.992 524.725 244.84C525.218 245.689 525.464 246.705 525.464 247.888C525.464 249.074 525.218 250.093 524.725 250.946C524.236 251.798 523.534 252.453 522.618 252.909C521.705 253.365 520.614 253.593 519.343 253.593ZM517.553 251.53H519.233C520.015 251.53 520.673 251.404 521.206 251.152C521.744 250.896 522.147 250.501 522.416 249.967C522.689 249.43 522.825 248.736 522.825 247.888C522.825 247.046 522.689 246.358 522.416 245.825C522.147 245.291 521.746 244.898 521.213 244.646C520.679 244.394 520.021 244.268 519.239 244.268H517.553V251.53Z" fill="black"/>
<rect x="0.5" y="172.671" width="500.147" height="93.9922" fill="#D9D9D9" stroke="black"/>
<path d="M461.891 238.874L464.273 236.681L469.036 236.681L469.036 219.144L464.273 219.144L438.073 219.144L438.073 222.433L438.073 236.681L442.836 236.681L445.218 238.874L445.218 241.066L453.554 241.066L461.891 241.066L461.891 238.874Z" fill="black" stroke="black"/>
<path d="M427.488 238.874L429.869 236.681L434.633 236.681L434.633 219.144L429.869 219.144L403.67 219.144L403.67 222.433L403.67 236.681L408.433 236.681L410.815 238.874L410.815 241.066L419.151 241.066L427.488 241.066L427.488 238.874Z" fill="black" stroke="black"/>
<path d="M393.083 238.874L395.465 236.681L400.229 236.681L400.229 219.144L395.465 219.144L369.265 219.144L369.265 222.433L369.265 236.681L374.029 236.681L376.411 238.874L376.411 241.066L384.747 241.066L393.083 241.066L393.083 238.874Z" fill="black" stroke="black"/>
<path d="M358.679 238.874L361.061 236.681L365.825 236.681L365.825 219.144L361.061 219.144L334.861 219.144L334.861 222.433L334.861 236.681L339.625 236.681L342.007 238.874L342.007 241.066L350.343 241.066L358.679 241.066L358.679 238.874Z" fill="black" stroke="black"/>
<path d="M324.276 238.874L326.658 236.681L331.422 236.681L331.422 219.144L326.658 219.144L300.458 219.144L300.458 222.433L300.458 236.681L305.222 236.681L307.604 238.874L307.604 241.066L315.94 241.066L324.276 241.066L324.276 238.874Z" fill="black" stroke="black"/>
<path d="M289.873 238.874L292.254 236.681L297.018 236.681L297.018 219.144L292.254 219.144L266.055 219.144L266.055 222.433L266.055 236.681L270.818 236.681L273.2 238.874L273.2 241.066L281.536 241.066L289.873 241.066L289.873 238.874Z" fill="black" stroke="black"/>
<path d="M245.148 238.874L247.53 236.681L252.294 236.681L252.294 219.144L247.53 219.144L221.33 219.144L221.33 222.433L221.33 236.681L226.094 236.681L228.476 238.874L228.476 241.066L236.812 241.066L245.148 241.066L245.148 238.874Z" fill="black" stroke="black"/>
<path d="M210.745 238.874L213.127 236.681L217.89 236.681L217.89 219.144L213.127 219.144L186.927 219.144L186.927 222.433L186.927 236.681L191.691 236.681L194.072 238.874L194.072 241.066L202.409 241.066L210.745 241.066L210.745 238.874Z" fill="black" stroke="black"/>
<path d="M176.341 238.874L178.723 236.681L183.486 236.681L183.486 219.144L178.723 219.144L152.523 219.144L152.523 222.433L152.523 236.681L157.287 236.681L159.668 238.874L159.668 241.066L168.005 241.066L176.341 241.066L176.341 238.874Z" fill="black" stroke="black"/>
<path d="M141.938 238.874L144.319 236.681L149.083 236.681L149.083 219.144L144.319 219.144L118.12 219.144L118.12 222.433L118.12 236.681L122.883 236.681L125.265 238.874L125.265 241.066L133.601 241.066L141.938 241.066L141.938 238.874Z" fill="black" stroke="black"/>
<path d="M107.533 238.874L109.915 236.681L114.679 236.681L114.679 219.144L109.915 219.144L83.7154 219.144L83.7154 222.433L83.7154 236.681L88.479 236.681L90.8608 238.874L90.8608 241.066L99.1971 241.066L107.533 241.066L107.533 238.874Z" fill="black" stroke="black"/>
<path d="M73.1303 238.874L75.5121 236.681L80.2756 236.681L80.2756 219.144L75.5121 219.144L49.3123 219.144L49.3123 222.433L49.3123 236.681L54.0759 236.681L56.4577 238.874L56.4577 241.066L64.794 241.066L73.1303 241.066L73.1303 238.874Z" fill="black" stroke="black"/>
<path d="M273.2 192.108L270.818 194.3H266.055V211.837H270.818H297.018V208.549V194.3H292.254L289.873 192.108V189.916H281.536H273.2V192.108Z" fill="black" stroke="black"/>
<path d="M307.604 192.108L305.222 194.3H300.459V211.837H305.222H331.422V208.549V194.3H326.658L324.277 192.108V189.916H315.94H307.604V192.108Z" fill="black" stroke="black"/>
<path d="M342.007 192.108L339.626 194.3H334.862V211.837H339.626H365.825V208.549V194.3H361.062L358.68 192.108V189.916H350.344H342.007V192.108Z" fill="black" stroke="black"/>
<path d="M376.411 192.108L374.03 194.3H369.266V211.837H374.03H400.229V208.549V194.3H395.466L393.084 192.108V189.916H384.748H376.411V192.108Z" fill="black" stroke="black"/>
<path d="M410.815 192.108L408.433 194.3H403.669V211.837H408.433H434.633V208.549V194.3H429.869L427.487 192.108V189.916H419.151H410.815V192.108Z" fill="black" stroke="black"/>
<path d="M445.219 192.108L442.837 194.3H438.074V211.837H442.837H469.037V208.549V194.3H464.273L461.892 192.108V189.916H453.555H445.219V192.108Z" fill="black" stroke="black"/>
<path d="M56.4576 192.108L54.0758 194.3H49.3123V211.837H54.0758H80.2756V208.549V194.3H75.512L73.1302 192.108V189.916H64.7939H56.4576V192.108Z" fill="black" stroke="black"/>
<path d="M90.861 192.108L88.4792 194.3H83.7156V211.837H88.4792H114.679V208.549V194.3H109.915L107.534 192.108V189.916H99.1972H90.861V192.108Z" fill="black" stroke="black"/>
<path d="M125.264 192.108L122.882 194.3H118.119V211.837H122.882H149.082V208.549V194.3H144.318L141.937 192.108V189.916H133.6H125.264V192.108Z" fill="black" stroke="black"/>
<path d="M159.668 192.108L157.287 194.3H152.523V211.837H157.287H183.486V208.549V194.3H178.723L176.341 192.108V189.916H168.005H159.668V192.108Z" fill="black" stroke="black"/>
<path d="M194.072 192.108L191.691 194.3H186.927V211.837H191.691H217.89V208.549V194.3H213.127L210.745 192.108V189.916H202.409H194.072V192.108Z" fill="black" stroke="black"/>
<path d="M228.476 192.108L226.094 194.3H221.33V211.837H226.094H252.294V208.549V194.3H247.53L245.148 192.108V189.916H236.812H228.476V192.108Z" fill="black" stroke="black"/>
<ellipse cx="19.4949" cy="248.373" rx="14.9083" ry="13.5703" fill="#FA9696"/>
<path d="M25.0194 246.191H22.3438C22.295 245.876 22.1952 245.596 22.0445 245.352C21.8938 245.103 21.7004 244.892 21.4642 244.718C21.228 244.544 20.9551 244.41 20.6456 244.317C20.3402 244.225 20.0083 244.178 19.6499 244.178C19.0024 244.178 18.4384 244.325 17.9578 244.618C17.4773 244.907 17.1047 245.329 16.84 245.885C16.5753 246.438 16.4429 247.109 16.4429 247.898C16.4429 248.71 16.5753 249.392 16.84 249.945C17.1087 250.497 17.4834 250.914 17.964 251.196C18.4445 251.477 19.0004 251.618 19.6316 251.618C19.9859 251.618 20.3137 251.576 20.6151 251.49C20.9205 251.405 21.1913 251.281 21.4275 251.118C21.6637 250.951 21.8592 250.749 22.014 250.512C22.1728 250.274 22.2827 250.004 22.3438 249.7L25.0194 249.711C24.9502 250.234 24.7771 250.738 24.5002 251.223C24.2273 251.705 23.8588 252.137 23.3945 252.519C22.9343 252.897 22.3845 253.197 21.7452 253.42C21.1099 253.639 20.3911 253.748 19.5888 253.748C18.473 253.748 17.4753 253.518 16.5956 253.058C15.7201 252.599 15.0277 251.933 14.5187 251.062C14.0137 250.191 13.7612 249.136 13.7612 247.898C13.7612 246.657 14.0178 245.6 14.5309 244.729C15.044 243.858 15.7404 243.194 16.6201 242.738C17.4997 242.279 18.4893 242.049 19.5888 242.049C20.3137 242.049 20.9857 242.142 21.6047 242.327C22.2278 242.512 22.7796 242.783 23.2601 243.139C23.7407 243.491 24.1316 243.923 24.433 244.434C24.7384 244.946 24.9339 245.531 25.0194 246.191Z" fill="black"/>
<rect x="501.647" y="78.7229" width="497.853" height="92.9484" fill="#D9D9D9" stroke="black"/>
<path d="M963.038 144.925L965.42 142.733L970.183 142.733L970.183 125.196L965.42 125.196L939.22 125.196L939.22 128.484L939.22 142.733L943.984 142.733L946.365 144.925L946.365 147.117L954.702 147.117L963.038 147.117L963.038 144.925Z" fill="black" stroke="black"/>
<path d="M928.635 144.925L931.016 142.733L935.78 142.733L935.78 125.196L931.016 125.196L904.817 125.196L904.817 128.484L904.817 142.733L909.58 142.733L911.962 144.925L911.962 147.117L920.298 147.117L928.635 147.117L928.635 144.925Z" fill="black" stroke="black"/>
<path d="M894.23 144.925L896.612 142.733L901.376 142.733L901.376 125.196L896.612 125.196L870.413 125.196L870.413 128.484L870.413 142.733L875.176 142.733L877.558 144.925L877.558 147.117L885.894 147.117L894.23 147.117L894.23 144.925Z" fill="black" stroke="black"/>
<path d="M859.827 144.925L862.209 142.733L866.973 142.733L866.973 125.196L862.209 125.196L836.009 125.196L836.009 128.484L836.009 142.733L840.773 142.733L843.155 144.925L843.155 147.117L851.491 147.117L859.827 147.117L859.827 144.925Z" fill="black" stroke="black"/>
<path d="M825.423 144.925L827.805 142.733L832.569 142.733L832.569 125.196L827.805 125.196L801.605 125.196L801.605 128.484L801.605 142.733L806.369 142.733L808.751 144.925L808.751 147.117L817.087 147.117L825.423 147.117L825.423 144.925Z" fill="black" stroke="black"/>
<path d="M791.02 144.925L793.402 142.733L798.165 142.733L798.165 125.196L793.402 125.196L767.202 125.196L767.202 128.484L767.202 142.733L771.966 142.733L774.347 144.925L774.347 147.117L782.684 147.117L791.02 147.117L791.02 144.925Z" fill="black" stroke="black"/>
<path d="M746.295 144.925L748.677 142.733L753.441 142.733L753.441 125.196L748.677 125.196L722.477 125.196L722.477 128.484L722.477 142.733L727.241 142.733L729.623 144.925L729.623 147.117L737.959 147.117L746.295 147.117L746.295 144.925Z" fill="black" stroke="black"/>
<path d="M711.891 144.925L714.273 142.733L719.037 142.733L719.037 125.196L714.273 125.196L688.073 125.196L688.073 128.484L688.073 142.733L692.837 142.733L695.219 144.925L695.219 147.117L703.555 147.117L711.891 147.117L711.891 144.925Z" fill="black" stroke="black"/>
<path d="M677.488 144.925L679.87 142.733L684.633 142.733L684.633 125.196L679.87 125.196L653.67 125.196L653.67 128.484L653.67 142.733L658.433 142.733L660.815 144.925L660.815 147.117L669.152 147.117L677.488 147.117L677.488 144.925Z" fill="black" stroke="black"/>
<path d="M643.084 144.925L645.465 142.733L650.229 142.733L650.229 125.196L645.465 125.196L619.266 125.196L619.266 128.484L619.266 142.733L624.029 142.733L626.411 144.925L626.411 147.117L634.747 147.117L643.084 147.117L643.084 144.925Z" fill="black" stroke="black"/>
<path d="M608.681 144.925L611.062 142.733L615.826 142.733L615.826 125.196L611.062 125.196L584.863 125.196L584.863 128.484L584.863 142.733L589.626 142.733L592.008 144.925L592.008 147.117L600.344 147.117L608.681 147.117L608.681 144.925Z" fill="black" stroke="black"/>
<path d="M574.276 144.925L576.658 142.733L581.422 142.733L581.422 125.196L576.658 125.196L550.458 125.196L550.458 128.484L550.458 142.733L555.222 142.733L557.604 144.925L557.604 147.117L565.94 147.117L574.276 147.117L574.276 144.925Z" fill="black" stroke="black"/>
<path d="M774.347 98.1601L771.965 100.352H767.202V117.889H771.965H798.165V114.601V100.352H793.402L791.02 98.1601V95.968H782.684H774.347V98.1601Z" fill="black" stroke="black"/>
<path d="M808.751 98.1601L806.369 100.352H801.605V117.889H806.369H832.569V114.601V100.352H827.805L825.423 98.1601V95.968H817.087H808.751V98.1601Z" fill="black" stroke="black"/>
<path d="M843.155 98.1601L840.773 100.352H836.009V117.889H840.773H866.973V114.601V100.352H862.209L859.827 98.1601V95.968H851.491H843.155V98.1601Z" fill="black" stroke="black"/>
<path d="M877.558 98.1601L875.176 100.352H870.413V117.889H875.176H901.376V114.601V100.352H896.612L894.231 98.1601V95.968H885.894H877.558V98.1601Z" fill="black" stroke="black"/>
<path d="M911.962 98.1601L909.58 100.352H904.817V117.889H909.58H935.78V114.601V100.352H931.016L928.635 98.1601V95.968H920.298H911.962V98.1601Z" fill="black" stroke="black"/>
<path d="M946.365 98.1601L943.984 100.352H939.22V117.889H943.984H970.183V114.601V100.352H965.42L963.038 98.1601V95.968H954.702H946.365V98.1601Z" fill="black" stroke="black"/>
<path d="M557.604 98.1601L555.222 100.352H550.459V117.889H555.222H581.422V114.601V100.352H576.658L574.277 98.1601V95.968H565.94H557.604V98.1601Z" fill="black" stroke="black"/>
<path d="M592.008 98.1601L589.626 100.352H584.863V117.889H589.626H615.826V114.601V100.352H611.063L608.681 98.1601V95.968H600.344H592.008V98.1601Z" fill="black" stroke="black"/>
<path d="M626.411 98.1601L624.03 100.352H619.266V117.889H624.03H650.229V114.601V100.352H645.466L643.084 98.1601V95.968H634.748H626.411V98.1601Z" fill="black" stroke="black"/>
<path d="M660.815 98.1601L658.433 100.352H653.669V117.889H658.433H684.632V114.601V100.352H679.869L677.487 98.1601V95.968H669.151H660.815V98.1601Z" fill="black" stroke="black"/>
<path d="M695.219 98.1601L692.837 100.352H688.073V117.889H692.837H719.037V114.601V100.352H714.273L711.891 98.1601V95.968H703.555H695.219V98.1601Z" fill="black" stroke="black"/>
<path d="M729.622 98.1601L727.24 100.352H722.476V117.889H727.24H753.44V114.601V100.352H748.676L746.294 98.1601V95.968H737.958H729.622V98.1601Z" fill="black" stroke="black"/>
<ellipse cx="520.643" cy="154.424" rx="14.9083" ry="13.5703" fill="#FA9696"/>
<path d="M516.054 159.644V148.257H521.063C521.984 148.257 522.751 148.381 523.366 148.629C523.981 148.878 524.443 149.222 524.753 149.663C525.062 150.101 525.217 150.605 525.217 151.176C525.217 151.621 525.119 152.012 524.924 152.349C524.728 152.683 524.46 152.957 524.118 153.172C523.78 153.383 523.393 153.533 522.957 153.622V153.734C523.433 153.752 523.879 153.874 524.295 154.101C524.714 154.327 525.054 154.644 525.315 155.051C525.575 155.455 525.706 155.937 525.706 156.497C525.706 157.101 525.541 157.641 525.211 158.115C524.885 158.586 524.403 158.958 523.763 159.233C523.124 159.507 522.336 159.644 521.399 159.644H516.054ZM518.699 157.676H520.856C521.593 157.676 522.13 157.548 522.468 157.292C522.806 157.033 522.975 156.688 522.975 156.258C522.975 155.943 522.892 155.665 522.725 155.424C522.558 155.183 522.32 154.994 522.01 154.857C521.705 154.72 521.34 154.651 520.917 154.651H518.699V157.676ZM518.699 153.022H520.66C521.023 153.022 521.344 152.964 521.625 152.849C521.91 152.731 522.134 152.564 522.297 152.349C522.464 152.134 522.548 151.876 522.548 151.576C522.548 151.165 522.387 150.833 522.065 150.581C521.747 150.329 521.295 150.203 520.709 150.203H518.699V153.022Z" fill="black"/>
<rect x="0.5" y="78.7229" width="500.147" height="92.9484" fill="#D9D9D9" stroke="black"/>
<path d="M461.891 144.925L464.273 142.733L469.036 142.733L469.036 125.196L464.273 125.196L438.073 125.196L438.073 128.484L438.073 142.733L442.836 142.733L445.218 144.925L445.218 147.117L453.554 147.117L461.891 147.117L461.891 144.925Z" fill="black" stroke="black"/>
<path d="M427.488 144.925L429.869 142.733L434.633 142.733L434.633 125.196L429.869 125.196L403.67 125.196L403.67 128.484L403.67 142.733L408.433 142.733L410.815 144.925L410.815 147.117L419.151 147.117L427.488 147.117L427.488 144.925Z" fill="black" stroke="black"/>
<path d="M393.083 144.925L395.465 142.733L400.229 142.733L400.229 125.196L395.465 125.196L369.265 125.196L369.265 128.484L369.265 142.733L374.029 142.733L376.411 144.925L376.411 147.117L384.747 147.117L393.083 147.117L393.083 144.925Z" fill="black" stroke="black"/>
<path d="M358.679 144.925L361.061 142.733L365.825 142.733L365.825 125.196L361.061 125.196L334.861 125.196L334.861 128.484L334.861 142.733L339.625 142.733L342.007 144.925L342.007 147.117L350.343 147.117L358.679 147.117L358.679 144.925Z" fill="black" stroke="black"/>
<path d="M324.276 144.925L326.658 142.733L331.422 142.733L331.422 125.196L326.658 125.196L300.458 125.196L300.458 128.484L300.458 142.733L305.222 142.733L307.604 144.925L307.604 147.117L315.94 147.117L324.276 147.117L324.276 144.925Z" fill="black" stroke="black"/>
<path d="M289.873 144.925L292.254 142.733L297.018 142.733L297.018 125.196L292.254 125.196L266.055 125.196L266.055 128.484L266.055 142.733L270.818 142.733L273.2 144.925L273.2 147.117L281.536 147.117L289.873 147.117L289.873 144.925Z" fill="black" stroke="black"/>
<path d="M245.148 144.925L247.53 142.733L252.294 142.733L252.294 125.196L247.53 125.196L221.33 125.196L221.33 128.484L221.33 142.733L226.094 142.733L228.476 144.925L228.476 147.117L236.812 147.117L245.148 147.117L245.148 144.925Z" fill="black" stroke="black"/>
<path d="M210.745 144.925L213.127 142.733L217.89 142.733L217.89 125.196L213.127 125.196L186.927 125.196L186.927 128.484L186.927 142.733L191.691 142.733L194.072 144.925L194.072 147.117L202.409 147.117L210.745 147.117L210.745 144.925Z" fill="black" stroke="black"/>
<path d="M176.341 144.925L178.723 142.733L183.486 142.733L183.486 125.196L178.723 125.196L152.523 125.196L152.523 128.484L152.523 142.733L157.287 142.733L159.668 144.925L159.668 147.117L168.005 147.117L176.341 147.117L176.341 144.925Z" fill="black" stroke="black"/>
<path d="M141.938 144.925L144.319 142.733L149.083 142.733L149.083 125.196L144.319 125.196L118.12 125.196L118.12 128.484L118.12 142.733L122.883 142.733L125.265 144.925L125.265 147.117L133.601 147.117L141.938 147.117L141.938 144.925Z" fill="black" stroke="black"/>
<path d="M107.533 144.925L109.915 142.733L114.679 142.733L114.679 125.196L109.915 125.196L83.7154 125.196L83.7154 128.484L83.7154 142.733L88.479 142.733L90.8608 144.925L90.8608 147.117L99.1971 147.117L107.533 147.117L107.533 144.925Z" fill="black" stroke="black"/>
<path d="M73.1303 144.925L75.5121 142.733L80.2756 142.733L80.2756 125.196L75.5121 125.196L49.3123 125.196L49.3123 128.484L49.3123 142.733L54.0759 142.733L56.4577 144.925L56.4577 147.117L64.794 147.117L73.1303 147.117L73.1303 144.925Z" fill="black" stroke="black"/>
<path d="M273.2 98.1601L270.818 100.352H266.055V117.889H270.818H297.018V114.601V100.352H292.254L289.873 98.1601V95.968H281.536H273.2V98.1601Z" fill="black" stroke="black"/>
<path d="M307.604 98.1601L305.222 100.352H300.459V117.889H305.222H331.422V114.601V100.352H326.658L324.277 98.1601V95.968H315.94H307.604V98.1601Z" fill="black" stroke="black"/>
<path d="M342.007 98.1601L339.626 100.352H334.862V117.889H339.626H365.825V114.601V100.352H361.062L358.68 98.1601V95.968H350.344H342.007V98.1601Z" fill="black" stroke="black"/>
<path d="M376.411 98.1601L374.03 100.352H369.266V117.889H374.03H400.229V114.601V100.352H395.466L393.084 98.1601V95.968H384.748H376.411V98.1601Z" fill="black" stroke="black"/>
<path d="M410.815 98.1601L408.433 100.352H403.669V117.889H408.433H434.633V114.601V100.352H429.869L427.487 98.1601V95.968H419.151H410.815V98.1601Z" fill="black" stroke="black"/>
<path d="M445.219 98.1601L442.837 100.352H438.074V117.889H442.837H469.037V114.601V100.352H464.273L461.892 98.1601V95.968H453.555H445.219V98.1601Z" fill="black" stroke="black"/>
<path d="M56.4576 98.1601L54.0758 100.352H49.3123V117.889H54.0758H80.2756V114.601V100.352H75.512L73.1302 98.1601V95.968H64.7939H56.4576V98.1601Z" fill="black" stroke="black"/>
<path d="M90.861 98.1601L88.4792 100.352H83.7156V117.889H88.4792H114.679V114.601V100.352H109.915L107.534 98.1601V95.968H99.1972H90.861V98.1601Z" fill="black" stroke="black"/>
<path d="M125.264 98.1601L122.882 100.352H118.119V117.889H122.882H149.082V114.601V100.352H144.318L141.937 98.1601V95.968H133.6H125.264V98.1601Z" fill="black" stroke="black"/>
<path d="M159.668 98.1601L157.287 100.352H152.523V117.889H157.287H183.486V114.601V100.352H178.723L176.341 98.1601V95.968H168.005H159.668V98.1601Z" fill="black" stroke="black"/>
<path d="M194.072 98.1601L191.691 100.352H186.927V117.889H191.691H217.89V114.601V100.352H213.127L210.745 98.1601V95.968H202.409H194.072V98.1601Z" fill="black" stroke="black"/>
<path d="M228.476 98.1601L226.094 100.352H221.33V117.889H226.094H252.294V114.601V100.352H247.53L245.148 98.1601V95.968H236.812H228.476V98.1601Z" fill="black" stroke="black"/>
<ellipse cx="19.4949" cy="154.424" rx="14.9083" ry="13.5703" fill="#FA9696"/>
<path d="M16.5956 159.644H13.7612L18.08 148.257H21.4886L25.8013 159.644H22.9669L19.8332 150.859H19.7354L16.5956 159.644ZM16.4185 155.168H23.1135V157.048H16.4185V155.168Z" fill="black"/>
</svg>
