<svg width="986" height="644" viewBox="0 0 986 644" fill="none" xmlns="http://www.w3.org/2000/svg">
<mask id="path-1-inside-1_339_52758" fill="white">
<path d="M0 0H51.7346V15.9258H0V0Z"/>
</mask>
<path d="M0 0H51.7346V15.9258H0V0Z" fill="#D9D9D9"/>
<path d="M0 0V-2H-2V0H0ZM51.7346 0H53.7346V-2H51.7346V0ZM51.7346 15.9258V17.9258H53.7346V15.9258H51.7346ZM0 15.9258H-2V17.9258H0V15.9258ZM0 0V2H51.7346V0V-2H0V0ZM51.7346 0H49.7346V15.9258H51.7346H53.7346V0H51.7346ZM51.7346 15.9258V13.9258H0V15.9258V17.9258H51.7346V15.9258ZM0 15.9258H2V0H0H-2V15.9258H0Z" fill="black" mask="url(#path-1-inside-1_339_52758)"/>
<mask id="path-3-inside-2_339_52758" fill="white">
<path d="M0 628.074H51.7346V644H0V628.074Z"/>
</mask>
<path d="M0 628.074H51.7346V644H0V628.074Z" fill="#D9D9D9"/>
<path d="M0 628.074V626.074H-2V628.074H0ZM51.7346 628.074H53.7346V626.074H51.7346V628.074ZM51.7346 644V646H53.7346V644H51.7346ZM0 644H-2V646H0V644ZM0 628.074V630.074H51.7346V628.074V626.074H0V628.074ZM51.7346 628.074H49.7346V644H51.7346H53.7346V628.074H51.7346ZM51.7346 644V642H0V644V646H51.7346V644ZM0 644H2V628.074H0H-2V644H0Z" fill="black" mask="url(#path-3-inside-2_339_52758)"/>
<mask id="path-5-inside-3_339_52758" fill="white">
<path d="M934.265 628.074H986V644H934.265V628.074Z"/>
</mask>
<path d="M934.265 628.074H986V644H934.265V628.074Z" fill="#D9D9D9"/>
<path d="M934.265 628.074V626.074H932.265V628.074H934.265ZM986 628.074H988V626.074H986V628.074ZM986 644V646H988V644H986ZM934.265 644H932.265V646H934.265V644ZM934.265 628.074V630.074H986V628.074V626.074H934.265V628.074ZM986 628.074H984V644H986H988V628.074H986ZM986 644V642H934.265V644V646H986V644ZM934.265 644H936.265V628.074H934.265H932.265V644H934.265Z" fill="black" mask="url(#path-5-inside-3_339_52758)"/>
<mask id="path-7-inside-4_339_52758" fill="white">
<path d="M934.265 0.995605H986V15.9261H934.265V0.995605Z"/>
</mask>
<path d="M934.265 0.995605H986V15.9261H934.265V0.995605Z" fill="#D9D9D9"/>
<path d="M934.265 0.995605V-1.00439H932.265V0.995605H934.265ZM986 0.995605H988V-1.00439H986V0.995605ZM986 15.9261V17.9261H988V15.9261H986ZM934.265 15.9261H932.265V17.9261H934.265V15.9261ZM934.265 0.995605V2.99561H986V0.995605V-1.00439H934.265V0.995605ZM986 0.995605H984V15.9261H986H988V0.995605H986ZM986 15.9261V13.9261H934.265V15.9261V17.9261H986V15.9261ZM934.265 15.9261H936.265V0.995605H934.265H932.265V15.9261H934.265Z" fill="black" mask="url(#path-7-inside-4_339_52758)"/>
<path d="M51.7346 13.9353H986V17.9168H51.7346V13.9353Z" fill="#1E1E1E"/>
<mask id="path-10-inside-5_339_52758" fill="white">
<path d="M0 15.9255H51.7346V628.074H0V15.9255Z"/>
</mask>
<path d="M0 15.9255H51.7346V628.074H0V15.9255Z" fill="#D9D9D9"/>
<path d="M0 15.9255V13.9255H-2V15.9255H0ZM51.7346 15.9255H53.7346V13.9255H51.7346V15.9255ZM51.7346 628.074V630.074H53.7346V628.074H51.7346ZM0 628.074H-2V630.074H0V628.074ZM0 15.9255V17.9255H51.7346V15.9255V13.9255H0V15.9255ZM51.7346 15.9255H49.7346V628.074H51.7346H53.7346V15.9255H51.7346ZM51.7346 628.074V626.074H0V628.074V630.074H51.7346V628.074ZM0 628.074H2V15.9255H0H-2V628.074H0Z" fill="black" mask="url(#path-10-inside-5_339_52758)"/>
<mask id="path-12-inside-6_339_52758" fill="white">
<path d="M934.265 17.9165H986V628.074H934.265V17.9165Z"/>
</mask>
<path d="M934.265 17.9165H986V628.074H934.265V17.9165Z" fill="#D9D9D9"/>
<path d="M986 628.074V630.074H988V628.074H986ZM934.265 628.074H932.265V630.074H934.265V628.074ZM986 17.9165H984V628.074H986H988V17.9165H986ZM986 628.074V626.074H934.265V628.074V630.074H986V628.074ZM934.265 628.074H936.265V17.9165H934.265H932.265V628.074H934.265Z" fill="black" mask="url(#path-12-inside-6_339_52758)"/>
<rect x="51.7346" y="17.9165" width="882.531" height="70.6708" fill="#BFBFBF"/>
<path d="M326.872 44.8906L324.765 46.9808H320.552V63.7029H324.765H347.94V60.5675V46.9808H343.727L341.62 44.8906V42.8003H334.246H326.872V44.8906Z" fill="black" stroke="black"/>
<rect x="87.2388" y="55.7402" width="12.1728" height="11.9444" fill="#D9D9D9"/>
<rect x="101.44" y="55.7402" width="12.1728" height="11.9444" fill="#D9D9D9"/>
<rect x="115.642" y="55.7402" width="12.1728" height="11.9444" fill="#D9D9D9"/>
<rect x="132.887" y="46.782" width="10.144" height="9.95363" fill="#D9D9D9"/>
<rect x="132.887" y="57.7312" width="10.144" height="9.95363" fill="#D9D9D9"/>
<rect x="146.074" y="57.7312" width="10.144" height="9.95363" fill="#D9D9D9"/>
<rect x="146.074" y="46.782" width="10.144" height="9.95363" fill="#D9D9D9"/>
<rect x="146.074" y="35.833" width="10.144" height="9.95363" fill="#D9D9D9"/>
<rect x="162.305" y="57.7312" width="10.144" height="9.95363" fill="#D9D9D9"/>
<rect x="162.305" y="46.782" width="10.144" height="9.95363" fill="#D9D9D9"/>
<rect x="162.305" y="35.833" width="10.144" height="9.95363" fill="#D9D9D9"/>
<rect x="178.534" y="57.7312" width="10.144" height="9.95363" fill="#D9D9D9"/>
<rect x="178.535" y="46.782" width="10.144" height="9.95363" fill="#D9D9D9"/>
<rect x="189.694" y="46.782" width="10.144" height="9.95363" fill="#D9D9D9"/>
<rect x="189.694" y="57.7312" width="10.144" height="9.95363" fill="#D9D9D9"/>
<rect x="204.91" y="57.7312" width="10.144" height="9.95363" fill="#D9D9D9"/>
<rect x="204.91" y="46.782" width="10.144" height="9.95363" fill="#D9D9D9"/>
<rect x="216.068" y="46.782" width="10.144" height="9.95363" fill="#D9D9D9"/>
<rect x="204.91" y="35.833" width="10.144" height="9.95363" fill="#D9D9D9"/>
<rect x="216.068" y="35.833" width="10.144" height="9.95363" fill="#D9D9D9"/>
<rect x="232.298" y="35.833" width="10.144" height="9.95363" fill="#D9D9D9"/>
<rect x="243.457" y="35.833" width="10.144" height="9.95363" fill="#D9D9D9"/>
<rect x="216.068" y="57.7312" width="10.144" height="9.95363" fill="#D9D9D9"/>
<rect x="232.298" y="57.7312" width="10.144" height="9.95363" fill="#D9D9D9"/>
<rect x="232.298" y="46.782" width="10.144" height="9.95363" fill="#D9D9D9"/>
<rect x="243.457" y="46.782" width="10.144" height="9.95363" fill="#D9D9D9"/>
<rect x="243.457" y="57.7312" width="10.144" height="9.95363" fill="#D9D9D9"/>
<rect x="283.019" y="35.833" width="10.144" height="9.95363" fill="#D9D9D9"/>
<rect x="283.019" y="57.7312" width="10.144" height="9.95363" fill="#D9D9D9"/>
<rect x="283.019" y="46.782" width="10.144" height="9.95363" fill="#D9D9D9"/>
<rect x="294.177" y="46.782" width="10.144" height="9.95363" fill="#D9D9D9"/>
<rect x="294.177" y="57.7312" width="10.144" height="9.95363" fill="#D9D9D9"/>
<rect x="571.109" y="57.7312" width="10.144" height="9.95363" fill="#D9D9D9"/>
<rect x="571.109" y="46.782" width="10.144" height="9.95363" fill="#D9D9D9"/>
<rect x="451.41" y="58.7263" width="10.144" height="9.95363" fill="#D9D9D9"/>
<rect x="451.41" y="47.7778" width="10.144" height="9.95363" fill="#D9D9D9"/>
<rect x="451.41" y="36.8289" width="10.144" height="9.95363" fill="#D9D9D9"/>
<rect x="582.268" y="46.782" width="10.144" height="9.95363" fill="#D9D9D9"/>
<rect x="582.268" y="57.7312" width="10.144" height="9.95363" fill="#D9D9D9"/>
<rect x="613.714" y="57.7312" width="10.144" height="9.95363" fill="#D9D9D9"/>
<rect x="613.714" y="46.782" width="10.144" height="9.95363" fill="#D9D9D9"/>
<rect x="624.872" y="46.782" width="10.144" height="9.95363" fill="#D9D9D9"/>
<rect x="624.872" y="57.7312" width="10.144" height="9.95363" fill="#D9D9D9"/>
<rect x="641.103" y="57.7312" width="10.144" height="9.95363" fill="#D9D9D9"/>
<rect x="641.103" y="46.782" width="10.144" height="9.95363" fill="#D9D9D9"/>
<rect x="652.261" y="46.782" width="10.144" height="9.95363" fill="#D9D9D9"/>
<rect x="641.103" y="35.833" width="10.144" height="9.95363" fill="#D9D9D9"/>
<rect x="652.261" y="35.833" width="10.144" height="9.95363" fill="#D9D9D9"/>
<rect x="652.261" y="57.7312" width="10.144" height="9.95363" fill="#D9D9D9"/>
<rect x="549.807" y="57.7312" width="9.95363" height="12.1728" transform="rotate(90 549.807 57.7312)" fill="#D9D9D9"/>
<rect x="561.98" y="57.7312" width="9.95363" height="11.1584" transform="rotate(90 561.98 57.7312)" fill="#D9D9D9"/>
<rect x="536.619" y="57.7312" width="9.95363" height="11.1584" transform="rotate(90 536.619 57.7312)" fill="#D9D9D9"/>
<rect x="669.506" y="57.7312" width="10.144" height="9.95363" fill="#D9D9D9"/>
<rect x="669.506" y="46.782" width="10.144" height="9.95363" fill="#D9D9D9"/>
<rect x="680.665" y="46.782" width="10.144" height="9.95363" fill="#D9D9D9"/>
<rect x="669.506" y="35.833" width="10.144" height="9.95363" fill="#D9D9D9"/>
<rect x="680.665" y="35.833" width="10.144" height="9.95363" fill="#D9D9D9"/>
<rect x="680.665" y="57.7312" width="10.144" height="9.95363" fill="#D9D9D9"/>
<rect x="719.212" y="57.7312" width="10.144" height="9.95363" fill="#D9D9D9"/>
<rect x="719.212" y="46.782" width="10.144" height="9.95363" fill="#D9D9D9"/>
<rect x="730.371" y="46.782" width="10.144" height="9.95363" fill="#D9D9D9"/>
<rect x="719.212" y="35.833" width="10.144" height="9.95363" fill="#D9D9D9"/>
<rect x="730.371" y="57.7312" width="10.144" height="9.95363" fill="#D9D9D9"/>
<rect x="582.268" y="35.833" width="10.144" height="9.95363" fill="#D9D9D9"/>
<rect x="599.513" y="46.782" width="10.144" height="9.95363" fill="#D9D9D9"/>
<rect x="599.513" y="57.7312" width="10.144" height="9.95363" fill="#D9D9D9"/>
<rect x="599.512" y="35.833" width="10.144" height="9.95363" fill="#D9D9D9"/>
<rect x="436.194" y="58.7263" width="11.1584" height="8.95827" fill="#8CFF00"/>
<path d="M400.455 65.595L402.562 63.5048L406.775 63.5048L406.775 46.7827L402.562 46.7827L379.387 46.7827L379.387 49.9181L379.386 63.5048L383.6 63.5048L385.707 65.595L385.707 67.6853L393.081 67.6853L400.455 67.6853L400.455 65.595Z" fill="black" stroke="black"/>
<path d="M767.123 44.8906L765.016 46.9808H760.802V63.7029H765.016H788.191V60.5675V46.9808H783.977L781.871 44.8906V42.8003H774.497H767.123V44.8906Z" fill="black" stroke="black"/>
<path d="M840.707 65.595L842.813 63.5048L847.027 63.5048L847.027 46.7827L842.813 46.7827L819.638 46.7827L819.638 49.9181L819.638 63.5048L823.852 63.5048L825.959 65.595L825.959 67.6853L833.333 67.6853L840.707 67.6853L840.707 65.595Z" fill="black" stroke="black"/>
<rect x="873.401" y="58.7263" width="11.1584" height="8.95827" fill="#8CFF00"/>
<rect x="494.512" y="538.991" width="439.253" height="88.5827" fill="#D9D9D9" stroke="black"/>
<path d="M901.645 602.095L903.747 600.004L907.951 600.004L907.951 583.282L903.747 583.282L880.625 583.282L880.625 586.418L880.625 600.004L884.829 600.004L886.931 602.095L886.931 604.185L894.288 604.185L901.645 604.185L901.645 602.095Z" fill="black" stroke="black"/>
<path d="M871.283 602.095L873.385 600.004L877.589 600.004L877.589 583.282L873.385 583.282L850.263 583.282L850.263 586.418L850.263 600.004L854.467 600.004L856.569 602.095L856.569 604.185L863.926 604.185L871.283 604.185L871.283 602.095Z" fill="black" stroke="black"/>
<path d="M840.92 602.095L843.022 600.004L847.226 600.004L847.226 583.282L843.022 583.282L819.9 583.282L819.9 586.418L819.9 600.004L824.104 600.004L826.206 602.095L826.206 604.185L833.563 604.185L840.92 604.185L840.92 602.095Z" fill="black" stroke="black"/>
<path d="M810.558 602.095L812.66 600.004L816.865 600.004L816.865 583.282L812.66 583.282L789.538 583.282L789.538 586.418L789.538 600.004L793.742 600.004L795.844 602.095L795.844 604.185L803.201 604.185L810.558 604.185L810.558 602.095Z" fill="black" stroke="black"/>
<path d="M780.196 602.095L782.298 600.004L786.502 600.004L786.502 583.282L782.298 583.282L759.176 583.282L759.176 586.418L759.176 600.004L763.38 600.004L765.482 602.095L765.482 604.185L772.839 604.185L780.196 604.185L780.196 602.095Z" fill="black" stroke="black"/>
<path d="M749.834 602.095L751.936 600.004L756.14 600.004L756.14 583.282L751.936 583.282L728.814 583.282L728.814 586.418L728.814 600.004L733.018 600.004L735.12 602.095L735.12 604.185L742.477 604.185L749.834 604.185L749.834 602.095Z" fill="black" stroke="black"/>
<path d="M710.363 602.095L712.465 600.004L716.669 600.004L716.669 583.282L712.465 583.282L689.343 583.282L689.343 586.418L689.343 600.004L693.547 600.004L695.649 602.095L695.649 604.185L703.006 604.185L710.363 604.185L710.363 602.095Z" fill="black" stroke="black"/>
<path d="M680.001 602.095L682.103 600.004L686.307 600.004L686.307 583.282L682.103 583.282L658.98 583.282L658.98 586.418L658.98 600.004L663.184 600.004L665.286 602.095L665.286 604.185L672.643 604.185L680.001 604.185L680.001 602.095Z" fill="black" stroke="black"/>
<path d="M649.639 602.095L651.741 600.004L655.945 600.004L655.945 583.282L651.741 583.282L628.619 583.282L628.619 586.418L628.619 600.004L632.823 600.004L634.925 602.095L634.925 604.185L642.282 604.185L649.639 604.185L649.639 602.095Z" fill="black" stroke="black"/>
<path d="M619.276 602.095L621.378 600.004L625.582 600.004L625.582 583.282L621.378 583.282L598.256 583.282L598.256 586.418L598.256 600.004L602.46 600.004L604.562 602.095L604.562 604.185L611.919 604.185L619.276 604.185L619.276 602.095Z" fill="black" stroke="black"/>
<path d="M588.914 602.095L591.016 600.004L595.22 600.004L595.22 583.282L591.016 583.282L567.894 583.282L567.894 586.418L567.894 600.004L572.098 600.004L574.2 602.095L574.2 604.185L581.557 604.185L588.914 604.185L588.914 602.095Z" fill="black" stroke="black"/>
<path d="M558.551 602.095L560.653 600.004L564.857 600.004L564.857 583.282L560.653 583.282L537.531 583.282L537.531 586.418L537.531 600.004L541.735 600.004L543.837 602.095L543.837 604.185L551.194 604.185L558.551 604.185L558.551 602.095Z" fill="black" stroke="black"/>
<path d="M735.12 557.503L733.018 559.593H728.814V576.315H733.018H756.14V573.18V559.593H751.936L749.834 557.503V555.413H742.477H735.12V557.503Z" fill="black" stroke="black"/>
<path d="M765.482 557.503L763.38 559.593H759.176V576.315H763.38H786.502V573.18V559.593H782.298L780.196 557.503V555.413H772.839H765.482V557.503Z" fill="black" stroke="black"/>
<path d="M795.845 557.503L793.743 559.593H789.539V576.315H793.743H816.865V573.18V559.593H812.661L810.559 557.503V555.413H803.202H795.845V557.503Z" fill="black" stroke="black"/>
<path d="M826.207 557.503L824.105 559.593H819.901V576.315H824.105H847.227V573.18V559.593H843.023L840.921 557.503V555.413H833.564H826.207V557.503Z" fill="black" stroke="black"/>
<path d="M856.569 557.503L854.467 559.593H850.263V576.315H854.467H877.589V573.18V559.593H873.385L871.283 557.503V555.413H863.926H856.569V557.503Z" fill="black" stroke="black"/>
<path d="M886.931 557.503L884.829 559.593H880.625V576.315H884.829H907.951V573.18V559.593H903.747L901.645 557.503V555.413H894.288H886.931V557.503Z" fill="black" stroke="black"/>
<path d="M543.838 557.503L541.736 559.593H537.531V576.315H541.736H564.858V573.18V559.593H560.654L558.552 557.503V555.413H551.195H543.838V557.503Z" fill="black" stroke="black"/>
<path d="M574.2 557.503L572.098 559.593H567.894V576.315H572.098H595.22V573.18V559.593H591.016L588.914 557.503V555.413H581.557H574.2V557.503Z" fill="black" stroke="black"/>
<path d="M604.562 557.503L602.46 559.593H598.256V576.315H602.46H625.582V573.18V559.593H621.378L619.276 557.503V555.413H611.919H604.562V557.503Z" fill="black" stroke="black"/>
<path d="M634.924 557.503L632.822 559.593H628.618V576.315H632.822H655.944V573.18V559.593H651.74L649.638 557.503V555.413H642.281H634.924V557.503Z" fill="black" stroke="black"/>
<path d="M665.287 557.503L663.185 559.593H658.981V576.315H663.185H686.307V573.18V559.593H682.103L680.001 557.503V555.413H672.644H665.287V557.503Z" fill="black" stroke="black"/>
<path d="M695.648 557.503L693.546 559.593H689.342V576.315H693.546H716.668V573.18V559.593H712.464L710.362 557.503V555.413H703.005H695.648V557.503Z" fill="black" stroke="black"/>
<ellipse cx="511.218" cy="611.153" rx="13.157" ry="12.9397" fill="#FA9696"/>
<path d="M508.181 617.035V606.177H510.516V615.142H515.249V617.035H508.181Z" fill="black"/>
<rect x="52.2346" y="538.991" width="441.277" height="88.5827" fill="#D9D9D9" stroke="black"/>
<path d="M459.368 602.094L461.47 600.004L465.674 600.004L465.674 583.282L461.47 583.282L438.348 583.282L438.348 586.417L438.348 600.004L442.552 600.004L444.654 602.094L444.654 604.185L452.011 604.185L459.368 604.185L459.368 602.094Z" fill="black" stroke="black"/>
<path d="M429.006 602.094L431.108 600.004L435.312 600.004L435.312 583.282L431.108 583.282L407.986 583.282L407.986 586.417L407.986 600.004L412.19 600.004L414.292 602.094L414.292 604.185L421.649 604.185L429.006 604.185L429.006 602.094Z" fill="black" stroke="black"/>
<path d="M398.643 602.094L400.745 600.004L404.949 600.004L404.949 583.282L400.745 583.282L377.623 583.282L377.623 586.417L377.623 600.004L381.827 600.004L383.929 602.094L383.929 604.185L391.286 604.185L398.643 604.185L398.643 602.094Z" fill="black" stroke="black"/>
<path d="M368.28 602.094L370.382 600.004L374.586 600.004L374.586 583.282L370.382 583.282L347.26 583.282L347.26 586.417L347.26 600.004L351.464 600.004L353.566 602.094L353.566 604.185L360.923 604.185L368.28 604.185L368.28 602.094Z" fill="black" stroke="black"/>
<path d="M337.918 602.094L340.02 600.004L344.224 600.004L344.224 583.282L340.02 583.282L316.898 583.282L316.898 586.417L316.898 600.004L321.102 600.004L323.204 602.094L323.204 604.185L330.561 604.185L337.918 604.185L337.918 602.094Z" fill="black" stroke="black"/>
<path d="M307.556 602.094L309.658 600.004L313.862 600.004L313.862 583.282L309.658 583.282L286.536 583.282L286.536 586.417L286.536 600.004L290.74 600.004L292.842 602.094L292.842 604.185L300.199 604.185L307.556 604.185L307.556 602.094Z" fill="black" stroke="black"/>
<path d="M268.085 602.095L270.187 600.004L274.391 600.004L274.391 583.282L270.187 583.282L247.065 583.282L247.065 586.418L247.065 600.004L251.269 600.004L253.371 602.095L253.371 604.185L260.728 604.185L268.085 604.185L268.085 602.095Z" fill="black" stroke="black"/>
<path d="M237.724 602.095L239.826 600.004L244.03 600.004L244.03 583.282L239.826 583.282L216.703 583.282L216.703 586.418L216.703 600.004L220.907 600.004L223.009 602.095L223.009 604.185L230.367 604.185L237.724 604.185L237.724 602.095Z" fill="black" stroke="black"/>
<path d="M207.36 602.095L209.462 600.004L213.667 600.004L213.667 583.282L209.462 583.282L186.34 583.282L186.34 586.418L186.34 600.004L190.544 600.004L192.646 602.095L192.646 604.185L200.003 604.185L207.36 604.185L207.36 602.095Z" fill="black" stroke="black"/>
<path d="M176.999 602.095L179.101 600.004L183.305 600.004L183.305 583.282L179.101 583.282L155.979 583.282L155.979 586.418L155.979 600.004L160.183 600.004L162.285 602.095L162.285 604.185L169.642 604.185L176.999 604.185L176.999 602.095Z" fill="black" stroke="black"/>
<path d="M146.636 602.095L148.738 600.004L152.942 600.004L152.942 583.282L148.738 583.282L125.616 583.282L125.616 586.418L125.616 600.004L129.82 600.004L131.922 602.095L131.922 604.185L139.279 604.185L146.636 604.185L146.636 602.095Z" fill="black" stroke="black"/>
<path d="M116.274 602.095L118.376 600.004L122.58 600.004L122.58 583.282L118.376 583.282L95.2538 583.282L95.2538 586.418L95.2538 600.004L99.4578 600.004L101.56 602.095L101.56 604.185L108.917 604.185L116.274 604.185L116.274 602.095Z" fill="black" stroke="black"/>
<path d="M292.842 557.503L290.74 559.593H286.536V576.315H290.74H313.862V573.18V559.593H309.658L307.556 557.503V555.413H300.199H292.842V557.503Z" fill="black" stroke="black"/>
<path d="M323.205 557.503L321.103 559.593H316.899V576.315H321.103H344.225V573.18V559.593H340.021L337.919 557.503V555.413H330.562H323.205V557.503Z" fill="black" stroke="black"/>
<path d="M353.567 557.503L351.465 559.593H347.261V576.315H351.465H374.587V573.18V559.593H370.383L368.281 557.503V555.413H360.924H353.567V557.503Z" fill="black" stroke="black"/>
<path d="M383.929 557.503L381.827 559.593H377.623V576.315H381.827H404.949V573.18V559.593H400.745L398.643 557.503V555.413H391.286H383.929V557.503Z" fill="black" stroke="black"/>
<path d="M414.291 557.503L412.189 559.593H407.985V576.315H412.189H435.311V573.18V559.593H431.107L429.005 557.503V555.413H421.648H414.291V557.503Z" fill="black" stroke="black"/>
<path d="M444.654 557.503L442.552 559.593H438.348V576.315H442.552H465.674V573.18V559.593H461.47L459.368 557.503V555.413H452.011H444.654V557.503Z" fill="black" stroke="black"/>
<path d="M101.56 557.503L99.4582 559.593H95.2542V576.315H99.4582H122.58V573.18V559.593H118.376L116.274 557.503V555.413H108.917H101.56V557.503Z" fill="black" stroke="black"/>
<path d="M131.922 557.503L129.82 559.593H125.616V576.315H129.82H152.942V573.18V559.593H148.738L146.636 557.503V555.413H139.279H131.922V557.503Z" fill="black" stroke="black"/>
<path d="M162.284 557.503L160.182 559.593H155.978V576.315H160.182H183.304V573.18V559.593H179.1L176.998 557.503V555.413H169.641H162.284V557.503Z" fill="black" stroke="black"/>
<path d="M192.647 557.503L190.545 559.593H186.341V576.315H190.545H213.667V573.18V559.593H209.463L207.361 557.503V555.413H200.004H192.647V557.503Z" fill="black" stroke="black"/>
<path d="M223.009 557.503L220.907 559.593H216.703V576.315H220.907H244.029V573.18V559.593H239.825L237.723 557.503V555.413H230.366H223.009V557.503Z" fill="black" stroke="black"/>
<path d="M253.371 557.503L251.269 559.593H247.065V576.315H251.269H274.392V573.18V559.593H270.187L268.085 557.503V555.413H260.728H253.371V557.503Z" fill="black" stroke="black"/>
<ellipse cx="68.9395" cy="611.153" rx="13.157" ry="12.9397" fill="#FA9696"/>
<path d="M63.8794 617.035V606.177H66.2137V610.964H66.3593L70.3325 606.177H73.1304L69.0332 611.038L73.1789 617.035H70.3864L67.362 612.571L66.2137 613.949V617.035H63.8794Z" fill="black"/>
<rect x="494.512" y="448.413" width="439.253" height="89.578" fill="#D9D9D9" stroke="black"/>
<path d="M901.645 511.518L903.747 509.428L907.951 509.428L907.951 492.706L903.747 492.706L880.625 492.706L880.625 495.841L880.625 509.428L884.829 509.428L886.931 511.518L886.931 513.608L894.288 513.608L901.645 513.608L901.645 511.518Z" fill="black" stroke="black"/>
<path d="M871.283 511.518L873.385 509.428L877.589 509.428L877.589 492.706L873.385 492.706L850.263 492.706L850.263 495.841L850.263 509.428L854.467 509.428L856.569 511.518L856.569 513.608L863.926 513.608L871.283 513.608L871.283 511.518Z" fill="black" stroke="black"/>
<path d="M840.921 511.518L843.023 509.428L847.227 509.428L847.227 492.706L843.023 492.706L819.901 492.706L819.901 495.841L819.901 509.428L824.105 509.428L826.207 511.518L826.207 513.608L833.564 513.608L840.921 513.608L840.921 511.518Z" fill="black" stroke="black"/>
<path d="M810.559 511.518L812.661 509.428L816.865 509.428L816.865 492.706L812.661 492.706L789.539 492.706L789.539 495.841L789.539 509.428L793.743 509.428L795.845 511.518L795.845 513.608L803.202 513.608L810.559 513.608L810.559 511.518Z" fill="black" stroke="black"/>
<path d="M780.196 511.518L782.298 509.428L786.502 509.428L786.502 492.706L782.298 492.706L759.176 492.706L759.176 495.841L759.176 509.428L763.38 509.428L765.482 511.518L765.482 513.608L772.839 513.608L780.196 513.608L780.196 511.518Z" fill="black" stroke="black"/>
<path d="M749.834 511.518L751.936 509.428L756.14 509.428L756.14 492.706L751.936 492.706L728.814 492.706L728.814 495.841L728.814 509.428L733.018 509.428L735.12 511.518L735.12 513.608L742.477 513.608L749.834 513.608L749.834 511.518Z" fill="black" stroke="black"/>
<path d="M710.363 511.518L712.465 509.428L716.669 509.428L716.669 492.706L712.465 492.706L689.343 492.706L689.343 495.841L689.343 509.428L693.547 509.428L695.649 511.518L695.649 513.608L703.006 513.608L710.363 513.608L710.363 511.518Z" fill="black" stroke="black"/>
<path d="M680.001 511.518L682.103 509.428L686.307 509.428L686.307 492.706L682.103 492.706L658.981 492.706L658.981 495.841L658.981 509.428L663.185 509.428L665.287 511.518L665.287 513.608L672.644 513.608L680.001 513.608L680.001 511.518Z" fill="black" stroke="black"/>
<path d="M649.639 511.518L651.741 509.428L655.945 509.428L655.945 492.706L651.741 492.706L628.619 492.706L628.619 495.841L628.619 509.428L632.823 509.428L634.925 511.518L634.925 513.608L642.282 513.608L649.639 513.608L649.639 511.518Z" fill="black" stroke="black"/>
<path d="M619.276 511.518L621.378 509.428L625.582 509.428L625.582 492.706L621.378 492.706L598.256 492.706L598.256 495.841L598.256 509.428L602.46 509.428L604.562 511.518L604.562 513.608L611.919 513.608L619.276 513.608L619.276 511.518Z" fill="black" stroke="black"/>
<path d="M588.914 511.518L591.016 509.428L595.22 509.428L595.22 492.706L591.016 492.706L567.894 492.706L567.894 495.841L567.894 509.428L572.098 509.428L574.2 511.518L574.2 513.608L581.557 513.608L588.914 513.608L588.914 511.518Z" fill="black" stroke="black"/>
<path d="M558.551 511.518L560.653 509.428L564.857 509.428L564.857 492.706L560.653 492.706L537.531 492.706L537.531 495.841L537.531 509.428L541.735 509.428L543.837 511.518L543.837 513.608L551.194 513.608L558.551 513.608L558.551 511.518Z" fill="black" stroke="black"/>
<path d="M735.12 466.925L733.018 469.015H728.814V485.737H733.018H756.14V482.602V469.015H751.936L749.834 466.925V464.834H742.477H735.12V466.925Z" fill="black" stroke="black"/>
<path d="M765.482 466.925L763.38 469.015H759.176V485.737H763.38H786.502V482.602V469.015H782.298L780.196 466.925V464.834H772.839H765.482V466.925Z" fill="black" stroke="black"/>
<path d="M795.845 466.925L793.743 469.015H789.539V485.737H793.743H816.865V482.602V469.015H812.661L810.559 466.925V464.834H803.202H795.845V466.925Z" fill="black" stroke="black"/>
<path d="M826.207 466.925L824.105 469.015H819.901V485.737H824.105H847.227V482.602V469.015H843.023L840.921 466.925V464.834H833.564H826.207V466.925Z" fill="black" stroke="black"/>
<path d="M856.569 466.925L854.467 469.015H850.263V485.737H854.467H877.589V482.602V469.015H873.385L871.283 466.925V464.834H863.926H856.569V466.925Z" fill="black" stroke="black"/>
<path d="M886.931 466.925L884.829 469.015H880.625V485.737H884.829H907.951V482.602V469.015H903.747L901.645 466.925V464.834H894.288H886.931V466.925Z" fill="black" stroke="black"/>
<path d="M543.838 466.925L541.736 469.015H537.531V485.737H541.736H564.858V482.602V469.015H560.654L558.552 466.925V464.834H551.195H543.838V466.925Z" fill="black" stroke="black"/>
<path d="M574.2 466.925L572.098 469.015H567.894V485.737H572.098H595.22V482.602V469.015H591.016L588.914 466.925V464.834H581.557H574.2V466.925Z" fill="black" stroke="black"/>
<path d="M604.562 466.925L602.46 469.015H598.256V485.737H602.46H625.582V482.602V469.015H621.378L619.276 466.925V464.834H611.919H604.562V466.925Z" fill="black" stroke="black"/>
<path d="M634.924 466.925L632.822 469.015H628.618V485.737H632.822H655.944V482.602V469.015H651.74L649.638 466.925V464.834H642.281H634.924V466.925Z" fill="black" stroke="black"/>
<path d="M665.287 466.925L663.185 469.015H658.981V485.737H663.185H686.307V482.602V469.015H682.103L680.001 466.925V464.834H672.644H665.287V466.925Z" fill="black" stroke="black"/>
<path d="M695.648 466.925L693.546 469.015H689.342V485.737H693.546H716.668V482.602V469.015H712.464L710.362 466.925V464.834H703.005H695.648V466.925Z" fill="black" stroke="black"/>
<ellipse cx="511.218" cy="520.574" rx="13.157" ry="12.9397" fill="#FA9696"/>
<path d="M512.193 514.603H514.5V522.175C514.5 522.874 514.34 523.482 514.021 523.998C513.704 524.514 513.264 524.912 512.7 525.191C512.135 525.471 511.48 525.61 510.732 525.61C510.067 525.61 509.463 525.495 508.921 525.266C508.382 525.032 507.954 524.679 507.638 524.205C507.321 523.728 507.165 523.129 507.169 522.408H509.492C509.499 522.694 509.559 522.94 509.67 523.145C509.785 523.346 509.941 523.502 510.139 523.611C510.34 523.717 510.577 523.77 510.851 523.77C511.138 523.77 511.381 523.71 511.578 523.59C511.78 523.466 511.932 523.286 512.037 523.049C512.141 522.813 512.193 522.521 512.193 522.175V514.603Z" fill="black"/>
<rect x="52.2346" y="448.413" width="441.277" height="89.578" fill="#D9D9D9" stroke="black"/>
<path d="M459.368 511.518L461.47 509.428L465.674 509.428L465.674 492.706L461.47 492.706L438.348 492.706L438.348 495.841L438.348 509.428L442.552 509.428L444.654 511.518L444.654 513.608L452.011 513.608L459.368 513.608L459.368 511.518Z" fill="black" stroke="black"/>
<path d="M429.006 511.518L431.108 509.428L435.312 509.428L435.312 492.706L431.108 492.706L407.986 492.706L407.986 495.841L407.986 509.428L412.19 509.428L414.292 511.518L414.292 513.608L421.649 513.608L429.006 513.608L429.006 511.518Z" fill="black" stroke="black"/>
<path d="M398.643 511.518L400.745 509.428L404.949 509.428L404.949 492.706L400.745 492.706L377.623 492.706L377.623 495.841L377.623 509.428L381.827 509.428L383.929 511.518L383.929 513.608L391.286 513.608L398.643 513.608L398.643 511.518Z" fill="black" stroke="black"/>
<path d="M368.28 511.518L370.382 509.428L374.586 509.428L374.586 492.706L370.382 492.706L347.26 492.706L347.26 495.841L347.26 509.428L351.464 509.428L353.566 511.518L353.566 513.608L360.923 513.608L368.28 513.608L368.28 511.518Z" fill="black" stroke="black"/>
<path d="M337.918 511.518L340.02 509.428L344.224 509.428L344.224 492.706L340.02 492.706L316.898 492.706L316.898 495.841L316.898 509.428L321.102 509.428L323.204 511.518L323.204 513.608L330.561 513.608L337.918 513.608L337.918 511.518Z" fill="black" stroke="black"/>
<path d="M307.556 511.518L309.658 509.428L313.862 509.428L313.862 492.706L309.658 492.706L286.536 492.706L286.536 495.841L286.536 509.428L290.74 509.428L292.842 511.518L292.842 513.608L300.199 513.608L307.556 513.608L307.556 511.518Z" fill="black" stroke="black"/>
<path d="M268.086 511.518L270.188 509.428L274.392 509.428L274.392 492.706L270.188 492.706L247.066 492.706L247.066 495.841L247.066 509.428L251.27 509.428L253.372 511.518L253.372 513.608L260.729 513.608L268.086 513.608L268.086 511.518Z" fill="black" stroke="black"/>
<path d="M237.724 511.518L239.826 509.428L244.03 509.428L244.03 492.706L239.826 492.706L216.703 492.706L216.703 495.841L216.703 509.428L220.907 509.428L223.009 511.518L223.009 513.608L230.367 513.608L237.724 513.608L237.724 511.518Z" fill="black" stroke="black"/>
<path d="M207.361 511.518L209.463 509.428L213.667 509.428L213.667 492.706L209.463 492.706L186.341 492.706L186.341 495.841L186.341 509.428L190.545 509.428L192.647 511.518L192.647 513.608L200.004 513.608L207.361 513.608L207.361 511.518Z" fill="black" stroke="black"/>
<path d="M176.999 511.518L179.101 509.428L183.305 509.428L183.305 492.706L179.101 492.706L155.979 492.706L155.979 495.841L155.979 509.428L160.183 509.428L162.285 511.518L162.285 513.608L169.642 513.608L176.999 513.608L176.999 511.518Z" fill="black" stroke="black"/>
<path d="M146.636 511.518L148.738 509.428L152.942 509.428L152.942 492.706L148.738 492.706L125.616 492.706L125.616 495.841L125.616 509.428L129.82 509.428L131.922 511.518L131.922 513.608L139.279 513.608L146.636 513.608L146.636 511.518Z" fill="black" stroke="black"/>
<path d="M116.274 511.518L118.376 509.428L122.58 509.428L122.58 492.706L118.376 492.706L95.2543 492.706L95.2543 495.841L95.2543 509.428L99.4583 509.428L101.56 511.518L101.56 513.608L108.917 513.608L116.274 513.608L116.274 511.518Z" fill="black" stroke="black"/>
<path d="M292.842 466.925L290.74 469.015H286.536V485.737H290.74H313.862V482.602V469.015H309.658L307.556 466.925V464.834H300.199H292.842V466.925Z" fill="black" stroke="black"/>
<path d="M323.205 466.925L321.103 469.015H316.899V485.737H321.103H344.225V482.602V469.015H340.021L337.919 466.925V464.834H330.562H323.205V466.925Z" fill="black" stroke="black"/>
<path d="M353.567 466.925L351.465 469.015H347.261V485.737H351.465H374.587V482.602V469.015H370.383L368.281 466.925V464.834H360.924H353.567V466.925Z" fill="black" stroke="black"/>
<path d="M383.929 466.925L381.827 469.015H377.623V485.737H381.827H404.949V482.602V469.015H400.745L398.643 466.925V464.834H391.286H383.929V466.925Z" fill="black" stroke="black"/>
<path d="M414.291 466.925L412.189 469.015H407.985V485.737H412.189H435.311V482.602V469.015H431.107L429.005 466.925V464.834H421.648H414.291V466.925Z" fill="black" stroke="black"/>
<path d="M444.654 466.925L442.552 469.015H438.348V485.737H442.552H465.674V482.602V469.015H461.47L459.368 466.925V464.834H452.011H444.654V466.925Z" fill="black" stroke="black"/>
<path d="M101.56 466.925L99.4582 469.015H95.2542V485.737H99.4582H122.58V482.602V469.015H118.376L116.274 466.925V464.834H108.917H101.56V466.925Z" fill="black" stroke="black"/>
<path d="M131.922 466.925L129.82 469.015H125.616V485.737H129.82H152.942V482.602V469.015H148.738L146.636 466.925V464.834H139.279H131.922V466.925Z" fill="black" stroke="black"/>
<path d="M162.284 466.925L160.182 469.015H155.978V485.737H160.182H183.304V482.602V469.015H179.1L176.998 466.925V464.834H169.641H162.284V466.925Z" fill="black" stroke="black"/>
<path d="M192.647 466.925L190.545 469.015H186.341V485.737H190.545H213.667V482.602V469.015H209.463L207.361 466.925V464.834H200.004H192.647V466.925Z" fill="black" stroke="black"/>
<path d="M223.009 466.925L220.907 469.015H216.703V485.737H220.907H244.029V482.602V469.015H239.825L237.723 466.925V464.834H230.366H223.009V466.925Z" fill="black" stroke="black"/>
<path d="M253.371 466.925L251.269 469.015H247.065V485.737H251.269H274.392V482.602V469.015H270.187L268.085 466.925V464.834H260.728H253.371V466.925Z" fill="black" stroke="black"/>
<ellipse cx="68.9395" cy="520.574" rx="13.157" ry="12.9397" fill="#FA9696"/>
<path d="M70.2625 515.598V526.456H67.9282V515.598H70.2625Z" fill="black"/>
<rect x="494.512" y="358.83" width="439.253" height="88.5827" fill="#D9D9D9" stroke="black"/>
<path d="M901.645 421.935L903.747 419.844L907.951 419.844L907.951 403.122L903.747 403.122L880.625 403.122L880.625 406.258L880.625 419.844L884.829 419.844L886.931 421.935L886.931 424.025L894.288 424.025L901.645 424.025L901.645 421.935Z" fill="black" stroke="black"/>
<path d="M871.283 421.935L873.385 419.844L877.589 419.844L877.589 403.122L873.385 403.122L850.263 403.122L850.263 406.258L850.263 419.844L854.467 419.844L856.569 421.935L856.569 424.025L863.926 424.025L871.283 424.025L871.283 421.935Z" fill="black" stroke="black"/>
<path d="M840.92 421.935L843.022 419.844L847.226 419.844L847.226 403.122L843.022 403.122L819.9 403.122L819.9 406.258L819.9 419.844L824.104 419.844L826.206 421.935L826.206 424.025L833.563 424.025L840.92 424.025L840.92 421.935Z" fill="black" stroke="black"/>
<path d="M810.558 421.935L812.66 419.844L816.865 419.844L816.865 403.122L812.66 403.122L789.538 403.122L789.538 406.258L789.538 419.844L793.742 419.844L795.844 421.935L795.844 424.025L803.201 424.025L810.558 424.025L810.558 421.935Z" fill="black" stroke="black"/>
<path d="M780.196 421.935L782.298 419.844L786.502 419.844L786.502 403.122L782.298 403.122L759.176 403.122L759.176 406.258L759.176 419.844L763.38 419.844L765.482 421.935L765.482 424.025L772.839 424.025L780.196 424.025L780.196 421.935Z" fill="black" stroke="black"/>
<path d="M749.834 421.935L751.936 419.844L756.14 419.844L756.14 403.122L751.936 403.122L728.814 403.122L728.814 406.258L728.814 419.844L733.018 419.844L735.12 421.935L735.12 424.025L742.477 424.025L749.834 424.025L749.834 421.935Z" fill="black" stroke="black"/>
<path d="M710.363 421.935L712.465 419.844L716.669 419.844L716.669 403.122L712.465 403.122L689.343 403.122L689.343 406.258L689.343 419.844L693.547 419.844L695.649 421.935L695.649 424.025L703.006 424.025L710.363 424.025L710.363 421.935Z" fill="black" stroke="black"/>
<path d="M680.001 421.935L682.103 419.844L686.307 419.844L686.307 403.122L682.103 403.122L658.981 403.122L658.981 406.258L658.981 419.844L663.185 419.844L665.287 421.935L665.287 424.025L672.644 424.025L680.001 424.025L680.001 421.935Z" fill="black" stroke="black"/>
<path d="M649.639 421.935L651.741 419.844L655.945 419.844L655.945 403.122L651.741 403.122L628.619 403.122L628.619 406.258L628.619 419.844L632.823 419.844L634.925 421.935L634.925 424.025L642.282 424.025L649.639 424.025L649.639 421.935Z" fill="black" stroke="black"/>
<path d="M619.276 421.935L621.378 419.844L625.582 419.844L625.582 403.122L621.378 403.122L598.256 403.122L598.256 406.258L598.256 419.844L602.46 419.844L604.562 421.935L604.562 424.025L611.919 424.025L619.276 424.025L619.276 421.935Z" fill="black" stroke="black"/>
<path d="M588.914 421.935L591.016 419.844L595.22 419.844L595.22 403.122L591.016 403.122L567.894 403.122L567.894 406.258L567.894 419.844L572.098 419.844L574.2 421.935L574.2 424.025L581.557 424.025L588.914 424.025L588.914 421.935Z" fill="black" stroke="black"/>
<path d="M558.551 421.935L560.653 419.844L564.857 419.844L564.857 403.122L560.653 403.122L537.531 403.122L537.531 406.258L537.531 419.844L541.735 419.844L543.837 421.935L543.837 424.025L551.194 424.025L558.551 424.025L558.551 421.935Z" fill="black" stroke="black"/>
<path d="M735.12 377.342L733.018 379.432H728.814V396.154H733.018H756.14V393.019V379.432H751.936L749.834 377.342V375.251H742.477H735.12V377.342Z" fill="black" stroke="black"/>
<path d="M765.482 377.342L763.38 379.432H759.176V396.154H763.38H786.502V393.019V379.432H782.298L780.196 377.342V375.252H772.839H765.482V377.342Z" fill="black" stroke="black"/>
<path d="M795.845 377.342L793.743 379.432H789.539V396.154H793.743H816.865V393.019V379.432H812.661L810.559 377.342V375.252H803.202H795.845V377.342Z" fill="black" stroke="black"/>
<path d="M826.207 377.342L824.105 379.432H819.901V396.154H824.105H847.227V393.019V379.432H843.023L840.921 377.342V375.252H833.564H826.207V377.342Z" fill="black" stroke="black"/>
<path d="M856.569 377.342L854.467 379.432H850.263V396.154H854.467H877.589V393.019V379.432H873.385L871.283 377.342V375.252H863.926H856.569V377.342Z" fill="black" stroke="black"/>
<path d="M886.931 377.342L884.829 379.432H880.625V396.154H884.829H907.951V393.019V379.432H903.747L901.645 377.342V375.252H894.288H886.931V377.342Z" fill="black" stroke="black"/>
<path d="M543.838 377.342L541.736 379.432H537.531V396.154H541.736H564.858V393.019V379.432H560.654L558.552 377.342V375.251H551.195H543.838V377.342Z" fill="black" stroke="black"/>
<path d="M574.2 377.342L572.098 379.432H567.894V396.154H572.098H595.22V393.019V379.432H591.016L588.914 377.342V375.252H581.557H574.2V377.342Z" fill="black" stroke="black"/>
<path d="M604.562 377.342L602.46 379.432H598.256V396.154H602.46H625.582V393.019V379.432H621.378L619.276 377.342V375.252H611.919H604.562V377.342Z" fill="black" stroke="black"/>
<path d="M634.924 377.342L632.822 379.432H628.618V396.154H632.822H655.944V393.019V379.432H651.74L649.638 377.342V375.252H642.281H634.924V377.342Z" fill="black" stroke="black"/>
<path d="M665.287 377.342L663.185 379.432H658.981V396.154H663.185H686.307V393.019V379.432H682.103L680.001 377.342V375.252H672.644H665.287V377.342Z" fill="black" stroke="black"/>
<path d="M695.648 377.342L693.546 379.432H689.342V396.154H693.546H716.668V393.019V379.432H712.464L710.362 377.342V375.252H703.005H695.648V377.342Z" fill="black" stroke="black"/>
<ellipse cx="511.218" cy="430.991" rx="13.157" ry="12.9397" fill="#FA9696"/>
<path d="M506.157 436.874V426.016H508.492V430.496H513.23V426.016H515.559V436.874H513.23V432.389H508.492V436.874H506.157Z" fill="black"/>
<rect x="52.2346" y="358.83" width="441.277" height="88.5827" fill="#D9D9D9" stroke="black"/>
<path d="M459.368 421.935L461.47 419.845L465.674 419.845L465.674 403.123L461.47 403.123L438.348 403.123L438.348 406.258L438.348 419.845L442.552 419.845L444.654 421.935L444.654 424.025L452.011 424.025L459.368 424.025L459.368 421.935Z" fill="black" stroke="black"/>
<path d="M429.006 421.935L431.108 419.845L435.312 419.845L435.312 403.123L431.108 403.123L407.986 403.123L407.986 406.258L407.986 419.845L412.19 419.845L414.292 421.935L414.292 424.025L421.649 424.025L429.006 424.025L429.006 421.935Z" fill="black" stroke="black"/>
<path d="M398.643 421.935L400.745 419.845L404.949 419.845L404.949 403.123L400.745 403.123L377.623 403.123L377.623 406.258L377.623 419.845L381.827 419.845L383.929 421.935L383.929 424.025L391.286 424.025L398.643 424.025L398.643 421.935Z" fill="black" stroke="black"/>
<path d="M368.28 421.935L370.382 419.845L374.586 419.845L374.586 403.123L370.382 403.123L347.26 403.123L347.26 406.258L347.26 419.845L351.464 419.845L353.566 421.935L353.566 424.025L360.923 424.025L368.28 424.025L368.28 421.935Z" fill="black" stroke="black"/>
<path d="M337.918 421.935L340.02 419.845L344.224 419.845L344.224 403.123L340.02 403.123L316.898 403.123L316.898 406.258L316.898 419.845L321.102 419.845L323.204 421.935L323.204 424.025L330.561 424.025L337.918 424.025L337.918 421.935Z" fill="black" stroke="black"/>
<path d="M307.556 421.935L309.658 419.845L313.862 419.845L313.862 403.123L309.658 403.123L286.536 403.123L286.536 406.258L286.536 419.845L290.74 419.845L292.842 421.935L292.842 424.025L300.199 424.025L307.556 424.025L307.556 421.935Z" fill="black" stroke="black"/>
<path d="M268.085 421.935L270.187 419.844L274.391 419.844L274.391 403.122L270.187 403.122L247.065 403.122L247.065 406.258L247.065 419.844L251.269 419.844L253.371 421.935L253.371 424.025L260.728 424.025L268.085 424.025L268.085 421.935Z" fill="black" stroke="black"/>
<path d="M237.724 421.935L239.826 419.844L244.03 419.844L244.03 403.122L239.826 403.122L216.703 403.122L216.703 406.258L216.703 419.844L220.907 419.844L223.009 421.935L223.009 424.025L230.367 424.025L237.724 424.025L237.724 421.935Z" fill="black" stroke="black"/>
<path d="M207.361 421.935L209.463 419.844L213.667 419.844L213.667 403.122L209.463 403.122L186.341 403.122L186.341 406.258L186.341 419.844L190.545 419.844L192.647 421.935L192.647 424.025L200.004 424.025L207.361 424.025L207.361 421.935Z" fill="black" stroke="black"/>
<path d="M176.999 421.935L179.101 419.844L183.305 419.844L183.305 403.122L179.101 403.122L155.979 403.122L155.979 406.258L155.979 419.844L160.183 419.844L162.285 421.935L162.285 424.025L169.642 424.025L176.999 424.025L176.999 421.935Z" fill="black" stroke="black"/>
<path d="M146.636 421.935L148.738 419.844L152.942 419.844L152.942 403.122L148.738 403.122L125.616 403.122L125.616 406.258L125.616 419.844L129.82 419.844L131.922 421.935L131.922 424.025L139.279 424.025L146.636 424.025L146.636 421.935Z" fill="black" stroke="black"/>
<path d="M116.274 421.935L118.376 419.844L122.58 419.844L122.58 403.122L118.376 403.122L95.254 403.122L95.254 406.258L95.254 419.844L99.458 419.844L101.56 421.935L101.56 424.025L108.917 424.025L116.274 424.025L116.274 421.935Z" fill="black" stroke="black"/>
<path d="M292.842 377.342L290.74 379.432H286.536V396.154H290.74H313.862V393.019V379.432H309.658L307.556 377.342V375.251H300.199H292.842V377.342Z" fill="black" stroke="black"/>
<path d="M323.205 377.342L321.103 379.432H316.899V396.154H321.103H344.225V393.019V379.432H340.021L337.919 377.342V375.252H330.562H323.205V377.342Z" fill="black" stroke="black"/>
<path d="M353.567 377.342L351.465 379.432H347.261V396.154H351.465H374.587V393.019V379.432H370.383L368.281 377.342V375.252H360.924H353.567V377.342Z" fill="black" stroke="black"/>
<path d="M383.929 377.342L381.827 379.432H377.623V396.154H381.827H404.949V393.019V379.432H400.745L398.643 377.342V375.252H391.286H383.929V377.342Z" fill="black" stroke="black"/>
<path d="M414.291 377.342L412.189 379.432H407.985V396.154H412.189H435.311V393.019V379.432H431.107L429.005 377.342V375.252H421.648H414.291V377.342Z" fill="black" stroke="black"/>
<path d="M444.654 377.342L442.552 379.432H438.348V396.154H442.552H465.674V393.019V379.432H461.47L459.368 377.342V375.252H452.011H444.654V377.342Z" fill="black" stroke="black"/>
<path d="M101.56 377.342L99.4582 379.432H95.2542V396.154H99.4582H122.58V393.019V379.432H118.376L116.274 377.342V375.251H108.917H101.56V377.342Z" fill="black" stroke="black"/>
<path d="M131.922 377.342L129.82 379.432H125.616V396.154H129.82H152.942V393.019V379.432H148.738L146.636 377.342V375.252H139.279H131.922V377.342Z" fill="black" stroke="black"/>
<path d="M162.284 377.342L160.182 379.432H155.978V396.154H160.182H183.304V393.019V379.432H179.1L176.998 377.342V375.252H169.641H162.284V377.342Z" fill="black" stroke="black"/>
<path d="M192.647 377.342L190.545 379.432H186.341V396.154H190.545H213.667V393.019V379.432H209.463L207.361 377.342V375.252H200.004H192.647V377.342Z" fill="black" stroke="black"/>
<path d="M223.009 377.342L220.907 379.432H216.703V396.154H220.907H244.029V393.019V379.432H239.825L237.723 377.342V375.252H230.366H223.009V377.342Z" fill="black" stroke="black"/>
<path d="M253.371 377.342L251.269 379.432H247.065V396.154H251.269H274.392V393.019V379.432H270.187L268.085 377.342V375.252H260.728H253.371V377.342Z" fill="black" stroke="black"/>
<ellipse cx="68.9395" cy="430.991" rx="13.157" ry="12.9397" fill="#FA9696"/>
<path d="M71.3945 428.62C71.319 428.362 71.213 428.134 71.0764 427.936C70.9399 427.735 70.7727 427.565 70.5751 427.427C70.381 427.286 70.1582 427.178 69.9066 427.104C69.6586 427.029 69.3836 426.992 69.0817 426.992C68.5175 426.992 68.0215 427.13 67.5938 427.406C67.1697 427.682 66.8391 428.083 66.6019 428.609C66.3647 429.133 66.2461 429.772 66.2461 430.529C66.2461 431.285 66.3629 431.929 66.5965 432.459C66.8301 432.989 67.1607 433.394 67.5884 433.673C68.0161 433.949 68.5211 434.086 69.1033 434.086C69.6316 434.086 70.0827 433.995 70.4565 433.811C70.8338 433.623 71.1214 433.36 71.319 433.021C71.5203 432.681 71.6209 432.28 71.6209 431.817L72.0953 431.886H69.2489V430.158H73.869V431.526C73.869 432.48 73.6641 433.3 73.2544 433.986C72.8447 434.668 72.2804 435.195 71.5616 435.566C70.8428 435.933 70.0198 436.117 69.0925 436.117C68.0574 436.117 67.1482 435.893 66.3647 435.444C65.5812 434.991 64.9702 434.35 64.5317 433.519C64.0968 432.685 63.8794 431.695 63.8794 430.55C63.8794 429.67 64.0088 428.885 64.2675 428.196C64.5299 427.503 64.8965 426.916 65.3673 426.436C65.8381 425.955 66.3862 425.589 67.0116 425.338C67.6369 425.087 68.3144 424.962 69.044 424.962C69.6694 424.962 70.2516 425.052 70.7907 425.232C71.3298 425.409 71.8078 425.66 72.2247 425.985C72.6452 426.31 72.9884 426.697 73.2544 427.146C73.5204 427.591 73.6911 428.083 73.7666 428.62H71.3945Z" fill="black"/>
<rect x="494.512" y="269.247" width="439.253" height="88.5827" fill="#D9D9D9" stroke="black"/>
<path d="M901.645 332.352L903.747 330.261L907.951 330.261L907.951 313.539L903.747 313.539L880.625 313.539L880.625 316.675L880.625 330.261L884.829 330.261L886.931 332.352L886.931 334.442L894.288 334.442L901.645 334.442L901.645 332.352Z" fill="black" stroke="black"/>
<path d="M871.283 332.352L873.385 330.261L877.589 330.261L877.589 313.539L873.385 313.539L850.263 313.539L850.263 316.675L850.263 330.261L854.467 330.261L856.569 332.352L856.569 334.442L863.926 334.442L871.283 334.442L871.283 332.352Z" fill="black" stroke="black"/>
<path d="M840.92 332.352L843.022 330.261L847.226 330.261L847.226 313.539L843.022 313.539L819.9 313.539L819.9 316.675L819.9 330.261L824.104 330.261L826.206 332.352L826.206 334.442L833.563 334.442L840.92 334.442L840.92 332.352Z" fill="black" stroke="black"/>
<path d="M810.558 332.352L812.66 330.261L816.865 330.261L816.865 313.539L812.66 313.539L789.538 313.539L789.538 316.675L789.538 330.261L793.742 330.261L795.844 332.352L795.844 334.442L803.201 334.442L810.558 334.442L810.558 332.352Z" fill="black" stroke="black"/>
<path d="M780.196 332.352L782.298 330.261L786.502 330.261L786.502 313.539L782.298 313.539L759.176 313.539L759.176 316.675L759.176 330.261L763.38 330.261L765.482 332.352L765.482 334.442L772.839 334.442L780.196 334.442L780.196 332.352Z" fill="black" stroke="black"/>
<path d="M749.834 332.352L751.936 330.261L756.14 330.261L756.14 313.539L751.936 313.539L728.814 313.539L728.814 316.675L728.814 330.261L733.018 330.261L735.12 332.352L735.12 334.442L742.477 334.442L749.834 334.442L749.834 332.352Z" fill="black" stroke="black"/>
<path d="M710.363 332.352L712.465 330.261L716.669 330.261L716.669 313.539L712.465 313.539L689.343 313.539L689.343 316.675L689.343 330.261L693.547 330.261L695.649 332.352L695.649 334.442L703.006 334.442L710.363 334.442L710.363 332.352Z" fill="black" stroke="black"/>
<path d="M680.001 332.352L682.103 330.261L686.307 330.261L686.307 313.539L682.103 313.539L658.981 313.539L658.981 316.675L658.981 330.261L663.185 330.261L665.287 332.352L665.287 334.442L672.644 334.442L680.001 334.442L680.001 332.352Z" fill="black" stroke="black"/>
<path d="M649.639 332.352L651.741 330.261L655.945 330.261L655.945 313.539L651.741 313.539L628.619 313.539L628.619 316.675L628.619 330.261L632.823 330.261L634.925 332.352L634.925 334.442L642.282 334.442L649.639 334.442L649.639 332.352Z" fill="black" stroke="black"/>
<path d="M619.276 332.352L621.378 330.261L625.582 330.261L625.582 313.539L621.378 313.539L598.256 313.539L598.256 316.675L598.256 330.261L602.46 330.261L604.562 332.352L604.562 334.442L611.919 334.442L619.276 334.442L619.276 332.352Z" fill="black" stroke="black"/>
<path d="M588.914 332.352L591.016 330.261L595.22 330.261L595.22 313.539L591.016 313.539L567.894 313.539L567.894 316.675L567.894 330.261L572.098 330.261L574.2 332.352L574.2 334.442L581.557 334.442L588.914 334.442L588.914 332.352Z" fill="black" stroke="black"/>
<path d="M558.551 332.352L560.653 330.261L564.857 330.261L564.857 313.539L560.653 313.539L537.531 313.539L537.531 316.675L537.531 330.261L541.735 330.261L543.837 332.352L543.837 334.442L551.194 334.442L558.551 334.442L558.551 332.352Z" fill="black" stroke="black"/>
<path d="M735.12 287.759L733.018 289.849H728.814V306.571H733.018H756.14V303.436V289.849H751.936L749.834 287.759V285.669H742.477H735.12V287.759Z" fill="black" stroke="black"/>
<path d="M765.482 287.759L763.38 289.849H759.176V306.571H763.38H786.502V303.436V289.849H782.298L780.196 287.759V285.669H772.839H765.482V287.759Z" fill="black" stroke="black"/>
<path d="M795.845 287.759L793.743 289.849H789.539V306.571H793.743H816.865V303.436V289.849H812.661L810.559 287.759V285.669H803.202H795.845V287.759Z" fill="black" stroke="black"/>
<path d="M826.207 287.759L824.105 289.849H819.901V306.571H824.105H847.227V303.436V289.849H843.023L840.921 287.759V285.669H833.564H826.207V287.759Z" fill="black" stroke="black"/>
<path d="M856.569 287.759L854.467 289.849H850.263V306.571H854.467H877.589V303.436V289.849H873.385L871.283 287.759V285.669H863.926H856.569V287.759Z" fill="black" stroke="black"/>
<path d="M886.931 287.759L884.829 289.849H880.625V306.571H884.829H907.951V303.436V289.849H903.747L901.645 287.759V285.669H894.288H886.931V287.759Z" fill="black" stroke="black"/>
<path d="M543.838 287.759L541.736 289.849H537.531V306.571H541.736H564.858V303.436V289.849H560.654L558.552 287.759V285.669H551.195H543.838V287.759Z" fill="black" stroke="black"/>
<path d="M574.2 287.759L572.098 289.849H567.894V306.571H572.098H595.22V303.436V289.849H591.016L588.914 287.759V285.669H581.557H574.2V287.759Z" fill="black" stroke="black"/>
<path d="M604.562 287.759L602.46 289.849H598.256V306.571H602.46H625.582V303.436V289.849H621.378L619.276 287.759V285.669H611.919H604.562V287.759Z" fill="black" stroke="black"/>
<path d="M634.924 287.759L632.822 289.849H628.618V306.571H632.822H655.944V303.436V289.849H651.74L649.638 287.759V285.669H642.281H634.924V287.759Z" fill="black" stroke="black"/>
<path d="M665.287 287.759L663.185 289.849H658.981V306.571H663.185H686.307V303.436V289.849H682.103L680.001 287.759V285.669H672.644H665.287V287.759Z" fill="black" stroke="black"/>
<path d="M695.648 287.759L693.546 289.849H689.342V306.571H693.546H716.668V303.436V289.849H712.464L710.362 287.759V285.669H703.005H695.648V287.759Z" fill="black" stroke="black"/>
<ellipse cx="511.218" cy="341.41" rx="13.157" ry="12.9397" fill="#FA9696"/>
<path d="M507.168 347.291V336.433H514.479V338.326H509.503V340.913H513.994V342.806H509.503V347.291H507.168Z" fill="black"/>
<rect x="52.2346" y="269.247" width="441.277" height="88.5827" fill="#D9D9D9" stroke="black"/>
<path d="M459.368 332.352L461.47 330.262L465.674 330.262L465.674 313.54L461.47 313.54L438.348 313.54L438.348 316.675L438.348 330.262L442.552 330.262L444.654 332.352L444.654 334.442L452.011 334.442L459.368 334.442L459.368 332.352Z" fill="black" stroke="black"/>
<path d="M429.006 332.352L431.108 330.262L435.312 330.262L435.312 313.54L431.108 313.54L407.986 313.54L407.986 316.675L407.986 330.262L412.19 330.262L414.292 332.352L414.292 334.442L421.649 334.442L429.006 334.442L429.006 332.352Z" fill="black" stroke="black"/>
<path d="M398.643 332.352L400.745 330.262L404.949 330.262L404.949 313.54L400.745 313.54L377.623 313.54L377.623 316.675L377.623 330.262L381.827 330.262L383.929 332.352L383.929 334.442L391.286 334.442L398.643 334.442L398.643 332.352Z" fill="black" stroke="black"/>
<path d="M368.28 332.352L370.382 330.262L374.586 330.262L374.586 313.54L370.382 313.54L347.26 313.54L347.26 316.675L347.26 330.262L351.464 330.262L353.566 332.352L353.566 334.442L360.923 334.442L368.28 334.442L368.28 332.352Z" fill="black" stroke="black"/>
<path d="M337.918 332.352L340.02 330.262L344.224 330.262L344.224 313.54L340.02 313.54L316.898 313.54L316.898 316.675L316.898 330.262L321.102 330.262L323.204 332.352L323.204 334.442L330.561 334.442L337.918 334.442L337.918 332.352Z" fill="black" stroke="black"/>
<path d="M307.556 332.352L309.658 330.262L313.862 330.262L313.862 313.54L309.658 313.54L286.536 313.54L286.536 316.675L286.536 330.262L290.74 330.262L292.842 332.352L292.842 334.442L300.199 334.442L307.556 334.442L307.556 332.352Z" fill="black" stroke="black"/>
<path d="M268.085 332.352L270.187 330.261L274.391 330.261L274.391 313.539L270.187 313.539L247.065 313.539L247.065 316.675L247.065 330.261L251.269 330.261L253.371 332.352L253.371 334.442L260.728 334.442L268.085 334.442L268.085 332.352Z" fill="black" stroke="black"/>
<path d="M237.724 332.352L239.826 330.261L244.03 330.261L244.03 313.539L239.826 313.539L216.703 313.539L216.703 316.675L216.703 330.261L220.907 330.261L223.009 332.352L223.009 334.442L230.367 334.442L237.724 334.442L237.724 332.352Z" fill="black" stroke="black"/>
<path d="M207.361 332.352L209.463 330.261L213.667 330.261L213.667 313.539L209.463 313.539L186.341 313.539L186.341 316.675L186.341 330.261L190.545 330.261L192.647 332.352L192.647 334.442L200.004 334.442L207.361 334.442L207.361 332.352Z" fill="black" stroke="black"/>
<path d="M176.999 332.352L179.101 330.261L183.305 330.261L183.305 313.539L179.101 313.539L155.979 313.539L155.979 316.675L155.979 330.261L160.183 330.261L162.285 332.352L162.285 334.442L169.642 334.442L176.999 334.442L176.999 332.352Z" fill="black" stroke="black"/>
<path d="M146.636 332.352L148.738 330.261L152.942 330.261L152.942 313.539L148.738 313.539L125.616 313.539L125.616 316.675L125.616 330.261L129.82 330.261L131.922 332.352L131.922 334.442L139.279 334.442L146.636 334.442L146.636 332.352Z" fill="black" stroke="black"/>
<path d="M116.274 332.352L118.376 330.261L122.58 330.261L122.58 313.539L118.376 313.539L95.254 313.539L95.254 316.675L95.254 330.261L99.458 330.261L101.56 332.352L101.56 334.442L108.917 334.442L116.274 334.442L116.274 332.352Z" fill="black" stroke="black"/>
<path d="M292.842 287.759L290.74 289.849H286.536V306.571H290.74H313.862V303.436V289.849H309.658L307.556 287.759V285.669H300.199H292.842V287.759Z" fill="black" stroke="black"/>
<path d="M323.205 287.759L321.103 289.849H316.899V306.571H321.103H344.225V303.436V289.849H340.021L337.919 287.759V285.669H330.562H323.205V287.759Z" fill="black" stroke="black"/>
<path d="M353.567 287.759L351.465 289.849H347.261V306.571H351.465H374.587V303.436V289.849H370.383L368.281 287.759V285.669H360.924H353.567V287.759Z" fill="black" stroke="black"/>
<path d="M383.929 287.759L381.827 289.849H377.623V306.571H381.827H404.949V303.436V289.849H400.745L398.643 287.759V285.669H391.286H383.929V287.759Z" fill="black" stroke="black"/>
<path d="M414.291 287.759L412.189 289.849H407.985V306.571H412.189H435.311V303.436V289.849H431.107L429.005 287.759V285.669H421.648H414.291V287.759Z" fill="black" stroke="black"/>
<path d="M444.654 287.759L442.552 289.849H438.348V306.571H442.552H465.674V303.436V289.849H461.47L459.368 287.759V285.669H452.011H444.654V287.759Z" fill="black" stroke="black"/>
<path d="M101.56 287.759L99.4582 289.849H95.2542V306.571H99.4582H122.58V303.436V289.849H118.376L116.274 287.759V285.669H108.917H101.56V287.759Z" fill="black" stroke="black"/>
<path d="M131.922 287.759L129.82 289.849H125.616V306.571H129.82H152.942V303.436V289.849H148.738L146.636 287.759V285.669H139.279H131.922V287.759Z" fill="black" stroke="black"/>
<path d="M162.284 287.759L160.182 289.849H155.978V306.571H160.182H183.304V303.436V289.849H179.1L176.998 287.759V285.669H169.641H162.284V287.759Z" fill="black" stroke="black"/>
<path d="M192.647 287.759L190.545 289.849H186.341V306.571H190.545H213.667V303.436V289.849H209.463L207.361 287.759V285.669H200.004H192.647V287.759Z" fill="black" stroke="black"/>
<path d="M223.009 287.759L220.907 289.849H216.703V306.571H220.907H244.029V303.436V289.849H239.825L237.723 287.759V285.669H230.366H223.009V287.759Z" fill="black" stroke="black"/>
<path d="M253.371 287.759L251.269 289.849H247.065V306.571H251.269H274.392V303.436V289.849H270.187L268.085 287.759V285.669H260.728H253.371V287.759Z" fill="black" stroke="black"/>
<ellipse cx="68.9395" cy="341.41" rx="13.157" ry="12.9397" fill="#FA9696"/>
<path d="M64.8911 346.386V335.528H72.3307V337.42H67.2254V340.008H71.948V341.901H67.2254V344.493H72.3523V346.386H64.8911Z" fill="black"/>
<rect x="494.512" y="178.671" width="439.253" height="89.578" fill="#D9D9D9" stroke="black"/>
<path d="M901.645 241.774L903.747 239.683L907.951 239.683L907.951 222.961L903.747 222.961L880.625 222.961L880.625 226.097L880.625 239.683L884.829 239.683L886.931 241.774L886.931 243.864L894.288 243.864L901.645 243.864L901.645 241.774Z" fill="black" stroke="black"/>
<path d="M871.283 241.774L873.385 239.683L877.589 239.683L877.589 222.961L873.385 222.961L850.263 222.961L850.263 226.097L850.263 239.683L854.467 239.683L856.569 241.774L856.569 243.864L863.926 243.864L871.283 243.864L871.283 241.774Z" fill="black" stroke="black"/>
<path d="M840.921 241.774L843.023 239.683L847.227 239.683L847.227 222.961L843.023 222.961L819.901 222.961L819.901 226.097L819.901 239.683L824.105 239.683L826.207 241.774L826.207 243.864L833.564 243.864L840.921 243.864L840.921 241.774Z" fill="black" stroke="black"/>
<path d="M810.559 241.774L812.661 239.683L816.865 239.683L816.865 222.961L812.661 222.961L789.539 222.961L789.539 226.097L789.539 239.683L793.743 239.683L795.845 241.774L795.845 243.864L803.202 243.864L810.559 243.864L810.559 241.774Z" fill="black" stroke="black"/>
<path d="M780.196 241.774L782.298 239.683L786.502 239.683L786.502 222.961L782.298 222.961L759.176 222.961L759.176 226.097L759.176 239.683L763.38 239.683L765.482 241.774L765.482 243.864L772.839 243.864L780.196 243.864L780.196 241.774Z" fill="black" stroke="black"/>
<path d="M749.834 241.774L751.936 239.683L756.14 239.683L756.14 222.961L751.936 222.961L728.814 222.961L728.814 226.097L728.814 239.683L733.018 239.683L735.12 241.774L735.12 243.864L742.477 243.864L749.834 243.864L749.834 241.774Z" fill="black" stroke="black"/>
<path d="M710.363 241.774L712.465 239.683L716.669 239.683L716.669 222.961L712.465 222.961L689.343 222.961L689.343 226.097L689.343 239.683L693.547 239.683L695.649 241.774L695.649 243.864L703.006 243.864L710.363 243.864L710.363 241.774Z" fill="black" stroke="black"/>
<path d="M680.001 241.774L682.103 239.683L686.307 239.683L686.307 222.961L682.103 222.961L658.981 222.961L658.981 226.097L658.981 239.683L663.185 239.683L665.287 241.774L665.287 243.864L672.644 243.864L680.001 243.864L680.001 241.774Z" fill="black" stroke="black"/>
<path d="M649.639 241.774L651.741 239.683L655.945 239.683L655.945 222.961L651.741 222.961L628.619 222.961L628.619 226.097L628.619 239.683L632.823 239.683L634.925 241.774L634.925 243.864L642.282 243.864L649.639 243.864L649.639 241.774Z" fill="black" stroke="black"/>
<path d="M619.276 241.774L621.378 239.683L625.582 239.683L625.582 222.961L621.378 222.961L598.256 222.961L598.256 226.097L598.256 239.683L602.46 239.683L604.562 241.774L604.562 243.864L611.919 243.864L619.276 243.864L619.276 241.774Z" fill="black" stroke="black"/>
<path d="M588.914 241.774L591.016 239.683L595.22 239.683L595.22 222.961L591.016 222.961L567.894 222.961L567.894 226.097L567.894 239.683L572.098 239.683L574.2 241.774L574.2 243.864L581.557 243.864L588.914 243.864L588.914 241.774Z" fill="black" stroke="black"/>
<path d="M558.551 241.774L560.653 239.683L564.857 239.683L564.857 222.961L560.653 222.961L537.531 222.961L537.531 226.097L537.531 239.683L541.735 239.683L543.837 241.774L543.837 243.864L551.194 243.864L558.551 243.864L558.551 241.774Z" fill="black" stroke="black"/>
<path d="M735.12 197.181L733.018 199.271H728.814V215.993H733.018H756.14V212.858V199.271H751.936L749.834 197.181V195.091H742.477H735.12V197.181Z" fill="black" stroke="black"/>
<path d="M765.482 197.181L763.38 199.271H759.176V215.993H763.38H786.502V212.858V199.271H782.298L780.196 197.181V195.091H772.839H765.482V197.181Z" fill="black" stroke="black"/>
<path d="M795.845 197.181L793.743 199.271H789.539V215.993H793.743H816.865V212.858V199.271H812.661L810.559 197.181V195.091H803.202H795.845V197.181Z" fill="black" stroke="black"/>
<path d="M826.207 197.181L824.105 199.271H819.901V215.993H824.105H847.227V212.858V199.271H843.023L840.921 197.181V195.091H833.564H826.207V197.181Z" fill="black" stroke="black"/>
<path d="M856.569 197.181L854.467 199.271H850.263V215.993H854.467H877.589V212.858V199.271H873.385L871.283 197.181V195.091H863.926H856.569V197.181Z" fill="black" stroke="black"/>
<path d="M886.931 197.181L884.829 199.271H880.625V215.993H884.829H907.951V212.858V199.271H903.747L901.645 197.181V195.091H894.288H886.931V197.181Z" fill="black" stroke="black"/>
<path d="M543.838 197.181L541.736 199.271H537.531V215.993H541.736H564.858V212.858V199.271H560.654L558.552 197.181V195.091H551.195H543.838V197.181Z" fill="black" stroke="black"/>
<path d="M574.2 197.181L572.098 199.271H567.894V215.993H572.098H595.22V212.858V199.271H591.016L588.914 197.181V195.091H581.557H574.2V197.181Z" fill="black" stroke="black"/>
<path d="M604.562 197.181L602.46 199.271H598.256V215.993H602.46H625.582V212.858V199.271H621.378L619.276 197.181V195.091H611.919H604.562V197.181Z" fill="black" stroke="black"/>
<path d="M634.924 197.181L632.822 199.271H628.618V215.993H632.822H655.944V212.858V199.271H651.74L649.638 197.181V195.091H642.281H634.924V197.181Z" fill="black" stroke="black"/>
<path d="M665.287 197.181L663.185 199.271H658.981V215.993H663.185H686.307V212.858V199.271H682.103L680.001 197.181V195.091H672.644H665.287V197.181Z" fill="black" stroke="black"/>
<path d="M695.648 197.181L693.546 199.271H689.342V215.993H693.546H716.668V212.858V199.271H712.464L710.362 197.181V195.091H703.005H695.648V197.181Z" fill="black" stroke="black"/>
<ellipse cx="511.218" cy="250.831" rx="13.157" ry="12.9397" fill="#FA9696"/>
<path d="M510.071 255.808H506.157V244.95H510.103C511.214 244.95 512.17 245.167 512.971 245.602C513.773 246.033 514.389 246.654 514.821 247.463C515.255 248.273 515.473 249.241 515.473 250.369C515.473 251.5 515.255 252.472 514.821 253.285C514.389 254.098 513.769 254.722 512.961 255.156C512.156 255.591 511.192 255.808 510.071 255.808ZM508.492 253.841H509.974C510.664 253.841 511.245 253.721 511.715 253.481C512.19 253.237 512.546 252.861 512.783 252.352C513.024 251.839 513.144 251.178 513.144 250.369C513.144 249.566 513.024 248.911 512.783 248.402C512.546 247.893 512.192 247.518 511.721 247.278C511.25 247.037 510.67 246.917 509.979 246.917H508.492V253.841Z" fill="black"/>
<rect x="52.2346" y="178.671" width="441.277" height="89.578" fill="#D9D9D9" stroke="black"/>
<path d="M459.368 241.774L461.47 239.683L465.674 239.683L465.674 222.961L461.47 222.961L438.348 222.961L438.348 226.097L438.348 239.683L442.552 239.683L444.654 241.774L444.654 243.864L452.011 243.864L459.368 243.864L459.368 241.774Z" fill="black" stroke="black"/>
<path d="M429.006 241.774L431.108 239.683L435.312 239.683L435.312 222.961L431.108 222.961L407.986 222.961L407.986 226.097L407.986 239.683L412.19 239.683L414.292 241.774L414.292 243.864L421.649 243.864L429.006 243.864L429.006 241.774Z" fill="black" stroke="black"/>
<path d="M398.643 241.774L400.745 239.683L404.949 239.683L404.949 222.961L400.745 222.961L377.623 222.961L377.623 226.097L377.623 239.683L381.827 239.683L383.929 241.774L383.929 243.864L391.286 243.864L398.643 243.864L398.643 241.774Z" fill="black" stroke="black"/>
<path d="M368.28 241.774L370.382 239.683L374.586 239.683L374.586 222.961L370.382 222.961L347.26 222.961L347.26 226.097L347.26 239.683L351.464 239.683L353.566 241.774L353.566 243.864L360.923 243.864L368.28 243.864L368.28 241.774Z" fill="black" stroke="black"/>
<path d="M337.918 241.774L340.02 239.683L344.224 239.683L344.224 222.961L340.02 222.961L316.898 222.961L316.898 226.097L316.898 239.683L321.102 239.683L323.204 241.774L323.204 243.864L330.561 243.864L337.918 243.864L337.918 241.774Z" fill="black" stroke="black"/>
<path d="M307.556 241.774L309.658 239.683L313.862 239.683L313.862 222.961L309.658 222.961L286.536 222.961L286.536 226.097L286.536 239.683L290.74 239.683L292.842 241.774L292.842 243.864L300.199 243.864L307.556 243.864L307.556 241.774Z" fill="black" stroke="black"/>
<path d="M268.086 241.774L270.188 239.683L274.392 239.683L274.392 222.961L270.188 222.961L247.066 222.961L247.066 226.097L247.066 239.683L251.27 239.683L253.372 241.774L253.372 243.864L260.729 243.864L268.086 243.864L268.086 241.774Z" fill="black" stroke="black"/>
<path d="M237.724 241.774L239.826 239.683L244.03 239.683L244.03 222.961L239.826 222.961L216.703 222.961L216.703 226.097L216.703 239.683L220.907 239.683L223.009 241.774L223.009 243.864L230.367 243.864L237.724 243.864L237.724 241.774Z" fill="black" stroke="black"/>
<path d="M207.361 241.774L209.463 239.683L213.667 239.683L213.667 222.961L209.463 222.961L186.341 222.961L186.341 226.097L186.341 239.683L190.545 239.683L192.647 241.774L192.647 243.864L200.004 243.864L207.361 243.864L207.361 241.774Z" fill="black" stroke="black"/>
<path d="M176.999 241.774L179.101 239.683L183.305 239.683L183.305 222.961L179.101 222.961L155.979 222.961L155.979 226.097L155.979 239.683L160.183 239.683L162.285 241.774L162.285 243.864L169.642 243.864L176.999 243.864L176.999 241.774Z" fill="black" stroke="black"/>
<path d="M146.636 241.774L148.738 239.683L152.942 239.683L152.942 222.961L148.738 222.961L125.616 222.961L125.616 226.097L125.616 239.683L129.82 239.683L131.922 241.774L131.922 243.864L139.279 243.864L146.636 243.864L146.636 241.774Z" fill="black" stroke="black"/>
<path d="M116.274 241.774L118.376 239.683L122.58 239.683L122.58 222.961L118.376 222.961L95.2543 222.961L95.2543 226.097L95.2543 239.683L99.4583 239.683L101.56 241.774L101.56 243.864L108.917 243.864L116.274 243.864L116.274 241.774Z" fill="black" stroke="black"/>
<path d="M292.842 197.181L290.74 199.271H286.536V215.993H290.74H313.862V212.858V199.271H309.658L307.556 197.181V195.091H300.199H292.842V197.181Z" fill="black" stroke="black"/>
<path d="M323.205 197.181L321.103 199.271H316.899V215.993H321.103H344.225V212.858V199.271H340.021L337.919 197.181V195.091H330.562H323.205V197.181Z" fill="black" stroke="black"/>
<path d="M353.567 197.181L351.465 199.271H347.261V215.993H351.465H374.587V212.858V199.271H370.383L368.281 197.181V195.091H360.924H353.567V197.181Z" fill="black" stroke="black"/>
<path d="M383.929 197.181L381.827 199.271H377.623V215.993H381.827H404.949V212.858V199.271H400.745L398.643 197.181V195.091H391.286H383.929V197.181Z" fill="black" stroke="black"/>
<path d="M414.291 197.181L412.189 199.271H407.985V215.993H412.189H435.311V212.858V199.271H431.107L429.005 197.181V195.091H421.648H414.291V197.181Z" fill="black" stroke="black"/>
<path d="M444.654 197.181L442.552 199.271H438.348V215.993H442.552H465.674V212.858V199.271H461.47L459.368 197.181V195.091H452.011H444.654V197.181Z" fill="black" stroke="black"/>
<path d="M101.56 197.181L99.4582 199.271H95.2542V215.993H99.4582H122.58V212.858V199.271H118.376L116.274 197.181V195.091H108.917H101.56V197.181Z" fill="black" stroke="black"/>
<path d="M131.922 197.181L129.82 199.271H125.616V215.993H129.82H152.942V212.858V199.271H148.738L146.636 197.181V195.091H139.279H131.922V197.181Z" fill="black" stroke="black"/>
<path d="M162.284 197.181L160.182 199.271H155.978V215.993H160.182H183.304V212.858V199.271H179.1L176.998 197.181V195.091H169.641H162.284V197.181Z" fill="black" stroke="black"/>
<path d="M192.647 197.181L190.545 199.271H186.341V215.993H190.545H213.667V212.858V199.271H209.463L207.361 197.181V195.091H200.004H192.647V197.181Z" fill="black" stroke="black"/>
<path d="M223.009 197.181L220.907 199.271H216.703V215.993H220.907H244.029V212.858V199.271H239.825L237.723 197.181V195.091H230.366H223.009V197.181Z" fill="black" stroke="black"/>
<path d="M253.371 197.181L251.269 199.271H247.065V215.993H251.269H274.392V212.858V199.271H270.187L268.085 197.181V195.091H260.728H253.371V197.181Z" fill="black" stroke="black"/>
<ellipse cx="68.9395" cy="250.831" rx="13.157" ry="12.9397" fill="#FA9696"/>
<path d="M73.8151 248.751H71.4538C71.4107 248.451 71.3226 248.184 71.1896 247.951C71.0567 247.714 70.8859 247.512 70.6775 247.346C70.469 247.18 70.2282 247.053 69.9551 246.964C69.6855 246.876 69.3926 246.832 69.0764 246.832C68.5049 246.832 68.0071 246.972 67.583 247.251C67.1589 247.527 66.8301 247.929 66.5965 248.46C66.3629 248.986 66.2461 249.626 66.2461 250.379C66.2461 251.153 66.3629 251.803 66.5965 252.33C66.8337 252.857 67.1643 253.254 67.5884 253.523C68.0125 253.792 68.5031 253.926 69.0602 253.926C69.3729 253.926 69.6622 253.885 69.9281 253.804C70.1977 253.723 70.4367 253.604 70.6451 253.449C70.8536 253.29 71.0261 253.097 71.1627 252.871C71.3028 252.645 71.3999 252.387 71.4538 252.097L73.8151 252.107C73.754 252.606 73.6012 253.087 73.3568 253.55C73.116 254.009 72.7908 254.421 72.3811 254.785C71.9749 255.145 71.4897 255.432 70.9255 255.644C70.3648 255.852 69.7305 255.957 69.0224 255.957C68.0377 255.957 67.1571 255.738 66.3808 255.299C65.6081 254.861 64.9971 254.226 64.5479 253.396C64.1022 252.565 63.8794 251.56 63.8794 250.379C63.8794 249.195 64.1058 248.187 64.5587 247.357C65.0115 246.526 65.6261 245.893 66.4024 245.459C67.1787 245.02 68.0521 244.801 69.0224 244.801C69.6622 244.801 70.2552 244.89 70.8015 245.066C71.3514 245.243 71.8384 245.501 72.2625 245.84C72.6865 246.176 73.0316 246.588 73.2975 247.076C73.5671 247.564 73.7396 248.122 73.8151 248.751Z" fill="black"/>
<rect x="494.512" y="89.0879" width="439.253" height="88.5827" fill="#D9D9D9" stroke="black"/>
<path d="M901.645 152.19L903.747 150.1L907.951 150.1L907.951 133.378L903.747 133.378L880.625 133.378L880.625 136.514L880.625 150.1L884.829 150.1L886.931 152.19L886.931 154.281L894.288 154.281L901.645 154.281L901.645 152.19Z" fill="black" stroke="black"/>
<path d="M871.283 152.19L873.385 150.1L877.589 150.1L877.589 133.378L873.385 133.378L850.263 133.378L850.263 136.514L850.263 150.1L854.467 150.1L856.569 152.19L856.569 154.281L863.926 154.281L871.283 154.281L871.283 152.19Z" fill="black" stroke="black"/>
<path d="M840.921 152.19L843.023 150.1L847.227 150.1L847.227 133.378L843.023 133.378L819.901 133.378L819.901 136.514L819.901 150.1L824.105 150.1L826.207 152.19L826.207 154.281L833.564 154.281L840.921 154.281L840.921 152.19Z" fill="black" stroke="black"/>
<path d="M810.559 152.19L812.661 150.1L816.865 150.1L816.865 133.378L812.661 133.378L789.539 133.378L789.539 136.514L789.539 150.1L793.743 150.1L795.845 152.19L795.845 154.281L803.202 154.281L810.559 154.281L810.559 152.19Z" fill="black" stroke="black"/>
<path d="M780.196 152.19L782.298 150.1L786.502 150.1L786.502 133.378L782.298 133.378L759.176 133.378L759.176 136.514L759.176 150.1L763.38 150.1L765.482 152.19L765.482 154.281L772.839 154.281L780.196 154.281L780.196 152.19Z" fill="black" stroke="black"/>
<path d="M749.834 152.19L751.936 150.1L756.14 150.1L756.14 133.378L751.936 133.378L728.814 133.378L728.814 136.514L728.814 150.1L733.018 150.1L735.12 152.19L735.12 154.281L742.477 154.281L749.834 154.281L749.834 152.19Z" fill="black" stroke="black"/>
<path d="M710.363 152.19L712.465 150.1L716.669 150.1L716.669 133.378L712.465 133.378L689.343 133.378L689.343 136.514L689.343 150.1L693.547 150.1L695.649 152.19L695.649 154.281L703.006 154.281L710.363 154.281L710.363 152.19Z" fill="black" stroke="black"/>
<path d="M680.001 152.19L682.103 150.1L686.307 150.1L686.307 133.378L682.103 133.378L658.981 133.378L658.981 136.514L658.981 150.1L663.185 150.1L665.287 152.19L665.287 154.281L672.644 154.281L680.001 154.281L680.001 152.19Z" fill="black" stroke="black"/>
<path d="M649.639 152.19L651.741 150.1L655.945 150.1L655.945 133.378L651.741 133.378L628.619 133.378L628.619 136.514L628.619 150.1L632.823 150.1L634.925 152.19L634.925 154.281L642.282 154.281L649.639 154.281L649.639 152.19Z" fill="black" stroke="black"/>
<path d="M619.276 152.19L621.378 150.1L625.582 150.1L625.582 133.378L621.378 133.378L598.256 133.378L598.256 136.514L598.256 150.1L602.46 150.1L604.562 152.19L604.562 154.281L611.919 154.281L619.276 154.281L619.276 152.19Z" fill="black" stroke="black"/>
<path d="M588.914 152.19L591.016 150.1L595.22 150.1L595.22 133.378L591.016 133.378L567.894 133.378L567.894 136.514L567.894 150.1L572.098 150.1L574.2 152.19L574.2 154.281L581.557 154.281L588.914 154.281L588.914 152.19Z" fill="black" stroke="black"/>
<path d="M558.551 152.19L560.653 150.1L564.857 150.1L564.857 133.378L560.653 133.378L537.531 133.378L537.531 136.514L537.531 150.1L541.735 150.1L543.837 152.19L543.837 154.281L551.194 154.281L558.551 154.281L558.551 152.19Z" fill="black" stroke="black"/>
<path d="M735.12 107.599L733.018 109.689H728.814V126.411H733.018H756.14V123.276V109.689H751.936L749.834 107.599V105.509H742.477H735.12V107.599Z" fill="black" stroke="black"/>
<path d="M765.482 107.599L763.38 109.689H759.176V126.411H763.38H786.502V123.276V109.689H782.298L780.196 107.599V105.509H772.839H765.482V107.599Z" fill="black" stroke="black"/>
<path d="M795.845 107.599L793.743 109.689H789.539V126.411H793.743H816.865V123.276V109.689H812.661L810.559 107.599V105.509H803.202H795.845V107.599Z" fill="black" stroke="black"/>
<path d="M826.207 107.599L824.105 109.689H819.901V126.411H824.105H847.227V123.276V109.689H843.023L840.921 107.599V105.509H833.564H826.207V107.599Z" fill="black" stroke="black"/>
<path d="M856.569 107.599L854.467 109.689H850.263V126.411H854.467H877.589V123.276V109.689H873.385L871.283 107.599V105.509H863.926H856.569V107.599Z" fill="black" stroke="black"/>
<path d="M886.931 107.599L884.829 109.689H880.625V126.411H884.829H907.951V123.276V109.689H903.747L901.645 107.599V105.509H894.288H886.931V107.599Z" fill="black" stroke="black"/>
<path d="M543.838 107.599L541.736 109.689H537.531V126.411H541.736H564.858V123.276V109.689H560.654L558.552 107.599V105.509H551.195H543.838V107.599Z" fill="black" stroke="black"/>
<path d="M574.2 107.599L572.098 109.689H567.894V126.411H572.098H595.22V123.276V109.689H591.016L588.914 107.599V105.509H581.557H574.2V107.599Z" fill="black" stroke="black"/>
<path d="M604.562 107.599L602.46 109.689H598.256V126.411H602.46H625.582V123.276V109.689H621.378L619.276 107.599V105.509H611.919H604.562V107.599Z" fill="black" stroke="black"/>
<path d="M634.924 107.599L632.822 109.689H628.618V126.411H632.822H655.944V123.276V109.689H651.74L649.638 107.599V105.509H642.281H634.924V107.599Z" fill="black" stroke="black"/>
<path d="M665.287 107.599L663.185 109.689H658.981V126.411H663.185H686.307V123.276V109.689H682.103L680.001 107.599V105.509H672.644H665.287V107.599Z" fill="black" stroke="black"/>
<path d="M695.648 107.599L693.546 109.689H689.342V126.411H693.546H716.668V123.276V109.689H712.464L710.362 107.599V105.509H703.005H695.648V107.599Z" fill="black" stroke="black"/>
<ellipse cx="511.218" cy="161.248" rx="13.157" ry="12.9397" fill="#FA9696"/>
<path d="M507.168 166.226V155.367H511.589C512.401 155.367 513.079 155.486 513.622 155.722C514.164 155.959 514.572 156.288 514.845 156.709C515.118 157.126 515.255 157.606 515.255 158.151C515.255 158.575 515.169 158.948 514.996 159.269C514.824 159.588 514.587 159.849 514.285 160.054C513.986 160.256 513.645 160.399 513.26 160.484V160.59C513.681 160.607 514.074 160.724 514.441 160.94C514.811 161.155 515.111 161.457 515.341 161.846C515.571 162.232 515.686 162.691 515.686 163.225C515.686 163.801 515.541 164.315 515.25 164.768C514.962 165.217 514.536 165.572 513.972 165.833C513.408 166.095 512.712 166.226 511.886 166.226H507.168ZM509.503 164.349H511.406C512.056 164.349 512.531 164.227 512.829 163.983C513.127 163.736 513.276 163.407 513.276 162.997C513.276 162.696 513.203 162.431 513.055 162.201C512.908 161.972 512.698 161.791 512.425 161.661C512.155 161.53 511.833 161.464 511.46 161.464H509.503V164.349ZM509.503 159.911H511.233C511.553 159.911 511.837 159.856 512.085 159.747C512.337 159.634 512.534 159.474 512.678 159.269C512.825 159.064 512.899 158.819 512.899 158.532C512.899 158.14 512.757 157.824 512.473 157.583C512.193 157.343 511.794 157.223 511.276 157.223H509.503V159.911Z" fill="black"/>
<rect x="52.2346" y="89.0879" width="441.277" height="88.5827" fill="#D9D9D9" stroke="black"/>
<path d="M459.368 152.19L461.47 150.1L465.674 150.1L465.674 133.378L461.47 133.378L438.348 133.378L438.348 136.514L438.348 150.1L442.552 150.1L444.654 152.19L444.654 154.281L452.011 154.281L459.368 154.281L459.368 152.19Z" fill="black" stroke="black"/>
<path d="M429.006 152.19L431.108 150.1L435.312 150.1L435.312 133.378L431.108 133.378L407.986 133.378L407.986 136.514L407.986 150.1L412.19 150.1L414.292 152.19L414.292 154.281L421.649 154.281L429.006 154.281L429.006 152.19Z" fill="black" stroke="black"/>
<path d="M398.643 152.19L400.745 150.1L404.949 150.1L404.949 133.378L400.745 133.378L377.623 133.378L377.623 136.514L377.623 150.1L381.827 150.1L383.929 152.19L383.929 154.281L391.286 154.281L398.643 154.281L398.643 152.19Z" fill="black" stroke="black"/>
<path d="M368.28 152.19L370.382 150.1L374.586 150.1L374.586 133.378L370.382 133.378L347.26 133.378L347.26 136.514L347.26 150.1L351.464 150.1L353.566 152.19L353.566 154.281L360.923 154.281L368.28 154.281L368.28 152.19Z" fill="black" stroke="black"/>
<path d="M337.918 152.19L340.02 150.1L344.224 150.1L344.224 133.378L340.02 133.378L316.898 133.378L316.898 136.514L316.898 150.1L321.102 150.1L323.204 152.19L323.204 154.281L330.561 154.281L337.918 154.281L337.918 152.19Z" fill="black" stroke="black"/>
<path d="M307.556 152.19L309.658 150.1L313.862 150.1L313.862 133.378L309.658 133.378L286.536 133.378L286.536 136.514L286.536 150.1L290.74 150.1L292.842 152.19L292.842 154.281L300.199 154.281L307.556 154.281L307.556 152.19Z" fill="black" stroke="black"/>
<path d="M268.086 152.19L270.188 150.1L274.392 150.1L274.392 133.378L270.188 133.378L247.066 133.378L247.066 136.514L247.066 150.1L251.27 150.1L253.372 152.19L253.372 154.281L260.729 154.281L268.086 154.281L268.086 152.19Z" fill="black" stroke="black"/>
<path d="M237.724 152.19L239.826 150.1L244.03 150.1L244.03 133.378L239.826 133.378L216.703 133.378L216.703 136.514L216.703 150.1L220.907 150.1L223.009 152.19L223.009 154.281L230.367 154.281L237.724 154.281L237.724 152.19Z" fill="black" stroke="black"/>
<path d="M207.361 152.19L209.463 150.1L213.667 150.1L213.667 133.378L209.463 133.378L186.341 133.378L186.341 136.514L186.341 150.1L190.545 150.1L192.647 152.19L192.647 154.281L200.004 154.281L207.361 154.281L207.361 152.19Z" fill="black" stroke="black"/>
<path d="M176.999 152.19L179.101 150.1L183.305 150.1L183.305 133.378L179.101 133.378L155.979 133.378L155.979 136.514L155.979 150.1L160.183 150.1L162.285 152.19L162.285 154.281L169.642 154.281L176.999 154.281L176.999 152.19Z" fill="black" stroke="black"/>
<path d="M146.636 152.19L148.738 150.1L152.942 150.1L152.942 133.378L148.738 133.378L125.616 133.378L125.616 136.514L125.616 150.1L129.82 150.1L131.922 152.19L131.922 154.281L139.279 154.281L146.636 154.281L146.636 152.19Z" fill="black" stroke="black"/>
<path d="M116.274 152.19L118.376 150.1L122.58 150.1L122.58 133.378L118.376 133.378L95.2543 133.378L95.2543 136.514L95.2543 150.1L99.4583 150.1L101.56 152.19L101.56 154.281L108.917 154.281L116.274 154.281L116.274 152.19Z" fill="black" stroke="black"/>
<path d="M292.842 107.599L290.74 109.689H286.536V126.411H290.74H313.862V123.276V109.689H309.658L307.556 107.599V105.509H300.199H292.842V107.599Z" fill="black" stroke="black"/>
<path d="M323.205 107.599L321.103 109.689H316.899V126.411H321.103H344.225V123.276V109.689H340.021L337.919 107.599V105.509H330.562H323.205V107.599Z" fill="black" stroke="black"/>
<path d="M353.567 107.599L351.465 109.689H347.261V126.411H351.465H374.587V123.276V109.689H370.383L368.281 107.599V105.509H360.924H353.567V107.599Z" fill="black" stroke="black"/>
<path d="M383.929 107.599L381.827 109.689H377.623V126.411H381.827H404.949V123.276V109.689H400.745L398.643 107.599V105.509H391.286H383.929V107.599Z" fill="black" stroke="black"/>
<path d="M414.291 107.599L412.189 109.689H407.985V126.411H412.189H435.311V123.276V109.689H431.107L429.005 107.599V105.509H421.648H414.291V107.599Z" fill="black" stroke="black"/>
<path d="M444.654 107.599L442.552 109.689H438.348V126.411H442.552H465.674V123.276V109.689H461.47L459.368 107.599V105.509H452.011H444.654V107.599Z" fill="black" stroke="black"/>
<path d="M101.56 107.599L99.4582 109.689H95.2542V126.411H99.4582H122.58V123.276V109.689H118.376L116.274 107.599V105.509H108.917H101.56V107.599Z" fill="black" stroke="black"/>
<path d="M131.922 107.599L129.82 109.689H125.616V126.411H129.82H152.942V123.276V109.689H148.738L146.636 107.599V105.509H139.279H131.922V107.599Z" fill="black" stroke="black"/>
<path d="M162.284 107.599L160.182 109.689H155.978V126.411H160.182H183.304V123.276V109.689H179.1L176.998 107.599V105.509H169.641H162.284V107.599Z" fill="black" stroke="black"/>
<path d="M192.647 107.599L190.545 109.689H186.341V126.411H190.545H213.667V123.276V109.689H209.463L207.361 107.599V105.509H200.004H192.647V107.599Z" fill="black" stroke="black"/>
<path d="M223.009 107.599L220.907 109.689H216.703V126.411H220.907H244.029V123.276V109.689H239.825L237.723 107.599V105.509H230.366H223.009V107.599Z" fill="black" stroke="black"/>
<path d="M253.371 107.599L251.269 109.689H247.065V126.411H251.269H274.392V123.276V109.689H270.187L268.085 107.599V105.509H260.728H253.371V107.599Z" fill="black" stroke="black"/>
<ellipse cx="68.9395" cy="161.248" rx="13.157" ry="12.9397" fill="#FA9696"/>
<path d="M66.3808 166.226H63.8794L67.6909 155.367H70.6991L74.5051 166.226H72.0037L69.2381 157.849H69.1518L66.3808 166.226ZM66.2245 161.958H72.1331V163.75H66.2245V161.958Z" fill="black"/>
</svg>
