<svg width="972" height="647" viewBox="0 0 972 647" fill="none" xmlns="http://www.w3.org/2000/svg">
<mask id="path-1-inside-1_339_52758" fill="white">
<path d="M0 0H51V16H0V0Z"/>
</mask>
<path d="M0 0H51V16H0V0Z" fill="#D9D9D9"/>
<path d="M0 0V-2H-2V0H0ZM51 0H53V-2H51V0ZM51 16V18H53V16H51ZM0 16H-2V18H0V16ZM0 0V2H51V0V-2H0V0ZM51 0H49V16H51H53V0H51ZM51 16V14H0V16V18H51V16ZM0 16H2V0H0H-2V16H0Z" fill="black" mask="url(#path-1-inside-1_339_52758)"/>
<mask id="path-3-inside-2_339_52758" fill="white">
<path d="M0 631H51V647H0V631Z"/>
</mask>
<path d="M0 631H51V647H0V631Z" fill="#D9D9D9"/>
<path d="M0 631V629H-2V631H0ZM51 631H53V629H51V631ZM51 647V649H53V647H51ZM0 647H-2V649H0V647ZM0 631V633H51V631V629H0V631ZM51 631H49V647H51H53V631H51ZM51 647V645H0V647V649H51V647ZM0 647H2V631H0H-2V647H0Z" fill="black" mask="url(#path-3-inside-2_339_52758)"/>
<mask id="path-5-inside-3_339_52758" fill="white">
<path d="M921 631H972V647H921V631Z"/>
</mask>
<path d="M921 631H972V647H921V631Z" fill="#D9D9D9"/>
<path d="M921 631V629H919V631H921ZM972 631H974V629H972V631ZM972 647V649H974V647H972ZM921 647H919V649H921V647ZM921 631V633H972V631V629H921V631ZM972 631H970V647H972H974V631H972ZM972 647V645H921V647V649H972V647ZM921 647H923V631H921H919V647H921Z" fill="black" mask="url(#path-5-inside-3_339_52758)"/>
<mask id="path-7-inside-4_339_52758" fill="white">
<path d="M921 1H972V16H921V1Z"/>
</mask>
<path d="M921 1H972V16H921V1Z" fill="#D9D9D9"/>
<path d="M921 1V-1H919V1H921ZM972 1H974V-1H972V1ZM972 16V18H974V16H972ZM921 16H919V18H921V16ZM921 1V3H972V1V-1H921V1ZM972 1H970V16H972H974V1H972ZM972 16V14H921V16V18H972V16ZM921 16H923V1H921H919V16H921Z" fill="black" mask="url(#path-7-inside-4_339_52758)"/>
<path d="M51 14H972V18H51V14Z" fill="#1E1E1E"/>
<mask id="path-10-inside-5_339_52758" fill="white">
<path d="M0 16H51V631H0V16Z"/>
</mask>
<path d="M0 16H51V631H0V16Z" fill="#D9D9D9"/>
<path d="M0 16V14H-2V16H0ZM51 16H53V14H51V16ZM51 631V633H53V631H51ZM0 631H-2V633H0V631ZM0 16V18H51V16V14H0V16ZM51 16H49V631H51H53V16H51ZM51 631V629H0V631V633H51V631ZM0 631H2V16H0H-2V631H0Z" fill="black" mask="url(#path-10-inside-5_339_52758)"/>
<mask id="path-12-inside-6_339_52758" fill="white">
<path d="M921 18H972V631H921V18Z"/>
</mask>
<path d="M921 18H972V631H921V18Z" fill="#D9D9D9"/>
<path d="M972 631V633H974V631H972ZM921 631H919V633H921V631ZM972 18H970V631H972H974V18H972ZM972 631V629H921V631V633H972V631ZM921 631H923V18H921H919V631H921Z" fill="black" mask="url(#path-12-inside-6_339_52758)"/>
<rect x="51" y="18" width="870" height="71" fill="#BFBFBF"/>
<path d="M322.231 45.1L320.154 47.2H316V64H320.154H343V60.85V47.2H338.846L336.769 45.1V43H329.5H322.231V45.1Z" fill="black" stroke="black"/>
<rect x="86" y="56" width="12" height="12" fill="#D9D9D9"/>
<rect x="100" y="56" width="12" height="12" fill="#D9D9D9"/>
<rect x="114" y="56" width="12" height="12" fill="#D9D9D9"/>
<rect x="131" y="47" width="10" height="10" fill="#D9D9D9"/>
<rect x="131" y="58" width="10" height="10" fill="#D9D9D9"/>
<rect x="144" y="58" width="10" height="10" fill="#D9D9D9"/>
<rect x="144" y="47" width="10" height="10" fill="#D9D9D9"/>
<rect x="144" y="36" width="10" height="10" fill="#D9D9D9"/>
<rect x="160" y="58" width="10" height="10" fill="#D9D9D9"/>
<rect x="160" y="47" width="10" height="10" fill="#D9D9D9"/>
<rect x="160" y="36" width="10" height="10" fill="#D9D9D9"/>
<rect x="176" y="58" width="10" height="10" fill="#D9D9D9"/>
<rect x="176" y="47" width="10" height="10" fill="#D9D9D9"/>
<rect x="187" y="47" width="10" height="10" fill="#D9D9D9"/>
<rect x="187" y="58" width="10" height="10" fill="#D9D9D9"/>
<rect x="202" y="58" width="10" height="10" fill="#D9D9D9"/>
<rect x="202" y="47" width="10" height="10" fill="#D9D9D9"/>
<rect x="213" y="47" width="10" height="10" fill="#D9D9D9"/>
<rect x="202" y="36" width="10" height="10" fill="#D9D9D9"/>
<rect x="213" y="36" width="10" height="10" fill="#D9D9D9"/>
<rect x="229" y="36" width="10" height="10" fill="#D9D9D9"/>
<rect x="240" y="36" width="10" height="10" fill="#D9D9D9"/>
<rect x="213" y="58" width="10" height="10" fill="#D9D9D9"/>
<rect x="229" y="58" width="10" height="10" fill="#D9D9D9"/>
<rect x="229" y="47" width="10" height="10" fill="#D9D9D9"/>
<rect x="240" y="47" width="10" height="10" fill="#D9D9D9"/>
<rect x="240" y="58" width="10" height="10" fill="#D9D9D9"/>
<rect x="279" y="36" width="10" height="10" fill="#D9D9D9"/>
<rect x="279" y="58" width="10" height="10" fill="#D9D9D9"/>
<rect x="279" y="47" width="10" height="10" fill="#D9D9D9"/>
<rect x="290" y="47" width="10" height="10" fill="#D9D9D9"/>
<rect x="290" y="58" width="10" height="10" fill="#D9D9D9"/>
<rect x="563" y="58" width="10" height="10" fill="#D9D9D9"/>
<rect x="563" y="47" width="10" height="10" fill="#D9D9D9"/>
<rect x="445" y="59" width="10" height="10" fill="#D9D9D9"/>
<rect x="445" y="48" width="10" height="10" fill="#D9D9D9"/>
<rect x="445" y="37" width="10" height="10" fill="#D9D9D9"/>
<rect x="574" y="47" width="10" height="10" fill="#D9D9D9"/>
<rect x="574" y="58" width="10" height="10" fill="#D9D9D9"/>
<rect x="605" y="58" width="10" height="10" fill="#D9D9D9"/>
<rect x="605" y="47" width="10" height="10" fill="#D9D9D9"/>
<rect x="616" y="47" width="10" height="10" fill="#D9D9D9"/>
<rect x="616" y="58" width="10" height="10" fill="#D9D9D9"/>
<rect x="632" y="58" width="10" height="10" fill="#D9D9D9"/>
<rect x="632" y="47" width="10" height="10" fill="#D9D9D9"/>
<rect x="643" y="47" width="10" height="10" fill="#D9D9D9"/>
<rect x="632" y="36" width="10" height="10" fill="#D9D9D9"/>
<rect x="643" y="36" width="10" height="10" fill="#D9D9D9"/>
<rect x="643" y="58" width="10" height="10" fill="#D9D9D9"/>
<rect x="542" y="58" width="10" height="12" transform="rotate(90 542 58)" fill="#D9D9D9"/>
<rect x="554" y="58" width="10" height="11" transform="rotate(90 554 58)" fill="#D9D9D9"/>
<rect x="529" y="58" width="10" height="11" transform="rotate(90 529 58)" fill="#D9D9D9"/>
<rect x="660" y="58" width="10" height="10" fill="#D9D9D9"/>
<rect x="660" y="47" width="10" height="10" fill="#D9D9D9"/>
<rect x="671" y="47" width="10" height="10" fill="#D9D9D9"/>
<rect x="660" y="36" width="10" height="10" fill="#D9D9D9"/>
<rect x="671" y="36" width="10" height="10" fill="#D9D9D9"/>
<rect x="671" y="58" width="10" height="10" fill="#D9D9D9"/>
<rect x="709" y="58" width="10" height="10" fill="#D9D9D9"/>
<rect x="709" y="47" width="10" height="10" fill="#D9D9D9"/>
<rect x="720" y="47" width="10" height="10" fill="#D9D9D9"/>
<rect x="709" y="36" width="10" height="10" fill="#D9D9D9"/>
<rect x="720" y="58" width="10" height="10" fill="#D9D9D9"/>
<rect x="574" y="36" width="10" height="10" fill="#D9D9D9"/>
<rect x="591" y="47" width="10" height="10" fill="#D9D9D9"/>
<rect x="591" y="58" width="10" height="10" fill="#D9D9D9"/>
<rect x="591" y="36" width="10" height="10" fill="#D9D9D9"/>
<rect x="430" y="59" width="11" height="9" fill="#8CFF00"/>
<path d="M394.769 65.9L396.846 63.8L401 63.8L401 47L396.846 47L374 47L374 50.15L374 63.8L378.154 63.8L380.231 65.9L380.231 68L387.5 68L394.769 68L394.769 65.9Z" fill="black" stroke="black"/>
<path d="M756.231 45.1L754.154 47.2H750V64H754.154H777V60.85V47.2H772.846L770.769 45.1V43H763.5H756.231V45.1Z" fill="black" stroke="black"/>
<path d="M828.769 65.9L830.846 63.8L835 63.8L835 47L830.846 47L808 47L808 50.15L808 63.8L812.154 63.8L814.231 65.9L814.231 68L821.5 68L828.769 68L828.769 65.9Z" fill="black" stroke="black"/>
<rect x="861" y="59" width="11" height="9" fill="#8CFF00"/>
<rect x="487.498" y="541.5" width="433.002" height="89" fill="#D9D9D9" stroke="black"/>
<path d="M888.843 604.9L890.915 602.8L895.06 602.8L895.06 586L890.915 586L868.121 586L868.121 589.15L868.121 602.8L872.266 602.8L874.338 604.9L874.338 607L881.591 607L888.843 607L888.843 604.9Z" fill="black" stroke="black"/>
<path d="M858.912 604.9L860.984 602.8L865.128 602.8L865.128 586L860.984 586L838.19 586L838.19 589.15L838.19 602.8L842.335 602.8L844.407 604.9L844.407 607L851.659 607L858.912 607L858.912 604.9Z" fill="black" stroke="black"/>
<path d="M828.981 604.9L831.053 602.8L835.197 602.8L835.197 586L831.053 586L808.259 586L808.259 589.15L808.259 602.8L812.404 602.8L814.476 604.9L814.476 607L821.728 607L828.981 607L828.981 604.9Z" fill="black" stroke="black"/>
<path d="M799.05 604.9L801.122 602.8L805.266 602.8L805.266 586L801.122 586L778.328 586L778.328 589.15L778.328 602.8L782.472 602.8L784.545 604.9L784.545 607L791.797 607L799.05 607L799.05 604.9Z" fill="black" stroke="black"/>
<path d="M769.118 604.9L771.191 602.8L775.335 602.8L775.335 586L771.191 586L748.397 586L748.397 589.15L748.397 602.8L752.541 602.8L754.613 604.9L754.613 607L761.866 607L769.118 607L769.118 604.9Z" fill="black" stroke="black"/>
<path d="M739.187 604.9L741.259 602.8L745.404 602.8L745.404 586L741.259 586L718.466 586L718.466 589.15L718.466 602.8L722.61 602.8L724.682 604.9L724.682 607L731.935 607L739.187 607L739.187 604.9Z" fill="black" stroke="black"/>
<path d="M700.277 604.9L702.349 602.8L706.493 602.8L706.493 586L702.349 586L679.555 586L679.555 589.15L679.555 602.8L683.699 602.8L685.772 604.9L685.772 607L693.024 607L700.277 607L700.277 604.9Z" fill="black" stroke="black"/>
<path d="M670.345 604.9L672.418 602.8L676.562 602.8L676.562 586L672.418 586L649.624 586L649.624 589.15L649.624 602.8L653.768 602.8L655.84 604.9L655.84 607L663.093 607L670.345 607L670.345 604.9Z" fill="black" stroke="black"/>
<path d="M640.414 604.9L642.486 602.8L646.631 602.8L646.631 586L642.486 586L619.693 586L619.693 589.15L619.693 602.8L623.837 602.8L625.909 604.9L625.909 607L633.162 607L640.414 607L640.414 604.9Z" fill="black" stroke="black"/>
<path d="M610.483 604.9L612.555 602.8L616.7 602.8L616.7 586L612.555 586L589.762 586L589.762 589.15L589.762 602.8L593.906 602.8L595.978 604.9L595.978 607L603.231 607L610.483 607L610.483 604.9Z" fill="black" stroke="black"/>
<path d="M580.552 604.9L582.624 602.8L586.768 602.8L586.768 586L582.624 586L559.83 586L559.83 589.15L559.83 602.8L563.975 602.8L566.047 604.9L566.047 607L573.299 607L580.552 607L580.552 604.9Z" fill="black" stroke="black"/>
<path d="M550.621 604.9L552.693 602.8L556.837 602.8L556.837 586L552.693 586L529.899 586L529.899 589.15L529.899 602.8L534.043 602.8L536.116 604.9L536.116 607L543.368 607L550.621 607L550.621 604.9Z" fill="black" stroke="black"/>
<path d="M724.682 560.1L722.61 562.2H718.466V579H722.61H745.404V575.85V562.2H741.259L739.187 560.1V558H731.935H724.682V560.1Z" fill="black" stroke="black"/>
<path d="M754.613 560.1L752.541 562.2H748.397V579H752.541H775.335V575.85V562.2H771.19L769.118 560.1V558H761.866H754.613V560.1Z" fill="black" stroke="black"/>
<path d="M784.544 560.1L782.472 562.2H778.328V579H782.472H805.266V575.85V562.2H801.122L799.05 560.1V558H791.797H784.544V560.1Z" fill="black" stroke="black"/>
<path d="M814.476 560.1L812.403 562.2H808.259V579H812.403H835.197V575.85V562.2H831.053L828.981 560.1V558H821.728H814.476V560.1Z" fill="black" stroke="black"/>
<path d="M844.407 560.1L842.335 562.2H838.19V579H842.335H865.129V575.85V562.2H860.984L858.912 560.1V558H851.659H844.407V560.1Z" fill="black" stroke="black"/>
<path d="M874.338 560.1L872.266 562.2H868.122V579H872.266H895.06V575.85V562.2H890.915L888.843 560.1V558H881.591H874.338V560.1Z" fill="black" stroke="black"/>
<path d="M536.116 560.1L534.043 562.2H529.899V579H534.043H556.837V575.85V562.2H552.693L550.621 560.1V558H543.368H536.116V560.1Z" fill="black" stroke="black"/>
<path d="M566.047 560.1L563.975 562.2H559.83V579H563.975H586.768V575.85V562.2H582.624L580.552 560.1V558H573.299H566.047V560.1Z" fill="black" stroke="black"/>
<path d="M595.978 560.1L593.906 562.2H589.761V579H593.906H616.7V575.85V562.2H612.555L610.483 560.1V558H603.231H595.978V560.1Z" fill="black" stroke="black"/>
<path d="M625.909 560.1L623.837 562.2H619.693V579H623.837H646.631V575.85V562.2H642.486L640.414 560.1V558H633.162H625.909V560.1Z" fill="black" stroke="black"/>
<path d="M655.84 560.1L653.768 562.2H649.624V579H653.768H676.562V575.85V562.2H672.418L670.345 560.1V558H663.093H655.84V560.1Z" fill="black" stroke="black"/>
<path d="M685.772 560.1L683.699 562.2H679.555V579H683.699H706.493V575.85V562.2H702.349L700.277 560.1V558H693.024H685.772V560.1Z" fill="black" stroke="black"/>
<ellipse cx="503.959" cy="614" rx="12.9702" ry="13" fill="#FA9696"/>
<path d="M500.966 619.909V609H503.267V618.007H507.933V619.909H500.966Z" fill="black"/>
<rect x="51.5" y="541.5" width="434.998" height="89" fill="#D9D9D9" stroke="black"/>
<path d="M452.846 604.9L454.918 602.8L459.062 602.8L459.062 586L454.918 586L432.124 586L432.124 589.15L432.124 602.8L436.268 602.8L438.34 604.9L438.34 607L445.593 607L452.846 607L452.846 604.9Z" fill="black" stroke="black"/>
<path d="M422.914 604.9L424.987 602.8L429.131 602.8L429.131 586L424.987 586L402.193 586L402.193 589.15L402.193 602.8L406.337 602.8L408.409 604.9L408.409 607L415.662 607L422.914 607L422.914 604.9Z" fill="black" stroke="black"/>
<path d="M392.983 604.9L395.055 602.8L399.199 602.8L399.199 586L395.055 586L372.261 586L372.261 589.15L372.261 602.8L376.406 602.8L378.478 604.9L378.478 607L385.73 607L392.983 607L392.983 604.9Z" fill="black" stroke="black"/>
<path d="M363.052 604.9L365.124 602.8L369.268 602.8L369.268 586L365.124 586L342.33 586L342.33 589.15L342.33 602.8L346.475 602.8L348.547 604.9L348.547 607L355.799 607L363.052 607L363.052 604.9Z" fill="black" stroke="black"/>
<path d="M333.121 604.9L335.193 602.8L339.337 602.8L339.337 586L335.193 586L312.399 586L312.399 589.15L312.399 602.8L316.543 602.8L318.616 604.9L318.616 607L325.868 607L333.121 607L333.121 604.9Z" fill="black" stroke="black"/>
<path d="M303.19 604.9L305.262 602.8L309.406 602.8L309.406 586L305.262 586L282.468 586L282.468 589.15L282.468 602.8L286.612 602.8L288.684 604.9L288.684 607L295.937 607L303.19 607L303.19 604.9Z" fill="black" stroke="black"/>
<path d="M264.279 604.9L266.351 602.8L270.495 602.8L270.495 586L266.351 586L243.557 586L243.557 589.15L243.557 602.8L247.702 602.8L249.774 604.9L249.774 607L257.026 607L264.279 607L264.279 604.9Z" fill="black" stroke="black"/>
<path d="M234.348 604.9L236.42 602.8L240.564 602.8L240.564 586L236.42 586L213.626 586L213.626 589.15L213.626 602.8L217.77 602.8L219.843 604.9L219.843 607L227.095 607L234.348 607L234.348 604.9Z" fill="black" stroke="black"/>
<path d="M204.417 604.9L206.489 602.8L210.633 602.8L210.633 586L206.489 586L183.695 586L183.695 589.15L183.695 602.8L187.839 602.8L189.911 604.9L189.911 607L197.164 607L204.417 607L204.417 604.9Z" fill="black" stroke="black"/>
<path d="M174.485 604.9L176.558 602.8L180.702 602.8L180.702 586L176.558 586L153.764 586L153.764 589.15L153.764 602.8L157.908 602.8L159.98 604.9L159.98 607L167.233 607L174.485 607L174.485 604.9Z" fill="black" stroke="black"/>
<path d="M144.554 604.9L146.626 602.8L150.771 602.8L150.771 586L146.626 586L123.833 586L123.833 589.15L123.833 602.8L127.977 602.8L130.049 604.9L130.049 607L137.302 607L144.554 607L144.554 604.9Z" fill="black" stroke="black"/>
<path d="M114.623 604.9L116.695 602.8L120.839 602.8L120.839 586L116.695 586L93.9013 586L93.9013 589.15L93.9013 602.8L98.0456 602.8L100.118 604.9L100.118 607L107.37 607L114.623 607L114.623 604.9Z" fill="black" stroke="black"/>
<path d="M288.684 560.1L286.612 562.2H282.468V579H286.612H309.406V575.85V562.2H305.262L303.189 560.1V558H295.937H288.684V560.1Z" fill="black" stroke="black"/>
<path d="M318.616 560.1L316.543 562.2H312.399V579H316.543H339.337V575.85V562.2H335.193L333.121 560.1V558H325.868H318.616V560.1Z" fill="black" stroke="black"/>
<path d="M348.547 560.1L346.475 562.2H342.33V579H346.475H369.268V575.85V562.2H365.124L363.052 560.1V558H355.799H348.547V560.1Z" fill="black" stroke="black"/>
<path d="M378.478 560.1L376.406 562.2H372.261V579H376.406H399.2V575.85V562.2H395.055L392.983 560.1V558H385.731H378.478V560.1Z" fill="black" stroke="black"/>
<path d="M408.409 560.1L406.337 562.2H402.193V579H406.337H429.131V575.85V562.2H424.986L422.914 560.1V558H415.662H408.409V560.1Z" fill="black" stroke="black"/>
<path d="M438.34 560.1L436.268 562.2H432.124V579H436.268H459.062V575.85V562.2H454.918L452.845 560.1V558H445.593H438.34V560.1Z" fill="black" stroke="black"/>
<path d="M100.118 560.1L98.0457 562.2H93.9014V579H98.0457H120.839V575.85V562.2H116.695L114.623 560.1V558H107.37H100.118V560.1Z" fill="black" stroke="black"/>
<path d="M130.049 560.1L127.977 562.2H123.833V579H127.977H150.771V575.85V562.2H146.626L144.554 560.1V558H137.302H130.049V560.1Z" fill="black" stroke="black"/>
<path d="M159.98 560.1L157.908 562.2H153.764V579H157.908H180.702V575.85V562.2H176.557L174.485 560.1V558H167.233H159.98V560.1Z" fill="black" stroke="black"/>
<path d="M189.912 560.1L187.839 562.2H183.695V579H187.839H210.633V575.85V562.2H206.489L204.417 560.1V558H197.164H189.912V560.1Z" fill="black" stroke="black"/>
<path d="M219.843 560.1L217.771 562.2H213.626V579H217.771H240.564V575.85V562.2H236.42L234.348 560.1V558H227.095H219.843V560.1Z" fill="black" stroke="black"/>
<path d="M249.774 560.1L247.702 562.2H243.557V579H247.702H270.495V575.85V562.2H266.351L264.279 560.1V558H257.026H249.774V560.1Z" fill="black" stroke="black"/>
<ellipse cx="67.9609" cy="614" rx="12.9702" ry="13" fill="#FA9696"/>
<path d="M62.9724 619.909V609H65.2736V613.81H65.4171L69.3339 609H72.0921L68.0531 613.885L72.1399 619.909H69.387L66.4056 615.424L65.2736 616.809V619.909H62.9724Z" fill="black"/>
<rect x="487.498" y="450.5" width="433.002" height="90" fill="#D9D9D9" stroke="black"/>
<path d="M888.843 513.9L890.915 511.8L895.06 511.8L895.06 495L890.915 495L868.121 495L868.121 498.15L868.121 511.8L872.266 511.8L874.338 513.9L874.338 516L881.591 516L888.843 516L888.843 513.9Z" fill="black" stroke="black"/>
<path d="M858.912 513.9L860.984 511.8L865.128 511.8L865.128 495L860.984 495L838.19 495L838.19 498.15L838.19 511.8L842.335 511.8L844.407 513.9L844.407 516L851.659 516L858.912 516L858.912 513.9Z" fill="black" stroke="black"/>
<path d="M828.981 513.9L831.053 511.8L835.197 511.8L835.197 495L831.053 495L808.259 495L808.259 498.15L808.259 511.8L812.404 511.8L814.476 513.9L814.476 516L821.728 516L828.981 516L828.981 513.9Z" fill="black" stroke="black"/>
<path d="M799.05 513.9L801.122 511.8L805.266 511.8L805.266 495L801.122 495L778.328 495L778.328 498.15L778.328 511.8L782.472 511.8L784.545 513.9L784.545 516L791.797 516L799.05 516L799.05 513.9Z" fill="black" stroke="black"/>
<path d="M769.118 513.9L771.191 511.8L775.335 511.8L775.335 495L771.191 495L748.397 495L748.397 498.15L748.397 511.8L752.541 511.8L754.613 513.9L754.613 516L761.866 516L769.118 516L769.118 513.9Z" fill="black" stroke="black"/>
<path d="M739.187 513.9L741.259 511.8L745.404 511.8L745.404 495L741.259 495L718.466 495L718.466 498.15L718.466 511.8L722.61 511.8L724.682 513.9L724.682 516L731.935 516L739.187 516L739.187 513.9Z" fill="black" stroke="black"/>
<path d="M700.277 513.9L702.349 511.8L706.493 511.8L706.493 495L702.349 495L679.555 495L679.555 498.15L679.555 511.8L683.699 511.8L685.772 513.9L685.772 516L693.024 516L700.277 516L700.277 513.9Z" fill="black" stroke="black"/>
<path d="M670.345 513.9L672.418 511.8L676.562 511.8L676.562 495L672.418 495L649.624 495L649.624 498.15L649.624 511.8L653.768 511.8L655.84 513.9L655.84 516L663.093 516L670.345 516L670.345 513.9Z" fill="black" stroke="black"/>
<path d="M640.414 513.9L642.486 511.8L646.631 511.8L646.631 495L642.486 495L619.693 495L619.693 498.15L619.693 511.8L623.837 511.8L625.909 513.9L625.909 516L633.162 516L640.414 516L640.414 513.9Z" fill="black" stroke="black"/>
<path d="M610.483 513.9L612.555 511.8L616.7 511.8L616.7 495L612.555 495L589.762 495L589.762 498.15L589.762 511.8L593.906 511.8L595.978 513.9L595.978 516L603.231 516L610.483 516L610.483 513.9Z" fill="black" stroke="black"/>
<path d="M580.552 513.9L582.624 511.8L586.768 511.8L586.768 495L582.624 495L559.83 495L559.83 498.15L559.83 511.8L563.975 511.8L566.047 513.9L566.047 516L573.299 516L580.552 516L580.552 513.9Z" fill="black" stroke="black"/>
<path d="M550.621 513.9L552.693 511.8L556.837 511.8L556.837 495L552.693 495L529.899 495L529.899 498.15L529.899 511.8L534.043 511.8L536.116 513.9L536.116 516L543.368 516L550.621 516L550.621 513.9Z" fill="black" stroke="black"/>
<path d="M724.682 469.1L722.61 471.2H718.466V488H722.61H745.404V484.85V471.2H741.259L739.187 469.1V467H731.935H724.682V469.1Z" fill="black" stroke="black"/>
<path d="M754.613 469.1L752.541 471.2H748.397V488H752.541H775.335V484.85V471.2H771.19L769.118 469.1V467H761.866H754.613V469.1Z" fill="black" stroke="black"/>
<path d="M784.544 469.1L782.472 471.2H778.328V488H782.472H805.266V484.85V471.2H801.122L799.05 469.1V467H791.797H784.544V469.1Z" fill="black" stroke="black"/>
<path d="M814.476 469.1L812.403 471.2H808.259V488H812.403H835.197V484.85V471.2H831.053L828.981 469.1V467H821.728H814.476V469.1Z" fill="black" stroke="black"/>
<path d="M844.407 469.1L842.335 471.2H838.19V488H842.335H865.129V484.85V471.2H860.984L858.912 469.1V467H851.659H844.407V469.1Z" fill="black" stroke="black"/>
<path d="M874.338 469.1L872.266 471.2H868.122V488H872.266H895.06V484.85V471.2H890.915L888.843 469.1V467H881.591H874.338V469.1Z" fill="black" stroke="black"/>
<path d="M536.116 469.1L534.043 471.2H529.899V488H534.043H556.837V484.85V471.2H552.693L550.621 469.1V467H543.368H536.116V469.1Z" fill="black" stroke="black"/>
<path d="M566.047 469.1L563.975 471.2H559.83V488H563.975H586.768V484.85V471.2H582.624L580.552 469.1V467H573.299H566.047V469.1Z" fill="black" stroke="black"/>
<path d="M595.978 469.1L593.906 471.2H589.761V488H593.906H616.7V484.85V471.2H612.555L610.483 469.1V467H603.231H595.978V469.1Z" fill="black" stroke="black"/>
<path d="M625.909 469.1L623.837 471.2H619.693V488H623.837H646.631V484.85V471.2H642.486L640.414 469.1V467H633.162H625.909V469.1Z" fill="black" stroke="black"/>
<path d="M655.84 469.1L653.768 471.2H649.624V488H653.768H676.562V484.85V471.2H672.418L670.345 469.1V467H663.093H655.84V469.1Z" fill="black" stroke="black"/>
<path d="M685.772 469.1L683.699 471.2H679.555V488H683.699H706.493V484.85V471.2H702.349L700.277 469.1V467H693.024H685.772V469.1Z" fill="black" stroke="black"/>
<ellipse cx="503.959" cy="523" rx="12.9702" ry="13" fill="#FA9696"/>
<path d="M504.921 517H507.196V524.607C507.196 525.31 507.038 525.92 506.723 526.439C506.411 526.957 505.977 527.357 505.42 527.637C504.864 527.918 504.218 528.058 503.481 528.058C502.825 528.058 502.23 527.943 501.695 527.712C501.164 527.478 500.742 527.123 500.43 526.647C500.118 526.167 499.964 525.565 499.968 524.841H502.258C502.265 525.129 502.324 525.375 502.434 525.581C502.547 525.784 502.701 525.94 502.896 526.05C503.095 526.157 503.328 526.21 503.598 526.21C503.881 526.21 504.12 526.15 504.315 526.029C504.513 525.904 504.664 525.723 504.767 525.485C504.87 525.248 504.921 524.955 504.921 524.607V517Z" fill="black"/>
<rect x="51.5" y="450.5" width="434.998" height="90" fill="#D9D9D9" stroke="black"/>
<path d="M452.846 513.9L454.918 511.8L459.062 511.8L459.062 495L454.918 495L432.124 495L432.124 498.15L432.124 511.8L436.268 511.8L438.34 513.9L438.34 516L445.593 516L452.846 516L452.846 513.9Z" fill="black" stroke="black"/>
<path d="M422.914 513.9L424.987 511.8L429.131 511.8L429.131 495L424.987 495L402.193 495L402.193 498.15L402.193 511.8L406.337 511.8L408.409 513.9L408.409 516L415.662 516L422.914 516L422.914 513.9Z" fill="black" stroke="black"/>
<path d="M392.983 513.9L395.055 511.8L399.199 511.8L399.199 495L395.055 495L372.261 495L372.261 498.15L372.261 511.8L376.406 511.8L378.478 513.9L378.478 516L385.73 516L392.983 516L392.983 513.9Z" fill="black" stroke="black"/>
<path d="M363.052 513.9L365.124 511.8L369.268 511.8L369.268 495L365.124 495L342.33 495L342.33 498.15L342.33 511.8L346.475 511.8L348.547 513.9L348.547 516L355.799 516L363.052 516L363.052 513.9Z" fill="black" stroke="black"/>
<path d="M333.121 513.9L335.193 511.8L339.337 511.8L339.337 495L335.193 495L312.399 495L312.399 498.15L312.399 511.8L316.543 511.8L318.616 513.9L318.616 516L325.868 516L333.121 516L333.121 513.9Z" fill="black" stroke="black"/>
<path d="M303.19 513.9L305.262 511.8L309.406 511.8L309.406 495L305.262 495L282.468 495L282.468 498.15L282.468 511.8L286.612 511.8L288.684 513.9L288.684 516L295.937 516L303.19 516L303.19 513.9Z" fill="black" stroke="black"/>
<path d="M264.279 513.9L266.351 511.8L270.495 511.8L270.495 495L266.351 495L243.557 495L243.557 498.15L243.557 511.8L247.702 511.8L249.774 513.9L249.774 516L257.026 516L264.279 516L264.279 513.9Z" fill="black" stroke="black"/>
<path d="M234.348 513.9L236.42 511.8L240.564 511.8L240.564 495L236.42 495L213.626 495L213.626 498.15L213.626 511.8L217.77 511.8L219.843 513.9L219.843 516L227.095 516L234.348 516L234.348 513.9Z" fill="black" stroke="black"/>
<path d="M204.417 513.9L206.489 511.8L210.633 511.8L210.633 495L206.489 495L183.695 495L183.695 498.15L183.695 511.8L187.839 511.8L189.911 513.9L189.911 516L197.164 516L204.417 516L204.417 513.9Z" fill="black" stroke="black"/>
<path d="M174.485 513.9L176.558 511.8L180.702 511.8L180.702 495L176.558 495L153.764 495L153.764 498.15L153.764 511.8L157.908 511.8L159.98 513.9L159.98 516L167.233 516L174.485 516L174.485 513.9Z" fill="black" stroke="black"/>
<path d="M144.554 513.9L146.626 511.8L150.771 511.8L150.771 495L146.626 495L123.833 495L123.833 498.15L123.833 511.8L127.977 511.8L130.049 513.9L130.049 516L137.302 516L144.554 516L144.554 513.9Z" fill="black" stroke="black"/>
<path d="M114.623 513.9L116.695 511.8L120.839 511.8L120.839 495L116.695 495L93.9013 495L93.9013 498.15L93.9013 511.8L98.0456 511.8L100.118 513.9L100.118 516L107.37 516L114.623 516L114.623 513.9Z" fill="black" stroke="black"/>
<path d="M288.684 469.1L286.612 471.2H282.468V488H286.612H309.406V484.85V471.2H305.262L303.189 469.1V467H295.937H288.684V469.1Z" fill="black" stroke="black"/>
<path d="M318.616 469.1L316.543 471.2H312.399V488H316.543H339.337V484.85V471.2H335.193L333.121 469.1V467H325.868H318.616V469.1Z" fill="black" stroke="black"/>
<path d="M348.547 469.1L346.475 471.2H342.33V488H346.475H369.268V484.85V471.2H365.124L363.052 469.1V467H355.799H348.547V469.1Z" fill="black" stroke="black"/>
<path d="M378.478 469.1L376.406 471.2H372.261V488H376.406H399.2V484.85V471.2H395.055L392.983 469.1V467H385.731H378.478V469.1Z" fill="black" stroke="black"/>
<path d="M408.409 469.1L406.337 471.2H402.193V488H406.337H429.131V484.85V471.2H424.986L422.914 469.1V467H415.662H408.409V469.1Z" fill="black" stroke="black"/>
<path d="M438.34 469.1L436.268 471.2H432.124V488H436.268H459.062V484.85V471.2H454.918L452.845 469.1V467H445.593H438.34V469.1Z" fill="black" stroke="black"/>
<path d="M100.118 469.1L98.0457 471.2H93.9014V488H98.0457H120.839V484.85V471.2H116.695L114.623 469.1V467H107.37H100.118V469.1Z" fill="black" stroke="black"/>
<path d="M130.049 469.1L127.977 471.2H123.833V488H127.977H150.771V484.85V471.2H146.626L144.554 469.1V467H137.302H130.049V469.1Z" fill="black" stroke="black"/>
<path d="M159.98 469.1L157.908 471.2H153.764V488H157.908H180.702V484.85V471.2H176.557L174.485 469.1V467H167.233H159.98V469.1Z" fill="black" stroke="black"/>
<path d="M189.912 469.1L187.839 471.2H183.695V488H187.839H210.633V484.85V471.2H206.489L204.417 469.1V467H197.164H189.912V469.1Z" fill="black" stroke="black"/>
<path d="M219.843 469.1L217.771 471.2H213.626V488H217.771H240.564V484.85V471.2H236.42L234.348 469.1V467H227.095H219.843V469.1Z" fill="black" stroke="black"/>
<path d="M249.774 469.1L247.702 471.2H243.557V488H247.702H270.495V484.85V471.2H266.351L264.279 469.1V467H257.026H249.774V469.1Z" fill="black" stroke="black"/>
<ellipse cx="67.9609" cy="523" rx="12.9702" ry="13" fill="#FA9696"/>
<path d="M69.2646 518V528.909H66.9634V518H69.2646Z" fill="black"/>
<rect x="487.498" y="360.5" width="433.002" height="89" fill="#D9D9D9" stroke="black"/>
<path d="M888.843 423.9L890.915 421.8L895.06 421.8L895.06 405L890.915 405L868.121 405L868.121 408.15L868.121 421.8L872.266 421.8L874.338 423.9L874.338 426L881.591 426L888.843 426L888.843 423.9Z" fill="black" stroke="black"/>
<path d="M858.912 423.9L860.984 421.8L865.128 421.8L865.128 405L860.984 405L838.19 405L838.19 408.15L838.19 421.8L842.335 421.8L844.407 423.9L844.407 426L851.659 426L858.912 426L858.912 423.9Z" fill="black" stroke="black"/>
<path d="M828.981 423.9L831.053 421.8L835.197 421.8L835.197 405L831.053 405L808.259 405L808.259 408.15L808.259 421.8L812.404 421.8L814.476 423.9L814.476 426L821.728 426L828.981 426L828.981 423.9Z" fill="black" stroke="black"/>
<path d="M799.05 423.9L801.122 421.8L805.266 421.8L805.266 405L801.122 405L778.328 405L778.328 408.15L778.328 421.8L782.472 421.8L784.545 423.9L784.545 426L791.797 426L799.05 426L799.05 423.9Z" fill="black" stroke="black"/>
<path d="M769.118 423.9L771.191 421.8L775.335 421.8L775.335 405L771.191 405L748.397 405L748.397 408.15L748.397 421.8L752.541 421.8L754.613 423.9L754.613 426L761.866 426L769.118 426L769.118 423.9Z" fill="black" stroke="black"/>
<path d="M739.187 423.9L741.259 421.8L745.404 421.8L745.404 405L741.259 405L718.466 405L718.466 408.15L718.466 421.8L722.61 421.8L724.682 423.9L724.682 426L731.935 426L739.187 426L739.187 423.9Z" fill="black" stroke="black"/>
<path d="M700.277 423.9L702.349 421.8L706.493 421.8L706.493 405L702.349 405L679.555 405L679.555 408.15L679.555 421.8L683.699 421.8L685.772 423.9L685.772 426L693.024 426L700.277 426L700.277 423.9Z" fill="black" stroke="black"/>
<path d="M670.345 423.9L672.418 421.8L676.562 421.8L676.562 405L672.418 405L649.624 405L649.624 408.15L649.624 421.8L653.768 421.8L655.84 423.9L655.84 426L663.093 426L670.345 426L670.345 423.9Z" fill="black" stroke="black"/>
<path d="M640.414 423.9L642.486 421.8L646.631 421.8L646.631 405L642.486 405L619.693 405L619.693 408.15L619.693 421.8L623.837 421.8L625.909 423.9L625.909 426L633.162 426L640.414 426L640.414 423.9Z" fill="black" stroke="black"/>
<path d="M610.483 423.9L612.555 421.8L616.7 421.8L616.7 405L612.555 405L589.762 405L589.762 408.15L589.762 421.8L593.906 421.8L595.978 423.9L595.978 426L603.231 426L610.483 426L610.483 423.9Z" fill="black" stroke="black"/>
<path d="M580.552 423.9L582.624 421.8L586.768 421.8L586.768 405L582.624 405L559.83 405L559.83 408.15L559.83 421.8L563.975 421.8L566.047 423.9L566.047 426L573.299 426L580.552 426L580.552 423.9Z" fill="black" stroke="black"/>
<path d="M550.621 423.9L552.693 421.8L556.837 421.8L556.837 405L552.693 405L529.899 405L529.899 408.15L529.899 421.8L534.043 421.8L536.116 423.9L536.116 426L543.368 426L550.621 426L550.621 423.9Z" fill="black" stroke="black"/>
<path d="M724.682 379.1L722.61 381.2H718.466V398H722.61H745.404V394.85V381.2H741.259L739.187 379.1V377H731.935H724.682V379.1Z" fill="black" stroke="black"/>
<path d="M754.613 379.1L752.541 381.2H748.397V398H752.541H775.335V394.85V381.2H771.19L769.118 379.1V377H761.866H754.613V379.1Z" fill="black" stroke="black"/>
<path d="M784.544 379.1L782.472 381.2H778.328V398H782.472H805.266V394.85V381.2H801.122L799.05 379.1V377H791.797H784.544V379.1Z" fill="black" stroke="black"/>
<path d="M814.476 379.1L812.403 381.2H808.259V398H812.403H835.197V394.85V381.2H831.053L828.981 379.1V377H821.728H814.476V379.1Z" fill="black" stroke="black"/>
<path d="M844.407 379.1L842.335 381.2H838.19V398H842.335H865.129V394.85V381.2H860.984L858.912 379.1V377H851.659H844.407V379.1Z" fill="black" stroke="black"/>
<path d="M874.338 379.1L872.266 381.2H868.122V398H872.266H895.06V394.85V381.2H890.915L888.843 379.1V377H881.591H874.338V379.1Z" fill="black" stroke="black"/>
<path d="M536.116 379.1L534.043 381.2H529.899V398H534.043H556.837V394.85V381.2H552.693L550.621 379.1V377H543.368H536.116V379.1Z" fill="black" stroke="black"/>
<path d="M566.047 379.1L563.975 381.2H559.83V398H563.975H586.768V394.85V381.2H582.624L580.552 379.1V377H573.299H566.047V379.1Z" fill="black" stroke="black"/>
<path d="M595.978 379.1L593.906 381.2H589.761V398H593.906H616.7V394.85V381.2H612.555L610.483 379.1V377H603.231H595.978V379.1Z" fill="black" stroke="black"/>
<path d="M625.909 379.1L623.837 381.2H619.693V398H623.837H646.631V394.85V381.2H642.486L640.414 379.1V377H633.162H625.909V379.1Z" fill="black" stroke="black"/>
<path d="M655.84 379.1L653.768 381.2H649.624V398H653.768H676.562V394.85V381.2H672.418L670.345 379.1V377H663.093H655.84V379.1Z" fill="black" stroke="black"/>
<path d="M685.772 379.1L683.699 381.2H679.555V398H683.699H706.493V394.85V381.2H702.349L700.277 379.1V377H693.024H685.772V379.1Z" fill="black" stroke="black"/>
<ellipse cx="503.959" cy="433" rx="12.9702" ry="13" fill="#FA9696"/>
<path d="M498.97 438.909V428H501.271V432.501H505.943V428H508.239V438.909H505.943V434.403H501.271V438.909H498.97Z" fill="black"/>
<rect x="51.5" y="360.5" width="434.998" height="89" fill="#D9D9D9" stroke="black"/>
<path d="M452.846 423.9L454.918 421.8L459.062 421.8L459.062 405L454.918 405L432.124 405L432.124 408.15L432.124 421.8L436.268 421.8L438.34 423.9L438.34 426L445.593 426L452.846 426L452.846 423.9Z" fill="black" stroke="black"/>
<path d="M422.914 423.9L424.987 421.8L429.131 421.8L429.131 405L424.987 405L402.193 405L402.193 408.15L402.193 421.8L406.337 421.8L408.409 423.9L408.409 426L415.662 426L422.914 426L422.914 423.9Z" fill="black" stroke="black"/>
<path d="M392.983 423.9L395.055 421.8L399.199 421.8L399.199 405L395.055 405L372.261 405L372.261 408.15L372.261 421.8L376.406 421.8L378.478 423.9L378.478 426L385.73 426L392.983 426L392.983 423.9Z" fill="black" stroke="black"/>
<path d="M363.052 423.9L365.124 421.8L369.268 421.8L369.268 405L365.124 405L342.33 405L342.33 408.15L342.33 421.8L346.475 421.8L348.547 423.9L348.547 426L355.799 426L363.052 426L363.052 423.9Z" fill="black" stroke="black"/>
<path d="M333.121 423.9L335.193 421.8L339.337 421.8L339.337 405L335.193 405L312.399 405L312.399 408.15L312.399 421.8L316.543 421.8L318.616 423.9L318.616 426L325.868 426L333.121 426L333.121 423.9Z" fill="black" stroke="black"/>
<path d="M303.19 423.9L305.262 421.8L309.406 421.8L309.406 405L305.262 405L282.468 405L282.468 408.15L282.468 421.8L286.612 421.8L288.684 423.9L288.684 426L295.937 426L303.19 426L303.19 423.9Z" fill="black" stroke="black"/>
<path d="M264.279 423.9L266.351 421.8L270.495 421.8L270.495 405L266.351 405L243.557 405L243.557 408.15L243.557 421.8L247.702 421.8L249.774 423.9L249.774 426L257.026 426L264.279 426L264.279 423.9Z" fill="black" stroke="black"/>
<path d="M234.348 423.9L236.42 421.8L240.564 421.8L240.564 405L236.42 405L213.626 405L213.626 408.15L213.626 421.8L217.77 421.8L219.843 423.9L219.843 426L227.095 426L234.348 426L234.348 423.9Z" fill="black" stroke="black"/>
<path d="M204.417 423.9L206.489 421.8L210.633 421.8L210.633 405L206.489 405L183.695 405L183.695 408.15L183.695 421.8L187.839 421.8L189.911 423.9L189.911 426L197.164 426L204.417 426L204.417 423.9Z" fill="black" stroke="black"/>
<path d="M174.485 423.9L176.558 421.8L180.702 421.8L180.702 405L176.558 405L153.764 405L153.764 408.15L153.764 421.8L157.908 421.8L159.98 423.9L159.98 426L167.233 426L174.485 426L174.485 423.9Z" fill="black" stroke="black"/>
<path d="M144.554 423.9L146.626 421.8L150.771 421.8L150.771 405L146.626 405L123.833 405L123.833 408.15L123.833 421.8L127.977 421.8L130.049 423.9L130.049 426L137.302 426L144.554 426L144.554 423.9Z" fill="black" stroke="black"/>
<path d="M114.623 423.9L116.695 421.8L120.839 421.8L120.839 405L116.695 405L93.9013 405L93.9013 408.15L93.9013 421.8L98.0456 421.8L100.118 423.9L100.118 426L107.37 426L114.623 426L114.623 423.9Z" fill="black" stroke="black"/>
<path d="M288.684 379.1L286.612 381.2H282.468V398H286.612H309.406V394.85V381.2H305.262L303.189 379.1V377H295.937H288.684V379.1Z" fill="black" stroke="black"/>
<path d="M318.616 379.1L316.543 381.2H312.399V398H316.543H339.337V394.85V381.2H335.193L333.121 379.1V377H325.868H318.616V379.1Z" fill="black" stroke="black"/>
<path d="M348.547 379.1L346.475 381.2H342.33V398H346.475H369.268V394.85V381.2H365.124L363.052 379.1V377H355.799H348.547V379.1Z" fill="black" stroke="black"/>
<path d="M378.478 379.1L376.406 381.2H372.261V398H376.406H399.2V394.85V381.2H395.055L392.983 379.1V377H385.731H378.478V379.1Z" fill="black" stroke="black"/>
<path d="M408.409 379.1L406.337 381.2H402.193V398H406.337H429.131V394.85V381.2H424.986L422.914 379.1V377H415.662H408.409V379.1Z" fill="black" stroke="black"/>
<path d="M438.34 379.1L436.268 381.2H432.124V398H436.268H459.062V394.85V381.2H454.918L452.845 379.1V377H445.593H438.34V379.1Z" fill="black" stroke="black"/>
<path d="M100.118 379.1L98.0457 381.2H93.9014V398H98.0457H120.839V394.85V381.2H116.695L114.623 379.1V377H107.37H100.118V379.1Z" fill="black" stroke="black"/>
<path d="M130.049 379.1L127.977 381.2H123.833V398H127.977H150.771V394.85V381.2H146.626L144.554 379.1V377H137.302H130.049V379.1Z" fill="black" stroke="black"/>
<path d="M159.98 379.1L157.908 381.2H153.764V398H157.908H180.702V394.85V381.2H176.557L174.485 379.1V377H167.233H159.98V379.1Z" fill="black" stroke="black"/>
<path d="M189.912 379.1L187.839 381.2H183.695V398H187.839H210.633V394.85V381.2H206.489L204.417 379.1V377H197.164H189.912V379.1Z" fill="black" stroke="black"/>
<path d="M219.843 379.1L217.771 381.2H213.626V398H217.771H240.564V394.85V381.2H236.42L234.348 379.1V377H227.095H219.843V379.1Z" fill="black" stroke="black"/>
<path d="M249.774 379.1L247.702 381.2H243.557V398H247.702H270.495V394.85V381.2H266.351L264.279 379.1V377H257.026H249.774V379.1Z" fill="black" stroke="black"/>
<ellipse cx="67.9609" cy="433" rx="12.9702" ry="13" fill="#FA9696"/>
<path d="M70.3808 430.617C70.3064 430.358 70.2019 430.129 70.0673 429.93C69.9326 429.728 69.7679 429.557 69.573 429.419C69.3817 429.277 69.162 429.168 68.914 429.094C68.6695 429.019 68.3985 428.982 68.1009 428.982C67.5446 428.982 67.0557 429.12 66.6341 429.397C66.216 429.674 65.8901 430.077 65.6562 430.606C65.4224 431.132 65.3055 431.775 65.3055 432.535C65.3055 433.295 65.4206 433.941 65.6509 434.474C65.8812 435.006 66.2072 435.413 66.6288 435.693C67.0504 435.97 67.5482 436.109 68.1222 436.109C68.643 436.109 69.0876 436.017 69.4561 435.832C69.8281 435.644 70.1115 435.379 70.3064 435.038C70.5048 434.697 70.604 434.294 70.604 433.829L71.0717 433.898H68.2656V432.162H72.8202V433.536C72.8202 434.495 72.6182 435.319 72.2143 436.008C71.8104 436.693 71.2542 437.222 70.5456 437.595C69.837 437.964 69.0256 438.149 68.1115 438.149C67.0911 438.149 66.1948 437.924 65.4224 437.473C64.65 437.018 64.0477 436.373 63.6155 435.539C63.1868 434.701 62.9724 433.707 62.9724 432.556C62.9724 431.672 63.1 430.883 63.3551 430.191C63.6137 429.495 63.9751 428.905 64.4392 428.422C64.9033 427.94 65.4436 427.572 66.0601 427.32C66.6766 427.068 67.3445 426.942 68.0637 426.942C68.6802 426.942 69.2541 427.032 69.7856 427.213C70.317 427.391 70.7883 427.643 71.1992 427.97C71.6138 428.296 71.9521 428.685 72.2143 429.136C72.4765 429.584 72.6448 430.077 72.7192 430.617H70.3808Z" fill="black"/>
<rect x="487.498" y="270.5" width="433.002" height="89" fill="#D9D9D9" stroke="black"/>
<path d="M888.843 333.9L890.915 331.8L895.06 331.8L895.06 315L890.915 315L868.121 315L868.121 318.15L868.121 331.8L872.266 331.8L874.338 333.9L874.338 336L881.591 336L888.843 336L888.843 333.9Z" fill="black" stroke="black"/>
<path d="M858.912 333.9L860.984 331.8L865.128 331.8L865.128 315L860.984 315L838.19 315L838.19 318.15L838.19 331.8L842.335 331.8L844.407 333.9L844.407 336L851.659 336L858.912 336L858.912 333.9Z" fill="black" stroke="black"/>
<path d="M828.981 333.9L831.053 331.8L835.197 331.8L835.197 315L831.053 315L808.259 315L808.259 318.15L808.259 331.8L812.404 331.8L814.476 333.9L814.476 336L821.728 336L828.981 336L828.981 333.9Z" fill="black" stroke="black"/>
<path d="M799.05 333.9L801.122 331.8L805.266 331.8L805.266 315L801.122 315L778.328 315L778.328 318.15L778.328 331.8L782.472 331.8L784.545 333.9L784.545 336L791.797 336L799.05 336L799.05 333.9Z" fill="black" stroke="black"/>
<path d="M769.118 333.9L771.191 331.8L775.335 331.8L775.335 315L771.191 315L748.397 315L748.397 318.15L748.397 331.8L752.541 331.8L754.613 333.9L754.613 336L761.866 336L769.118 336L769.118 333.9Z" fill="black" stroke="black"/>
<path d="M739.187 333.9L741.259 331.8L745.404 331.8L745.404 315L741.259 315L718.466 315L718.466 318.15L718.466 331.8L722.61 331.8L724.682 333.9L724.682 336L731.935 336L739.187 336L739.187 333.9Z" fill="black" stroke="black"/>
<path d="M700.277 333.9L702.349 331.8L706.493 331.8L706.493 315L702.349 315L679.555 315L679.555 318.15L679.555 331.8L683.699 331.8L685.772 333.9L685.772 336L693.024 336L700.277 336L700.277 333.9Z" fill="black" stroke="black"/>
<path d="M670.345 333.9L672.418 331.8L676.562 331.8L676.562 315L672.418 315L649.624 315L649.624 318.15L649.624 331.8L653.768 331.8L655.84 333.9L655.84 336L663.093 336L670.345 336L670.345 333.9Z" fill="black" stroke="black"/>
<path d="M640.414 333.9L642.486 331.8L646.631 331.8L646.631 315L642.486 315L619.693 315L619.693 318.15L619.693 331.8L623.837 331.8L625.909 333.9L625.909 336L633.162 336L640.414 336L640.414 333.9Z" fill="black" stroke="black"/>
<path d="M610.483 333.9L612.555 331.8L616.7 331.8L616.7 315L612.555 315L589.762 315L589.762 318.15L589.762 331.8L593.906 331.8L595.978 333.9L595.978 336L603.231 336L610.483 336L610.483 333.9Z" fill="black" stroke="black"/>
<path d="M580.552 333.9L582.624 331.8L586.768 331.8L586.768 315L582.624 315L559.83 315L559.83 318.15L559.83 331.8L563.975 331.8L566.047 333.9L566.047 336L573.299 336L580.552 336L580.552 333.9Z" fill="black" stroke="black"/>
<path d="M550.621 333.9L552.693 331.8L556.837 331.8L556.837 315L552.693 315L529.899 315L529.899 318.15L529.899 331.8L534.043 331.8L536.116 333.9L536.116 336L543.368 336L550.621 336L550.621 333.9Z" fill="black" stroke="black"/>
<path d="M724.682 289.1L722.61 291.2H718.466V308H722.61H745.404V304.85V291.2H741.259L739.187 289.1V287H731.935H724.682V289.1Z" fill="black" stroke="black"/>
<path d="M754.613 289.1L752.541 291.2H748.397V308H752.541H775.335V304.85V291.2H771.19L769.118 289.1V287H761.866H754.613V289.1Z" fill="black" stroke="black"/>
<path d="M784.544 289.1L782.472 291.2H778.328V308H782.472H805.266V304.85V291.2H801.122L799.05 289.1V287H791.797H784.544V289.1Z" fill="black" stroke="black"/>
<path d="M814.476 289.1L812.403 291.2H808.259V308H812.403H835.197V304.85V291.2H831.053L828.981 289.1V287H821.728H814.476V289.1Z" fill="black" stroke="black"/>
<path d="M844.407 289.1L842.335 291.2H838.19V308H842.335H865.129V304.85V291.2H860.984L858.912 289.1V287H851.659H844.407V289.1Z" fill="black" stroke="black"/>
<path d="M874.338 289.1L872.266 291.2H868.122V308H872.266H895.06V304.85V291.2H890.915L888.843 289.1V287H881.591H874.338V289.1Z" fill="black" stroke="black"/>
<path d="M536.116 289.1L534.043 291.2H529.899V308H534.043H556.837V304.85V291.2H552.693L550.621 289.1V287H543.368H536.116V289.1Z" fill="black" stroke="black"/>
<path d="M566.047 289.1L563.975 291.2H559.83V308H563.975H586.768V304.85V291.2H582.624L580.552 289.1V287H573.299H566.047V289.1Z" fill="black" stroke="black"/>
<path d="M595.978 289.1L593.906 291.2H589.761V308H593.906H616.7V304.85V291.2H612.555L610.483 289.1V287H603.231H595.978V289.1Z" fill="black" stroke="black"/>
<path d="M625.909 289.1L623.837 291.2H619.693V308H623.837H646.631V304.85V291.2H642.486L640.414 289.1V287H633.162H625.909V289.1Z" fill="black" stroke="black"/>
<path d="M655.84 289.1L653.768 291.2H649.624V308H653.768H676.562V304.85V291.2H672.418L670.345 289.1V287H663.093H655.84V289.1Z" fill="black" stroke="black"/>
<path d="M685.772 289.1L683.699 291.2H679.555V308H683.699H706.493V304.85V291.2H702.349L700.277 289.1V287H693.024H685.772V289.1Z" fill="black" stroke="black"/>
<ellipse cx="503.959" cy="343" rx="12.9702" ry="13" fill="#FA9696"/>
<path d="M499.968 348.909V338H507.174V339.902H502.269V342.501H506.696V344.403H502.269V348.909H499.968Z" fill="black"/>
<rect x="51.5" y="270.5" width="434.998" height="89" fill="#D9D9D9" stroke="black"/>
<path d="M452.846 333.9L454.918 331.8L459.062 331.8L459.062 315L454.918 315L432.124 315L432.124 318.15L432.124 331.8L436.268 331.8L438.34 333.9L438.34 336L445.593 336L452.846 336L452.846 333.9Z" fill="black" stroke="black"/>
<path d="M422.914 333.9L424.987 331.8L429.131 331.8L429.131 315L424.987 315L402.193 315L402.193 318.15L402.193 331.8L406.337 331.8L408.409 333.9L408.409 336L415.662 336L422.914 336L422.914 333.9Z" fill="black" stroke="black"/>
<path d="M392.983 333.9L395.055 331.8L399.199 331.8L399.199 315L395.055 315L372.261 315L372.261 318.15L372.261 331.8L376.406 331.8L378.478 333.9L378.478 336L385.73 336L392.983 336L392.983 333.9Z" fill="black" stroke="black"/>
<path d="M363.052 333.9L365.124 331.8L369.268 331.8L369.268 315L365.124 315L342.33 315L342.33 318.15L342.33 331.8L346.475 331.8L348.547 333.9L348.547 336L355.799 336L363.052 336L363.052 333.9Z" fill="black" stroke="black"/>
<path d="M333.121 333.9L335.193 331.8L339.337 331.8L339.337 315L335.193 315L312.399 315L312.399 318.15L312.399 331.8L316.543 331.8L318.616 333.9L318.616 336L325.868 336L333.121 336L333.121 333.9Z" fill="black" stroke="black"/>
<path d="M303.19 333.9L305.262 331.8L309.406 331.8L309.406 315L305.262 315L282.468 315L282.468 318.15L282.468 331.8L286.612 331.8L288.684 333.9L288.684 336L295.937 336L303.19 336L303.19 333.9Z" fill="black" stroke="black"/>
<path d="M264.279 333.9L266.351 331.8L270.495 331.8L270.495 315L266.351 315L243.557 315L243.557 318.15L243.557 331.8L247.702 331.8L249.774 333.9L249.774 336L257.026 336L264.279 336L264.279 333.9Z" fill="black" stroke="black"/>
<path d="M234.348 333.9L236.42 331.8L240.564 331.8L240.564 315L236.42 315L213.626 315L213.626 318.15L213.626 331.8L217.77 331.8L219.843 333.9L219.843 336L227.095 336L234.348 336L234.348 333.9Z" fill="black" stroke="black"/>
<path d="M204.417 333.9L206.489 331.8L210.633 331.8L210.633 315L206.489 315L183.695 315L183.695 318.15L183.695 331.8L187.839 331.8L189.911 333.9L189.911 336L197.164 336L204.417 336L204.417 333.9Z" fill="black" stroke="black"/>
<path d="M174.485 333.9L176.558 331.8L180.702 331.8L180.702 315L176.558 315L153.764 315L153.764 318.15L153.764 331.8L157.908 331.8L159.98 333.9L159.98 336L167.233 336L174.485 336L174.485 333.9Z" fill="black" stroke="black"/>
<path d="M144.554 333.9L146.626 331.8L150.771 331.8L150.771 315L146.626 315L123.833 315L123.833 318.15L123.833 331.8L127.977 331.8L130.049 333.9L130.049 336L137.302 336L144.554 336L144.554 333.9Z" fill="black" stroke="black"/>
<path d="M114.623 333.9L116.695 331.8L120.839 331.8L120.839 315L116.695 315L93.9013 315L93.9013 318.15L93.9013 331.8L98.0456 331.8L100.118 333.9L100.118 336L107.37 336L114.623 336L114.623 333.9Z" fill="black" stroke="black"/>
<path d="M288.684 289.1L286.612 291.2H282.468V308H286.612H309.406V304.85V291.2H305.262L303.189 289.1V287H295.937H288.684V289.1Z" fill="black" stroke="black"/>
<path d="M318.616 289.1L316.543 291.2H312.399V308H316.543H339.337V304.85V291.2H335.193L333.121 289.1V287H325.868H318.616V289.1Z" fill="black" stroke="black"/>
<path d="M348.547 289.1L346.475 291.2H342.33V308H346.475H369.268V304.85V291.2H365.124L363.052 289.1V287H355.799H348.547V289.1Z" fill="black" stroke="black"/>
<path d="M378.478 289.1L376.406 291.2H372.261V308H376.406H399.2V304.85V291.2H395.055L392.983 289.1V287H385.731H378.478V289.1Z" fill="black" stroke="black"/>
<path d="M408.409 289.1L406.337 291.2H402.193V308H406.337H429.131V304.85V291.2H424.986L422.914 289.1V287H415.662H408.409V289.1Z" fill="black" stroke="black"/>
<path d="M438.34 289.1L436.268 291.2H432.124V308H436.268H459.062V304.85V291.2H454.918L452.845 289.1V287H445.593H438.34V289.1Z" fill="black" stroke="black"/>
<path d="M100.118 289.1L98.0457 291.2H93.9014V308H98.0457H120.839V304.85V291.2H116.695L114.623 289.1V287H107.37H100.118V289.1Z" fill="black" stroke="black"/>
<path d="M130.049 289.1L127.977 291.2H123.833V308H127.977H150.771V304.85V291.2H146.626L144.554 289.1V287H137.302H130.049V289.1Z" fill="black" stroke="black"/>
<path d="M159.98 289.1L157.908 291.2H153.764V308H157.908H180.702V304.85V291.2H176.557L174.485 289.1V287H167.233H159.98V289.1Z" fill="black" stroke="black"/>
<path d="M189.912 289.1L187.839 291.2H183.695V308H187.839H210.633V304.85V291.2H206.489L204.417 289.1V287H197.164H189.912V289.1Z" fill="black" stroke="black"/>
<path d="M219.843 289.1L217.771 291.2H213.626V308H217.771H240.564V304.85V291.2H236.42L234.348 289.1V287H227.095H219.843V289.1Z" fill="black" stroke="black"/>
<path d="M249.774 289.1L247.702 291.2H243.557V308H247.702H270.495V304.85V291.2H266.351L264.279 289.1V287H257.026H249.774V289.1Z" fill="black" stroke="black"/>
<ellipse cx="67.9609" cy="343" rx="12.9702" ry="13" fill="#FA9696"/>
<path d="M63.9702 348V337.091H71.3042V338.992H66.2714V341.592H70.9269V343.494H66.2714V346.098H71.3255V348H63.9702Z" fill="black"/>
<rect x="487.498" y="179.5" width="433.002" height="90" fill="#D9D9D9" stroke="black"/>
<path d="M888.843 242.9L890.915 240.8L895.06 240.8L895.06 224L890.915 224L868.121 224L868.121 227.15L868.121 240.8L872.266 240.8L874.338 242.9L874.338 245L881.591 245L888.843 245L888.843 242.9Z" fill="black" stroke="black"/>
<path d="M858.912 242.9L860.984 240.8L865.128 240.8L865.128 224L860.984 224L838.19 224L838.19 227.15L838.19 240.8L842.335 240.8L844.407 242.9L844.407 245L851.659 245L858.912 245L858.912 242.9Z" fill="black" stroke="black"/>
<path d="M828.981 242.9L831.053 240.8L835.197 240.8L835.197 224L831.053 224L808.259 224L808.259 227.15L808.259 240.8L812.404 240.8L814.476 242.9L814.476 245L821.728 245L828.981 245L828.981 242.9Z" fill="black" stroke="black"/>
<path d="M799.05 242.9L801.122 240.8L805.266 240.8L805.266 224L801.122 224L778.328 224L778.328 227.15L778.328 240.8L782.472 240.8L784.545 242.9L784.545 245L791.797 245L799.05 245L799.05 242.9Z" fill="black" stroke="black"/>
<path d="M769.118 242.9L771.191 240.8L775.335 240.8L775.335 224L771.191 224L748.397 224L748.397 227.15L748.397 240.8L752.541 240.8L754.613 242.9L754.613 245L761.866 245L769.118 245L769.118 242.9Z" fill="black" stroke="black"/>
<path d="M739.187 242.9L741.259 240.8L745.404 240.8L745.404 224L741.259 224L718.466 224L718.466 227.15L718.466 240.8L722.61 240.8L724.682 242.9L724.682 245L731.935 245L739.187 245L739.187 242.9Z" fill="black" stroke="black"/>
<path d="M700.277 242.9L702.349 240.8L706.493 240.8L706.493 224L702.349 224L679.555 224L679.555 227.15L679.555 240.8L683.699 240.8L685.772 242.9L685.772 245L693.024 245L700.277 245L700.277 242.9Z" fill="black" stroke="black"/>
<path d="M670.345 242.9L672.418 240.8L676.562 240.8L676.562 224L672.418 224L649.624 224L649.624 227.15L649.624 240.8L653.768 240.8L655.84 242.9L655.84 245L663.093 245L670.345 245L670.345 242.9Z" fill="black" stroke="black"/>
<path d="M640.414 242.9L642.486 240.8L646.631 240.8L646.631 224L642.486 224L619.693 224L619.693 227.15L619.693 240.8L623.837 240.8L625.909 242.9L625.909 245L633.162 245L640.414 245L640.414 242.9Z" fill="black" stroke="black"/>
<path d="M610.483 242.9L612.555 240.8L616.7 240.8L616.7 224L612.555 224L589.762 224L589.762 227.15L589.762 240.8L593.906 240.8L595.978 242.9L595.978 245L603.231 245L610.483 245L610.483 242.9Z" fill="black" stroke="black"/>
<path d="M580.552 242.9L582.624 240.8L586.768 240.8L586.768 224L582.624 224L559.83 224L559.83 227.15L559.83 240.8L563.975 240.8L566.047 242.9L566.047 245L573.299 245L580.552 245L580.552 242.9Z" fill="black" stroke="black"/>
<path d="M550.621 242.9L552.693 240.8L556.837 240.8L556.837 224L552.693 224L529.899 224L529.899 227.15L529.899 240.8L534.043 240.8L536.116 242.9L536.116 245L543.368 245L550.621 245L550.621 242.9Z" fill="black" stroke="black"/>
<path d="M724.682 198.1L722.61 200.2H718.466V217H722.61H745.404V213.85V200.2H741.259L739.187 198.1V196H731.935H724.682V198.1Z" fill="black" stroke="black"/>
<path d="M754.613 198.1L752.541 200.2H748.397V217H752.541H775.335V213.85V200.2H771.19L769.118 198.1V196H761.866H754.613V198.1Z" fill="black" stroke="black"/>
<path d="M784.544 198.1L782.472 200.2H778.328V217H782.472H805.266V213.85V200.2H801.122L799.05 198.1V196H791.797H784.544V198.1Z" fill="black" stroke="black"/>
<path d="M814.476 198.1L812.403 200.2H808.259V217H812.403H835.197V213.85V200.2H831.053L828.981 198.1V196H821.728H814.476V198.1Z" fill="black" stroke="black"/>
<path d="M844.407 198.1L842.335 200.2H838.19V217H842.335H865.129V213.85V200.2H860.984L858.912 198.1V196H851.659H844.407V198.1Z" fill="black" stroke="black"/>
<path d="M874.338 198.1L872.266 200.2H868.122V217H872.266H895.06V213.85V200.2H890.915L888.843 198.1V196H881.591H874.338V198.1Z" fill="black" stroke="black"/>
<path d="M536.116 198.1L534.043 200.2H529.899V217H534.043H556.837V213.85V200.2H552.693L550.621 198.1V196H543.368H536.116V198.1Z" fill="black" stroke="black"/>
<path d="M566.047 198.1L563.975 200.2H559.83V217H563.975H586.768V213.85V200.2H582.624L580.552 198.1V196H573.299H566.047V198.1Z" fill="black" stroke="black"/>
<path d="M595.978 198.1L593.906 200.2H589.761V217H593.906H616.7V213.85V200.2H612.555L610.483 198.1V196H603.231H595.978V198.1Z" fill="black" stroke="black"/>
<path d="M625.909 198.1L623.837 200.2H619.693V217H623.837H646.631V213.85V200.2H642.486L640.414 198.1V196H633.162H625.909V198.1Z" fill="black" stroke="black"/>
<path d="M655.84 198.1L653.768 200.2H649.624V217H653.768H676.562V213.85V200.2H672.418L670.345 198.1V196H663.093H655.84V198.1Z" fill="black" stroke="black"/>
<path d="M685.772 198.1L683.699 200.2H679.555V217H683.699H706.493V213.85V200.2H702.349L700.277 198.1V196H693.024H685.772V198.1Z" fill="black" stroke="black"/>
<ellipse cx="503.959" cy="252" rx="12.9702" ry="13" fill="#FA9696"/>
<path d="M502.829 257H498.97V246.091H502.86C503.955 246.091 504.898 246.309 505.688 246.746C506.478 247.179 507.085 247.802 507.511 248.616C507.939 249.429 508.154 250.402 508.154 251.535C508.154 252.671 507.939 253.648 507.511 254.464C507.085 255.281 506.474 255.908 505.677 256.345C504.883 256.782 503.934 257 502.829 257ZM501.271 255.024H502.733C503.413 255.024 503.985 254.903 504.449 254.661C504.917 254.416 505.268 254.038 505.502 253.527C505.739 253.012 505.858 252.348 505.858 251.535C505.858 250.729 505.739 250.07 505.502 249.559C505.268 249.047 504.919 248.671 504.455 248.429C503.991 248.188 503.418 248.067 502.738 248.067H501.271V255.024Z" fill="black"/>
<rect x="51.5" y="179.5" width="434.998" height="90" fill="#D9D9D9" stroke="black"/>
<path d="M452.846 242.9L454.918 240.8L459.062 240.8L459.062 224L454.918 224L432.124 224L432.124 227.15L432.124 240.8L436.268 240.8L438.34 242.9L438.34 245L445.593 245L452.846 245L452.846 242.9Z" fill="black" stroke="black"/>
<path d="M422.914 242.9L424.987 240.8L429.131 240.8L429.131 224L424.987 224L402.193 224L402.193 227.15L402.193 240.8L406.337 240.8L408.409 242.9L408.409 245L415.662 245L422.914 245L422.914 242.9Z" fill="black" stroke="black"/>
<path d="M392.983 242.9L395.055 240.8L399.199 240.8L399.199 224L395.055 224L372.261 224L372.261 227.15L372.261 240.8L376.406 240.8L378.478 242.9L378.478 245L385.73 245L392.983 245L392.983 242.9Z" fill="black" stroke="black"/>
<path d="M363.052 242.9L365.124 240.8L369.268 240.8L369.268 224L365.124 224L342.33 224L342.33 227.15L342.33 240.8L346.475 240.8L348.547 242.9L348.547 245L355.799 245L363.052 245L363.052 242.9Z" fill="black" stroke="black"/>
<path d="M333.121 242.9L335.193 240.8L339.337 240.8L339.337 224L335.193 224L312.399 224L312.399 227.15L312.399 240.8L316.543 240.8L318.616 242.9L318.616 245L325.868 245L333.121 245L333.121 242.9Z" fill="black" stroke="black"/>
<path d="M303.19 242.9L305.262 240.8L309.406 240.8L309.406 224L305.262 224L282.468 224L282.468 227.15L282.468 240.8L286.612 240.8L288.684 242.9L288.684 245L295.937 245L303.19 245L303.19 242.9Z" fill="black" stroke="black"/>
<path d="M264.279 242.9L266.351 240.8L270.495 240.8L270.495 224L266.351 224L243.557 224L243.557 227.15L243.557 240.8L247.702 240.8L249.774 242.9L249.774 245L257.026 245L264.279 245L264.279 242.9Z" fill="black" stroke="black"/>
<path d="M234.348 242.9L236.42 240.8L240.564 240.8L240.564 224L236.42 224L213.626 224L213.626 227.15L213.626 240.8L217.77 240.8L219.843 242.9L219.843 245L227.095 245L234.348 245L234.348 242.9Z" fill="black" stroke="black"/>
<path d="M204.417 242.9L206.489 240.8L210.633 240.8L210.633 224L206.489 224L183.695 224L183.695 227.15L183.695 240.8L187.839 240.8L189.911 242.9L189.911 245L197.164 245L204.417 245L204.417 242.9Z" fill="black" stroke="black"/>
<path d="M174.485 242.9L176.558 240.8L180.702 240.8L180.702 224L176.558 224L153.764 224L153.764 227.15L153.764 240.8L157.908 240.8L159.98 242.9L159.98 245L167.233 245L174.485 245L174.485 242.9Z" fill="black" stroke="black"/>
<path d="M144.554 242.9L146.626 240.8L150.771 240.8L150.771 224L146.626 224L123.833 224L123.833 227.15L123.833 240.8L127.977 240.8L130.049 242.9L130.049 245L137.302 245L144.554 245L144.554 242.9Z" fill="black" stroke="black"/>
<path d="M114.623 242.9L116.695 240.8L120.839 240.8L120.839 224L116.695 224L93.9013 224L93.9013 227.15L93.9013 240.8L98.0456 240.8L100.118 242.9L100.118 245L107.37 245L114.623 245L114.623 242.9Z" fill="black" stroke="black"/>
<path d="M288.684 198.1L286.612 200.2H282.468V217H286.612H309.406V213.85V200.2H305.262L303.189 198.1V196H295.937H288.684V198.1Z" fill="black" stroke="black"/>
<path d="M318.616 198.1L316.543 200.2H312.399V217H316.543H339.337V213.85V200.2H335.193L333.121 198.1V196H325.868H318.616V198.1Z" fill="black" stroke="black"/>
<path d="M348.547 198.1L346.475 200.2H342.33V217H346.475H369.268V213.85V200.2H365.124L363.052 198.1V196H355.799H348.547V198.1Z" fill="black" stroke="black"/>
<path d="M378.478 198.1L376.406 200.2H372.261V217H376.406H399.2V213.85V200.2H395.055L392.983 198.1V196H385.731H378.478V198.1Z" fill="black" stroke="black"/>
<path d="M408.409 198.1L406.337 200.2H402.193V217H406.337H429.131V213.85V200.2H424.986L422.914 198.1V196H415.662H408.409V198.1Z" fill="black" stroke="black"/>
<path d="M438.34 198.1L436.268 200.2H432.124V217H436.268H459.062V213.85V200.2H454.918L452.845 198.1V196H445.593H438.34V198.1Z" fill="black" stroke="black"/>
<path d="M100.118 198.1L98.0457 200.2H93.9014V217H98.0457H120.839V213.85V200.2H116.695L114.623 198.1V196H107.37H100.118V198.1Z" fill="black" stroke="black"/>
<path d="M130.049 198.1L127.977 200.2H123.833V217H127.977H150.771V213.85V200.2H146.626L144.554 198.1V196H137.302H130.049V198.1Z" fill="black" stroke="black"/>
<path d="M159.98 198.1L157.908 200.2H153.764V217H157.908H180.702V213.85V200.2H176.557L174.485 198.1V196H167.233H159.98V198.1Z" fill="black" stroke="black"/>
<path d="M189.912 198.1L187.839 200.2H183.695V217H187.839H210.633V213.85V200.2H206.489L204.417 198.1V196H197.164H189.912V198.1Z" fill="black" stroke="black"/>
<path d="M219.843 198.1L217.771 200.2H213.626V217H217.771H240.564V213.85V200.2H236.42L234.348 198.1V196H227.095H219.843V198.1Z" fill="black" stroke="black"/>
<path d="M249.774 198.1L247.702 200.2H243.557V217H247.702H270.495V213.85V200.2H266.351L264.279 198.1V196H257.026H249.774V198.1Z" fill="black" stroke="black"/>
<ellipse cx="67.9609" cy="252" rx="12.9702" ry="13" fill="#FA9696"/>
<path d="M72.767 249.91H70.4393C70.3968 249.608 70.3099 249.34 70.1789 249.106C70.0478 248.868 69.8795 248.665 69.674 248.498C69.4685 248.332 69.2311 248.204 68.9618 248.115C68.6961 248.026 68.4074 247.982 68.0956 247.982C67.5322 247.982 67.0415 248.122 66.6235 248.403C66.2054 248.68 65.8812 249.084 65.6509 249.617C65.4206 250.146 65.3055 250.789 65.3055 251.545C65.3055 252.323 65.4206 252.976 65.6509 253.506C65.8848 254.035 66.2107 254.434 66.6288 254.704C67.0469 254.974 67.5305 255.109 68.0796 255.109C68.3879 255.109 68.6731 255.068 68.9353 254.986C69.201 254.905 69.4366 254.786 69.6421 254.63C69.8476 254.47 70.0177 254.276 70.1523 254.049C70.2905 253.822 70.3861 253.562 70.4393 253.271L72.767 253.282C72.7068 253.783 72.5562 254.266 72.3153 254.731C72.0779 255.192 71.7573 255.606 71.3534 255.972C70.953 256.334 70.4747 256.622 69.9184 256.835C69.3657 257.044 68.7404 257.149 68.0424 257.149C67.0717 257.149 66.2036 256.929 65.4383 256.489C64.6766 256.048 64.0743 255.411 63.6314 254.576C63.1921 253.742 62.9724 252.731 62.9724 251.545C62.9724 250.356 63.1956 249.344 63.642 248.509C64.0885 247.675 64.6943 247.039 65.4596 246.602C66.2249 246.162 67.0858 245.942 68.0424 245.942C68.6731 245.942 69.2577 246.03 69.7962 246.208C70.3383 246.386 70.8184 246.645 71.2364 246.986C71.6545 247.323 71.9946 247.737 72.2568 248.227C72.5225 248.717 72.6926 249.278 72.767 249.91Z" fill="black"/>
<rect x="487.498" y="89.5" width="433.002" height="89" fill="#D9D9D9" stroke="black"/>
<path d="M888.843 152.9L890.915 150.8L895.06 150.8L895.06 134L890.915 134L868.121 134L868.121 137.15L868.121 150.8L872.266 150.8L874.338 152.9L874.338 155L881.591 155L888.843 155L888.843 152.9Z" fill="black" stroke="black"/>
<path d="M858.912 152.9L860.984 150.8L865.128 150.8L865.128 134L860.984 134L838.19 134L838.19 137.15L838.19 150.8L842.335 150.8L844.407 152.9L844.407 155L851.659 155L858.912 155L858.912 152.9Z" fill="black" stroke="black"/>
<path d="M828.981 152.9L831.053 150.8L835.197 150.8L835.197 134L831.053 134L808.259 134L808.259 137.15L808.259 150.8L812.404 150.8L814.476 152.9L814.476 155L821.728 155L828.981 155L828.981 152.9Z" fill="black" stroke="black"/>
<path d="M799.05 152.9L801.122 150.8L805.266 150.8L805.266 134L801.122 134L778.328 134L778.328 137.15L778.328 150.8L782.472 150.8L784.545 152.9L784.545 155L791.797 155L799.05 155L799.05 152.9Z" fill="black" stroke="black"/>
<path d="M769.118 152.9L771.191 150.8L775.335 150.8L775.335 134L771.191 134L748.397 134L748.397 137.15L748.397 150.8L752.541 150.8L754.613 152.9L754.613 155L761.866 155L769.118 155L769.118 152.9Z" fill="black" stroke="black"/>
<path d="M739.187 152.9L741.259 150.8L745.404 150.8L745.404 134L741.259 134L718.466 134L718.466 137.15L718.466 150.8L722.61 150.8L724.682 152.9L724.682 155L731.935 155L739.187 155L739.187 152.9Z" fill="black" stroke="black"/>
<path d="M700.277 152.9L702.349 150.8L706.493 150.8L706.493 134L702.349 134L679.555 134L679.555 137.15L679.555 150.8L683.699 150.8L685.772 152.9L685.772 155L693.024 155L700.277 155L700.277 152.9Z" fill="black" stroke="black"/>
<path d="M670.345 152.9L672.418 150.8L676.562 150.8L676.562 134L672.418 134L649.624 134L649.624 137.15L649.624 150.8L653.768 150.8L655.84 152.9L655.84 155L663.093 155L670.345 155L670.345 152.9Z" fill="black" stroke="black"/>
<path d="M640.414 152.9L642.486 150.8L646.631 150.8L646.631 134L642.486 134L619.693 134L619.693 137.15L619.693 150.8L623.837 150.8L625.909 152.9L625.909 155L633.162 155L640.414 155L640.414 152.9Z" fill="black" stroke="black"/>
<path d="M610.483 152.9L612.555 150.8L616.7 150.8L616.7 134L612.555 134L589.762 134L589.762 137.15L589.762 150.8L593.906 150.8L595.978 152.9L595.978 155L603.231 155L610.483 155L610.483 152.9Z" fill="black" stroke="black"/>
<path d="M580.552 152.9L582.624 150.8L586.768 150.8L586.768 134L582.624 134L559.83 134L559.83 137.15L559.83 150.8L563.975 150.8L566.047 152.9L566.047 155L573.299 155L580.552 155L580.552 152.9Z" fill="black" stroke="black"/>
<path d="M550.621 152.9L552.693 150.8L556.837 150.8L556.837 134L552.693 134L529.899 134L529.899 137.15L529.899 150.8L534.043 150.8L536.116 152.9L536.116 155L543.368 155L550.621 155L550.621 152.9Z" fill="black" stroke="black"/>
<path d="M724.682 108.1L722.61 110.2H718.466V127H722.61H745.404V123.85V110.2H741.259L739.187 108.1V106H731.935H724.682V108.1Z" fill="black" stroke="black"/>
<path d="M754.613 108.1L752.541 110.2H748.397V127H752.541H775.335V123.85V110.2H771.19L769.118 108.1V106H761.866H754.613V108.1Z" fill="black" stroke="black"/>
<path d="M784.544 108.1L782.472 110.2H778.328V127H782.472H805.266V123.85V110.2H801.122L799.05 108.1V106H791.797H784.544V108.1Z" fill="black" stroke="black"/>
<path d="M814.476 108.1L812.403 110.2H808.259V127H812.403H835.197V123.85V110.2H831.053L828.981 108.1V106H821.728H814.476V108.1Z" fill="black" stroke="black"/>
<path d="M844.407 108.1L842.335 110.2H838.19V127H842.335H865.129V123.85V110.2H860.984L858.912 108.1V106H851.659H844.407V108.1Z" fill="black" stroke="black"/>
<path d="M874.338 108.1L872.266 110.2H868.122V127H872.266H895.06V123.85V110.2H890.915L888.843 108.1V106H881.591H874.338V108.1Z" fill="black" stroke="black"/>
<path d="M536.116 108.1L534.043 110.2H529.899V127H534.043H556.837V123.85V110.2H552.693L550.621 108.1V106H543.368H536.116V108.1Z" fill="black" stroke="black"/>
<path d="M566.047 108.1L563.975 110.2H559.83V127H563.975H586.768V123.85V110.2H582.624L580.552 108.1V106H573.299H566.047V108.1Z" fill="black" stroke="black"/>
<path d="M595.978 108.1L593.906 110.2H589.761V127H593.906H616.7V123.85V110.2H612.555L610.483 108.1V106H603.231H595.978V108.1Z" fill="black" stroke="black"/>
<path d="M625.909 108.1L623.837 110.2H619.693V127H623.837H646.631V123.85V110.2H642.486L640.414 108.1V106H633.162H625.909V108.1Z" fill="black" stroke="black"/>
<path d="M655.84 108.1L653.768 110.2H649.624V127H653.768H676.562V123.85V110.2H672.418L670.345 108.1V106H663.093H655.84V108.1Z" fill="black" stroke="black"/>
<path d="M685.772 108.1L683.699 110.2H679.555V127H683.699H706.493V123.85V110.2H702.349L700.277 108.1V106H693.024H685.772V108.1Z" fill="black" stroke="black"/>
<ellipse cx="503.959" cy="162" rx="12.9702" ry="13" fill="#FA9696"/>
<path d="M499.968 167V156.091H504.326C505.126 156.091 505.794 156.21 506.329 156.448C506.864 156.686 507.266 157.016 507.536 157.438C507.805 157.858 507.94 158.34 507.94 158.887C507.94 159.313 507.854 159.688 507.684 160.011C507.514 160.331 507.281 160.594 506.983 160.8C506.689 161.002 506.352 161.146 505.973 161.231V161.338C506.388 161.355 506.776 161.473 507.137 161.689C507.502 161.906 507.798 162.209 508.025 162.6C508.251 162.987 508.365 163.449 508.365 163.985C508.365 164.564 508.221 165.081 507.934 165.535C507.651 165.986 507.231 166.343 506.675 166.606C506.118 166.869 505.433 167 504.618 167H499.968ZM502.269 165.114H504.145C504.786 165.114 505.254 164.992 505.548 164.747C505.842 164.498 505.989 164.168 505.989 163.756C505.989 163.454 505.916 163.188 505.771 162.957C505.626 162.726 505.419 162.545 505.149 162.414C504.884 162.282 504.567 162.217 504.198 162.217H502.269V165.114ZM502.269 160.656H503.975C504.29 160.656 504.57 160.601 504.815 160.491C505.063 160.377 505.257 160.217 505.399 160.011C505.544 159.805 505.617 159.559 505.617 159.271C505.617 158.877 505.477 158.559 505.197 158.317C504.921 158.076 504.528 157.955 504.017 157.955H502.269V160.656Z" fill="black"/>
<rect x="51.5" y="89.5" width="434.998" height="89" fill="#D9D9D9" stroke="black"/>
<path d="M452.846 152.9L454.918 150.8L459.062 150.8L459.062 134L454.918 134L432.124 134L432.124 137.15L432.124 150.8L436.268 150.8L438.34 152.9L438.34 155L445.593 155L452.846 155L452.846 152.9Z" fill="black" stroke="black"/>
<path d="M422.914 152.9L424.987 150.8L429.131 150.8L429.131 134L424.987 134L402.193 134L402.193 137.15L402.193 150.8L406.337 150.8L408.409 152.9L408.409 155L415.662 155L422.914 155L422.914 152.9Z" fill="black" stroke="black"/>
<path d="M392.983 152.9L395.055 150.8L399.199 150.8L399.199 134L395.055 134L372.261 134L372.261 137.15L372.261 150.8L376.406 150.8L378.478 152.9L378.478 155L385.73 155L392.983 155L392.983 152.9Z" fill="black" stroke="black"/>
<path d="M363.052 152.9L365.124 150.8L369.268 150.8L369.268 134L365.124 134L342.33 134L342.33 137.15L342.33 150.8L346.475 150.8L348.547 152.9L348.547 155L355.799 155L363.052 155L363.052 152.9Z" fill="black" stroke="black"/>
<path d="M333.121 152.9L335.193 150.8L339.337 150.8L339.337 134L335.193 134L312.399 134L312.399 137.15L312.399 150.8L316.543 150.8L318.616 152.9L318.616 155L325.868 155L333.121 155L333.121 152.9Z" fill="black" stroke="black"/>
<path d="M303.19 152.9L305.262 150.8L309.406 150.8L309.406 134L305.262 134L282.468 134L282.468 137.15L282.468 150.8L286.612 150.8L288.684 152.9L288.684 155L295.937 155L303.19 155L303.19 152.9Z" fill="black" stroke="black"/>
<path d="M264.279 152.9L266.351 150.8L270.495 150.8L270.495 134L266.351 134L243.557 134L243.557 137.15L243.557 150.8L247.702 150.8L249.774 152.9L249.774 155L257.026 155L264.279 155L264.279 152.9Z" fill="black" stroke="black"/>
<path d="M234.348 152.9L236.42 150.8L240.564 150.8L240.564 134L236.42 134L213.626 134L213.626 137.15L213.626 150.8L217.77 150.8L219.843 152.9L219.843 155L227.095 155L234.348 155L234.348 152.9Z" fill="black" stroke="black"/>
<path d="M204.417 152.9L206.489 150.8L210.633 150.8L210.633 134L206.489 134L183.695 134L183.695 137.15L183.695 150.8L187.839 150.8L189.911 152.9L189.911 155L197.164 155L204.417 155L204.417 152.9Z" fill="black" stroke="black"/>
<path d="M174.485 152.9L176.558 150.8L180.702 150.8L180.702 134L176.558 134L153.764 134L153.764 137.15L153.764 150.8L157.908 150.8L159.98 152.9L159.98 155L167.233 155L174.485 155L174.485 152.9Z" fill="black" stroke="black"/>
<path d="M144.554 152.9L146.626 150.8L150.771 150.8L150.771 134L146.626 134L123.833 134L123.833 137.15L123.833 150.8L127.977 150.8L130.049 152.9L130.049 155L137.302 155L144.554 155L144.554 152.9Z" fill="black" stroke="black"/>
<path d="M114.623 152.9L116.695 150.8L120.839 150.8L120.839 134L116.695 134L93.9013 134L93.9013 137.15L93.9013 150.8L98.0456 150.8L100.118 152.9L100.118 155L107.37 155L114.623 155L114.623 152.9Z" fill="black" stroke="black"/>
<path d="M288.684 108.1L286.612 110.2H282.468V127H286.612H309.406V123.85V110.2H305.262L303.189 108.1V106H295.937H288.684V108.1Z" fill="black" stroke="black"/>
<path d="M318.616 108.1L316.543 110.2H312.399V127H316.543H339.337V123.85V110.2H335.193L333.121 108.1V106H325.868H318.616V108.1Z" fill="black" stroke="black"/>
<path d="M348.547 108.1L346.475 110.2H342.33V127H346.475H369.268V123.85V110.2H365.124L363.052 108.1V106H355.799H348.547V108.1Z" fill="black" stroke="black"/>
<path d="M378.478 108.1L376.406 110.2H372.261V127H376.406H399.2V123.85V110.2H395.055L392.983 108.1V106H385.731H378.478V108.1Z" fill="black" stroke="black"/>
<path d="M408.409 108.1L406.337 110.2H402.193V127H406.337H429.131V123.85V110.2H424.986L422.914 108.1V106H415.662H408.409V108.1Z" fill="black" stroke="black"/>
<path d="M438.34 108.1L436.268 110.2H432.124V127H436.268H459.062V123.85V110.2H454.918L452.845 108.1V106H445.593H438.34V108.1Z" fill="black" stroke="black"/>
<path d="M100.118 108.1L98.0457 110.2H93.9014V127H98.0457H120.839V123.85V110.2H116.695L114.623 108.1V106H107.37H100.118V108.1Z" fill="black" stroke="black"/>
<path d="M130.049 108.1L127.977 110.2H123.833V127H127.977H150.771V123.85V110.2H146.626L144.554 108.1V106H137.302H130.049V108.1Z" fill="black" stroke="black"/>
<path d="M159.98 108.1L157.908 110.2H153.764V127H157.908H180.702V123.85V110.2H176.557L174.485 108.1V106H167.233H159.98V108.1Z" fill="black" stroke="black"/>
<path d="M189.912 108.1L187.839 110.2H183.695V127H187.839H210.633V123.85V110.2H206.489L204.417 108.1V106H197.164H189.912V108.1Z" fill="black" stroke="black"/>
<path d="M219.843 108.1L217.771 110.2H213.626V127H217.771H240.564V123.85V110.2H236.42L234.348 108.1V106H227.095H219.843V108.1Z" fill="black" stroke="black"/>
<path d="M249.774 108.1L247.702 110.2H243.557V127H247.702H270.495V123.85V110.2H266.351L264.279 108.1V106H257.026H249.774V108.1Z" fill="black" stroke="black"/>
<ellipse cx="67.9609" cy="162" rx="12.9702" ry="13" fill="#FA9696"/>
<path d="M65.4383 167H62.9724L66.7298 156.091H69.6952L73.4473 167H70.9813L68.255 158.584H68.17L65.4383 167ZM65.2842 162.712H71.1089V164.513H65.2842V162.712Z" fill="black"/>
</svg>
