<svg width="1000" height="184" viewBox="0 0 1000 184" fill="none" xmlns="http://www.w3.org/2000/svg">
<rect width="1000" height="184" fill="#3F3F3F"/>
<rect x="49" width="902" height="100" fill="black"/>
<circle cx="176.074" cy="143.347" r="13.5" fill="black" stroke="black" stroke-width="10" stroke-linejoin="bevel"/>
<circle cx="111.074" cy="143.347" r="13.5" fill="black" stroke="black" stroke-width="10" stroke-linejoin="bevel"/>
<circle cx="241.074" cy="143.347" r="13.5" fill="black" stroke="black" stroke-width="10" stroke-linejoin="bevel"/>
<circle cx="306.074" cy="143.347" r="13.5" fill="black" stroke="black" stroke-width="10" stroke-linejoin="bevel"/>
<circle cx="371.074" cy="143.347" r="13.5" fill="black" stroke="black" stroke-width="10"/>
<circle cx="653.074" cy="143.347" r="13.5" fill="black" stroke="black" stroke-width="10" stroke-linejoin="bevel"/>
<circle cx="718.074" cy="143.347" r="13.5" fill="black" stroke="black" stroke-width="10" stroke-linejoin="bevel"/>
<circle cx="806.074" cy="143.347" r="13.5" fill="black" stroke="black" stroke-width="10" stroke-linejoin="bevel"/>
<circle cx="902.074" cy="143.347" r="12.5" fill="#D4D4D4" stroke="black" stroke-linejoin="bevel"/>
<circle cx="652.5" cy="49.5" r="12.5" fill="#3B3B3B" stroke="#D9D9D9" stroke-linejoin="bevel"/>
<circle cx="718.5" cy="49.5" r="12.5" fill="#3B3B3B" stroke="#D9D9D9" stroke-linejoin="bevel"/>
<rect opacity="0.62" x="797" y="41" width="7" height="7" fill="#59FF38"/>
<rect opacity="0.62" x="797" y="54" width="7" height="7" fill="#59FF38"/>
<rect opacity="0.62" x="895" y="41" width="7" height="7" fill="#59FF38"/>
<rect opacity="0.62" x="895" y="54" width="7" height="7" fill="#59FF38"/>
<rect x="456" y="48" width="16" height="5" fill="#59FF38"/>
<rect opacity="0.6" x="476" y="48" width="16" height="5" fill="#59FF38"/>
<rect opacity="0.62" x="496" y="48" width="16" height="5" fill="#59FF38"/>
<rect x="516" y="48" width="16" height="5" fill="#D9D9D9"/>
<rect x="536" y="48" width="16" height="5" fill="#D9D9D9"/>
<path d="M86 28.6406V27.1193H93.1676V28.6406H90.4957V35.8466H88.6719V28.6406H86Z" fill="white"/>
<path d="M101.969 31.483C101.969 32.4347 101.789 33.2443 101.428 33.9119C101.07 34.5795 100.582 35.0895 99.9624 35.4418C99.3459 35.7912 98.6527 35.9659 97.8828 35.9659C97.1072 35.9659 96.4112 35.7898 95.7947 35.4375C95.1783 35.0852 94.6911 34.5753 94.3331 33.9077C93.9751 33.2401 93.7962 32.4318 93.7962 31.483C93.7962 30.5313 93.9751 29.7216 94.3331 29.054C94.6911 28.3864 95.1783 27.8778 95.7947 27.5284C96.4112 27.1761 97.1072 27 97.8828 27C98.6527 27 99.3459 27.1761 99.9624 27.5284C100.582 27.8778 101.07 28.3864 101.428 29.054C101.789 29.7216 101.969 30.5313 101.969 31.483ZM100.099 31.483C100.099 30.8665 100.006 30.3466 99.8217 29.9233C99.6399 29.5 99.3828 29.179 99.0504 28.9602C98.718 28.7415 98.3288 28.6321 97.8828 28.6321C97.4368 28.6321 97.0476 28.7415 96.7152 28.9602C96.3828 29.179 96.1243 29.5 95.9396 29.9233C95.7578 30.3466 95.6669 30.8665 95.6669 31.483C95.6669 32.0994 95.7578 32.6193 95.9396 33.0426C96.1243 33.4659 96.3828 33.7869 96.7152 34.0057C97.0476 34.2244 97.4368 34.3338 97.8828 34.3338C98.3288 34.3338 98.718 34.2244 99.0504 34.0057C99.3828 33.7869 99.6399 33.4659 99.8217 33.0426C100.006 32.6193 100.099 32.0994 100.099 31.483Z" fill="white"/>
<path d="M104.348 35.8466H102.371L105.384 27.1193H107.762L110.77 35.8466H108.793L106.607 29.1136H106.539L104.348 35.8466ZM104.225 32.4162H108.895V33.8565H104.225V32.4162Z" fill="white"/>
</svg>
